<?xml version="1.0" encoding="UTF-8" standalone="no"?>
<svg
   xmlns:dc="http://purl.org/dc/elements/1.1/"
   xmlns:cc="http://creativecommons.org/ns#"
   xmlns:rdf="http://www.w3.org/1999/02/22-rdf-syntax-ns#"
   xmlns:svg="http://www.w3.org/2000/svg"
   xmlns="http://www.w3.org/2000/svg"
   xmlns:sodipodi="http://sodipodi.sourceforge.net/DTD/sodipodi-0.dtd"
   xmlns:inkscape="http://www.inkscape.org/namespaces/inkscape"
   version="1.0"
   width="24.000004"
   height="23.999998"
   viewBox="0 0 187.50003 187.49997"
   preserveAspectRatio="xMidYMid meet"
   id="svg8"
   sodipodi:docname="autumn.svg"
   inkscape:version="0.92.4 (5da689c313, 2019-01-14)">
  <metadata
     id="metadata14">
    <rdf:RDF>
      <cc:Work
         rdf:about="">
        <dc:format>image/svg+xml</dc:format>
        <dc:type
           rdf:resource="http://purl.org/dc/dcmitype/StillImage" />
        <dc:title></dc:title>
      </cc:Work>
    </rdf:RDF>
  </metadata>
  <defs
     id="defs12" />
  <sodipodi:namedview
     pagecolor="#ffffff"
     bordercolor="#666666"
     borderopacity="1"
     objecttolerance="10"
     gridtolerance="10"
     guidetolerance="10"
     inkscape:pageopacity="0"
     inkscape:pageshadow="2"
     inkscape:window-width="3696"
     inkscape:window-height="2115"
     id="namedview10"
     showgrid="false"
     fit-margin-top="2"
     fit-margin-left="2"
     fit-margin-right="2"
     fit-margin-bottom="2"
     inkscape:zoom="20.85965"
     inkscape:cx="3.7768285"
     inkscape:cy="-7.0430304"
     inkscape:window-x="131"
     inkscape:window-y="2147"
     inkscape:window-maximized="1"
     inkscape:current-layer="svg8" />
  <g
     id="layer101"
     style="fill:#9b4c2f;stroke:none"
     transform="matrix(0.01799438,0,0,0.01851352,-43.82508,-50.824652)">
    <path
       d="m 5660,11980 c -63,-33 -107,-50 -132,-50 -53,0 -71,-23 -66,-81 4,-34 14,-58 40,-90 31,-39 327,-472 353,-517 6,-9 77,-118 159,-242 393,-593 446,-674 442,-677 -2,-3 -17,2 -33,11 -16,8 -72,25 -124,38 -86,21 -116,23 -334,23 -250,-1 -295,-6 -490,-57 -110,-28 -238,-69 -250,-79 -5,-5 -16,-9 -24,-9 -33,0 -298,-132 -407,-203 -164,-106 -234,-167 -234,-205 0,-38 10,-48 54,-56 54,-10 174,-68 231,-111 54,-42 105,-92 105,-104 0,-11 -83,-80 -155,-128 -33,-22 -141,-87 -240,-144 -99,-56 -211,-125 -250,-152 -258,-183 -657,-591 -838,-857 -56,-82 -107,-161 -107,-165 0,-3 -14,-27 -31,-55 -35,-58 -34,-90 6,-116 20,-13 31,-14 56,-5 18,6 49,11 70,11 75,0 296,-39 364,-65 39,-15 81,-30 95,-34 49,-16 146,-73 183,-109 73,-70 81,-97 74,-257 -10,-210 -45,-328 -142,-465 -56,-79 -55,-92 8,-222 65,-134 90,-203 111,-317 34,-181 11,-321 -78,-461 -71,-113 -113,-169 -162,-217 -47,-46 -54,-57 -54,-92 0,-37 2,-41 33,-46 87,-16 338,47 532,135 11,5 54,23 95,40 151,62 228,109 442,264 75,55 156,108 180,117 54,22 118,24 165,4 53,-22 72,-42 103,-108 38,-78 47,-87 89,-87 33,0 41,7 103,83 64,79 153,181 242,277 23,25 70,79 105,120 77,92 181,200 192,200 9,0 50,-52 70,-90 8,-15 16,-77 20,-160 3,-74 12,-247 19,-385 14,-271 8,-492 -26,-857 -20,-205 -16,-241 25,-246 34,-5 63,5 95,33 41,35 139,80 280,127 104,34 133,40 208,40 77,0 94,-4 140,-29 29,-15 84,-57 122,-93 55,-52 77,-82 107,-145 21,-45 43,-102 48,-128 6,-25 17,-64 25,-84 8,-21 17,-49 20,-63 4,-19 20,-32 69,-53 135,-59 304,-181 382,-275 94,-115 255,-396 308,-537 22,-59 54,-148 61,-167 8,-25 72,-25 84,0 5,9 12,49 15,87 5,81 36,210 72,310 15,39 30,84 35,100 19,65 78,223 100,265 58,115 149,202 269,255 l 57,26 1,192 c 1,204 26,403 62,494 29,74 79,129 156,170 69,37 72,38 175,37 101,-1 109,-2 205,-43 55,-24 138,-68 185,-99 101,-68 116,-75 152,-67 27,6 28,8 28,76 0,59 -10,100 -75,291 -41,123 -95,277 -120,343 -25,66 -54,145 -64,175 -178,542 -238,900 -180,1085 15,51 31,78 69,117 l 49,51 74,-5 c 65,-4 85,-11 173,-58 54,-29 106,-58 114,-65 8,-7 47,-29 85,-50 39,-21 88,-48 110,-60 116,-66 340,-175 360,-175 24,0 55,28 55,51 0,8 27,54 60,101 99,142 208,225 352,266 99,29 340,31 469,5 176,-36 438,-16 565,42 64,30 148,93 168,125 24,42 14,88 -22,96 -168,35 -299,146 -359,304 -82,219 -82,376 -1,630 26,82 20,112 -30,144 -20,12 -75,47 -122,76 -121,75 -317,207 -370,248 -65,51 -169,161 -185,196 -7,17 -25,63 -40,101 -14,39 -33,86 -40,105 -36,91 -56,191 -56,289 0,92 2,106 28,152 27,51 117,141 160,162 25,11 39,60 26,92 -21,51 -197,187 -320,246 -68,33 -189,74 -244,83 -72,13 -356,36 -434,36 -126,0 -465,53 -575,90 -228,78 -276,109 -356,235 -36,57 -38,65 -39,141 0,70 4,87 29,135 31,58 112,149 133,149 14,0 27,39 21,66 -4,22 -54,50 -148,82 -109,37 -284,41 -525,13 -321,-39 -439,-79 -728,-248 -155,-92 -273,-137 -335,-129 -65,9 -119,41 -158,96 -31,43 -40,50 -70,50 -44,0 -85,-21 -142,-73 -71,-66 -172,-227 -216,-344 -71,-191 -102,-302 -112,-396 -3,-37 -9,-69 -13,-71 -4,-3 -18,19 -31,47 -103,223 -444,895 -475,938 -6,8 -21,34 -34,59 -14,25 -38,68 -56,95 -17,28 -47,75 -65,105 -164,271 -247,381 -291,379 -13,0 -67,-22 -119,-49 z"
       id="path2"
       inkscape:connector-curvature="0" />
  </g>
  <g
     id="layer102"
     style="fill:#ff5e00;stroke:none"
     transform="matrix(0.01799438,0,0,0.01851352,-43.82508,-50.824652)">
    <path
       d="m 8480,11519 c -298,-38 -422,-81 -703,-246 -155,-92 -273,-137 -335,-129 -65,9 -119,41 -158,96 -31,43 -40,50 -70,50 -44,0 -85,-21 -142,-73 -71,-66 -172,-227 -216,-344 -71,-191 -102,-302 -112,-396 -3,-37 -10,-70 -15,-72 -4,-3 -2,-23 6,-45 14,-39 96,-220 100,-220 1,0 42,18 91,41 224,104 593,229 630,215 8,-3 14,-14 14,-25 0,-15 -14,-26 -52,-42 -88,-37 -518,-260 -518,-269 0,-3 42,-23 93,-44 50,-22 178,-81 282,-132 200,-96 403,-191 520,-242 l 70,-31 110,19 c 61,11 166,35 235,55 503,144 1041,242 1070,195 14,-23 -6,-37 -73,-49 -134,-26 -297,-64 -407,-96 -63,-18 -160,-45 -215,-60 -55,-15 -145,-39 -200,-55 -55,-15 -151,-40 -212,-56 -62,-15 -113,-31 -113,-35 0,-4 12,-12 28,-17 28,-11 60,-24 622,-260 184,-77 432,-179 550,-227 336,-136 362,-147 590,-245 392,-169 520,-231 849,-414 82,-45 177,-125 150,-126 -33,0 -335,111 -568,209 -208,88 -603,252 -761,316 -400,163 -480,195 -485,195 -8,0 14,-37 121,-201 180,-277 360,-607 352,-647 -2,-9 -12,-18 -23,-20 -16,-2 -34,22 -89,113 -38,64 -150,227 -249,363 -99,136 -220,304 -268,373 l -88,125 -213,89 c -117,48 -260,110 -317,137 -57,26 -105,48 -106,48 -3,0 -124,56 -253,117 -29,14 -55,23 -58,20 -5,-4 22,-74 141,-372 111,-275 135,-368 100,-381 -22,-9 -42,12 -56,54 -6,20 -69,157 -141,305 -71,147 -148,313 -172,370 l -42,102 -79,40 c -44,22 -107,52 -140,67 -33,15 -125,57 -205,93 -118,54 -397,165 -415,165 -2,0 12,-35 32,-77 101,-222 256,-597 343,-833 75,-203 191,-591 311,-1034 32,-120 60,-219 61,-220 2,-1 65,-48 141,-105 l 137,-104 73,-7 c 83,-8 514,6 601,20 42,7 64,6 73,-1 23,-20 14,-38 -24,-48 -43,-11 -365,-49 -491,-58 -45,-3 -81,-9 -80,-13 2,-4 59,-57 128,-118 168,-147 497,-490 633,-659 96,-119 247,-350 247,-376 0,-25 -15,-37 -37,-30 -7,3 -45,48 -85,101 -271,365 -707,799 -1155,1150 -58,45 -108,80 -110,78 -3,-3 6,-53 20,-113 14,-59 53,-243 86,-408 33,-165 83,-408 111,-540 77,-357 125,-620 170,-912 39,-252 40,-271 40,-510 0,-142 -4,-243 -9,-237 -27,29 -81,252 -96,399 -7,66 -58,389 -111,705 -44,260 -183,942 -239,1165 -55,225 -188,667 -196,657 -4,-4 -44,-113 -90,-242 -45,-129 -97,-271 -116,-315 -43,-104 -48,-161 -35,-430 20,-383 20,-436 0,-449 -13,-8 -20,-8 -28,0 -10,10 -64,314 -86,479 l -6,50 -137,-275 c -145,-295 -192,-373 -219,-368 -31,6 -23,44 32,154 103,208 277,655 501,1289 31,88 71,200 89,249 l 33,88 -34,107 c -18,58 -52,171 -74,251 -126,449 -290,901 -451,1248 l -34,73 -96,-128 c -141,-189 -380,-533 -659,-950 l -129,-191 -10,-314 c -6,-172 -11,-441 -11,-598 0,-157 -4,-310 -7,-340 -6,-47 -10,-55 -29,-58 -23,-3 -23,-2 -23,120 -2,404 -28,928 -49,966 -5,9 -46,-46 -131,-180 -137,-214 -342,-541 -470,-748 -82,-132 -205,-321 -308,-469 -61,-89 -195,-238 -199,-224 -6,16 44,140 81,202 48,81 124,218 291,526 114,210 239,419 377,630 53,83 144,221 200,308 151,230 387,601 385,603 -3,3 -161,-31 -235,-51 -147,-38 -390,-123 -591,-207 -358,-150 -365,-152 -398,-149 -7,0 -13,11 -13,24 0,24 -4,21 255,157 160,84 231,116 470,212 165,67 584,208 616,208 22,0 52,44 286,420 77,124 170,272 207,330 36,58 66,110 66,117 0,15 -203,338 -234,371 -28,31 -90,58 -200,85 -82,20 -115,22 -331,22 -250,-1 -295,-6 -490,-57 -110,-28 -238,-69 -250,-79 -5,-5 -16,-9 -24,-9 -33,0 -298,-132 -407,-203 -164,-106 -234,-167 -234,-205 0,-38 10,-48 54,-56 54,-10 174,-68 231,-111 54,-42 105,-92 105,-104 0,-11 -83,-80 -155,-128 -33,-22 -141,-87 -240,-144 -99,-56 -211,-125 -250,-152 -258,-183 -657,-591 -838,-857 -56,-82 -107,-161 -107,-165 0,-3 -14,-27 -31,-55 -35,-58 -34,-90 6,-116 20,-13 31,-14 56,-5 18,6 49,11 70,11 75,0 296,-39 364,-65 39,-15 81,-30 95,-34 49,-16 146,-73 183,-109 73,-70 81,-97 74,-257 -10,-210 -45,-328 -142,-465 -56,-79 -55,-92 8,-222 65,-134 90,-203 111,-317 34,-181 11,-321 -78,-461 -71,-113 -113,-169 -162,-217 -47,-46 -54,-57 -54,-92 0,-37 2,-41 33,-46 87,-16 338,47 532,135 11,5 54,23 95,40 151,62 228,109 442,264 75,55 156,108 180,117 54,22 118,24 165,4 53,-22 72,-42 103,-108 38,-78 47,-87 89,-87 33,0 41,7 103,83 64,79 153,181 242,277 23,25 70,79 105,120 77,92 181,200 192,200 9,0 50,-52 70,-90 8,-15 16,-77 20,-160 3,-74 12,-247 19,-385 14,-271 8,-492 -26,-857 -20,-205 -16,-241 25,-246 34,-5 63,5 95,33 41,35 139,80 280,127 104,34 133,40 208,40 77,0 94,-4 140,-29 29,-15 84,-57 122,-93 55,-52 77,-82 107,-145 21,-45 43,-102 48,-128 6,-25 17,-64 25,-84 8,-21 17,-49 20,-63 4,-19 20,-32 69,-53 135,-59 304,-181 382,-275 94,-115 255,-396 308,-537 22,-59 54,-148 61,-167 4,-13 16,-18 40,-18 44,0 52,14 59,105 5,81 36,210 72,310 15,39 30,84 35,100 19,65 78,223 100,265 58,115 149,202 269,255 l 57,26 1,192 c 1,204 26,403 62,494 29,74 79,129 156,170 69,37 72,38 175,37 101,-1 109,-2 205,-43 55,-24 138,-68 185,-99 101,-68 116,-75 152,-67 27,6 28,8 28,76 0,59 -10,100 -75,291 -41,123 -95,277 -120,343 -25,66 -54,145 -64,175 -178,542 -238,900 -180,1085 15,51 31,78 69,117 l 49,51 74,-5 c 65,-4 85,-11 173,-58 54,-29 106,-58 114,-65 8,-7 47,-29 85,-50 39,-21 88,-48 110,-60 116,-66 340,-175 360,-175 24,0 55,28 55,51 0,8 27,54 60,101 99,142 208,225 352,266 99,29 340,31 469,5 176,-36 438,-16 565,42 64,30 148,93 168,125 24,42 14,88 -22,96 -168,35 -299,146 -359,304 -82,219 -82,376 -1,630 26,82 20,112 -30,144 -20,12 -75,47 -122,76 -121,75 -317,207 -370,248 -65,51 -169,161 -185,196 -7,17 -25,63 -40,101 -14,39 -33,86 -40,105 -36,91 -56,191 -56,289 0,92 2,106 28,152 27,51 117,141 160,162 25,11 39,60 26,92 -21,51 -197,187 -320,246 -68,33 -189,74 -244,83 -72,13 -356,36 -434,36 -126,0 -465,53 -575,90 -228,78 -276,109 -356,235 -36,57 -38,65 -39,141 0,70 4,87 29,135 31,58 112,149 133,149 14,0 27,39 21,66 -4,22 -54,50 -148,82 -67,23 -93,26 -235,28 -112,2 -206,-3 -315,-17 z"
       id="path5"
       inkscape:connector-curvature="0" />
  </g>
</svg>
