<?xml version="1.0" encoding="UTF-8" standalone="no"?>
<svg
   xmlns:dc="http://purl.org/dc/elements/1.1/"
   xmlns:cc="http://creativecommons.org/ns#"
   xmlns:rdf="http://www.w3.org/1999/02/22-rdf-syntax-ns#"
   xmlns:svg="http://www.w3.org/2000/svg"
   xmlns="http://www.w3.org/2000/svg"
   xmlns:sodipodi="http://sodipodi.sourceforge.net/DTD/sodipodi-0.dtd"
   xmlns:inkscape="http://www.inkscape.org/namespaces/inkscape"
   version="1.0"
   width="24.000002"
   height="23.999996"
   viewBox="0 0 187.50001 187.49997"
   preserveAspectRatio="xMidYMid meet"
   id="svg86"
   sodipodi:docname="bee.svg"
   inkscape:version="0.92.4 (5da689c313, 2019-01-14)">
  <metadata
     id="metadata92">
    <rdf:RDF>
      <cc:Work
         rdf:about="">
        <dc:format>image/svg+xml</dc:format>
        <dc:type
           rdf:resource="http://purl.org/dc/dcmitype/StillImage" />
        <dc:title></dc:title>
      </cc:Work>
    </rdf:RDF>
  </metadata>
  <defs
     id="defs90" />
  <sodipodi:namedview
     pagecolor="#ffffff"
     bordercolor="#666666"
     borderopacity="1"
     objecttolerance="10"
     gridtolerance="10"
     guidetolerance="10"
     inkscape:pageopacity="0"
     inkscape:pageshadow="2"
     inkscape:window-width="3696"
     inkscape:window-height="2115"
     id="namedview88"
     showgrid="false"
     fit-margin-top="2"
     fit-margin-right="2"
     fit-margin-bottom="2"
     fit-margin-left="2"
     inkscape:zoom="41.7193"
     inkscape:cx="6.6658429"
     inkscape:cy="11.076215"
     inkscape:window-x="131"
     inkscape:window-y="2147"
     inkscape:window-maximized="1"
     inkscape:current-layer="svg86" />
  <g
     id="layer101"
     transform="matrix(0.02263724,0,0,0.02163151,-71.144649,-76.01588)"
     style="fill:#000000;stroke:none">
    <path
       d="m 6419,11442 c -26,-9 -62,-28 -80,-41 -47,-32 -137,-148 -178,-229 -47,-94 -91,-237 -91,-300 0,-46 4,-58 29,-83 21,-21 39,-29 64,-29 30,0 40,-7 77,-55 45,-58 61,-84 110,-177 34,-65 61,-138 55,-149 -3,-4 -26,-10 -52,-14 -43,-6 -211,-47 -302,-74 -19,-6 -36,-10 -37,-8 -1,1 -20,40 -43,86 -48,97 -126,196 -205,261 l -55,45 52,29 c 64,37 204,175 241,238 34,59 66,169 66,228 0,46 -28,121 -58,153 -9,11 -39,31 -67,45 -42,22 -63,26 -135,26 -129,0 -193,-38 -256,-151 -48,-85 -82,-198 -99,-327 -20,-144 -19,-184 4,-226 18,-34 46,-50 113,-64 39,-9 170,-117 223,-184 25,-31 61,-87 81,-125 l 35,-67 -28,-11 c -15,-6 -72,-22 -125,-35 -117,-29 -294,-33 -374,-9 -27,8 -77,18 -110,21 -55,6 -64,4 -84,-16 -30,-30 -24,-92 19,-185 81,-172 98,-307 63,-480 -48,-233 -57,-323 -57,-555 0,-197 3,-238 22,-325 27,-120 52,-200 86,-277 l 25,-56 -21,-5 c -113,-25 -302,-95 -400,-148 -10,-5 -44,-24 -75,-40 -60,-33 -203,-125 -240,-156 -12,-10 -38,-31 -59,-48 -157,-126 -282,-259 -403,-427 -56,-79 -150,-231 -150,-243 0,-2 -13,-32 -30,-67 -93,-198 -151,-475 -134,-643 19,-201 65,-341 153,-469 36,-52 140,-154 191,-188 205,-136 488,-190 768,-149 51,8 94,12 97,10 2,-2 13,-36 23,-74 64,-225 173,-416 322,-566 140,-141 283,-220 485,-269 76,-19 109,-21 215,-17 278,10 505,114 721,327 195,193 332,439 409,733 7,26 15,47 19,47 3,0 19,-18 35,-39 40,-55 194,-206 276,-272 164,-131 374,-246 578,-316 29,-10 50,-23 48,-28 -10,-26 -36,-182 -52,-313 -11,-84 -22,-142 -29,-142 -21,0 -85,-62 -112,-108 -24,-40 -28,-58 -27,-122 0,-84 13,-117 71,-181 42,-46 108,-78 178,-86 39,-4 63,0 105,18 80,34 116,64 146,125 30,62 35,127 14,199 -19,68 -95,145 -165,167 -64,20 -64,25 -30,232 31,189 32,189 59,181 85,-25 186,-36 364,-42 l 202,-6 10,-36 c 5,-20 14,-65 19,-101 5,-36 21,-108 35,-160 14,-52 32,-121 40,-153 16,-57 16,-58 -9,-95 -57,-86 -70,-184 -34,-262 38,-84 100,-132 190,-149 118,-21 243,32 310,133 30,46 34,60 37,133 3,70 1,89 -17,124 -46,88 -134,140 -237,141 -34,0 -70,-3 -81,-6 -21,-7 -23,-2 -72,184 -23,89 -54,250 -49,256 4,4 119,28 208,44 25,4 63,15 85,23 22,8 72,24 110,37 183,58 474,228 635,369 155,136 295,303 392,466 44,73 138,278 166,360 128,376 130,808 5,1185 -31,93 -121,290 -171,375 -110,189 -354,453 -512,555 -12,8 -35,25 -50,38 -15,12 -30,22 -33,22 -3,0 -26,14 -52,31 -115,78 -398,193 -570,232 -206,47 -440,63 -650,44 l -90,-8 -48,108 c -26,59 -47,113 -47,118 0,25 122,120 335,260 69,46 203,115 221,115 7,0 34,-11 59,-25 64,-34 109,-40 169,-25 69,17 110,51 135,110 27,64 27,123 -3,186 -35,75 -80,106 -165,112 -112,8 -172,-23 -210,-108 -12,-26 -21,-67 -21,-95 v -51 l -107,-51 c -96,-46 -389,-238 -450,-296 -13,-11 -25,-19 -27,-16 -2,2 -29,47 -60,101 -31,53 -63,102 -71,108 -27,22 -16,44 58,116 94,93 102,97 158,78 95,-34 227,3 276,77 33,50 44,102 37,167 -8,64 -35,107 -94,146 -41,28 -51,30 -131,30 -78,-1 -91,-4 -135,-31 -86,-52 -127,-170 -90,-258 14,-33 14,-34 -24,-60 -22,-15 -62,-51 -89,-80 l -50,-53 -58,71 c -258,320 -605,534 -1033,639 -85,20 -119,23 -318,23 h -222 l -7,35 c -9,49 -83,206 -136,288 l -44,68 58,24 c 158,62 297,195 335,319 28,92 9,220 -41,274 -53,57 -161,73 -256,39 z"
       id="path2"
       inkscape:connector-curvature="0" />
  </g>
  <g
     id="layer102"
     transform="matrix(0.02263724,0,0,0.02163151,-71.144649,-76.01588)"
     style="fill:#9b4c2f;stroke:none">
    <path
       d="m 6419,11442 c -26,-9 -62,-28 -80,-41 -47,-32 -137,-148 -178,-229 -47,-94 -91,-237 -91,-300 0,-46 4,-58 29,-83 34,-34 56,-36 161,-13 271,59 469,248 470,447 0,66 -25,146 -55,180 -53,57 -161,73 -256,39 z"
       id="path5"
       inkscape:connector-curvature="0" />
    <path
       d="m 5735,11391 c -41,-11 -95,-39 -123,-65 -67,-61 -134,-236 -157,-410 -19,-141 -19,-180 2,-223 32,-69 98,-76 229,-25 110,42 256,169 319,276 33,57 65,168 65,226 0,46 -28,121 -58,153 -49,55 -194,90 -277,68 z"
       id="path7"
       inkscape:connector-curvature="0" />
    <path
       d="m 6540,10390 c -30,-5 -80,-11 -110,-14 -117,-11 -343,-67 -442,-110 -21,-9 -52,-18 -70,-20 -18,-3 -45,-9 -60,-15 -128,-49 -371,-67 -474,-36 -27,8 -77,18 -110,21 -55,6 -64,4 -84,-16 -30,-30 -24,-92 19,-185 81,-172 98,-307 63,-480 -48,-233 -57,-323 -57,-555 0,-197 3,-238 22,-325 27,-120 52,-200 86,-277 l 25,-56 -21,-5 c -113,-25 -302,-95 -400,-148 -10,-5 -44,-24 -75,-40 -60,-33 -203,-125 -240,-156 -12,-10 -38,-31 -59,-48 -157,-126 -282,-259 -403,-427 -56,-79 -150,-231 -150,-243 0,-2 -13,-32 -30,-67 -93,-198 -151,-475 -134,-643 19,-201 65,-341 153,-469 36,-52 140,-154 191,-188 205,-136 488,-190 768,-149 51,8 94,12 97,10 2,-2 13,-36 23,-74 64,-225 173,-416 322,-566 140,-141 283,-220 485,-269 76,-19 109,-21 215,-17 278,10 505,114 721,327 195,193 332,439 409,733 7,26 15,47 19,47 3,0 19,-18 35,-39 40,-55 194,-206 276,-272 164,-131 374,-246 577,-316 38,-12 52,-22 49,-33 -14,-50 -37,-184 -52,-307 -13,-105 -21,-143 -31,-143 -8,0 -36,-22 -63,-49 -49,-49 -80,-119 -80,-181 0,-91 65,-192 154,-237 126,-66 292,-12 352,115 30,64 35,125 14,197 -19,67 -96,144 -166,166 -62,19 -63,25 -34,207 31,199 36,215 63,208 85,-25 198,-38 372,-44 l 200,-7 13,-80 c 14,-83 48,-228 82,-353 l 20,-73 -25,-37 c -93,-137 -61,-300 75,-385 14,-8 50,-20 81,-26 119,-21 243,32 310,133 30,45 34,60 37,132 3,68 0,88 -18,124 -46,90 -132,141 -237,141 -35,0 -72,-2 -82,-6 -19,-6 -23,4 -70,185 -20,78 -51,227 -51,247 0,6 15,14 33,18 262,50 408,97 603,195 330,166 613,428 796,735 44,73 138,278 166,360 128,376 130,808 5,1185 -31,93 -121,290 -171,375 -110,189 -354,453 -512,555 -12,8 -35,25 -50,38 -15,12 -30,22 -33,22 -3,0 -26,14 -52,31 -115,78 -398,193 -570,232 -206,47 -440,63 -650,44 l -90,-8 -49,113 c -28,62 -54,115 -58,116 -10,5 -48,77 -48,92 0,16 -118,215 -135,230 -8,7 -15,16 -15,20 0,4 -13,22 -29,39 -17,18 -33,42 -37,54 -9,30 -104,147 -189,233 -239,240 -545,409 -900,494 -71,17 -128,23 -275,25 -102,2 -210,0 -240,-5 z m 340,-121 c 233,-28 511,-131 707,-259 l 52,-34 -57,-21 c -103,-37 -345,-175 -495,-282 -117,-83 -337,-306 -445,-450 -305,-406 -440,-671 -551,-1083 -62,-227 -84,-292 -103,-304 -21,-13 -122,67 -274,219 -169,169 -267,322 -318,498 -45,155 -45,156 18,311 56,139 186,405 246,506 49,84 156,236 224,320 138,171 396,415 559,530 52,36 67,41 140,49 119,12 201,12 297,0 z m 1228,-791 c 94,-138 262,-456 265,-505 2,-24 -3,-28 -48,-41 -348,-96 -602,-231 -862,-459 -137,-120 -320,-359 -404,-524 -80,-160 -157,-375 -176,-491 -3,-21 -8,-40 -12,-42 -9,-6 -146,31 -230,61 l -73,26 6,40 c 8,48 113,362 173,517 198,510 606,1008 1086,1324 104,68 223,136 239,136 4,0 20,-19 36,-42 z M 9153,8415 c 233,-49 387,-227 387,-446 0,-108 -46,-243 -92,-272 -11,-8 -117,3 -370,37 -468,63 -520,72 -535,93 -21,27 -16,170 7,246 52,169 202,301 386,341 89,19 133,19 217,1 z m -819,-935 c 115,-36 219,-111 277,-201 169,-264 10,-592 -318,-655 -96,-18 -146,-18 -229,2 -278,64 -449,315 -376,552 54,171 213,295 417,326 51,7 165,-5 229,-24 z m 1331,-171 c 158,-38 295,-148 368,-294 38,-75 50,-136 45,-228 -17,-323 -373,-477 -696,-299 -26,14 -76,55 -112,91 -175,177 -198,434 -55,598 111,127 273,174 450,132 z"
       id="path9"
       inkscape:connector-curvature="0" />
    <path
       d="m 8710,8001 c -7,-14 -18,-42 -25,-62 l -13,-37 46,-6 c 310,-45 634,-87 638,-83 10,10 -21,107 -35,112 -9,2 -59,11 -111,20 -52,8 -134,22 -182,30 -49,8 -130,22 -180,31 -51,8 -100,17 -109,18 -10,2 -22,-7 -29,-23 z"
       id="path11"
       inkscape:connector-curvature="0" />
    <path
       d="m 7963,7100 c -51,-30 -66,-62 -58,-116 5,-38 16,-56 54,-94 40,-40 58,-50 106,-60 68,-14 119,-3 152,32 107,118 -113,324 -254,238 z"
       id="path13"
       inkscape:connector-curvature="0" />
    <path
       d="m 9403,6919 c -61,-18 -89,-85 -64,-152 16,-40 73,-99 116,-118 123,-56 229,10 196,123 -30,100 -154,174 -248,147 z"
       id="path15"
       inkscape:connector-curvature="0" />
    <path
       d="m 8465,10141 c -97,-18 -176,-113 -175,-213 1,-57 16,-87 73,-147 55,-57 102,-76 182,-69 142,12 225,115 209,256 -15,128 -137,201 -289,173 z"
       id="path17"
       inkscape:connector-curvature="0" />
    <path
       d="m 9053,9926 c -46,-21 -69,-45 -92,-96 -29,-63 -27,-131 4,-180 14,-22 25,-46 25,-54 0,-19 55,-52 112,-67 58,-16 135,0 184,38 39,29 74,107 74,165 0,58 -39,139 -85,173 -31,24 -47,29 -113,32 -53,2 -87,-1 -109,-11 z"
       id="path19"
       inkscape:connector-curvature="0" />
  </g>
  <g
     id="layer103"
     transform="matrix(0.02263724,0,0,0.02163151,-71.144649,-76.01588)"
     style="fill:#00c3ff;stroke:none">
    <path
       d="m 6545,10389 c -27,-6 -71,-12 -97,-14 -121,-7 -438,-83 -438,-105 0,-8 -64,-25 -89,-23 -7,1 -31,-5 -53,-13 -151,-53 -377,-71 -484,-39 -27,8 -77,18 -110,21 -55,6 -64,4 -84,-16 -30,-30 -24,-92 19,-185 82,-175 98,-301 63,-478 -48,-241 -57,-325 -57,-557 0,-197 3,-238 22,-325 27,-120 52,-200 86,-277 l 25,-56 -21,-5 c -113,-25 -302,-95 -400,-148 -10,-5 -44,-24 -75,-40 -60,-33 -203,-125 -240,-156 -12,-10 -38,-31 -59,-48 -157,-126 -282,-259 -403,-427 -56,-79 -150,-231 -150,-243 0,-2 -13,-32 -30,-67 -93,-198 -151,-475 -134,-643 19,-201 65,-341 153,-469 36,-52 140,-154 191,-188 205,-136 488,-190 768,-149 51,8 94,12 97,10 2,-2 13,-36 23,-74 64,-225 173,-416 322,-566 140,-141 283,-220 485,-269 76,-19 109,-21 215,-17 278,10 505,114 721,327 195,193 332,439 409,733 7,26 15,47 19,47 3,0 19,-18 35,-39 24,-33 148,-160 215,-221 71,-65 233,-178 331,-232 100,-55 324,-148 355,-148 7,0 20,32 30,73 50,209 76,256 131,243 44,-11 45,-42 10,-168 -51,-178 -50,-177 -18,-189 67,-26 181,-40 375,-46 178,-5 207,-4 207,9 0,8 -7,62 -15,121 -10,71 -12,114 -5,131 18,50 82,58 99,13 5,-12 14,-69 21,-127 16,-131 21,-143 63,-135 261,49 409,97 603,195 654,330 1059,978 1059,1695 0,563 -248,1085 -686,1446 -36,30 -76,61 -89,69 -12,8 -35,25 -50,38 -15,12 -30,22 -33,22 -3,0 -26,14 -52,31 -115,78 -398,193 -570,232 -206,47 -440,63 -650,44 l -90,-8 -49,113 c -28,62 -56,117 -63,121 -17,10 -43,61 -43,83 0,26 -116,215 -166,270 -24,27 -47,60 -51,74 -13,53 -190,250 -323,360 -86,70 -235,166 -335,214 -44,21 -91,44 -105,51 -39,20 -205,74 -310,101 -80,21 -124,25 -285,29 -107,2 -212,-1 -240,-6 z m 496,-143 c 150,-39 245,-73 364,-131 183,-89 271,-155 207,-155 -29,0 -230,-104 -364,-188 -306,-192 -471,-357 -725,-724 -253,-364 -341,-566 -476,-1086 -23,-88 -48,-142 -66,-142 -17,0 -177,136 -271,230 -195,195 -297,373 -345,602 -13,66 -13,68 15,141 79,205 207,469 305,627 172,276 440,567 712,772 116,87 120,88 373,83 148,-3 190,-7 271,-29 z m 1087,-788 c 107,-166 252,-450 252,-494 0,-19 -8,-25 -42,-34 C 7610,8743 7074,8216 6903,7520 l -28,-112 -35,6 c -41,6 -249,72 -268,84 -17,12 5,96 88,337 100,290 168,441 286,633 227,371 503,660 874,914 109,75 223,137 251,138 10,0 34,-27 57,-62 z M 9161,8420 c 90,-17 191,-74 259,-146 68,-74 92,-115 114,-201 19,-74 20,-142 2,-208 -20,-75 -63,-162 -85,-175 -15,-8 -56,-5 -158,9 -76,11 -259,36 -408,56 -324,44 -338,47 -353,80 -28,60 -5,220 44,317 32,64 113,151 179,193 49,32 146,70 195,78 51,8 159,7 211,-3 z m -864,-925 c 213,-50 366,-211 389,-409 14,-118 -50,-266 -151,-353 -208,-177 -550,-162 -739,33 -107,110 -152,253 -121,381 24,95 59,155 131,222 129,121 313,168 491,126 z m 1367,-181 c 108,-28 185,-72 267,-154 173,-172 206,-388 88,-571 -42,-66 -130,-131 -216,-161 -203,-69 -458,22 -592,213 -72,102 -94,175 -89,297 3,82 8,106 33,157 87,179 302,272 509,219 z"
       id="path22"
       inkscape:connector-curvature="0" />
  </g>
  <g
     id="layer104"
     transform="matrix(0.02263724,0,0,0.02163151,-71.144649,-76.01588)"
     style="fill:#30c7cf;stroke:none">
    <path
       d="m 6545,10389 c -27,-6 -71,-12 -97,-14 -121,-7 -438,-83 -438,-105 0,-8 -64,-25 -89,-23 -7,1 -31,-5 -53,-13 -151,-53 -377,-71 -484,-39 -27,8 -77,18 -110,21 -55,6 -64,4 -84,-16 -30,-30 -24,-92 19,-185 82,-175 98,-301 63,-478 -48,-241 -57,-325 -57,-557 0,-236 11,-319 64,-485 39,-122 108,-248 205,-374 111,-144 366,-369 566,-500 93,-60 292,-164 380,-198 129,-50 280,-102 347,-119 l 72,-18 -6,-123 c -15,-299 53,-617 193,-898 65,-132 65,-132 140,-242 79,-117 166,-218 259,-302 21,-20 46,-43 55,-51 59,-57 230,-177 330,-232 100,-55 324,-148 355,-148 7,0 20,32 30,73 50,209 76,256 131,243 44,-11 45,-42 10,-168 -51,-178 -50,-177 -18,-189 67,-26 181,-40 375,-46 178,-5 207,-4 207,9 0,8 -7,62 -15,121 -10,71 -12,114 -5,131 18,50 82,58 99,13 5,-12 14,-69 21,-127 16,-131 21,-143 63,-135 261,49 409,97 603,195 654,330 1059,978 1059,1695 0,563 -248,1085 -686,1446 -36,30 -76,61 -89,69 -12,8 -35,25 -50,38 -15,12 -30,22 -33,22 -3,0 -26,14 -52,31 -115,78 -398,193 -570,232 -206,47 -440,63 -650,44 l -90,-8 -49,113 c -28,62 -56,117 -63,121 -17,10 -43,61 -43,83 0,26 -116,215 -166,270 -24,27 -47,60 -51,74 -13,53 -190,250 -323,360 -86,70 -235,166 -335,214 -44,21 -91,44 -105,51 -39,20 -205,74 -310,101 -80,21 -124,25 -285,29 -107,2 -212,-1 -240,-6 z m 496,-143 c 150,-39 245,-73 364,-131 183,-89 271,-155 207,-155 -29,0 -230,-104 -364,-188 -306,-192 -471,-357 -725,-724 -253,-364 -341,-566 -476,-1086 -23,-88 -48,-142 -66,-142 -17,0 -177,136 -271,230 -195,195 -297,373 -345,602 -13,66 -13,68 15,141 79,205 207,469 305,627 172,276 440,567 712,772 116,87 120,88 373,83 148,-3 190,-7 271,-29 z m 1087,-788 c 107,-166 252,-450 252,-494 0,-19 -8,-25 -42,-34 C 7610,8743 7074,8216 6903,7520 l -28,-112 -35,6 c -41,6 -249,72 -268,84 -17,12 5,96 88,337 100,290 168,441 286,633 227,371 503,660 874,914 109,75 223,137 251,138 10,0 34,-27 57,-62 z M 9161,8420 c 90,-17 191,-74 259,-146 68,-74 92,-115 114,-201 19,-74 20,-142 2,-208 -20,-75 -63,-162 -85,-175 -15,-8 -56,-5 -158,9 -76,11 -259,36 -408,56 -324,44 -338,47 -353,80 -28,60 -5,220 44,317 32,64 113,151 179,193 49,32 146,70 195,78 51,8 159,7 211,-3 z m -864,-925 c 213,-50 366,-211 389,-409 14,-118 -50,-266 -151,-353 -208,-177 -550,-162 -739,33 -107,110 -152,253 -121,381 24,95 59,155 131,222 129,121 313,168 491,126 z m 1367,-181 c 108,-28 185,-72 267,-154 173,-172 206,-388 88,-571 -42,-66 -130,-131 -216,-161 -203,-69 -458,22 -592,213 -72,102 -94,175 -89,297 3,82 8,106 33,157 87,179 302,272 509,219 z"
       id="path25"
       inkscape:connector-curvature="0" />
  </g>
  <g
     id="layer105"
     transform="matrix(0.02263724,0,0,0.02163151,-71.144649,-76.01588)"
     style="fill:#72cb8d;stroke:none">
    <path
       d="m 6545,10389 c -27,-6 -71,-12 -97,-14 -121,-7 -438,-83 -438,-105 0,-8 -64,-25 -89,-23 -7,1 -31,-5 -53,-13 -151,-53 -377,-71 -484,-39 -27,8 -77,18 -110,21 -55,6 -64,4 -84,-16 -30,-30 -24,-92 19,-185 82,-175 98,-301 63,-478 -48,-241 -57,-325 -57,-557 0,-236 11,-317 64,-485 90,-284 361,-593 754,-859 180,-122 507,-266 737,-325 l 75,-19 -3,-128 c -4,-144 18,-359 49,-492 50,-209 149,-440 256,-597 32,-47 65,-98 73,-112 27,-47 139,-174 215,-242 21,-20 46,-43 55,-51 59,-57 230,-177 330,-232 100,-55 324,-148 355,-148 7,0 20,32 30,73 50,209 76,256 131,243 44,-11 45,-42 10,-168 -51,-178 -50,-177 -18,-189 67,-26 181,-40 375,-46 178,-5 207,-4 207,9 0,8 -7,62 -15,121 -10,71 -12,114 -5,131 18,50 82,58 99,13 5,-12 14,-69 21,-127 16,-131 21,-143 63,-135 261,49 409,97 603,195 654,330 1059,978 1059,1695 0,563 -248,1085 -686,1446 -36,30 -76,61 -89,69 -12,8 -35,25 -50,38 -15,12 -30,22 -33,22 -3,0 -26,14 -52,31 -115,78 -398,193 -570,232 -206,47 -440,63 -650,44 l -90,-8 -49,113 c -28,62 -56,117 -63,121 -17,10 -43,61 -43,83 0,26 -116,215 -166,270 -24,27 -47,60 -51,74 -13,53 -190,250 -323,360 -86,70 -235,166 -335,214 -44,21 -91,44 -105,51 -39,20 -205,74 -310,101 -80,21 -124,25 -285,29 -107,2 -212,-1 -240,-6 z m 496,-143 c 150,-39 245,-73 364,-131 183,-89 271,-155 207,-155 -29,0 -230,-104 -364,-188 -306,-192 -471,-357 -725,-724 -253,-364 -341,-566 -476,-1086 -23,-88 -48,-142 -66,-142 -17,0 -177,136 -271,230 -195,195 -297,373 -345,602 -13,66 -13,68 15,141 79,205 207,469 305,627 172,276 440,567 712,772 116,87 120,88 373,83 148,-3 190,-7 271,-29 z m 1087,-788 c 107,-166 252,-450 252,-494 0,-19 -8,-25 -42,-34 C 7610,8743 7074,8216 6903,7520 l -28,-112 -35,6 c -41,6 -249,72 -268,84 -17,12 5,96 88,337 100,290 168,441 286,633 227,371 503,660 874,914 109,75 223,137 251,138 10,0 34,-27 57,-62 z M 9161,8420 c 90,-17 191,-74 259,-146 68,-74 92,-115 114,-201 19,-74 20,-142 2,-208 -20,-75 -63,-162 -85,-175 -15,-8 -56,-5 -158,9 -76,11 -259,36 -408,56 -324,44 -338,47 -353,80 -28,60 -5,220 44,317 32,64 113,151 179,193 49,32 146,70 195,78 51,8 159,7 211,-3 z m -864,-925 c 213,-50 366,-211 389,-409 14,-118 -50,-266 -151,-353 -208,-177 -550,-162 -739,33 -107,110 -152,253 -121,381 24,95 59,155 131,222 129,121 313,168 491,126 z m 1367,-181 c 108,-28 185,-72 267,-154 173,-172 206,-388 88,-571 -42,-66 -130,-131 -216,-161 -203,-69 -458,22 -592,213 -72,102 -94,175 -89,297 3,82 8,106 33,157 87,179 302,272 509,219 z"
       id="path28"
       inkscape:connector-curvature="0" />
    <path
       d="m 8705,7983 c -9,-20 -18,-46 -21,-58 -6,-23 -20,-20 396,-76 80,-11 174,-24 209,-30 35,-5 65,-8 67,-6 12,11 -23,100 -41,108 -19,8 -554,99 -582,99 -7,0 -20,-17 -28,-37 z"
       id="path30"
       inkscape:connector-curvature="0" />
    <path
       d="m 7983,7109 c -102,-30 -96,-182 9,-247 79,-49 188,-46 228,6 22,27 26,84 11,125 -16,42 -81,96 -134,112 -57,17 -68,17 -114,4 z"
       id="path32"
       inkscape:connector-curvature="0" />
    <path
       d="m 9382,6910 c -31,-13 -54,-72 -46,-116 16,-85 115,-163 206,-164 39,0 54,6 80,29 29,25 33,36 32,75 -2,93 -90,177 -192,183 -32,1 -67,-2 -80,-7 z"
       id="path34"
       inkscape:connector-curvature="0" />
    <path
       d="m 8465,10141 c -22,-4 -59,-19 -82,-34 -71,-45 -112,-165 -83,-243 6,-14 37,-52 69,-84 49,-49 65,-59 105,-65 175,-27 299,86 280,253 -15,128 -137,201 -289,173 z"
       id="path36"
       inkscape:connector-curvature="0" />
  </g>
  <g
     id="layer106"
     transform="matrix(0.02263724,0,0,0.02163151,-71.144649,-76.01588)"
     style="fill:#ffd501;stroke:none">
    <path
       d="m 6545,10389 c -27,-6 -71,-12 -97,-14 -121,-7 -438,-83 -438,-105 0,-8 -64,-25 -89,-23 -7,1 -31,-5 -53,-13 -151,-53 -377,-71 -484,-39 -27,8 -77,18 -110,21 -55,6 -64,4 -84,-16 -30,-30 -24,-92 19,-185 82,-175 98,-301 63,-478 -48,-241 -57,-325 -57,-557 0,-197 3,-238 22,-325 36,-157 88,-308 116,-330 7,-5 26,-32 42,-60 164,-285 580,-631 965,-804 135,-61 382,-145 455,-157 l 40,-6 -3,-166 c -9,-393 97,-759 313,-1077 36,-53 65,-101 65,-106 0,-15 131,-162 205,-228 21,-20 46,-43 55,-51 59,-57 230,-177 330,-232 100,-55 324,-148 355,-148 7,0 20,32 30,73 50,209 76,256 131,243 44,-11 45,-42 10,-168 -51,-178 -50,-177 -18,-189 67,-26 181,-40 375,-46 178,-5 207,-4 207,9 0,8 -7,62 -15,121 -10,71 -12,114 -5,131 18,50 82,58 99,13 5,-12 14,-69 21,-127 16,-131 21,-143 63,-135 261,49 409,97 603,195 654,330 1059,978 1059,1695 0,563 -248,1085 -686,1446 -36,30 -76,61 -89,69 -12,8 -35,25 -50,38 -15,12 -30,22 -33,22 -3,0 -26,14 -52,31 -115,78 -398,193 -570,232 -206,47 -440,63 -650,44 l -90,-8 -49,113 c -28,62 -56,117 -63,121 -17,10 -43,61 -43,83 0,26 -116,215 -166,270 -24,27 -47,60 -51,74 -13,53 -190,250 -323,360 -86,70 -235,166 -335,214 -44,21 -91,44 -105,51 -39,20 -205,74 -310,101 -80,21 -124,25 -285,29 -107,2 -212,-1 -240,-6 z m 496,-143 c 150,-39 245,-73 364,-131 183,-89 271,-155 207,-155 -29,0 -230,-104 -364,-188 -306,-192 -471,-357 -725,-724 -253,-364 -341,-566 -476,-1086 -23,-88 -48,-142 -66,-142 -17,0 -177,136 -271,230 -195,195 -297,373 -345,602 -13,66 -13,68 15,141 79,205 207,469 305,627 172,276 440,567 712,772 116,87 120,88 373,83 148,-3 190,-7 271,-29 z m 1087,-788 c 107,-166 252,-450 252,-494 0,-19 -8,-25 -42,-34 C 7610,8743 7074,8216 6903,7520 l -28,-112 -35,6 c -41,6 -249,72 -268,84 -17,12 5,96 88,337 100,290 168,441 286,633 227,371 503,660 874,914 109,75 223,137 251,138 10,0 34,-27 57,-62 z M 9161,8420 c 90,-17 191,-74 259,-146 68,-74 92,-115 114,-201 19,-74 20,-142 2,-208 -20,-75 -63,-162 -85,-175 -15,-8 -56,-5 -158,9 -76,11 -259,36 -408,56 -324,44 -338,47 -353,80 -28,60 -5,220 44,317 32,64 113,151 179,193 49,32 146,70 195,78 51,8 159,7 211,-3 z m -864,-925 c 213,-50 366,-211 389,-409 14,-118 -50,-266 -151,-353 -208,-177 -550,-162 -739,33 -107,110 -152,253 -121,381 24,95 59,155 131,222 129,121 313,168 491,126 z m 1367,-181 c 108,-28 185,-72 267,-154 173,-172 206,-388 88,-571 -42,-66 -130,-131 -216,-161 -203,-69 -458,22 -592,213 -72,102 -94,175 -89,297 3,82 8,106 33,157 87,179 302,272 509,219 z"
       id="path39"
       inkscape:connector-curvature="0" />
  </g>
  <g
     id="layer107"
     transform="matrix(0.02263724,0,0,0.02163151,-71.144649,-76.01588)"
     style="fill:#ffe044;stroke:none">
    <path
       d="m 6360,10240 c -99,-21 -231,-57 -385,-105 -211,-66 -278,-78 -425,-78 -74,0 -155,5 -180,11 -24,6 -46,9 -48,7 -2,-1 8,-25 22,-53 63,-124 85,-339 52,-499 -41,-196 -59,-369 -59,-553 0,-102 5,-198 10,-215 l 10,-30 13,40 c 20,63 148,350 205,460 197,382 489,718 881,1012 37,28 22,28 -96,3 z"
       id="path42"
       inkscape:connector-curvature="0" />
    <path
       d="m 7582,9950 c -72,-26 -222,-107 -356,-192 -287,-182 -455,-351 -703,-710 -253,-364 -348,-583 -478,-1093 -9,-38 -26,-85 -36,-103 -11,-19 -17,-38 -14,-43 12,-18 204,-139 305,-192 114,-59 247,-114 256,-105 3,4 14,37 24,75 26,97 135,411 182,523 178,421 484,826 840,1111 134,107 346,250 416,279 28,12 52,27 52,32 0,13 -107,152 -172,223 -59,65 -235,215 -252,215 -6,-1 -35,-9 -64,-20 z"
       id="path44"
       inkscape:connector-curvature="0" />
    <path
       d="m 8635,8864 c -16,-2 -66,-9 -110,-15 -177,-23 -391,-91 -568,-180 -529,-264 -898,-773 -977,-1349 -15,-111 -15,-362 0,-470 80,-576 446,-1078 975,-1338 99,-48 253,-108 259,-101 1,2 15,43 30,91 28,94 47,115 92,104 41,-11 45,-43 18,-137 -13,-45 -24,-86 -24,-90 0,-20 298,-58 463,-59 h 98 l -3,76 c -3,69 -1,77 21,95 50,41 79,16 93,-79 12,-85 6,-83 160,-51 686,142 1228,658 1398,1329 79,310 61,694 -45,988 -223,619 -750,1054 -1415,1168 -82,15 -404,27 -465,18 z m 526,-444 c 90,-17 191,-74 259,-146 68,-74 92,-115 114,-201 19,-74 20,-142 2,-208 -20,-75 -63,-162 -85,-175 -15,-8 -56,-5 -158,9 -76,11 -259,36 -408,56 -324,44 -338,47 -353,80 -28,60 -5,220 44,317 32,64 113,151 179,193 49,32 146,70 195,78 51,8 159,7 211,-3 z m -864,-925 c 213,-50 366,-211 389,-409 14,-118 -50,-266 -151,-353 -208,-177 -550,-162 -739,33 -107,110 -152,253 -121,381 24,95 59,155 131,222 129,121 313,168 491,126 z m 1367,-181 c 108,-28 185,-72 267,-154 173,-172 206,-388 88,-571 -42,-66 -130,-131 -216,-161 -203,-69 -458,22 -592,213 -72,102 -94,175 -89,297 3,82 8,106 33,157 87,179 302,272 509,219 z"
       id="path46"
       inkscape:connector-curvature="0" />
    <path
       d="m 5590,8007 c 0,-2 15,-16 33,-33 l 32,-29 -29,33 c -28,30 -36,37 -36,29 z"
       id="path48"
       inkscape:connector-curvature="0" />
  </g>
  <g
     id="layer108"
     transform="matrix(0.02263724,0,0,0.02163151,-71.144649,-76.01588)"
     style="fill:#f773ba;stroke:none">
    <path
       d="m 6419,11442 c -26,-9 -62,-28 -80,-41 -47,-32 -137,-148 -178,-229 -47,-94 -91,-237 -91,-300 0,-46 4,-58 30,-84 34,-33 36,-33 180,-6 201,39 386,190 439,357 25,79 3,213 -44,264 -53,57 -161,73 -256,39 z"
       id="path51"
       inkscape:connector-curvature="0" />
    <path
       d="m 5735,11391 c -113,-29 -187,-118 -241,-288 -25,-78 -54,-260 -54,-338 0,-61 29,-107 79,-125 38,-13 46,-13 89,3 26,10 61,22 78,26 84,22 259,172 318,273 34,59 66,169 66,228 0,46 -28,121 -58,153 -49,55 -194,90 -277,68 z"
       id="path53"
       inkscape:connector-curvature="0" />
    <path
       d="m 8465,10141 c -22,-4 -59,-19 -82,-34 -71,-45 -112,-165 -83,-243 6,-14 37,-53 70,-85 49,-48 67,-59 105,-65 174,-26 298,87 279,254 -15,128 -137,201 -289,173 z"
       id="path55"
       inkscape:connector-curvature="0" />
    <path
       d="m 9070,9934 c -47,-19 -90,-59 -109,-104 -21,-48 -29,-145 -13,-152 13,-5 53,-79 47,-88 -8,-12 53,-47 107,-61 58,-16 135,0 184,38 39,29 74,107 74,165 0,58 -39,139 -85,173 -31,24 -47,29 -113,32 -42,1 -84,0 -92,-3 z"
       id="path57"
       inkscape:connector-curvature="0" />
    <path
       d="m 7623,7956 c -126,-60 -123,-180 5,-243 51,-25 68,-28 152,-28 101,1 152,17 194,64 30,33 32,100 4,140 -38,56 -107,85 -213,89 -79,2 -96,0 -142,-22 z"
       id="path59"
       inkscape:connector-curvature="0" />
    <path
       d="m 9940,7739 c -148,-59 -65,-221 140,-274 117,-31 228,-5 259,59 48,101 -124,227 -308,225 -36,0 -77,-5 -91,-10 z"
       id="path61"
       inkscape:connector-curvature="0" />
  </g>
  <g
     id="layer109"
     transform="matrix(0.02263724,0,0,0.02163151,-71.144649,-76.01588)"
     style="fill:#ffb9df;stroke:none">
    <path
       d="m 6420,11442 c -25,-9 -61,-28 -81,-41 -47,-32 -134,-144 -177,-228 -48,-94 -92,-237 -92,-301 0,-46 4,-58 29,-83 21,-21 39,-29 65,-29 19,0 37,4 40,9 3,5 34,12 68,16 188,20 402,191 448,357 18,68 9,154 -23,220 -22,46 -36,60 -72,77 -55,26 -140,27 -205,3 z"
       id="path64"
       inkscape:connector-curvature="0" />
    <path
       d="m 5739,11394 c -15,-3 -51,-19 -80,-37 -102,-61 -175,-222 -205,-452 -24,-185 -10,-244 67,-267 35,-10 46,-9 104,15 36,15 73,27 83,27 51,0 242,170 297,265 33,55 65,167 65,224 0,48 -36,136 -67,163 -56,49 -176,77 -264,62 z"
       id="path66"
       inkscape:connector-curvature="0" />
    <path
       d="m 8465,10141 c -66,-12 -109,-46 -144,-110 -32,-61 -40,-117 -22,-164 5,-14 37,-52 71,-85 50,-50 69,-62 105,-67 176,-27 301,89 279,257 -17,125 -140,197 -289,169 z"
       id="path68"
       inkscape:connector-curvature="0" />
    <path
       d="m 9076,9933 c -47,-12 -94,-55 -115,-105 -21,-52 -29,-148 -11,-148 13,0 52,-78 45,-89 -7,-13 52,-48 107,-62 39,-11 57,-10 100,1 71,18 111,50 138,112 63,146 -36,300 -190,297 -30,-1 -64,-4 -74,-6 z"
       id="path70"
       inkscape:connector-curvature="0" />
    <path
       d="m 8702,7968 c -14,-38 -17,-55 -8,-59 6,-4 83,-17 171,-28 265,-35 367,-49 430,-59 33,-6 61,-9 62,-8 3,2 -27,97 -32,104 -2,2 -589,102 -602,102 -1,0 -10,-24 -21,-52 z"
       id="path72"
       inkscape:connector-curvature="0" />
    <path
       d="m 7953,7090 c -57,-34 -57,-122 0,-187 78,-89 238,-99 275,-18 33,72 -10,159 -100,206 -50,25 -133,25 -175,-1 z"
       id="path74"
       inkscape:connector-curvature="0" />
    <path
       d="m 9400,6913 c -39,-14 -60,-46 -60,-92 0,-138 195,-246 287,-159 34,32 32,100 -6,160 -45,70 -154,115 -221,91 z"
       id="path76"
       inkscape:connector-curvature="0" />
  </g>
  <g
     id="layer110"
     transform="matrix(0.02263724,0,0,0.02163151,-71.144649,-76.01588)"
     style="fill:#fefefe;stroke:none">
    <path
       d="m 8702,7964 -19,-53 21,-5 c 12,-3 62,-10 111,-16 88,-10 204,-26 397,-55 53,-8 108,-15 122,-15 h 25 l -17,48 c -9,26 -17,48 -17,49 -1,1 -34,7 -75,13 -41,6 -109,17 -150,25 -71,13 -310,53 -357,59 -18,2 -25,-6 -41,-50 z"
       id="path79"
       inkscape:connector-curvature="0" />
    <path
       d="m 7953,7086 c -104,-87 7,-256 167,-256 52,0 103,36 114,82 7,30 5,45 -15,85 -34,67 -94,106 -174,111 -54,4 -64,1 -92,-22 z"
       id="path81"
       inkscape:connector-curvature="0" />
    <path
       d="m 9383,6900 c -37,-22 -48,-54 -39,-108 7,-43 28,-74 80,-116 32,-26 47,-31 106,-34 63,-4 71,-2 94,21 83,83 -43,257 -185,257 -13,0 -39,-9 -56,-20 z"
       id="path83"
       inkscape:connector-curvature="0" />
  </g>
</svg>
