<?xml version="1.0" encoding="UTF-8" standalone="no"?>
<svg
   xmlns:dc="http://purl.org/dc/elements/1.1/"
   xmlns:cc="http://creativecommons.org/ns#"
   xmlns:rdf="http://www.w3.org/1999/02/22-rdf-syntax-ns#"
   xmlns:svg="http://www.w3.org/2000/svg"
   xmlns="http://www.w3.org/2000/svg"
   xmlns:sodipodi="http://sodipodi.sourceforge.net/DTD/sodipodi-0.dtd"
   xmlns:inkscape="http://www.inkscape.org/namespaces/inkscape"
   version="1.0"
   width="597.47687"
   height="600.12836"
   viewBox="0 0 4667.788 4688.5028"
   preserveAspectRatio="xMidYMid meet"
   id="svg8"
   sodipodi:docname="clock.svg"
   inkscape:version="0.92.4 (5da689c313, 2019-01-14)">
  <metadata
     id="metadata14">
    <rdf:RDF>
      <cc:Work
         rdf:about="">
        <dc:format>image/svg+xml</dc:format>
        <dc:type
           rdf:resource="http://purl.org/dc/dcmitype/StillImage" />
        <dc:title></dc:title>
      </cc:Work>
    </rdf:RDF>
  </metadata>
  <defs
     id="defs12" />
  <sodipodi:namedview
     pagecolor="#ffffff"
     bordercolor="#666666"
     borderopacity="1"
     objecttolerance="10"
     gridtolerance="10"
     guidetolerance="10"
     inkscape:pageopacity="0"
     inkscape:pageshadow="2"
     inkscape:window-width="3696"
     inkscape:window-height="2115"
     id="namedview10"
     showgrid="false"
     fit-margin-top="0"
     fit-margin-left="0"
     fit-margin-right="0"
     fit-margin-bottom="0"
     inkscape:zoom="0.4609375"
     inkscape:cx="102.29116"
     inkscape:cy="426.76155"
     inkscape:window-x="131"
     inkscape:window-y="2147"
     inkscape:window-maximized="1"
     inkscape:current-layer="svg8" />
  <g
     id="layer101"
     style="fill:#060201;stroke:none"
     transform="translate(-5518.5001,-5224.8304)">
    <path
       d="m 7670,9909 c -30,-4 -98,-12 -150,-18 -106,-13 -212,-34 -280,-56 -25,-8 -81,-25 -125,-39 -74,-22 -191,-70 -325,-134 -51,-24 -239,-139 -250,-152 -3,-4 -12,-9 -20,-12 -55,-20 -309,-247 -441,-393 -37,-42 -149,-191 -149,-199 0,-2 -25,-41 -56,-85 -30,-45 -85,-142 -120,-216 -64,-132 -144,-342 -144,-375 0,-9 -7,-30 -14,-46 -33,-65 -74,-378 -77,-579 -5,-284 27,-492 119,-780 31,-97 122,-310 157,-365 14,-22 25,-42 25,-45 0,-3 28,-49 62,-102 333,-526 871,-902 1483,-1038 117,-26 201,-35 410,-45 162,-8 219,-7 299,5 55,8 116,15 136,15 35,0 153,25 255,55 296,85 474,169 736,346 143,97 397,339 495,471 130,175 210,308 274,453 17,39 37,81 44,95 18,33 83,229 92,278 4,20 10,42 14,47 13,17 50,246 60,380 12,143 6,418 -11,509 -6,34 -12,70 -14,81 -13,108 -40,211 -108,410 -39,116 -149,341 -209,430 -122,178 -156,226 -212,290 -109,125 -277,284 -366,347 -207,144 -291,192 -520,296 -141,64 -466,152 -562,152 -22,0 -58,4 -81,10 -53,12 -354,18 -427,9 z"
       id="path2"
       inkscape:connector-curvature="0" />
  </g>
  <g
     id="layer102"
     style="fill:#fefefe;stroke:none"
     transform="translate(-5518.5001,-5224.8304)">
    <path
       d="m 7695,9760 c -415,-27 -820,-180 -1169,-441 -113,-85 -279,-245 -368,-354 -256,-316 -420,-699 -473,-1104 -18,-140 -21,-422 -5,-551 92,-732 541,-1376 1188,-1699 332,-166 621,-233 1007,-233 278,0 504,42 765,141 481,184 902,556 1146,1015 106,199 203,499 236,731 19,134 16,515 -5,635 -73,410 -219,741 -461,1045 -291,365 -705,633 -1158,749 -222,57 -472,81 -703,66 z m 189,-113 c 24,-17 35,-74 37,-195 2,-87 -1,-105 -16,-122 -25,-28 -72,-23 -97,10 -14,20 -19,51 -25,151 -6,120 -5,127 16,148 24,24 59,27 85,8 z m -994,-277 c 21,-11 136,-196 141,-225 8,-58 -40,-97 -89,-71 -28,15 -135,180 -147,226 -4,18 0,34 15,53 22,28 49,34 80,17 z m 2011,-6 c 25,-30 14,-76 -36,-159 -63,-105 -73,-115 -108,-115 -39,0 -67,25 -67,60 0,25 82,172 117,213 20,21 76,22 94,1 z M 6183,8643 c 118,-61 197,-126 197,-164 0,-35 -44,-72 -74,-63 -42,12 -215,129 -225,152 -15,31 -14,35 10,66 24,30 47,33 92,9 z m 3451,-25 c 24,-34 19,-63 -14,-91 -53,-45 -201,-129 -226,-129 -58,0 -84,70 -41,109 12,11 63,46 112,77 101,62 143,71 169,34 z m -882,-455 c 21,-19 24,-62 6,-85 -7,-9 -47,-37 -88,-64 -41,-26 -228,-144 -415,-262 -187,-118 -342,-216 -344,-218 -3,-3 -8,-330 -12,-728 -5,-527 -10,-729 -18,-745 -18,-33 -58,-45 -88,-26 -13,9 -27,26 -31,38 -11,31 6,1497 17,1522 7,16 600,402 849,551 62,38 96,42 124,17 z M 6098,7643 c 33,-29 36,-57 8,-90 l -24,-28 -124,3 c -104,3 -126,6 -142,22 -25,25 -24,70 4,92 32,26 248,27 278,1 z m 3786,-24 c 32,-25 35,-68 6,-94 -26,-24 -248,-42 -291,-25 -36,15 -52,52 -37,84 14,33 29,39 118,46 148,13 175,11 204,-11 z M 6347,6758 c 50,-47 23,-84 -123,-166 -102,-58 -144,-65 -168,-30 -35,50 -16,80 89,141 150,87 164,91 202,55 z m 3176,-84 c 104,-68 127,-98 108,-141 -12,-27 -53,-45 -78,-36 -10,4 -62,36 -116,72 -101,66 -115,86 -103,136 7,29 41,46 71,38 11,-3 64,-34 118,-69 z M 6965,6096 c 34,-25 24,-73 -34,-166 -83,-132 -119,-159 -169,-124 -37,25 -28,66 34,168 82,132 119,159 169,122 z m 1789,-37 c 34,-27 136,-198 136,-229 0,-34 -28,-60 -65,-60 -37,0 -44,7 -114,119 -66,105 -72,131 -38,165 31,31 46,32 81,5 z m -898,-222 c 27,-23 27,-25 28,-154 1,-116 -1,-133 -18,-152 -15,-16 -29,-21 -55,-19 -52,4 -61,30 -61,176 0,117 1,124 25,147 30,31 47,31 81,2 z"
       id="path5"
       inkscape:connector-curvature="0" />
  </g>
</svg>
