<?xml version="1.0" encoding="UTF-8" standalone="no"?>
<svg
   xmlns:dc="http://purl.org/dc/elements/1.1/"
   xmlns:cc="http://creativecommons.org/ns#"
   xmlns:rdf="http://www.w3.org/1999/02/22-rdf-syntax-ns#"
   xmlns:svg="http://www.w3.org/2000/svg"
   xmlns="http://www.w3.org/2000/svg"
   xmlns:sodipodi="http://sodipodi.sourceforge.net/DTD/sodipodi-0.dtd"
   xmlns:inkscape="http://www.inkscape.org/namespaces/inkscape"
   version="1.0"
   width="24.000004"
   height="24.000002"
   viewBox="0 0 187.50003 187.50001"
   preserveAspectRatio="xMidYMid meet"
   id="svg35"
   sodipodi:docname="crying.svg"
   inkscape:version="0.92.4 (5da689c313, 2019-01-14)">
  <metadata
     id="metadata41">
    <rdf:RDF>
      <cc:Work
         rdf:about="">
        <dc:format>image/svg+xml</dc:format>
        <dc:type
           rdf:resource="http://purl.org/dc/dcmitype/StillImage" />
        <dc:title></dc:title>
      </cc:Work>
    </rdf:RDF>
  </metadata>
  <defs
     id="defs39" />
  <sodipodi:namedview
     pagecolor="#ffffff"
     bordercolor="#666666"
     borderopacity="1"
     objecttolerance="10"
     gridtolerance="10"
     guidetolerance="10"
     inkscape:pageopacity="0"
     inkscape:pageshadow="2"
     inkscape:window-width="3696"
     inkscape:window-height="2115"
     id="namedview37"
     showgrid="false"
     fit-margin-top="2"
     fit-margin-left="2"
     fit-margin-right="2"
     fit-margin-bottom="2"
     inkscape:zoom="41.719302"
     inkscape:cx="9.2988134"
     inkscape:cy="14.490606"
     inkscape:window-x="131"
     inkscape:window-y="2147"
     inkscape:window-maximized="1"
     inkscape:current-layer="svg35" />
  <g
     id="layer101"
     style="fill:#000000;stroke:none"
     transform="matrix(0.02161599,0,0,0.02487244,-76.69034,-88.267182)">
    <path
       d="m 7595,10454 c -352,-74 -582,-314 -685,-716 -15,-58 -27,-85 -34,-80 -6,4 -49,32 -96,63 -275,181 -544,272 -800,272 -312,-1 -552,-141 -678,-397 -72,-147 -86,-215 -87,-421 0,-138 4,-200 18,-265 20,-91 50,-194 73,-248 8,-18 14,-38 14,-44 0,-29 148,-308 223,-421 97,-145 98,-140 -17,-152 -140,-14 -332,-74 -481,-150 -319,-162 -531,-369 -663,-647 -61,-127 -78,-179 -97,-294 -63,-383 90,-737 410,-949 213,-140 435,-204 715,-205 157,0 381,35 484,76 15,6 17,3 12,-12 -14,-49 -36,-300 -36,-422 0,-384 100,-716 285,-949 60,-76 167,-175 226,-208 74,-42 111,-59 179,-82 68,-24 89,-26 230,-26 139,1 164,3 240,27 333,104 650,405 855,814 l 36,73 25,-36 c 13,-20 24,-38 24,-41 0,-5 48,-72 60,-84 3,-3 23,-27 45,-55 93,-118 253,-248 385,-315 25,-12 53,-27 63,-32 152,-77 430,-110 609,-73 393,83 683,416 729,840 16,146 4,333 -30,466 -31,123 -33,120 49,79 33,-16 61,-26 185,-65 186,-59 478,-72 670,-31 126,27 169,42 280,96 232,114 404,333 465,591 19,84 22,115 17,230 -7,179 -38,299 -122,474 -41,85 -136,230 -201,305 -135,157 -341,318 -527,410 l -68,34 28,20 c 80,58 174,157 236,247 44,65 117,208 117,231 0,7 10,40 21,73 25,75 36,300 21,430 -21,178 -90,355 -210,535 -54,81 -211,250 -280,301 -19,13 -39,29 -45,34 -28,25 -149,95 -221,129 -174,81 -279,106 -483,113 -174,6 -236,-3 -391,-53 -75,-24 -93,-33 -197,-93 -97,-57 -192,-142 -264,-237 l -47,-62 -24,52 c -86,182 -214,362 -360,504 -236,232 -504,354 -767,351 -54,-1 -107,-3 -118,-5 z"
       id="path2"
       inkscape:connector-curvature="0" />
  </g>
  <g
     id="layer102"
     style="fill:#d91a1a;stroke:none"
     transform="matrix(0.02161599,0,0,0.02487244,-76.69034,-88.267182)">
    <path
       d="m 7595,10454 c -352,-74 -582,-314 -685,-716 -15,-58 -27,-85 -34,-80 -6,4 -49,32 -96,63 -274,181 -542,272 -800,272 -311,0 -551,-141 -678,-397 -59,-118 -83,-217 -89,-371 -7,-174 13,-312 76,-520 42,-136 150,-351 255,-509 98,-147 101,-136 -44,-156 -314,-43 -658,-219 -878,-450 -185,-193 -300,-409 -337,-636 -105,-639 393,-1152 1120,-1154 158,0 387,35 489,76 15,6 17,3 12,-12 -14,-49 -36,-300 -36,-422 0,-482 159,-884 435,-1100 92,-72 148,-102 265,-143 57,-19 85,-22 220,-22 138,1 164,3 238,26 334,105 652,407 857,815 l 37,73 50,-78 c 28,-43 54,-80 57,-83 3,-3 24,-27 46,-55 132,-165 333,-309 534,-380 205,-73 456,-74 649,-4 326,118 564,435 603,804 16,146 4,333 -30,466 -31,123 -33,120 49,79 59,-30 239,-82 350,-101 145,-26 356,-25 487,1 390,77 659,312 756,658 29,105 31,351 4,457 -111,424 -389,761 -812,985 -44,23 -81,43 -82,44 -2,2 16,16 40,33 61,45 160,148 212,223 44,62 125,218 125,240 0,6 10,41 22,78 21,60 23,87 23,267 0,180 -3,208 -24,280 -75,254 -171,423 -335,589 -110,112 -128,126 -236,198 -209,138 -394,197 -647,205 -173,6 -237,-3 -390,-52 -180,-59 -383,-210 -481,-358 l -26,-39 -43,86 c -90,181 -204,339 -343,474 -236,232 -504,354 -767,351 -54,-1 -107,-3 -118,-5 z m 895,-2497 c 45,-21 47,-65 11,-176 -70,-213 -198,-368 -376,-456 -101,-50 -184,-69 -280,-62 -267,17 -478,209 -555,506 -27,103 -26,142 5,171 24,23 30,23 262,27 131,2 245,6 253,7 43,9 657,-7 680,-17 z m 585,-259 c 135,-47 200,-93 250,-179 106,-181 78,-382 -73,-520 -271,-247 -709,-115 -773,233 -23,123 24,257 127,360 65,66 95,82 202,108 138,34 165,34 267,-2 z m -2153,-2 c 161,-29 307,-138 375,-282 36,-74 38,-85 38,-174 0,-88 -3,-101 -34,-165 -64,-130 -188,-214 -349,-237 -72,-11 -95,-10 -165,5 -246,50 -437,252 -437,462 0,118 75,260 163,308 181,100 243,112 409,83 z"
       id="path5"
       inkscape:connector-curvature="0" />
  </g>
  <g
     id="layer103"
     style="fill:#d55454;stroke:none"
     transform="matrix(0.02161599,0,0,0.02487244,-76.69034,-88.267182)">
    <path
       d="m 7536,10439 c -44,-11 -84,-23 -90,-28 -6,-4 -25,-13 -43,-19 -53,-18 -164,-96 -225,-158 -78,-80 -126,-146 -170,-235 -54,-110 -66,-142 -93,-247 -14,-53 -27,-97 -29,-99 -1,-2 -21,10 -44,27 -23,16 -46,30 -51,30 -5,0 -11,3 -13,8 -4,9 -81,59 -111,73 -12,5 -42,21 -67,35 -105,60 -258,115 -405,145 -287,59 -562,-4 -735,-168 -115,-108 -175,-212 -223,-383 -29,-103 -30,-384 -3,-505 61,-267 173,-521 332,-752 45,-66 60,-94 51,-100 -7,-4 -61,-16 -122,-25 -195,-30 -365,-91 -540,-191 -81,-46 -232,-158 -290,-214 -62,-59 -165,-179 -165,-191 0,-5 -3,-12 -8,-14 -15,-6 -85,-122 -121,-201 -231,-502 -53,-1029 431,-1286 164,-87 397,-141 606,-141 103,0 315,24 359,41 14,5 45,14 68,19 23,5 50,12 60,16 15,6 17,3 12,-17 -4,-14 -13,-83 -22,-154 -38,-323 -2,-662 95,-900 74,-181 146,-294 263,-408 61,-61 164,-131 232,-159 143,-59 153,-61 315,-61 139,0 163,3 235,26 340,111 642,394 846,791 45,90 54,102 63,86 109,-191 264,-356 451,-478 37,-24 186,-92 243,-112 225,-76 504,-64 702,32 247,118 431,349 505,632 46,180 42,443 -10,626 -13,46 -22,86 -21,88 2,2 31,-8 65,-23 274,-115 583,-154 842,-105 144,26 272,73 356,130 24,17 47,30 52,30 10,0 117,95 161,144 90,99 152,214 192,356 33,120 33,334 0,466 -41,170 -130,353 -241,499 -116,153 -312,327 -471,419 -36,21 -72,42 -80,47 -8,5 -36,19 -62,32 l -48,23 31,18 c 45,27 155,133 203,196 81,105 130,205 178,360 21,68 23,93 22,270 -1,153 -5,207 -18,250 -9,30 -20,66 -23,80 -8,38 -52,148 -85,215 -152,302 -450,560 -768,663 -153,50 -262,65 -424,59 -191,-7 -272,-27 -437,-108 -139,-68 -288,-194 -355,-301 l -26,-41 -57,109 c -186,356 -457,619 -766,741 -159,63 -358,79 -509,42 z m 349,-165 c 89,-20 270,-108 356,-173 93,-71 243,-231 315,-336 74,-108 161,-278 203,-397 34,-99 51,-229 51,-401 0,-91 -2,-108 -12,-94 -17,21 -83,48 -102,41 -8,-3 -51,6 -96,20 -381,121 -846,126 -1269,16 -63,-17 -117,-30 -121,-30 -18,0 -91,211 -127,370 -36,157 -38,328 -4,445 39,138 113,275 196,363 165,176 359,231 610,176 z m 1956,-444 c 502,-58 931,-478 999,-978 50,-362 -110,-694 -417,-866 l -68,-38 -90,16 c -104,19 -284,35 -400,36 h -80 l -40,72 c -89,158 -255,351 -409,476 -39,31 -75,63 -79,69 -4,7 -14,13 -21,13 -7,0 -21,9 -31,20 -10,11 -22,20 -27,20 -5,0 -55,27 -111,60 l -102,60 -1,157 c 0,87 -6,211 -13,276 l -12,118 36,67 c 84,151 207,269 359,342 160,77 318,102 507,80 z m -3700,-16 c 154,-27 340,-99 489,-191 118,-73 270,-193 275,-217 2,-11 14,-68 25,-126 27,-128 53,-218 96,-329 33,-84 35,-101 9,-101 -8,0 -31,-11 -51,-25 -20,-14 -43,-25 -50,-25 -8,0 -49,-19 -92,-42 -309,-166 -583,-417 -744,-683 -18,-30 -39,-55 -47,-55 -7,0 -53,7 -103,16 l -89,17 -57,69 c -201,243 -357,567 -408,843 -23,129 -21,317 5,420 87,337 360,494 742,429 z M 8490,7956 c 45,-20 47,-64 11,-175 -70,-213 -198,-368 -376,-456 -101,-50 -184,-69 -280,-62 -267,17 -477,208 -555,506 -27,103 -26,142 6,172 25,23 29,24 277,30 345,8 885,0 917,-15 z m -2579,-68 c 82,-13 80,6 18,-173 -147,-424 -104,-878 122,-1278 l 57,-102 -40,-75 c -97,-178 -95,-176 -146,-198 -186,-80 -458,-116 -669,-88 -673,89 -1005,659 -712,1226 62,120 126,205 226,301 185,177 394,291 647,354 171,42 365,55 497,33 z m 4339,-77 c 138,-27 169,-36 268,-82 350,-161 636,-453 756,-771 63,-168 77,-374 37,-523 -68,-246 -260,-433 -523,-509 -292,-84 -642,-42 -948,115 -163,84 -188,100 -225,141 -37,40 -37,40 -17,61 82,92 209,315 266,469 129,348 137,695 26,1041 l -29,90 142,-6 c 78,-3 189,-15 247,-26 z M 9075,7698 c 128,-44 195,-90 245,-168 189,-294 -36,-661 -405,-660 -85,0 -177,31 -260,85 -128,85 -205,260 -177,402 18,86 66,177 128,238 63,62 97,79 202,105 138,34 165,34 267,-2 z m -2153,-2 c 161,-29 307,-138 375,-282 36,-74 38,-85 38,-174 0,-88 -3,-101 -34,-165 -64,-130 -188,-214 -349,-237 -72,-11 -95,-10 -165,5 -212,43 -373,185 -423,372 -31,114 -3,234 79,338 29,37 53,53 166,110 93,48 179,57 313,33 z M 6453,5953 c 244,-205 538,-351 868,-432 131,-32 325,-61 412,-61 29,0 57,-4 64,-8 6,-4 18,-32 27,-62 16,-55 16,-56 -13,-131 -100,-260 -272,-515 -459,-682 -287,-255 -634,-313 -888,-149 -269,175 -425,539 -427,1002 -2,285 40,522 120,678 l 48,92 78,-85 c 44,-47 120,-120 170,-162 z m 3069,102 c 86,-97 165,-333 183,-555 24,-278 -107,-594 -309,-746 -139,-106 -273,-149 -456,-148 -188,2 -346,53 -510,164 -126,86 -272,243 -344,373 -40,71 -101,225 -111,279 l -7,37 h 63 c 128,-1 392,52 589,118 296,98 569,258 795,467 33,30 63,54 66,53 3,-1 22,-20 41,-42 z"
       id="path8"
       inkscape:connector-curvature="0" />
    <path
       d="m 7436,7849 c -20,-16 -20,-16 0,-65 l 21,-49 414,-1 c 228,-1 423,2 435,6 12,5 26,25 33,48 24,73 28,72 -211,73 -117,0 -316,2 -442,2 -198,2 -233,0 -250,-14 z"
       id="path10"
       inkscape:connector-curvature="0" />
    <path
       d="m 8682,7265 c -51,-37 -65,-103 -33,-156 37,-60 104,-86 162,-62 87,34 103,126 35,192 -41,40 -126,54 -164,26 z"
       id="path12"
       inkscape:connector-curvature="0" />
    <path
       d="m 6576,7299 c -73,-21 -103,-96 -67,-167 23,-46 58,-73 115,-90 33,-9 45,-8 82,9 56,27 67,41 68,93 2,96 -107,182 -198,155 z"
       id="path14"
       inkscape:connector-curvature="0" />
  </g>
  <g
     id="layer104"
     style="fill:#ff9700;stroke:none"
     transform="matrix(0.02161599,0,0,0.02487244,-76.69034,-88.267182)">
    <path
       d="m 7735,9023 c -235,-20 -510,-91 -720,-185 -224,-100 -346,-173 -511,-306 -467,-376 -721,-961 -650,-1497 98,-737 658,-1316 1467,-1514 429,-105 873,-86 1299,56 669,222 1156,720 1304,1332 87,359 42,736 -129,1069 -96,190 -192,318 -347,468 -150,145 -331,269 -548,373 -52,26 -107,55 -122,65 -15,10 -43,19 -61,21 -19,2 -71,15 -117,29 -108,34 -299,73 -429,86 -95,9 -343,11 -436,3 z m 755,-1067 c 45,-20 47,-64 11,-175 -70,-213 -198,-368 -376,-456 -101,-50 -184,-69 -280,-62 -267,17 -477,208 -555,506 -27,103 -26,142 6,172 25,23 29,24 277,30 345,8 885,0 917,-15 z m 585,-258 c 128,-44 195,-90 245,-168 189,-294 -36,-661 -405,-660 -85,0 -177,31 -260,85 -128,85 -205,260 -177,402 18,86 66,177 128,238 63,62 97,79 202,105 138,34 165,34 267,-2 z m -2153,-2 c 161,-29 307,-138 375,-282 36,-74 38,-85 38,-174 0,-88 -3,-101 -34,-165 -64,-130 -188,-214 -349,-237 -72,-11 -95,-10 -165,5 -212,43 -373,185 -423,372 -31,114 -3,234 79,338 29,37 53,53 166,110 93,48 179,57 313,33 z"
       id="path17"
       inkscape:connector-curvature="0" />
  </g>
  <g
     id="layer105"
     style="fill:#fed400;stroke:none"
     transform="matrix(0.02161599,0,0,0.02487244,-76.69034,-88.267182)">
    <path
       d="m 8691,8901 c -12,-8 -12,-19 2,-82 8,-41 14,-75 13,-76 -1,-2 -36,8 -77,22 -215,74 -428,107 -684,107 -289,1 -556,-46 -794,-140 -58,-23 -106,-40 -107,-39 -1,1 11,29 27,62 34,70 35,81 9,95 -16,8 -40,0 -131,-46 -126,-63 -207,-111 -279,-166 -27,-21 -53,-38 -58,-38 -20,0 -66,-84 -74,-134 -17,-116 -17,-118 -103,-206 -222,-230 -368,-513 -420,-815 -19,-114 -19,-331 0,-455 37,-241 152,-496 315,-695 308,-376 778,-618 1309,-676 137,-14 441,-7 581,15 619,97 1147,449 1418,946 131,240 193,533 171,800 -30,350 -169,649 -434,930 -58,61 -63,70 -79,145 -35,159 -31,153 -141,222 -55,34 -144,85 -198,113 -80,42 -101,50 -113,39 -8,-6 -12,-19 -10,-28 3,-9 7,-41 10,-71 l 5,-55 -14,45 c -7,25 -17,67 -21,94 -6,35 -16,54 -34,67 -32,23 -71,32 -89,20 z m -215,-931 c 26,0 54,-42 54,-79 0,-100 -90,-295 -188,-406 -83,-94 -207,-175 -323,-209 -84,-25 -222,-21 -317,9 -44,14 -85,32 -92,40 -7,8 -18,15 -24,15 -6,0 -37,21 -68,45 -64,51 -140,148 -171,215 -11,25 -26,57 -33,71 -23,44 -56,199 -49,229 11,51 38,64 138,71 66,4 928,4 1073,-1 z m 599,-272 c 144,-50 227,-114 275,-211 79,-163 40,-373 -92,-492 -166,-149 -413,-170 -592,-51 -127,85 -196,209 -196,351 0,71 28,169 62,220 36,52 127,136 166,152 33,14 153,46 212,57 39,7 99,-3 165,-26 z m -2089,-16 c 138,-37 262,-144 324,-282 39,-85 50,-234 20,-264 -6,-6 -10,-17 -10,-26 0,-25 -39,-92 -78,-134 -233,-246 -693,-168 -844,144 -47,98 -62,169 -48,239 12,66 65,174 100,208 50,46 187,118 255,133 57,13 198,4 281,-18 z"
       id="path20"
       inkscape:connector-curvature="0" />
  </g>
  <g
     id="layer106"
     style="fill:#64c1ff;stroke:none"
     transform="matrix(0.02161599,0,0,0.02487244,-76.69034,-88.267182)">
    <path
       d="m 8693,8902 c -10,-6 -9,-28 7,-99 79,-364 87,-899 15,-1043 -7,-14 -15,-40 -19,-59 -6,-31 -4,-33 17,-27 193,57 260,62 357,27 85,-31 137,-57 181,-92 20,-16 40,-29 43,-29 32,0 62,277 53,498 -3,97 -14,181 -36,287 -55,267 -41,240 -156,312 -55,34 -144,85 -198,114 -128,67 -133,64 -106,-76 29,-150 37,-514 15,-660 -9,-60 -21,-123 -26,-140 -10,-30 -10,-30 -5,5 13,88 17,595 6,702 -18,163 -38,246 -64,263 -30,19 -69,27 -84,17 z"
       id="path23"
       inkscape:connector-curvature="0" />
    <path
       d="m 6936,8797 c -117,-62 -105,-55 -232,-140 -56,-37 -111,-78 -123,-91 -24,-26 -46,-112 -61,-246 -5,-41 -16,-100 -25,-130 -8,-30 -15,-88 -15,-130 0,-64 -5,-84 -32,-140 -27,-54 -32,-76 -32,-135 0,-39 8,-94 18,-125 10,-30 19,-61 21,-67 3,-9 19,-4 52,16 150,92 245,114 394,89 52,-8 96,-13 98,-11 3,2 -1,9 -7,15 -7,7 -12,19 -12,28 0,9 -9,25 -21,36 -67,60 -91,175 -83,399 5,152 9,180 36,265 17,52 47,124 68,160 63,109 112,217 108,236 -6,34 -49,25 -152,-29 z"
       id="path25"
       inkscape:connector-curvature="0" />
  </g>
  <g
     id="layer107"
     style="fill:#fefefe;stroke:none"
     transform="matrix(0.02161599,0,0,0.02487244,-76.69034,-88.267182)">
    <path
       d="m 7430,7845 c -10,-12 -9,-24 7,-63 l 19,-47 345,-3 c 189,-1 384,1 434,5 l 89,8 13,45 c 7,25 11,51 8,58 -3,9 -103,12 -453,12 -388,0 -451,-2 -462,-15 z"
       id="path28"
       inkscape:connector-curvature="0" />
    <path
       d="m 6573,7299 c -30,-9 -62,-43 -76,-83 -25,-66 74,-176 158,-176 44,0 90,28 108,66 22,44 21,49 -4,101 -33,67 -120,110 -186,92 z"
       id="path30"
       inkscape:connector-curvature="0" />
    <path
       d="m 8700,7272 c -14,-5 -35,-23 -48,-42 -71,-105 77,-241 183,-169 51,35 64,83 36,137 -12,23 -32,49 -46,58 -28,18 -89,26 -125,16 z"
       id="path32"
       inkscape:connector-curvature="0" />
  </g>
</svg>
