<?xml version="1.0" encoding="UTF-8" standalone="no"?>
<svg
   xmlns:dc="http://purl.org/dc/elements/1.1/"
   xmlns:cc="http://creativecommons.org/ns#"
   xmlns:rdf="http://www.w3.org/1999/02/22-rdf-syntax-ns#"
   xmlns:svg="http://www.w3.org/2000/svg"
   xmlns="http://www.w3.org/2000/svg"
   xmlns:sodipodi="http://sodipodi.sourceforge.net/DTD/sodipodi-0.dtd"
   xmlns:inkscape="http://www.inkscape.org/namespaces/inkscape"
   version="1.0"
   width="656.56433"
   height="626.28198"
   viewBox="0 0 5129.4088 4892.828"
   preserveAspectRatio="xMidYMid meet"
   id="svg17"
   sodipodi:docname="current_room.svg"
   inkscape:version="0.92.4 (5da689c313, 2019-01-14)">
  <metadata
     id="metadata23">
    <rdf:RDF>
      <cc:Work
         rdf:about="">
        <dc:format>image/svg+xml</dc:format>
        <dc:type
           rdf:resource="http://purl.org/dc/dcmitype/StillImage" />
        <dc:title></dc:title>
      </cc:Work>
    </rdf:RDF>
  </metadata>
  <defs
     id="defs21" />
  <sodipodi:namedview
     pagecolor="#ffffff"
     bordercolor="#666666"
     borderopacity="1"
     objecttolerance="10"
     gridtolerance="10"
     guidetolerance="10"
     inkscape:pageopacity="0"
     inkscape:pageshadow="2"
     inkscape:window-width="3696"
     inkscape:window-height="2115"
     id="namedview19"
     showgrid="false"
     fit-margin-top="0"
     fit-margin-left="0"
     fit-margin-right="0"
     fit-margin-bottom="0"
     inkscape:zoom="0.11523438"
     inkscape:cx="342.96432"
     inkscape:cy="265.344"
     inkscape:window-x="131"
     inkscape:window-y="2147"
     inkscape:window-maximized="1"
     inkscape:current-layer="svg17" />
  <g
     id="layer101"
     style="fill:#71361c;stroke:none"
     transform="translate(-5320.5913,-5180.172)">
    <path
       d="m 6665,10059 c -99,-5 -269,-12 -377,-17 -135,-5 -201,-11 -210,-20 -14,-14 -13,-909 2,-1862 l 9,-555 53,-50 c 29,-27 112,-101 183,-164 72,-62 137,-121 146,-130 9,-9 31,-29 50,-46 19,-16 93,-81 164,-144 72,-64 135,-120 142,-126 6,-5 29,-26 50,-45 21,-19 67,-60 103,-90 35,-30 89,-78 120,-106 30,-28 114,-103 187,-167 73,-64 141,-124 151,-134 32,-29 70,-64 207,-184 72,-63 139,-123 151,-134 72,-69 97,-85 134,-85 26,0 47,7 63,23 14,12 58,51 98,87 40,36 77,70 83,76 6,6 56,50 111,99 55,49 105,94 111,99 59,57 125,116 209,191 55,49 120,107 144,129 104,96 119,109 255,231 50,44 104,94 122,110 17,17 44,41 60,56 103,90 244,217 274,245 19,18 57,52 84,76 27,24 89,81 138,127 88,84 89,85 83,125 -3,23 -10,553 -15,1179 -9,1020 -12,1142 -27,1179 l -16,41 -516,-9 c -284,-5 -562,-9 -618,-9 -158,0 -143,57 -143,-530 0,-272 -1,-495 -2,-495 -26,-5 -973,-28 -977,-24 -3,3 -9,81 -13,172 -4,92 -16,321 -27,510 -16,296 -21,346 -37,363 -16,18 -32,19 -273,18 -141,-1 -337,-6 -436,-10 z"
       id="path2"
       inkscape:connector-curvature="0" />
    <path
       d="m 5433,7665 c -37,-16 -91,-70 -104,-103 -12,-32 -11,-115 2,-149 5,-15 25,-43 42,-62 18,-18 286,-256 597,-529 311,-272 570,-500 575,-506 6,-6 44,-40 85,-75 41,-36 82,-72 91,-80 9,-9 29,-27 45,-41 48,-40 269,-234 274,-240 4,-5 199,-175 274,-240 16,-14 36,-32 45,-41 9,-8 68,-60 130,-115 63,-54 129,-112 145,-127 17,-16 68,-60 114,-99 80,-68 84,-70 146,-75 107,-9 123,-2 243,104 59,53 126,113 148,134 22,20 162,146 310,279 149,134 295,266 326,294 30,28 93,85 140,127 95,86 304,275 364,330 22,20 92,82 155,139 63,57 122,110 131,119 14,14 122,111 179,161 31,27 183,164 239,216 31,28 107,97 170,154 120,109 150,154 151,221 0,76 -52,153 -125,183 -91,38 -155,12 -307,-126 -63,-56 -204,-184 -314,-283 -109,-99 -201,-182 -204,-185 -3,-3 -50,-46 -105,-95 -55,-49 -105,-94 -111,-100 -6,-5 -49,-44 -95,-86 -219,-197 -324,-293 -329,-298 -3,-3 -43,-40 -90,-81 -47,-41 -90,-79 -96,-85 -6,-5 -48,-44 -94,-85 -46,-41 -91,-82 -100,-90 -8,-8 -85,-78 -170,-155 -200,-180 -230,-207 -312,-282 -37,-35 -69,-63 -72,-63 -3,0 -18,12 -33,26 -15,14 -41,37 -58,52 -16,15 -82,73 -145,127 -63,55 -117,102 -120,106 -3,3 -66,58 -140,123 -74,65 -148,130 -165,144 -16,15 -52,47 -80,71 -27,24 -81,72 -120,106 -38,34 -241,212 -450,395 -209,184 -519,455 -688,604 -170,149 -322,276 -339,283 -39,17 -114,16 -155,-2 z"
       id="path4"
       inkscape:connector-curvature="0" />
    <path
       d="m 6059,6419 c -21,-21 -21,-26 -18,-502 1,-389 5,-486 16,-504 l 13,-23 h 333 c 285,0 336,2 355,16 22,15 22,19 22,238 v 224 l -77,68 c -43,37 -85,75 -94,84 -29,27 -181,164 -289,260 -58,52 -107,96 -110,100 -3,3 -20,18 -38,33 -40,33 -84,35 -113,6 z"
       id="path6"
       inkscape:connector-curvature="0" />
  </g>
  <g
     id="layer102"
     style="fill:#fc2423;stroke:none"
     transform="translate(-5320.5913,-5180.172)">
    <path
       d="m 6665,10059 c -99,-5 -269,-12 -377,-17 -135,-5 -201,-11 -210,-20 -14,-14 -13,-909 2,-1862 l 9,-555 53,-50 c 29,-27 112,-101 183,-164 72,-62 137,-121 146,-130 18,-18 50,-47 169,-150 76,-66 111,-97 240,-214 19,-18 64,-57 100,-87 35,-30 89,-78 120,-106 30,-28 114,-103 187,-167 73,-64 141,-124 151,-134 32,-29 70,-64 207,-184 72,-63 139,-123 151,-134 72,-69 97,-85 134,-85 26,0 47,7 63,23 14,12 58,51 98,87 40,36 77,70 83,76 6,5 38,34 71,64 74,66 234,211 249,226 6,5 56,50 111,99 55,49 120,107 144,129 104,96 119,109 255,231 50,44 104,94 122,110 17,17 44,41 60,55 41,36 243,218 279,251 17,15 52,47 79,71 27,23 89,81 138,127 88,84 89,85 83,125 -3,23 -10,553 -15,1179 -9,1020 -12,1142 -27,1179 l -16,41 -516,-9 c -284,-5 -562,-9 -618,-9 -158,0 -143,57 -143,-530 0,-272 -1,-495 -2,-495 -26,-5 -973,-28 -977,-24 -3,3 -9,81 -13,172 -4,92 -16,321 -27,510 -16,296 -21,346 -37,363 -16,18 -32,19 -273,18 -141,-1 -337,-6 -436,-10 z"
       id="path9"
       inkscape:connector-curvature="0" />
    <path
       d="m 5433,7665 c -37,-16 -91,-70 -104,-103 -12,-32 -11,-115 2,-149 5,-15 25,-43 42,-62 18,-18 286,-256 597,-529 311,-272 570,-500 575,-506 6,-6 44,-40 85,-76 85,-73 125,-108 149,-130 9,-8 71,-62 136,-120 66,-58 122,-107 125,-110 4,-5 199,-175 274,-240 16,-14 36,-32 45,-41 9,-8 68,-60 130,-115 63,-54 129,-112 145,-127 17,-16 68,-60 114,-99 80,-68 84,-70 146,-75 107,-9 123,-2 243,104 59,53 126,113 148,134 22,20 162,146 310,279 149,134 295,266 326,294 30,28 93,85 140,127 95,86 304,275 364,330 22,20 92,82 155,139 63,57 122,110 131,119 14,14 122,111 179,161 31,27 183,164 239,216 31,28 107,97 170,154 120,109 150,154 151,221 0,76 -48,147 -123,182 -96,44 -153,17 -359,-170 -90,-81 -231,-209 -313,-283 -83,-74 -152,-137 -155,-140 -3,-3 -50,-46 -105,-95 -55,-49 -105,-94 -111,-100 -6,-5 -49,-44 -95,-86 -240,-216 -324,-293 -329,-299 -3,-4 -43,-40 -90,-81 -47,-40 -90,-78 -96,-84 -6,-5 -48,-44 -94,-85 -46,-41 -91,-82 -100,-90 -8,-8 -85,-78 -170,-155 -200,-180 -230,-207 -312,-282 -37,-35 -69,-63 -72,-63 -3,0 -18,12 -33,26 -15,14 -41,37 -58,52 -16,15 -82,73 -145,127 -63,55 -117,102 -120,106 -3,3 -66,58 -140,123 -74,65 -148,130 -165,144 -16,15 -52,47 -80,71 -27,24 -81,72 -120,106 -38,34 -241,212 -450,395 -209,184 -519,455 -688,604 -170,149 -322,276 -339,283 -39,17 -114,16 -155,-2 z"
       id="path11"
       inkscape:connector-curvature="0" />
  </g>
  <g
     id="layer103"
     style="fill:#e9a688;stroke:none"
     transform="translate(-5320.5913,-5180.172)">
    <path
       d="m 6585,10054 c -143,-6 -308,-13 -366,-13 -89,-1 -111,-4 -130,-20 l -23,-19 2,-643 c 2,-354 7,-893 12,-1198 l 9,-555 53,-50 c 48,-46 153,-139 267,-238 23,-21 82,-73 129,-116 48,-43 123,-110 167,-148 125,-108 136,-117 169,-149 17,-16 65,-59 106,-95 41,-35 98,-85 125,-111 28,-26 109,-99 182,-162 73,-64 141,-124 151,-134 31,-29 69,-63 207,-184 142,-125 185,-162 222,-196 33,-31 93,-31 126,0 14,12 58,51 98,87 40,36 77,70 83,76 6,5 38,34 71,64 65,57 231,208 249,225 6,6 56,51 111,100 115,103 181,163 206,187 10,9 78,71 151,136 73,66 147,132 165,148 17,16 44,41 60,55 39,34 250,226 288,260 17,15 44,40 60,55 17,14 76,69 133,122 l 103,95 -6,41 c -3,23 -10,554 -15,1181 -10,1047 -12,1142 -28,1175 l -17,35 h -340 c -187,0 -465,-3 -618,-6 -247,-6 -280,-8 -297,-24 -19,-18 -20,-33 -20,-512 0,-271 -1,-493 -2,-493 -2,-1 -221,-7 -488,-15 -359,-11 -486,-12 -491,-3 -4,6 -10,86 -13,177 -3,91 -14,318 -25,504 -16,291 -22,341 -37,358 -16,18 -32,19 -273,18 -141,-1 -373,-8 -516,-15 z"
       id="path14"
       inkscape:connector-curvature="0" />
  </g>
</svg>
