<?xml version="1.0" encoding="UTF-8" standalone="no"?>
<svg
   xmlns:dc="http://purl.org/dc/elements/1.1/"
   xmlns:cc="http://creativecommons.org/ns#"
   xmlns:rdf="http://www.w3.org/1999/02/22-rdf-syntax-ns#"
   xmlns:svg="http://www.w3.org/2000/svg"
   xmlns="http://www.w3.org/2000/svg"
   xmlns:sodipodi="http://sodipodi.sourceforge.net/DTD/sodipodi-0.dtd"
   xmlns:inkscape="http://www.inkscape.org/namespaces/inkscape"
   version="1.0"
   width="24.000004"
   height="24"
   viewBox="0 0 187.50003 187.5"
   preserveAspectRatio="xMidYMid meet"
   id="svg26"
   sodipodi:docname="growing.svg"
   inkscape:version="0.92.4 (5da689c313, 2019-01-14)">
  <metadata
     id="metadata32">
    <rdf:RDF>
      <cc:Work
         rdf:about="">
        <dc:format>image/svg+xml</dc:format>
        <dc:type
           rdf:resource="http://purl.org/dc/dcmitype/StillImage" />
        <dc:title></dc:title>
      </cc:Work>
    </rdf:RDF>
  </metadata>
  <defs
     id="defs30" />
  <sodipodi:namedview
     pagecolor="#ffffff"
     bordercolor="#666666"
     borderopacity="1"
     objecttolerance="10"
     gridtolerance="10"
     guidetolerance="10"
     inkscape:pageopacity="0"
     inkscape:pageshadow="2"
     inkscape:window-width="3696"
     inkscape:window-height="2115"
     id="namedview28"
     showgrid="false"
     fit-margin-top="2"
     fit-margin-right="2"
     fit-margin-bottom="2"
     fit-margin-left="2"
     inkscape:zoom="29.5"
     inkscape:cx="4.9605672"
     inkscape:cy="14.756213"
     inkscape:window-x="131"
     inkscape:window-y="2147"
     inkscape:window-maximized="1"
     inkscape:current-layer="svg26" />
  <g
     id="layer101"
     transform="matrix(0.02254624,0,0,0.02226414,-100.95871,-60.295717)"
     style="fill:#09870b;stroke:none">
    <path
       d="m 10640,10423 c -523,-7 -3394,-33 -4233,-38 -946,-6 -990,-7 -1019,-25 -45,-27 -71,-98 -63,-170 15,-127 74,-314 141,-446 83,-165 158,-268 284,-394 153,-154 269,-229 445,-287 71,-23 96,-26 225,-26 125,-1 154,3 213,22 95,32 191,84 267,145 l 65,52 35,-40 c 64,-71 319,-284 470,-392 182,-129 356,-225 485,-267 106,-35 188,-57 214,-57 51,0 52,-4 38,-158 -11,-116 -18,-150 -40,-191 -24,-48 -115,-174 -180,-251 -88,-104 -141,-160 -152,-160 -6,0 -20,10 -31,21 -28,32 -194,162 -234,185 -19,10 -42,24 -50,30 -34,26 -191,86 -290,111 -98,25 -119,27 -315,27 -204,-1 -213,-2 -315,-32 -138,-40 -178,-55 -285,-107 -153,-74 -246,-136 -330,-220 -135,-134 -176,-233 -251,-605 -31,-155 -110,-450 -146,-550 -100,-272 -170,-395 -337,-589 -76,-88 -87,-112 -77,-165 7,-35 23,-53 69,-76 25,-12 39,-12 112,3 45,9 99,17 119,17 21,0 83,7 139,15 247,36 411,54 537,60 426,19 685,59 944,146 419,141 704,399 815,739 50,153 66,407 37,581 -8,46 -17,108 -20,138 l -7,53 85,87 c 46,47 103,110 126,139 23,28 42,52 43,52 1,0 3,-168 3,-373 2,-504 30,-748 128,-1097 l 12,-45 -52,-62 c -72,-85 -214,-301 -275,-418 -123,-237 -164,-398 -163,-640 0,-123 4,-165 22,-233 51,-188 124,-328 256,-487 137,-167 286,-267 546,-369 52,-21 111,-44 130,-53 109,-47 321,-107 515,-143 260,-49 396,-81 505,-117 177,-59 333,-145 468,-256 106,-88 122,-97 166,-97 50,0 83,18 108,59 30,50 28,161 -7,361 -48,271 -75,501 -75,628 0,103 -28,353 -55,487 -50,254 -85,415 -107,500 -50,194 -156,438 -250,579 -197,290 -528,461 -917,474 -126,4 -155,1 -240,-19 -78,-19 -280,-87 -363,-123 -13,-6 -19,-1 -23,21 -4,15 -15,60 -25,98 -78,296 -117,758 -104,1214 l 7,230 41,-32 c 22,-18 52,-43 66,-56 70,-65 324,-246 458,-326 61,-37 71,-48 97,-123 35,-100 88,-198 191,-352 214,-322 478,-485 837,-515 67,-6 106,-2 264,25 98,16 232,64 453,159 201,87 341,144 430,174 251,84 437,122 649,132 81,4 154,13 167,20 76,39 86,117 27,205 -51,76 -99,129 -238,256 -263,240 -565,473 -780,599 -357,210 -727,316 -1048,302 -267,-11 -467,-95 -623,-259 -87,-91 -199,-281 -249,-425 l -19,-52 -35,21 c -166,99 -463,321 -615,460 l -59,54 12,125 c 7,68 15,132 17,142 5,15 20,17 122,17 224,1 435,49 637,147 198,95 292,171 516,418 35,39 69,76 76,83 7,7 40,49 74,93 51,65 66,79 83,75 128,-35 326,-56 532,-56 310,0 524,39 744,133 164,71 265,137 350,231 104,114 243,370 301,551 10,33 28,75 39,93 11,18 20,46 20,62 0,35 -40,104 -69,120 -18,9 -663,11 -1211,3 z"
       id="path2"
       inkscape:connector-curvature="0" />
  </g>
  <g
     id="layer102"
     transform="matrix(0.02254624,0,0,0.02226414,-100.95871,-60.295717)"
     style="fill:#3e5f16;stroke:none">
    <path
       d="m 10640,10423 c -523,-7 -3394,-33 -4233,-38 -946,-6 -990,-7 -1019,-25 -45,-27 -71,-98 -63,-170 15,-127 74,-314 141,-446 83,-165 158,-268 284,-394 153,-154 269,-229 445,-287 71,-23 96,-26 225,-26 125,-1 154,3 213,22 95,32 191,84 267,145 l 65,52 35,-40 c 91,-103 381,-334 605,-484 172,-115 446,-225 584,-234 l 45,-3 23,170 c 33,246 59,364 85,392 41,43 128,24 142,-32 4,-14 -2,-69 -13,-123 -27,-132 -63,-410 -56,-422 11,-17 242,-11 365,10 169,28 259,56 405,127 198,95 292,171 516,418 35,39 69,76 76,83 7,7 40,49 74,93 51,65 66,79 83,75 128,-35 326,-56 532,-56 310,0 524,39 744,133 164,71 265,137 350,231 104,114 243,370 301,551 10,33 28,75 39,93 11,18 20,46 20,62 0,35 -40,104 -69,120 -18,9 -663,11 -1211,3 z"
       id="path5"
       inkscape:connector-curvature="0" />
    <path
       d="m 10562,3580 c 0,-19 2,-27 5,-17 2,9 2,25 0,35 -3,9 -5,1 -5,-18 z"
       id="path7"
       inkscape:connector-curvature="0" />
  </g>
  <g
     id="layer103"
     transform="matrix(0.02254624,0,0,0.02226414,-100.95871,-60.295717)"
     style="fill:#645319;stroke:none">
    <path
       d="m 10665,10423 c -507,-7 -3417,-33 -4260,-38 -1119,-6 -1030,1 -1065,-93 -24,-63 -21,-107 16,-247 46,-180 115,-334 215,-482 66,-97 84,-118 189,-224 138,-139 273,-223 440,-276 75,-23 102,-27 220,-27 142,0 172,6 304,61 61,25 146,79 203,130 l 32,28 88,-83 c 167,-159 482,-399 650,-496 135,-78 365,-163 486,-180 48,-6 51,-1 72,169 21,168 54,343 71,376 17,34 67,55 101,43 14,-5 35,-21 46,-37 20,-25 20,-31 8,-95 -26,-139 -61,-389 -61,-434 v -48 h 118 c 254,0 522,70 725,189 43,25 88,51 99,58 83,46 326,291 481,484 56,71 76,89 92,86 78,-18 184,-37 261,-46 128,-15 417,-14 559,4 321,38 625,166 782,327 111,115 244,346 314,549 18,51 41,108 51,124 10,17 18,39 18,51 0,28 -28,84 -54,109 -20,19 -34,20 -526,20 -278,1 -581,0 -675,-2 z"
       id="path10"
       inkscape:connector-curvature="0" />
  </g>
  <g
     id="layer104"
     transform="matrix(0.02254624,0,0,0.02226414,-100.95871,-60.295717)"
     style="fill:#95481c;stroke:none">
    <path
       d="m 10827,10424 c -1,-1 -400,-5 -887,-9 -487,-4 -921,-8 -965,-10 -44,-1 -516,-6 -1050,-9 -533,-4 -1188,-9 -1455,-11 -267,-2 -609,-5 -760,-5 -331,-1 -338,-3 -370,-88 -22,-59 -21,-90 7,-212 15,-69 52,-188 62,-205 3,-5 6,-12 6,-15 1,-16 41,-100 48,-100 4,0 7,-7 7,-15 0,-9 11,-33 25,-55 14,-22 25,-44 25,-49 0,-5 4,-11 8,-13 4,-1 20,-25 36,-52 15,-26 37,-57 47,-67 10,-10 17,-19 14,-19 -8,0 45,-60 130,-145 82,-83 197,-173 250,-196 17,-8 32,-17 35,-21 5,-6 33,-18 165,-65 62,-23 86,-25 210,-26 120,0 150,3 210,23 39,12 75,26 80,30 6,4 27,13 48,19 20,7 37,17 37,22 0,5 5,9 11,9 14,0 87,51 126,89 l 33,31 48,-48 c 83,-80 185,-174 222,-201 19,-14 46,-36 60,-48 14,-13 28,-23 32,-23 4,0 22,-14 40,-31 30,-27 106,-82 206,-148 21,-13 39,-27 42,-31 3,-3 25,-17 50,-30 25,-14 52,-30 60,-36 8,-7 22,-14 30,-16 8,-2 17,-6 20,-9 26,-29 305,-125 395,-136 21,-2 42,-6 46,-9 13,-8 18,11 34,142 18,150 52,344 66,383 27,69 98,93 152,51 34,-27 40,-58 23,-132 -16,-70 -51,-297 -61,-400 l -7,-68 h 118 c 143,0 414,44 489,80 29,13 147,61 168,67 9,3 17,9 17,14 0,5 6,9 13,9 8,0 40,17 73,38 32,21 67,41 77,45 9,3 17,11 17,17 0,5 7,10 15,10 36,0 495,493 495,533 0,10 31,6 115,-13 28,-6 75,-13 105,-16 30,-3 75,-9 100,-14 59,-11 404,-10 500,1 41,5 92,11 114,14 21,2 48,8 60,12 11,4 26,7 31,8 30,3 186,51 230,70 17,7 41,16 55,20 36,11 189,93 230,123 44,33 150,136 150,146 0,4 11,19 25,34 14,15 25,30 25,35 0,4 9,17 19,28 11,12 30,42 43,67 12,26 29,53 36,60 6,7 12,19 12,26 0,6 16,42 34,78 19,36 49,108 66,159 18,52 39,108 48,124 9,17 17,36 18,43 4,21 -19,76 -44,108 l -24,29 -509,1 c -280,0 -510,-1 -512,-2 z"
       id="path13"
       inkscape:connector-curvature="0" />
  </g>
  <g
     id="layer105"
     transform="matrix(0.02254624,0,0,0.02226414,-100.95871,-60.295717)"
     style="fill:#703920;stroke:none">
    <path
       d="m 10907,10424 c -1,-1 -362,-5 -802,-9 -440,-3 -879,-8 -975,-10 -181,-4 -1004,-10 -2620,-21 -1206,-9 -1115,-4 -1148,-52 -39,-56 -45,-175 -13,-262 5,-14 12,-39 15,-57 7,-41 85,-241 97,-249 5,-3 9,-11 9,-18 0,-15 111,-202 137,-231 10,-11 31,-38 47,-60 64,-88 277,-274 351,-307 17,-7 32,-15 35,-18 9,-9 113,-51 180,-72 86,-27 310,-29 392,-3 93,29 240,108 295,159 l 53,48 83,-80 c 84,-83 98,-95 162,-147 21,-16 48,-39 60,-50 13,-11 33,-27 46,-35 12,-8 34,-26 48,-39 38,-34 351,-246 381,-257 8,-3 24,-10 35,-17 113,-63 435,-161 450,-137 3,4 25,160 25,176 0,1 -35,10 -77,19 -233,52 -418,150 -708,376 -184,143 -298,243 -366,326 -71,84 -84,93 -133,93 -30,0 -48,-11 -118,-76 -156,-142 -260,-188 -428,-187 -86,0 -119,4 -185,26 -225,74 -450,290 -595,572 -41,80 -107,274 -112,330 l -3,30 860,7 c 473,3 1330,11 1905,17 575,6 1459,13 1965,16 506,3 1036,8 1177,11 l 257,6 -25,-74 c -60,-177 -192,-399 -289,-486 -91,-80 -266,-164 -435,-207 -140,-36 -231,-47 -425,-52 -202,-5 -285,2 -545,49 -76,13 -127,6 -164,-23 -15,-12 -63,-67 -109,-122 -122,-152 -319,-360 -394,-416 -205,-153 -439,-233 -727,-247 l -135,-7 -5,-26 c -3,-14 -8,-56 -12,-93 l -6,-68 h 108 c 92,0 227,14 325,34 53,11 138,36 214,65 127,47 145,55 145,63 0,4 6,8 13,8 7,0 43,20 80,44 37,24 67,41 67,38 0,-4 5,1 11,11 5,9 14,17 20,17 28,0 340,318 435,445 21,28 44,56 51,63 7,7 13,18 13,24 0,10 27,8 110,-10 25,-6 72,-13 105,-17 33,-4 89,-11 125,-16 153,-21 570,-1 655,31 11,4 23,8 28,8 37,2 179,43 234,68 17,8 34,14 38,14 13,0 102,44 177,87 70,40 218,167 218,186 0,4 11,20 25,35 14,15 25,32 25,38 0,6 8,18 18,28 11,9 31,40 46,69 15,28 31,59 36,67 34,60 82,169 108,245 17,50 40,111 52,138 l 21,47 -20,43 c -42,90 9,82 -522,82 -259,0 -471,-1 -472,-1 z"
       id="path16"
       inkscape:connector-curvature="0" />
  </g>
  <g
     id="layer106"
     transform="matrix(0.02254624,0,0,0.02226414,-100.95871,-60.295717)"
     style="fill:#25b427;stroke:none">
    <path
       d="m 9802,8164 c -46,-13 -104,-35 -131,-48 -115,-59 -220,-175 -299,-331 -40,-79 -92,-211 -92,-234 0,-7 38,-30 84,-51 155,-72 374,-136 541,-160 206,-29 577,6 953,90 73,17 142,30 153,30 31,0 79,-53 79,-88 0,-39 -38,-78 -90,-92 -101,-27 -377,-80 -525,-101 -127,-18 -206,-23 -380,-23 -204,0 -229,2 -339,27 -130,30 -364,106 -428,138 -22,11 -42,18 -45,15 -7,-6 44,-97 115,-205 177,-269 435,-422 712,-422 161,0 296,36 570,154 387,166 550,224 790,281 105,25 293,56 346,56 27,1 21,8 -81,107 -116,111 -330,289 -511,426 -310,233 -616,378 -917,436 -161,31 -391,29 -505,-5 z"
       id="path19"
       inkscape:connector-curvature="0" />
    <path
       d="m 6711,7909 c -228,-48 -504,-186 -614,-308 -73,-81 -110,-179 -162,-435 -41,-205 -120,-502 -170,-646 -50,-144 -162,-370 -224,-455 l -52,-70 26,-3 c 15,-2 72,4 128,12 178,27 366,46 572,56 389,20 612,60 885,159 269,98 484,280 586,496 49,106 70,192 80,330 6,89 -9,305 -22,327 -3,4 -55,-32 -117,-81 -262,-206 -583,-404 -957,-591 -245,-124 -303,-150 -324,-150 -28,0 -64,22 -75,47 -31,68 5,115 128,167 203,86 687,360 911,515 167,115 390,293 390,311 0,17 -172,157 -248,202 -204,121 -499,168 -741,117 z"
       id="path21"
       inkscape:connector-curvature="0" />
    <path
       d="m 8977,6300 c -90,-16 -384,-116 -410,-139 -17,-16 120,-328 223,-506 185,-323 358,-536 799,-985 151,-155 171,-179 171,-208 0,-48 -37,-82 -92,-82 -43,-1 -44,0 -252,212 -567,579 -769,871 -1014,1472 -16,37 -239,-317 -312,-493 -70,-172 -92,-441 -49,-607 62,-237 246,-483 455,-605 119,-70 445,-198 619,-243 33,-8 161,-35 285,-60 306,-61 380,-79 490,-119 159,-58 372,-172 448,-240 l 22,-20 v 22 c 0,13 -11,84 -25,160 -33,185 -53,359 -66,586 -14,253 -48,466 -139,876 -71,317 -207,590 -372,746 -107,101 -216,157 -393,204 -121,32 -300,45 -388,29 z"
       id="path23"
       inkscape:connector-curvature="0" />
  </g>
</svg>
