<?xml version="1.0" encoding="UTF-8" standalone="no"?>
<svg
   xmlns:dc="http://purl.org/dc/elements/1.1/"
   xmlns:cc="http://creativecommons.org/ns#"
   xmlns:rdf="http://www.w3.org/1999/02/22-rdf-syntax-ns#"
   xmlns:svg="http://www.w3.org/2000/svg"
   xmlns="http://www.w3.org/2000/svg"
   xmlns:sodipodi="http://sodipodi.sourceforge.net/DTD/sodipodi-0.dtd"
   xmlns:inkscape="http://www.inkscape.org/namespaces/inkscape"
   version="1.0"
   width="23.999998"
   height="24.000004"
   viewBox="0 0 187.49999 187.50003"
   preserveAspectRatio="xMidYMid meet"
   id="svg30"
   sodipodi:docname="harvesting.svg"
   inkscape:version="0.92.4 (5da689c313, 2019-01-14)">
  <metadata
     id="metadata36">
    <rdf:RDF>
      <cc:Work
         rdf:about="">
        <dc:format>image/svg+xml</dc:format>
        <dc:type
           rdf:resource="http://purl.org/dc/dcmitype/StillImage" />
        <dc:title></dc:title>
      </cc:Work>
    </rdf:RDF>
  </metadata>
  <defs
     id="defs34" />
  <sodipodi:namedview
     pagecolor="#ffffff"
     bordercolor="#666666"
     borderopacity="1"
     objecttolerance="10"
     gridtolerance="10"
     guidetolerance="10"
     inkscape:pageopacity="0"
     inkscape:pageshadow="2"
     inkscape:window-width="3696"
     inkscape:window-height="2115"
     id="namedview32"
     showgrid="false"
     fit-margin-top="2"
     fit-margin-right="2"
     fit-margin-bottom="2"
     fit-margin-left="2"
     inkscape:zoom="41.7193"
     inkscape:cx="2.4054132"
     inkscape:cy="14.01177"
     inkscape:window-x="131"
     inkscape:window-y="2147"
     inkscape:window-maximized="1"
     inkscape:current-layer="svg30" />
  <g
     id="layer101"
     transform="matrix(0.02303297,0,0,0.02280085,-99.223073,-73.891137)"
     style="fill:#010101;stroke:none">
    <path
       d="m 6825,10762 c -46,-29 -62,-60 -70,-139 l -7,-71 -44,28 c -25,15 -84,45 -132,66 l -87,39 -220,-1 c -161,-1 -244,-6 -310,-18 -49,-9 -118,-21 -152,-26 -207,-32 -432,-158 -535,-300 -83,-114 -194,-355 -238,-520 -31,-113 -52,-368 -39,-477 13,-117 15,-125 64,-228 96,-200 238,-330 406,-370 121,-28 229,-17 418,45 52,17 95,29 97,27 8,-7 -16,-128 -31,-158 -28,-55 -55,-78 -114,-95 -67,-19 -78,-27 -96,-71 -13,-30 -13,-39 -1,-67 19,-47 52,-66 109,-66 166,0 317,171 334,378 5,62 8,72 22,67 9,-4 40,-13 70,-21 29,-8 57,-17 62,-19 4,-3 43,-10 86,-15 140,-18 132,-13 127,-78 -3,-31 -14,-131 -24,-222 -11,-91 -26,-228 -35,-305 -8,-77 -22,-201 -31,-275 -8,-74 -19,-178 -24,-230 -4,-52 -15,-151 -23,-220 -9,-69 -23,-195 -32,-280 -9,-85 -22,-207 -30,-270 -8,-63 -19,-167 -25,-230 -6,-63 -15,-142 -20,-176 -6,-33 -11,-107 -12,-165 -2,-94 0,-108 21,-142 20,-33 22,-45 16,-105 -17,-178 63,-378 190,-472 49,-36 142,-85 198,-104 12,-4 17,-16 17,-43 0,-21 6,-77 14,-124 19,-117 70,-220 147,-297 101,-100 215,-141 398,-142 85,0 93,-2 86,-17 -8,-22 -48,-191 -71,-298 -11,-54 -15,-113 -13,-182 3,-88 7,-105 25,-123 29,-29 96,-37 128,-16 40,25 50,55 52,146 2,76 45,327 60,352 4,5 20,-3 38,-20 76,-71 169,-125 252,-147 72,-19 124,-19 192,-1 l 53,14 10,-26 c 89,-233 266,-423 507,-542 141,-69 201,-84 342,-84 108,1 135,4 195,26 116,42 158,65 255,143 105,84 120,91 152,74 84,-45 259,-52 351,-15 83,34 126,67 242,181 l 102,101 44,-38 c 50,-43 188,-138 236,-162 55,-28 101,-21 139,20 33,34 48,94 24,94 -5,0 -10,6 -10,14 0,17 -22,34 -129,101 -45,28 -81,53 -81,57 0,4 39,26 86,50 93,47 187,124 235,194 48,70 91,163 98,213 6,46 6,46 59,57 94,21 155,57 237,139 130,130 196,306 179,475 -9,91 -42,188 -118,341 -61,124 -64,133 -49,155 16,25 10,102 -38,455 -23,176 -24,199 -5,199 83,0 287,326 443,709 123,304 173,539 173,815 0,158 -21,371 -41,421 -6,17 -12,86 -13,155 -2,155 -19,193 -107,245 -147,85 -598,317 -721,370 l -66,29 -11,73 c -6,41 -16,118 -21,171 -6,53 -17,151 -25,217 -42,345 -55,457 -61,525 -7,85 -20,110 -78,149 l -41,28 -360,6 c -198,3 -686,12 -1085,21 -399,9 -972,20 -1275,26 -302,6 -653,13 -780,16 -216,5 -232,5 -260,-14 z m 4142,-2112 c 131,-63 413,-181 445,-186 24,-4 54,0 87,12 28,10 54,14 58,10 5,-4 10,-62 12,-129 4,-147 -17,-300 -65,-477 -32,-117 -45,-156 -96,-285 -68,-175 -214,-459 -275,-534 l -19,-24 -22,174 c -25,194 -50,408 -58,484 -3,28 -11,102 -19,165 -23,185 -81,678 -90,768 -3,23 -3,42 -2,42 2,0 22,-9 44,-20 z"
       id="path2"
       inkscape:connector-curvature="0" />
  </g>
  <g
     id="layer102"
     transform="matrix(0.02303297,0,0,0.02280085,-99.223073,-73.891137)"
     style="fill:#2c2727;stroke:none">
    <path
       d="m 6845,10768 c -59,-21 -78,-54 -90,-161 l -7,-58 -31,21 c -65,44 -198,100 -264,111 -84,15 -382,5 -498,-16 -44,-8 -110,-19 -146,-25 -223,-33 -456,-168 -555,-321 -93,-144 -190,-362 -224,-503 -59,-246 -58,-493 1,-648 60,-154 190,-314 308,-377 105,-55 243,-75 363,-50 63,13 219,59 233,69 6,4 18,10 28,13 17,6 18,2 12,-51 -12,-101 -71,-202 -119,-202 -35,0 -107,-41 -117,-67 -17,-46 -11,-83 22,-115 29,-29 33,-30 92,-26 101,8 200,73 261,171 29,47 66,175 66,227 0,28 1,50 3,50 1,0 38,-11 82,-25 44,-14 121,-30 172,-36 50,-7 96,-15 102,-18 11,-7 4,-108 -23,-331 -8,-69 -22,-192 -31,-275 -9,-82 -25,-226 -35,-320 -11,-93 -26,-233 -34,-310 -26,-236 -55,-503 -71,-640 -8,-71 -17,-159 -21,-195 -3,-36 -12,-114 -20,-175 -24,-188 -23,-262 5,-318 20,-42 23,-58 17,-112 -18,-180 63,-382 191,-476 47,-36 141,-84 196,-103 11,-4 17,-16 17,-38 0,-18 6,-74 14,-123 19,-130 68,-225 157,-309 104,-99 209,-135 388,-136 85,0 93,-2 86,-17 -11,-30 -52,-203 -70,-299 -24,-127 -18,-270 12,-303 28,-30 94,-39 128,-17 38,25 58,72 51,120 -3,22 -2,66 3,96 18,118 43,244 52,268 l 10,25 32,-30 c 133,-126 307,-185 440,-150 l 58,15 11,-26 c 90,-233 283,-438 511,-546 138,-65 194,-78 332,-79 116,0 138,2 204,26 98,36 181,83 269,156 84,69 102,77 134,60 44,-24 125,-39 208,-39 142,1 222,44 389,209 94,94 100,98 115,82 9,-10 51,-43 94,-74 195,-140 247,-156 308,-91 23,24 34,45 34,65 0,16 -4,29 -9,29 -5,0 -11,9 -14,20 -3,11 -19,28 -37,37 -17,10 -65,40 -107,67 l -75,49 34,17 c 193,95 280,174 348,313 24,48 46,107 49,130 6,40 7,42 56,53 102,24 160,58 243,143 64,65 123,162 153,251 17,51 22,88 22,170 0,136 -25,213 -148,452 -32,63 -34,69 -21,100 14,36 15,27 -24,353 -12,99 -24,207 -27,240 -4,52 -9,64 -39,92 -41,38 -46,87 -13,139 20,33 20,35 4,171 -9,76 -20,176 -25,223 -4,47 -15,139 -23,205 -9,66 -23,183 -32,260 -17,157 -48,419 -70,600 -8,66 -17,148 -20,182 -4,34 -12,66 -18,71 -7,6 -106,57 -222,115 -278,141 -303,157 -340,232 -24,49 -30,73 -30,127 0,38 -3,68 -6,68 -34,0 -310,-131 -475,-225 -108,-62 -394,-251 -489,-324 -78,-59 -289,-270 -347,-346 -158,-208 -282,-444 -384,-725 -24,-69 -84,-306 -84,-336 0,-9 16,-33 36,-52 78,-75 101,-197 54,-282 -51,-92 -170,-119 -263,-60 -153,97 -170,310 -32,391 30,18 33,26 59,147 41,188 105,366 221,606 134,280 343,546 588,753 190,159 592,408 872,539 102,48 315,124 347,124 9,0 37,14 62,30 25,17 76,45 113,61 58,27 75,30 128,26 33,-3 71,-8 84,-12 21,-7 23,-6 18,21 -7,33 -29,216 -52,419 -9,77 -24,212 -35,300 -10,88 -22,193 -26,234 -9,101 -25,130 -98,170 -33,19 -54,21 -234,21 -108,0 -460,7 -782,15 -322,8 -875,19 -1230,25 -355,6 -805,15 -1000,20 -431,12 -477,11 -515,-2 z"
       id="path5"
       inkscape:connector-curvature="0" />
    <path
       d="m 10630,9359 c -87,-39 -140,-113 -140,-194 0,-37 5,-51 28,-72 57,-53 879,-439 918,-431 27,5 73,80 84,137 12,63 13,151 2,168 -26,41 -771,413 -826,413 -12,0 -41,-10 -66,-21 z"
       id="path7"
       inkscape:connector-curvature="0" />
  </g>
  <g
     id="layer103"
     transform="matrix(0.02303297,0,0,0.02280085,-99.223073,-73.891137)"
     style="fill:#3d2120;stroke:none">
    <path
       d="m 6069,10680 c -48,-5 -122,-15 -165,-23 -44,-9 -98,-18 -120,-21 -70,-10 -215,-62 -286,-102 -138,-80 -216,-157 -286,-284 -111,-201 -184,-397 -207,-555 -31,-219 -22,-401 26,-527 60,-154 190,-314 308,-377 105,-55 243,-75 363,-50 63,13 219,59 233,69 6,4 18,10 28,13 17,6 18,2 12,-51 -12,-101 -71,-202 -119,-202 -35,0 -107,-41 -117,-67 -17,-46 -11,-83 22,-115 29,-29 33,-30 92,-26 101,8 200,73 261,171 29,47 66,175 66,227 0,28 1,50 3,50 1,0 38,-11 82,-25 104,-32 296,-58 396,-53 78,3 79,3 79,-22 0,-13 -25,-247 -55,-520 -30,-272 -71,-641 -90,-820 -20,-179 -42,-381 -50,-450 -47,-406 -69,-620 -64,-625 2,-2 1020,-6 2262,-11 l 2257,-7 v 25 c 0,14 -4,60 -10,104 -9,78 -30,254 -70,599 -11,99 -27,234 -35,300 -8,66 -23,201 -35,300 -11,99 -27,236 -35,305 -8,69 -24,204 -35,300 -12,96 -27,229 -35,295 -8,66 -17,152 -21,191 -3,40 -9,76 -13,82 -3,5 -60,37 -126,70 -229,115 -264,154 -273,297 -2,41 -8,75 -13,75 -29,0 -310,-135 -469,-225 -112,-63 -397,-253 -485,-323 -223,-177 -437,-437 -560,-683 -96,-191 -190,-433 -215,-554 -7,-33 -18,-85 -26,-115 l -14,-54 39,-41 c 50,-52 71,-95 78,-160 10,-93 -29,-170 -104,-205 -54,-25 -106,-25 -163,1 -58,26 -96,63 -126,122 -49,96 -41,189 24,254 20,21 45,43 55,48 13,7 25,43 43,125 43,195 105,367 220,608 135,284 346,556 587,758 95,80 380,274 538,367 229,134 599,297 677,297 12,0 48,18 80,39 31,22 76,47 100,56 29,12 42,23 42,36 0,11 -9,95 -20,187 -11,92 -27,226 -35,297 -39,328 -55,458 -57,460 -4,2 -984,23 -1723,35 -313,6 -743,15 -955,20 -212,5 -496,10 -632,10 h -246 l -6,-27 c -3,-16 -8,-53 -11,-83 -14,-124 -7,-122 -93,-28 -42,46 -90,96 -106,111 -41,39 -199,113 -270,126 -66,12 -264,12 -397,1 z"
       id="path10"
       inkscape:connector-curvature="0" />
    <path
       d="m 6335,6128 c -22,-74 -10,-237 26,-332 56,-150 179,-262 352,-320 11,-4 17,-16 17,-38 0,-18 6,-74 14,-123 19,-130 68,-225 157,-309 104,-99 209,-135 388,-136 85,0 93,-2 86,-17 -11,-30 -52,-203 -70,-299 -24,-127 -18,-270 12,-303 28,-30 94,-39 128,-17 38,25 58,72 51,120 -3,22 -2,66 3,96 18,118 43,244 52,268 l 10,25 32,-30 c 133,-126 307,-185 440,-150 l 58,15 11,-26 c 90,-233 283,-438 511,-546 138,-65 194,-78 332,-79 116,0 138,2 204,26 98,36 181,83 269,156 84,69 102,77 134,60 44,-24 125,-39 208,-39 142,1 222,44 389,209 94,94 100,98 115,82 9,-10 51,-43 94,-74 195,-140 247,-156 308,-91 23,24 34,45 34,65 0,16 -4,29 -9,29 -5,0 -11,9 -14,20 -3,11 -19,28 -37,37 -17,10 -65,40 -107,67 l -75,49 34,17 c 193,95 280,174 348,313 24,48 46,107 49,130 6,40 7,42 56,53 102,24 160,58 243,143 64,65 123,162 153,251 31,91 31,248 -1,340 -33,100 -157,360 -170,360 -4,0 -20,-7 -36,-15 -25,-12 -161,-14 -1029,-10 -550,3 -1611,7 -2357,9 -935,3 -1363,8 -1377,15 -25,14 -31,14 -36,-1 z"
       id="path12"
       inkscape:connector-curvature="0" />
  </g>
  <g
     id="layer104"
     transform="matrix(0.02303297,0,0,0.02280085,-99.223073,-73.891137)"
     style="fill:#ca0300;stroke:none">
    <path
       d="m 6069,10680 c -48,-5 -122,-15 -165,-23 -44,-9 -98,-18 -120,-21 -70,-10 -215,-62 -286,-102 -138,-80 -216,-157 -286,-284 -111,-201 -184,-397 -207,-555 -31,-219 -22,-401 26,-527 60,-154 190,-314 308,-377 105,-55 243,-75 363,-50 63,13 219,59 233,69 6,4 18,10 28,13 17,6 18,2 12,-51 -12,-101 -71,-202 -119,-202 -35,0 -107,-41 -117,-67 -17,-45 -10,-79 21,-113 29,-32 33,-33 93,-28 101,8 200,73 261,171 29,47 66,175 66,228 0,43 2,50 18,45 9,-3 47,-15 83,-26 101,-31 240,-46 359,-39 58,3 105,5 106,5 0,-1 -25,-235 -57,-521 -32,-286 -74,-668 -94,-850 -19,-181 -42,-386 -50,-455 -47,-403 -69,-620 -64,-625 2,-2 1020,-6 2262,-11 l 2257,-7 v 25 c 0,14 -4,60 -10,104 -9,78 -30,254 -70,599 -11,99 -27,234 -35,300 -8,66 -23,201 -35,300 -11,99 -27,236 -35,305 -8,69 -24,204 -35,300 -12,96 -27,229 -35,295 -8,66 -17,152 -21,191 -3,40 -9,76 -13,82 -3,5 -60,37 -126,70 -229,115 -264,154 -273,297 -2,41 -8,75 -13,75 -29,0 -310,-135 -469,-225 -112,-63 -397,-253 -485,-323 -223,-177 -437,-437 -560,-683 -96,-191 -190,-433 -215,-554 -7,-33 -18,-85 -26,-115 l -14,-54 39,-41 c 50,-52 71,-95 78,-160 10,-93 -29,-170 -104,-205 -54,-25 -106,-25 -163,1 -58,26 -96,63 -126,122 -49,96 -41,189 24,254 20,21 45,43 55,48 13,7 25,43 43,125 43,195 105,367 220,608 135,284 346,556 587,758 95,80 380,274 538,367 229,134 599,297 677,297 12,0 48,18 80,39 31,22 76,47 100,56 29,12 42,23 42,36 0,11 -9,95 -20,187 -11,92 -27,226 -35,297 -39,328 -55,458 -57,460 -4,2 -984,23 -1723,35 -313,6 -743,15 -955,20 -212,5 -496,10 -632,10 h -247 l -5,-32 c -8,-44 -26,-187 -26,-199 0,-5 -14,7 -32,28 -42,49 -132,152 -161,181 -32,35 -192,108 -261,121 -66,12 -264,12 -397,1 z"
       id="path15"
       inkscape:connector-curvature="0" />
    <path
       d="m 6326,6061 c -17,-189 61,-386 191,-482 47,-36 141,-84 196,-103 11,-4 17,-16 17,-38 0,-18 6,-74 14,-123 19,-130 68,-225 157,-309 104,-99 209,-135 388,-136 85,0 93,-2 86,-17 -11,-30 -52,-203 -70,-299 -24,-127 -18,-270 12,-303 28,-30 94,-39 128,-17 38,25 58,72 51,120 -3,22 -2,66 3,96 18,118 43,244 52,268 l 10,25 32,-30 c 133,-126 307,-185 440,-150 l 58,15 11,-26 c 90,-232 283,-438 511,-546 138,-65 194,-78 332,-79 116,0 138,2 204,26 98,36 181,83 269,156 86,71 102,77 139,58 49,-26 136,-39 224,-36 136,6 215,53 390,231 73,74 77,77 93,59 9,-10 51,-43 94,-74 195,-140 247,-156 308,-91 33,34 48,94 24,94 -5,0 -10,6 -10,13 0,14 -27,39 -62,58 -13,6 -54,32 -91,57 l -68,46 33,16 c 193,95 280,174 348,313 24,48 46,107 49,130 6,40 7,42 56,53 102,24 160,58 243,143 64,65 123,162 153,251 31,91 31,248 -1,340 -24,72 -67,169 -121,275 -32,62 -39,69 -60,65 -32,-6 -3834,-1 -4369,6 -228,3 -424,7 -436,10 -19,5 -21,0 -28,-65 z"
       id="path17"
       inkscape:connector-curvature="0" />
  </g>
  <g
     id="layer105"
     transform="matrix(0.02303297,0,0,0.02280085,-99.223073,-73.891137)"
     style="fill:#a40200;stroke:none">
    <path
       d="m 6080,10680 c -52,-5 -106,-11 -120,-14 -14,-3 -54,-10 -90,-16 -140,-24 -239,-54 -338,-102 -87,-42 -117,-63 -186,-132 -88,-86 -128,-145 -196,-291 -24,-49 -49,-102 -56,-116 -8,-15 -15,-35 -17,-45 -2,-11 -9,-31 -15,-47 -59,-143 -91,-475 -62,-637 37,-205 199,-425 370,-502 140,-63 297,-60 499,11 l 112,39 -7,-61 c -7,-68 -39,-140 -76,-173 -12,-12 -41,-25 -62,-29 -51,-9 -106,-62 -106,-101 0,-143 214,-134 337,13 61,74 103,174 110,265 5,55 9,68 21,63 37,-14 214,-54 272,-62 36,-4 112,-5 170,-2 58,3 105,5 106,5 0,-1 -25,-235 -57,-521 -32,-286 -74,-668 -94,-850 -19,-181 -42,-386 -50,-455 -47,-403 -69,-620 -64,-625 2,-2 1020,-6 2262,-11 l 2257,-7 v 25 c 0,14 -4,60 -10,104 -9,78 -30,254 -70,599 -11,99 -27,234 -35,300 -8,66 -23,201 -35,300 -11,99 -27,236 -35,305 -8,69 -24,204 -35,300 -12,96 -27,229 -35,295 -8,66 -17,152 -21,191 -3,40 -9,76 -13,82 -3,5 -60,37 -126,70 -229,115 -264,154 -273,297 -2,41 -8,75 -13,75 -29,0 -310,-135 -469,-225 -112,-63 -397,-253 -485,-323 -223,-177 -437,-437 -560,-683 -96,-191 -190,-433 -215,-554 -7,-33 -18,-85 -26,-115 l -14,-54 39,-41 c 50,-52 71,-95 78,-160 10,-93 -29,-170 -104,-205 -54,-25 -106,-25 -163,1 -58,26 -96,63 -126,122 -49,96 -41,189 24,254 20,21 45,43 55,48 13,7 25,43 43,125 43,195 105,367 220,608 135,284 346,556 587,758 95,80 380,274 538,367 229,134 599,297 677,297 12,0 48,18 80,39 31,22 76,47 100,56 29,12 42,23 42,36 0,11 -9,95 -20,187 -11,92 -27,226 -35,297 -39,328 -55,458 -57,460 -4,2 -984,23 -1723,35 -313,6 -743,15 -955,20 -212,5 -496,10 -632,10 h -247 l -5,-32 c -8,-44 -26,-187 -26,-199 0,-5 -26,21 -59,58 -110,128 -165,178 -226,207 -82,39 -93,43 -165,64 -30,9 -297,10 -390,2 z m 371,-196 c 95,-28 151,-64 230,-145 198,-202 328,-486 385,-842 16,-101 16,-112 1,-185 -21,-93 -77,-215 -120,-260 -82,-86 -187,-132 -301,-132 -157,0 -409,61 -495,120 -65,44 -79,43 -193,-9 -104,-48 -221,-87 -305,-103 -78,-14 -165,0 -229,37 -93,54 -198,203 -230,325 -42,160 -4,448 85,660 138,326 258,435 545,496 249,52 523,69 627,38 z"
       id="path20"
       inkscape:connector-curvature="0" />
    <path
       d="m 6034,10301 c -55,-24 -69,-91 -29,-139 21,-26 34,-31 92,-37 84,-8 183,-49 267,-109 76,-54 116,-102 156,-188 29,-63 113,-341 125,-414 12,-74 15,-84 37,-104 41,-38 106,-23 134,32 21,41 15,82 -42,287 -76,272 -125,372 -232,472 -115,108 -290,191 -427,203 -33,3 -70,2 -81,-3 z"
       id="path22"
       inkscape:connector-curvature="0" />
    <path
       d="m 6328,6074 c -4,-135 4,-194 40,-287 27,-69 79,-148 122,-185 38,-33 128,-87 179,-107 l 56,-23 12,-103 c 19,-156 58,-248 145,-343 97,-107 241,-161 415,-156 97,3 94,4 77,-27 -7,-16 -14,-36 -14,-46 0,-10 -4,-26 -9,-35 -5,-9 -12,-35 -15,-57 -12,-75 -17,-100 -31,-163 -17,-72 -20,-219 -5,-254 21,-50 39,-63 89,-63 39,0 52,5 74,29 15,16 27,34 28,40 1,6 2,52 3,101 2,50 8,108 14,130 6,22 14,58 17,80 11,69 13,79 24,108 l 11,28 77,-59 c 92,-70 170,-109 251,-124 57,-11 86,-8 189,18 16,5 23,0 28,-18 4,-12 21,-52 37,-88 110,-236 341,-431 617,-520 60,-19 97,-24 185,-24 111,0 180,15 286,61 33,14 139,80 150,92 18,21 111,91 119,91 6,0 11,5 11,10 0,6 11,5 28,-3 110,-55 283,-63 376,-17 84,40 231,164 298,249 l 26,34 49,-40 c 56,-47 194,-143 240,-166 65,-34 128,-12 163,56 11,23 11,31 0,55 -16,31 -58,72 -74,72 -8,0 -135,86 -153,104 -1,1 42,24 95,51 107,55 207,144 255,226 35,60 77,166 77,196 0,26 26,43 67,43 44,0 170,76 230,138 86,90 155,218 168,313 3,24 8,56 11,71 8,42 -14,177 -42,250 -14,37 -52,122 -85,188 -55,113 -61,122 -82,114 -12,-5 -330,-11 -707,-14 -377,-3 -668,-6 -648,-8 36,-2 37,-2 27,-34 -14,-49 -60,-139 -73,-143 -6,-1 -51,-12 -99,-23 -169,-40 -304,-129 -402,-266 -44,-62 -46,-63 -123,-84 -93,-26 -151,-27 -247,-7 -121,26 -219,64 -296,115 -83,55 -124,107 -168,216 -32,78 -65,219 -56,234 4,7 -170,9 -527,8 -293,-1 -492,-4 -442,-5 l 92,-4 -10,-41 c -15,-70 -74,-184 -119,-233 -54,-59 -153,-117 -249,-147 -62,-19 -98,-23 -205,-23 -127,0 -132,1 -195,32 -129,63 -181,146 -188,299 -3,58 0,99 7,113 12,21 11,21 -66,20 -43,0 -90,2 -105,6 l -28,7 z m 1857,-21 c 18,-135 99,-347 163,-426 29,-37 31,-41 26,-110 -16,-215 -55,-420 -96,-501 -49,-97 -154,-203 -248,-252 -56,-29 -125,-24 -196,15 -64,34 -197,144 -202,168 -6,22 16,75 53,133 43,66 44,93 6,131 -23,22 -39,29 -69,29 -51,0 -86,-35 -123,-122 l -27,-61 -123,2 c -142,3 -203,12 -257,40 -48,25 -109,91 -133,146 -20,46 -45,186 -36,208 4,10 29,17 74,21 264,27 496,174 592,376 22,47 51,122 63,167 l 23,83 h 252 252 z m 2843,-58 c 81,-155 123,-255 138,-328 14,-63 13,-79 -1,-142 -33,-148 -137,-270 -256,-300 -24,-6 -26,-3 -37,45 -30,131 -113,281 -197,359 -89,82 -224,159 -365,209 -79,28 -277,72 -322,72 -15,0 -18,4 -13,18 3,9 16,50 28,90 l 21,72 479,-2 479,-3 z m -948,-282 c 275,-55 489,-185 569,-346 71,-145 79,-300 23,-421 -44,-93 -114,-159 -235,-219 -139,-69 -146,-69 -192,-10 -57,72 -73,83 -115,83 -30,0 -43,-6 -59,-26 -29,-37 -26,-82 9,-138 l 31,-48 -41,-52 c -49,-64 -176,-175 -227,-198 -154,-71 -424,85 -537,310 -80,159 -88,366 -23,597 43,151 80,233 141,308 133,162 363,218 656,160 z M 8725,5392 c 129,-39 233,-55 320,-49 l 81,6 -34,-132 c -30,-114 -35,-148 -35,-247 0,-242 89,-466 242,-615 23,-21 41,-44 41,-50 0,-20 -112,-105 -185,-140 -41,-19 -102,-39 -147,-46 -70,-12 -84,-11 -162,9 -256,63 -486,267 -567,503 l -23,67 52,57 c 134,146 194,293 222,540 6,50 13,107 16,127 l 6,37 52,-23 c 28,-13 83,-33 121,-44 z"
       id="path24"
       inkscape:connector-curvature="0" />
  </g>
  <g
     id="layer106"
     transform="matrix(0.02303297,0,0,0.02280085,-99.223073,-73.891137)"
     style="fill:#656464;stroke:none">
    <path
       d="m 6946,10553 c -3,-16 -10,-69 -16,-119 l -11,-91 56,-87 c 155,-237 262,-561 272,-821 6,-150 -9,-222 -77,-362 -75,-154 -187,-253 -343,-304 l -81,-26 -57,-519 c -32,-286 -74,-667 -94,-849 -19,-181 -42,-386 -50,-455 -47,-403 -69,-620 -64,-625 2,-2 1020,-6 2262,-11 l 2257,-7 v 25 c 0,14 -4,60 -10,104 -9,78 -30,254 -70,599 -11,99 -27,234 -35,300 -8,66 -23,201 -35,300 -11,99 -27,236 -35,305 -8,69 -24,204 -35,300 -12,96 -27,229 -35,295 -8,66 -17,152 -21,191 -3,40 -9,76 -13,82 -3,5 -60,37 -126,70 -229,115 -264,154 -273,297 -2,41 -8,75 -13,75 -29,0 -310,-135 -469,-225 -112,-63 -397,-253 -485,-323 -223,-177 -437,-437 -560,-683 -96,-191 -190,-433 -215,-554 -7,-33 -18,-85 -26,-115 l -14,-54 39,-41 c 50,-52 71,-95 78,-160 10,-93 -29,-170 -104,-205 -54,-25 -106,-25 -163,1 -58,26 -96,63 -126,122 -49,96 -41,189 24,254 20,21 45,43 55,48 13,7 25,43 43,125 43,195 105,367 220,608 135,284 346,556 587,758 95,80 380,274 538,367 229,134 599,297 677,297 12,0 48,18 80,39 31,22 76,47 100,56 29,12 42,23 42,36 0,11 -9,95 -20,187 -11,92 -27,226 -35,297 -39,328 -55,458 -57,460 -4,2 -984,23 -1723,35 -313,6 -743,15 -955,20 -212,5 -496,10 -632,10 h -246 z"
       id="path27"
       inkscape:connector-curvature="0" />
  </g>
</svg>
