<?xml version="1.0" encoding="UTF-8" standalone="no"?>
<svg
   xmlns:dc="http://purl.org/dc/elements/1.1/"
   xmlns:cc="http://creativecommons.org/ns#"
   xmlns:rdf="http://www.w3.org/1999/02/22-rdf-syntax-ns#"
   xmlns:svg="http://www.w3.org/2000/svg"
   xmlns="http://www.w3.org/2000/svg"
   xmlns:sodipodi="http://sodipodi.sourceforge.net/DTD/sodipodi-0.dtd"
   xmlns:inkscape="http://www.inkscape.org/namespaces/inkscape"
   version="1.0"
   width="1623.9152"
   height="1069.3931"
   viewBox="0 0 12686.837 8354.6333"
   preserveAspectRatio="xMidYMid meet"
   id="svg13"
   sodipodi:docname="name.svg"
   inkscape:version="0.92.4 (5da689c313, 2019-01-14)">
  <metadata
     id="metadata19">
    <rdf:RDF>
      <cc:Work
         rdf:about="">
        <dc:format>image/svg+xml</dc:format>
        <dc:type
           rdf:resource="http://purl.org/dc/dcmitype/StillImage" />
        <dc:title></dc:title>
      </cc:Work>
    </rdf:RDF>
  </metadata>
  <defs
     id="defs17" />
  <sodipodi:namedview
     pagecolor="#ffffff"
     bordercolor="#666666"
     borderopacity="1"
     objecttolerance="10"
     gridtolerance="10"
     guidetolerance="10"
     inkscape:pageopacity="0"
     inkscape:pageshadow="2"
     inkscape:window-width="3696"
     inkscape:window-height="2115"
     id="namedview15"
     showgrid="false"
     fit-margin-top="0"
     fit-margin-left="0"
     fit-margin-right="0"
     fit-margin-bottom="0"
     inkscape:zoom="0.11523438"
     inkscape:cx="781.856"
     inkscape:cy="488.72052"
     inkscape:window-x="131"
     inkscape:window-y="2147"
     inkscape:window-maximized="1"
     inkscape:current-layer="svg13" />
  <g
     id="layer101"
     style="fill:#09880b;stroke:none"
     transform="translate(-1891.75,-3463.4953)">
    <path
       d="m 10500,11809 c -415,-20 -566,-30 -695,-44 -201,-22 -446,-53 -550,-70 -49,-8 -110,-17 -135,-20 -126,-17 -493,-110 -650,-166 -19,-6 -60,-21 -90,-31 -30,-11 -71,-26 -90,-33 -19,-8 -84,-32 -145,-55 -142,-53 -349,-136 -400,-159 -22,-10 -65,-29 -95,-41 -108,-44 -544,-256 -575,-280 -5,-4 -35,-21 -65,-37 -51,-28 -91,-50 -151,-85 -13,-7 -45,-28 -71,-45 -26,-18 -50,-33 -53,-33 -11,0 -267,-174 -355,-240 -19,-14 -78,-58 -130,-97 -52,-39 -109,-84 -127,-100 -18,-15 -49,-41 -69,-58 -38,-30 -161,-143 -240,-220 -168,-164 -372,-414 -529,-647 -42,-62 -82,-120 -90,-130 -16,-20 -78,-117 -88,-138 -4,-8 -24,-38 -45,-67 -37,-52 -169,-236 -233,-328 -78,-111 -159,-259 -405,-742 -68,-134 -142,-278 -165,-320 -138,-255 -223,-444 -346,-768 -44,-116 -123,-373 -123,-399 0,-9 -9,-49 -19,-89 -22,-80 -40,-161 -70,-312 -40,-202 -53,-293 -68,-479 -13,-157 -13,-204 -3,-266 7,-41 16,-82 21,-92 10,-19 -21,-25 -321,-57 -364,-39 -435,-43 -755,-48 -286,-4 -332,-3 -436,15 -64,11 -128,18 -141,15 -13,-2 -35,-21 -48,-40 -24,-36 -25,-42 -31,-287 -3,-138 -12,-286 -19,-328 -11,-65 -11,-84 0,-119 8,-22 21,-44 29,-47 9,-3 19,-10 22,-15 6,-9 67,-3 374,33 88,11 246,26 350,35 237,20 613,71 815,111 144,28 275,56 331,70 72,18 79,18 79,-6 0,-61 129,-248 265,-385 117,-116 274,-240 395,-309 146,-84 380,-174 590,-226 47,-12 117,-30 155,-40 124,-33 379,-81 570,-107 190,-26 857,-26 1025,0 419,65 763,152 1050,267 30,12 73,29 95,37 22,8 44,19 50,24 5,5 15,9 21,9 15,0 161,68 344,160 174,87 209,106 343,185 62,37 121,72 132,78 11,7 41,27 68,45 26,17 49,32 51,32 5,0 178,116 276,185 133,92 433,335 620,500 45,40 294,289 346,345 157,174 519,641 684,885 11,17 46,66 77,110 69,97 398,587 404,601 2,5 81,123 174,262 94,140 177,264 185,277 8,13 76,115 151,227 208,310 414,622 418,633 2,6 7,12 10,15 8,6 51,66 66,92 17,28 117,171 147,209 15,20 28,40 28,44 0,3 6,12 13,19 6,7 46,61 87,120 41,59 100,140 130,180 30,41 87,117 125,171 39,53 144,192 234,308 380,490 711,838 1016,1071 33,25 65,49 70,53 6,5 56,39 112,75 140,93 169,136 143,213 -29,89 -249,217 -645,375 -44,17 -100,40 -125,50 -25,10 -70,25 -100,35 -30,9 -77,25 -105,35 -53,19 -233,77 -325,103 -142,41 -688,147 -935,181 -370,51 -668,83 -910,96 -99,6 -250,14 -335,20 -174,11 -361,11 -590,-1 z"
       id="path2"
       inkscape:connector-curvature="0" />
  </g>
  <g
     id="layer102"
     style="fill:#0eca10;stroke:none"
     transform="translate(-1891.75,-3463.4953)">
    <path
       d="m 10595,11814 c -33,-2 -152,-8 -265,-14 -359,-19 -383,-20 -510,-35 -69,-8 -152,-17 -185,-20 -33,-3 -107,-12 -165,-20 -58,-9 -154,-23 -215,-31 -97,-14 -151,-23 -310,-54 -121,-23 -387,-97 -452,-126 -17,-8 -38,-14 -47,-14 -10,0 -36,-9 -58,-20 -23,-11 -48,-20 -55,-20 -7,0 -29,-7 -50,-16 -41,-18 -46,-20 -138,-55 -33,-12 -64,-26 -69,-31 -6,-4 -16,-8 -24,-8 -8,0 -28,-6 -45,-14 -18,-7 -75,-30 -127,-51 -52,-20 -120,-48 -150,-62 -30,-13 -64,-28 -75,-33 -11,-4 -45,-19 -75,-33 -30,-14 -86,-40 -125,-57 -130,-59 -175,-82 -181,-91 -3,-5 -11,-9 -18,-9 -13,0 -173,-84 -337,-178 -20,-11 -47,-26 -60,-34 -13,-7 -26,-15 -29,-18 -10,-10 -90,-60 -96,-60 -4,0 -29,-16 -55,-35 -27,-19 -51,-35 -54,-35 -6,0 -57,-35 -82,-55 -6,-5 -27,-20 -45,-33 -76,-52 -175,-124 -196,-142 -13,-11 -26,-20 -28,-20 -3,0 -10,-5 -17,-10 -7,-6 -41,-33 -75,-60 -35,-28 -70,-56 -77,-63 -8,-6 -35,-30 -62,-52 -138,-115 -323,-301 -453,-455 -25,-29 -59,-69 -75,-89 -17,-20 -37,-46 -45,-58 -8,-12 -40,-54 -71,-95 -31,-40 -89,-122 -130,-183 -40,-60 -76,-112 -80,-115 -4,-3 -25,-34 -46,-70 -38,-65 -86,-136 -163,-240 -22,-30 -43,-62 -47,-70 -4,-8 -11,-19 -15,-25 -47,-60 -128,-173 -128,-179 0,-3 -13,-24 -29,-48 -32,-48 -137,-242 -155,-288 -4,-8 -35,-69 -71,-135 -35,-66 -108,-208 -162,-315 -54,-107 -101,-199 -105,-205 -9,-11 -80,-148 -144,-277 -51,-104 -120,-263 -129,-301 -4,-15 -11,-30 -16,-33 -5,-3 -9,-13 -9,-22 0,-9 -7,-30 -16,-47 -40,-76 -138,-386 -177,-560 -9,-38 -25,-108 -36,-155 -11,-47 -22,-101 -25,-121 -3,-19 -12,-62 -21,-94 -8,-33 -15,-73 -15,-90 0,-16 -7,-57 -14,-90 -15,-63 -18,-93 -37,-321 -9,-108 -9,-158 0,-210 17,-97 19,-102 51,-119 79,-41 419,11 890,134 578,152 1093,348 2060,784 301,135 751,365 1040,530 510,291 694,413 1255,833 154,115 325,237 380,271 230,141 432,294 775,588 107,91 265,219 350,283 242,182 368,282 538,425 325,274 667,527 693,512 32,-21 -7,-64 -513,-568 -725,-719 -943,-923 -1373,-1281 -428,-357 -603,-490 -1070,-816 -121,-84 -319,-224 -440,-310 -324,-230 -430,-301 -637,-425 -185,-111 -683,-367 -1013,-521 -93,-43 -296,-141 -450,-217 -557,-276 -1036,-461 -1595,-617 -63,-18 -182,-52 -265,-76 -82,-23 -172,-48 -200,-54 -70,-15 -145,-48 -176,-77 -23,-21 -25,-29 -19,-61 10,-50 18,-67 64,-137 41,-62 147,-189 200,-239 153,-143 299,-256 396,-304 14,-7 40,-22 59,-33 67,-40 376,-156 466,-174 11,-2 47,-11 80,-20 169,-46 202,-54 230,-60 135,-24 237,-44 253,-49 19,-6 53,-11 302,-41 82,-9 218,-13 470,-11 357,3 473,12 685,56 28,5 73,14 100,19 287,53 580,143 885,273 14,6 34,14 45,19 64,25 268,124 490,237 17,8 48,27 70,42 34,23 176,104 236,135 10,5 19,13 19,17 0,5 7,8 15,8 8,0 15,4 15,9 0,5 8,11 18,15 15,5 38,18 66,39 6,4 41,27 78,51 77,51 191,130 229,160 15,12 39,30 55,41 71,50 365,288 420,340 6,5 37,33 69,60 117,101 391,383 480,494 28,35 59,73 70,85 11,11 39,46 62,76 24,30 48,62 55,69 15,18 77,100 98,131 8,12 41,55 73,96 31,40 57,78 57,84 0,5 5,10 10,10 6,0 14,8 17,17 4,10 31,49 60,86 29,38 53,72 53,76 0,4 8,16 18,27 9,10 40,52 67,93 28,40 64,93 80,116 53,76 330,489 335,500 3,6 82,124 175,264 94,139 175,260 180,269 11,18 69,104 96,142 16,23 58,88 84,129 26,41 50,76 55,81 3,3 37,54 75,113 39,60 77,119 85,132 49,73 182,273 192,289 7,10 22,31 33,45 11,14 25,34 30,43 6,10 37,56 70,103 33,48 66,98 73,111 7,13 17,24 23,24 5,0 9,5 9,11 0,6 11,25 25,43 14,17 29,36 34,42 5,6 20,28 34,50 13,21 38,56 53,76 16,20 40,53 54,73 14,19 32,44 40,54 8,11 24,32 35,47 11,15 35,47 53,71 17,24 32,47 32,53 0,5 6,13 13,17 7,4 24,24 37,43 26,39 395,510 430,550 12,14 49,56 83,94 34,38 70,81 81,95 45,59 407,413 491,479 142,112 180,141 286,212 124,83 140,99 149,150 11,58 -5,96 -58,141 -62,52 -215,140 -327,188 -55,23 -107,46 -116,50 -8,5 -47,21 -85,35 -38,15 -82,33 -99,40 -33,14 -49,20 -210,78 -296,106 -644,198 -840,223 -16,2 -61,11 -100,19 -95,20 -242,48 -285,53 -19,2 -75,10 -125,18 -197,30 -682,83 -830,90 -60,3 -168,10 -240,16 -135,10 -555,18 -660,13 z"
       id="path5"
       inkscape:connector-curvature="0" />
  </g>
  <g
     id="layer103"
     style="fill:#51e353;stroke:none"
     transform="translate(-1891.75,-3463.4953)">
    <path
       d="m 9201,10639 c -344,-53 -815,-192 -1106,-327 -299,-139 -489,-263 -1120,-728 -332,-245 -448,-347 -831,-729 -365,-364 -529,-553 -661,-763 -163,-259 -220,-470 -193,-715 53,-471 274,-716 725,-804 124,-24 393,-24 487,0 146,37 416,160 758,347 885,484 1117,620 1545,909 522,352 718,494 960,696 97,81 187,149 345,259 83,58 295,219 335,255 45,40 129,160 173,248 17,32 43,99 58,148 26,81 29,104 29,225 0,117 -4,148 -28,235 -16,55 -50,145 -77,200 -85,175 -208,283 -473,410 -160,77 -255,109 -406,135 -147,26 -349,25 -520,-1 z"
       id="path8"
       inkscape:connector-curvature="0" />
    <path
       d="m 10740,7749 c -47,-4 -107,-12 -135,-19 -132,-30 -332,-132 -558,-284 -450,-303 -725,-492 -837,-572 -124,-90 -338,-235 -457,-310 -579,-363 -1095,-720 -1298,-897 -232,-202 -392,-442 -403,-604 -6,-93 26,-236 74,-332 62,-124 197,-227 349,-266 78,-20 270,-20 406,0 497,74 821,209 1219,509 434,327 642,507 1021,885 252,253 293,298 540,606 334,416 443,581 510,770 29,82 37,227 16,289 -45,133 -157,213 -317,228 -25,3 -83,1 -130,-3 z"
       id="path10"
       inkscape:connector-curvature="0" />
  </g>
</svg>
