<?xml version="1.0" encoding="UTF-8" standalone="no"?>
<svg
   xmlns:dc="http://purl.org/dc/elements/1.1/"
   xmlns:cc="http://creativecommons.org/ns#"
   xmlns:rdf="http://www.w3.org/1999/02/22-rdf-syntax-ns#"
   xmlns:svg="http://www.w3.org/2000/svg"
   xmlns="http://www.w3.org/2000/svg"
   xmlns:sodipodi="http://sodipodi.sourceforge.net/DTD/sodipodi-0.dtd"
   xmlns:inkscape="http://www.inkscape.org/namespaces/inkscape"
   version="1.0"
   width="24.000004"
   height="24.000002"
   viewBox="0 0 187.50003 187.50001"
   preserveAspectRatio="xMidYMid meet"
   id="svg14"
   sodipodi:docname="pot.svg"
   inkscape:version="0.92.4 (5da689c313, 2019-01-14)">
  <metadata
     id="metadata20">
    <rdf:RDF>
      <cc:Work
         rdf:about="">
        <dc:format>image/svg+xml</dc:format>
        <dc:type
           rdf:resource="http://purl.org/dc/dcmitype/StillImage" />
        <dc:title></dc:title>
      </cc:Work>
    </rdf:RDF>
  </metadata>
  <defs
     id="defs18" />
  <sodipodi:namedview
     pagecolor="#ffffff"
     bordercolor="#666666"
     borderopacity="1"
     objecttolerance="10"
     gridtolerance="10"
     guidetolerance="10"
     inkscape:pageopacity="0"
     inkscape:pageshadow="2"
     inkscape:window-width="3696"
     inkscape:window-height="2115"
     id="namedview16"
     showgrid="false"
     fit-margin-top="2"
     fit-margin-left="2"
     fit-margin-right="2"
     fit-margin-bottom="2"
     inkscape:zoom="29.500001"
     inkscape:cx="0.31253701"
     inkscape:cy="23.000605"
     inkscape:window-x="131"
     inkscape:window-y="2147"
     inkscape:window-maximized="1"
     inkscape:current-layer="svg14" />
  <g
     id="layer101"
     style="fill:#522515;stroke:none"
     transform="matrix(0.02508747,0,0,0.02572045,-105.29661,-106.58572)">
    <path
       d="m 7925,10821 c -93,-5 -190,-11 -215,-15 -25,-4 -97,-11 -160,-16 -385,-32 -1008,-156 -1305,-260 -33,-12 -76,-26 -95,-32 -19,-6 -44,-17 -55,-24 -11,-8 -26,-14 -35,-14 -29,-1 -51,-28 -65,-81 -17,-61 -51,-219 -64,-294 -5,-27 -16,-77 -24,-110 -8,-33 -22,-98 -31,-145 -10,-47 -26,-121 -36,-165 -10,-44 -26,-118 -35,-165 -9,-47 -25,-121 -35,-165 -11,-44 -28,-125 -40,-180 -12,-55 -28,-129 -36,-165 -43,-204 -54,-253 -69,-330 -9,-47 -25,-121 -35,-165 -10,-44 -26,-114 -34,-155 -9,-41 -24,-115 -35,-165 -11,-49 -29,-135 -41,-190 -12,-55 -28,-131 -36,-170 -8,-38 -23,-108 -33,-155 -11,-47 -27,-121 -36,-165 -10,-44 -25,-118 -35,-165 -10,-47 -26,-121 -35,-165 -9,-44 -25,-116 -35,-160 -10,-44 -28,-127 -40,-185 -12,-58 -28,-134 -35,-170 -8,-36 -23,-105 -34,-155 -11,-49 -25,-116 -32,-148 -7,-35 -20,-64 -31,-72 -11,-7 -44,-36 -74,-64 -52,-49 -55,-54 -73,-139 -19,-91 -49,-251 -76,-412 -9,-52 -25,-136 -36,-187 -10,-50 -19,-104 -19,-118 0,-33 37,-68 92,-87 101,-36 236,-80 268,-88 19,-5 58,-16 85,-25 83,-27 136,-42 225,-65 47,-13 105,-29 129,-36 25,-8 53,-14 63,-14 10,0 51,-9 91,-19 84,-23 219,-53 332,-75 243,-46 299,-56 390,-70 1090,-166 2069,-166 3085,0 185,30 536,106 675,146 39,10 95,26 125,35 30,8 80,23 110,33 30,10 84,27 120,39 74,23 256,88 345,123 48,19 64,31 77,59 20,40 19,93 -14,554 l -21,300 -33,35 c -19,20 -34,43 -34,52 0,9 -9,40 -19,70 -10,29 -27,80 -37,113 -9,33 -25,85 -35,115 -9,30 -34,109 -54,175 -20,66 -44,145 -54,175 -10,30 -26,82 -35,115 -10,33 -26,85 -36,115 -10,30 -25,84 -35,120 -9,36 -24,94 -34,130 -10,36 -26,94 -35,130 -19,71 -48,179 -76,280 -10,36 -25,92 -34,125 -9,33 -25,94 -36,135 -11,41 -27,102 -36,135 -8,33 -23,89 -33,125 -10,36 -26,92 -34,125 -44,166 -60,225 -77,285 -10,36 -26,94 -36,130 -9,36 -24,94 -34,130 -10,36 -26,94 -35,130 -9,36 -25,92 -36,126 -10,33 -19,69 -19,79 0,11 -6,37 -14,60 -7,22 -24,78 -36,125 -12,47 -30,114 -40,150 -10,36 -25,92 -34,125 -9,33 -25,94 -36,135 -11,41 -27,102 -36,135 -8,33 -24,89 -34,125 -10,36 -26,94 -36,130 -9,36 -24,94 -34,130 -10,36 -21,80 -25,97 -11,54 -116,126 -245,168 -30,9 -73,24 -95,31 -63,21 -277,60 -429,79 -160,19 -770,28 -1051,16 z"
       id="path2"
       inkscape:connector-curvature="0" />
  </g>
  <g
     id="layer102"
     style="fill:#7d3a21;stroke:none"
     transform="matrix(0.02508747,0,0,0.02572045,-105.29661,-106.58572)">
    <path
       d="m 7925,10820 c -93,-4 -210,-13 -260,-19 -49,-5 -119,-13 -155,-16 -167,-13 -555,-76 -785,-126 -204,-45 -452,-114 -522,-145 -17,-8 -37,-14 -45,-14 -7,0 -30,-9 -51,-20 -20,-11 -43,-20 -50,-20 -8,0 -21,-8 -30,-18 -16,-18 -52,-121 -60,-177 -6,-39 -44,-223 -62,-300 -8,-33 -21,-96 -30,-140 -9,-44 -25,-118 -35,-165 -10,-47 -25,-116 -33,-155 -16,-73 -45,-210 -77,-355 -11,-47 -26,-116 -34,-155 -20,-94 -53,-253 -72,-345 -9,-41 -24,-111 -34,-155 -10,-44 -26,-116 -35,-160 -9,-44 -24,-118 -34,-165 -27,-121 -59,-273 -78,-360 -8,-41 -23,-111 -33,-155 -10,-44 -25,-114 -33,-155 -9,-41 -25,-115 -35,-165 -11,-49 -27,-128 -37,-175 -9,-47 -25,-121 -35,-165 -10,-44 -26,-114 -34,-155 -9,-41 -24,-115 -35,-165 -11,-49 -22,-101 -25,-115 -2,-14 -16,-79 -30,-145 l -26,-120 -75,-70 -76,-70 -18,-85 c -18,-80 -41,-203 -77,-415 -9,-49 -24,-131 -35,-182 -10,-50 -19,-104 -19,-118 0,-48 40,-72 215,-128 44,-15 94,-31 110,-36 40,-13 147,-45 215,-65 30,-8 78,-22 105,-30 28,-8 91,-24 140,-36 50,-12 124,-30 165,-40 358,-89 846,-171 1270,-214 890,-91 1701,-68 2540,70 186,31 536,106 675,146 39,10 95,26 125,35 30,8 80,23 110,33 30,10 84,27 120,38 75,24 234,81 333,120 105,41 109,50 97,293 -5,107 -16,273 -25,369 -8,96 -15,192 -15,214 0,32 -7,47 -32,73 -18,18 -37,52 -44,76 -6,23 -33,110 -58,192 -26,83 -63,202 -82,265 -20,63 -44,140 -53,170 -28,84 -87,278 -105,345 -15,58 -28,105 -75,280 -12,44 -29,107 -37,140 -9,33 -24,89 -34,125 -26,93 -77,283 -106,395 -9,33 -24,89 -34,125 -10,36 -21,74 -23,85 -6,24 -59,222 -86,320 -11,39 -27,99 -37,135 -9,36 -25,94 -35,130 -10,36 -25,94 -35,130 -9,36 -25,94 -35,130 -10,36 -27,101 -39,145 -11,44 -27,103 -34,130 -31,109 -48,172 -56,205 -4,19 -15,60 -23,90 -8,30 -29,107 -46,170 -17,63 -40,149 -52,190 -11,41 -26,98 -34,125 -49,189 -69,253 -84,270 -49,60 -166,118 -331,164 -104,29 -158,39 -360,67 -154,21 -220,25 -555,28 -209,2 -456,1 -550,-4 z m 380,-4710 c 625,-40 1119,-121 1606,-264 231,-67 415,-139 629,-243 l 155,-76 -43,-12 c -23,-7 -54,-20 -67,-29 -13,-9 -32,-16 -42,-16 -10,-1 -36,-8 -58,-16 -70,-27 -177,-44 -275,-44 -54,0 -111,-6 -135,-14 -78,-27 -142,-37 -192,-30 -31,4 -58,2 -72,-5 -12,-7 -88,-14 -178,-16 -87,-2 -189,-9 -228,-15 -38,-5 -108,-14 -155,-20 -47,-5 -91,-12 -99,-15 -8,-3 -39,-1 -69,6 -45,9 -61,8 -96,-5 -28,-11 -92,-18 -201,-22 -88,-3 -178,-7 -200,-9 -22,-3 -69,-6 -105,-8 -36,-2 -72,-7 -82,-11 -9,-4 -30,0 -47,9 -20,10 -56,16 -99,16 -37,0 -83,0 -102,1 -19,0 -48,0 -65,-1 -58,-3 -250,8 -295,18 -44,10 -233,20 -505,27 -245,7 -288,11 -355,34 -54,18 -70,20 -96,11 -18,-7 -100,-12 -195,-12 -265,0 -300,1 -323,16 -12,8 -35,14 -51,14 -17,0 -52,4 -80,10 -126,25 -159,30 -232,32 -43,1 -120,1 -171,0 -66,-2 -99,1 -115,11 -12,8 -56,25 -97,38 -41,13 -97,37 -125,53 -27,16 -80,42 -117,57 l -68,27 128,60 c 509,243 1153,387 1972,442 178,12 768,12 945,1 z"
       id="path5"
       inkscape:connector-curvature="0" />
  </g>
  <g
     id="layer103"
     style="fill:#9b4c2f;stroke:none"
     transform="matrix(0.02508747,0,0,0.02572045,-105.29661,-106.58572)">
    <path
       d="m 7550,6944 c -25,-2 -119,-8 -210,-14 -575,-38 -1191,-164 -1630,-335 -150,-58 -367,-168 -475,-241 -55,-36 -109,-70 -120,-74 -43,-17 -140,-117 -151,-156 -15,-50 -47,-216 -90,-469 -9,-49 -24,-131 -35,-182 -10,-50 -19,-104 -19,-118 0,-48 40,-72 215,-128 44,-15 94,-31 110,-36 40,-13 147,-45 215,-65 30,-8 78,-22 105,-30 28,-8 91,-24 140,-36 50,-12 124,-30 165,-40 358,-89 846,-171 1270,-214 890,-91 1701,-68 2540,70 186,31 536,106 675,146 39,10 95,26 125,35 30,8 80,23 110,33 30,10 84,27 120,38 75,24 234,81 333,120 59,22 72,32 89,65 16,32 19,51 14,111 -3,39 -8,127 -11,196 -3,69 -12,199 -20,290 -8,91 -15,185 -15,210 0,35 -6,50 -26,70 -14,13 -31,25 -38,26 -6,1 -62,37 -125,79 -482,324 -1253,544 -2211,630 -163,15 -931,29 -1050,19 z m 685,-824 c 321,-21 444,-31 560,-45 738,-94 1303,-245 1757,-470 133,-67 151,-80 117,-89 -13,-4 -44,-15 -69,-26 -141,-58 -239,-80 -360,-80 -66,0 -126,-5 -152,-14 -49,-16 -148,-40 -163,-39 -5,1 -26,2 -45,3 -19,1 -82,-4 -140,-11 -58,-7 -145,-13 -195,-14 -49,-1 -121,-7 -160,-14 -128,-22 -239,-30 -307,-24 -48,4 -78,1 -105,-10 -26,-10 -75,-15 -158,-15 -66,0 -194,-7 -285,-15 -125,-12 -169,-13 -185,-4 -13,7 -90,12 -215,14 -107,1 -231,7 -275,12 -113,15 -405,31 -643,36 -175,3 -211,7 -263,25 -47,17 -73,20 -117,16 -31,-4 -156,-8 -278,-9 -171,-1 -225,1 -237,11 -9,8 -29,12 -44,11 -15,-2 -38,3 -50,9 -12,7 -35,11 -50,10 -15,-1 -37,3 -48,9 -24,13 -21,13 -256,16 -120,1 -191,6 -200,13 -8,6 -45,21 -84,34 -38,12 -77,26 -85,30 -46,27 -198,99 -213,102 -32,5 -20,21 40,52 214,113 510,218 830,296 398,97 784,150 1343,183 131,8 597,6 735,-3 z"
       id="path8"
       inkscape:connector-curvature="0" />
  </g>
  <g
     id="layer104"
     style="fill:#c15d37;stroke:none"
     transform="matrix(0.02508747,0,0,0.02572045,-105.29661,-106.58572)">
    <path
       d="m 5170,5554 c -80,-49 -221,-157 -259,-198 -26,-28 -50,-33 -69,-14 -6,6 -14,9 -17,6 -10,-9 6,-36 30,-52 26,-17 271,-104 326,-115 19,-4 40,-11 46,-14 6,-4 35,-13 64,-21 30,-9 86,-24 124,-35 39,-11 117,-32 175,-46 58,-14 139,-35 180,-45 107,-27 210,-50 245,-56 17,-2 62,-11 100,-19 629,-130 1421,-203 2080,-192 631,11 1197,73 1740,193 180,40 255,57 320,76 39,11 95,26 125,35 30,8 75,22 99,30 24,9 58,19 75,23 17,4 101,33 186,63 276,99 269,96 291,140 21,41 21,58 -1,32 -21,-25 -46,-17 -117,37 -37,28 -98,71 -135,95 -64,41 -69,43 -110,34 -24,-6 -61,-19 -83,-31 -21,-11 -45,-20 -52,-20 -7,0 -47,-11 -90,-25 -62,-20 -105,-27 -212,-31 -80,-3 -145,-11 -160,-18 -37,-19 -106,-29 -179,-27 -35,1 -79,-3 -98,-9 -19,-7 -101,-13 -182,-15 -81,-2 -178,-9 -217,-15 -153,-23 -243,-31 -312,-25 -52,4 -82,2 -107,-9 -25,-10 -91,-16 -218,-20 -101,-3 -229,-10 -285,-16 -70,-6 -112,-6 -130,1 -15,5 -52,10 -82,9 -154,-1 -432,9 -443,17 -13,8 -210,20 -458,27 -246,7 -363,18 -425,38 -38,13 -70,17 -90,13 -25,-6 -108,-9 -410,-15 -45,0 -108,11 -122,22 -7,6 -25,8 -40,5 -15,-3 -37,1 -50,10 -14,9 -33,12 -52,8 -16,-3 -32,-2 -35,3 -8,14 -137,25 -306,27 -141,2 -174,8 -237,43 -12,7 -31,12 -43,12 -12,0 -45,13 -73,28 -202,111 -214,113 -307,56 z"
       id="path11"
       inkscape:connector-curvature="0" />
  </g>
</svg>
