<?xml version="1.0" encoding="UTF-8" standalone="no"?>
<svg
   xmlns:dc="http://purl.org/dc/elements/1.1/"
   xmlns:cc="http://creativecommons.org/ns#"
   xmlns:rdf="http://www.w3.org/1999/02/22-rdf-syntax-ns#"
   xmlns:svg="http://www.w3.org/2000/svg"
   xmlns="http://www.w3.org/2000/svg"
   xmlns:sodipodi="http://sodipodi.sourceforge.net/DTD/sodipodi-0.dtd"
   xmlns:inkscape="http://www.inkscape.org/namespaces/inkscape"
   version="1.0"
   width="24.000002"
   height="23.999998"
   viewBox="0 0 187.50001 187.49999"
   preserveAspectRatio="xMidYMid meet"
   id="svg54"
   sodipodi:docname="poux.svg"
   inkscape:version="0.92.4 (5da689c313, 2019-01-14)">
  <metadata
     id="metadata60">
    <rdf:RDF>
      <cc:Work
         rdf:about="">
        <dc:format>image/svg+xml</dc:format>
        <dc:type
           rdf:resource="http://purl.org/dc/dcmitype/StillImage" />
        <dc:title></dc:title>
      </cc:Work>
    </rdf:RDF>
  </metadata>
  <defs
     id="defs58" />
  <sodipodi:namedview
     pagecolor="#ffffff"
     bordercolor="#666666"
     borderopacity="1"
     objecttolerance="10"
     gridtolerance="10"
     guidetolerance="10"
     inkscape:pageopacity="0"
     inkscape:pageshadow="2"
     inkscape:window-width="3696"
     inkscape:window-height="2115"
     id="namedview56"
     showgrid="false"
     fit-margin-top="2"
     fit-margin-right="2"
     fit-margin-bottom="2"
     fit-margin-left="2"
     inkscape:zoom="41.7193"
     inkscape:cx="10.807701"
     inkscape:cy="11.165704"
     inkscape:window-x="131"
     inkscape:window-y="2147"
     inkscape:window-maximized="1"
     inkscape:current-layer="svg54" />
  <g
     id="layer101"
     transform="matrix(0.02389906,0,0,0.02440066,-102.96317,-92.599887)"
     style="fill:#010000;stroke:none">
    <path
       d="m 8829,10817 c -14,-12 -51,-65 -83,-117 -32,-52 -68,-111 -80,-130 -13,-19 -40,-63 -62,-97 l -39,-63 h -100 c -179,0 -423,-33 -575,-77 -639,-184 -1175,-630 -1478,-1228 -66,-130 -102,-216 -148,-352 -99,-292 -141,-600 -127,-912 7,-147 9,-146 -79,-24 -83,115 -123,197 -149,301 l -22,93 23,142 c 18,102 24,180 24,277 0,121 -3,141 -24,185 -73,155 -194,177 -315,57 -30,-30 -55,-58 -55,-63 0,-4 -11,-24 -24,-44 -38,-55 -74,-159 -101,-290 -35,-171 -35,-379 0,-514 41,-155 86,-258 172,-387 86,-131 238,-258 425,-354 l 68,-35 -98,-6 c -101,-6 -279,-51 -354,-90 -21,-10 -57,-29 -80,-41 -121,-62 -275,-200 -361,-326 -43,-61 -127,-221 -150,-287 -8,-22 -27,-71 -41,-109 -52,-138 -45,-220 26,-301 45,-52 105,-84 153,-85 45,0 126,42 163,84 37,42 74,111 109,204 45,120 131,250 220,332 55,51 69,61 133,91 113,53 294,95 309,70 6,-9 35,-166 44,-234 1,-13 -12,-24 -48,-40 -189,-82 -362,-220 -487,-387 -84,-113 -121,-182 -161,-300 -47,-138 -59,-216 -59,-360 0,-207 39,-336 140,-457 74,-88 146,-116 241,-93 125,30 167,146 141,389 -32,295 64,576 246,719 53,42 159,106 192,116 17,6 23,2 28,-21 4,-15 24,-66 45,-111 22,-46 39,-86 39,-87 0,-11 124,-213 174,-284 61,-87 256,-291 336,-352 74,-57 149,-109 158,-109 4,0 13,-5 20,-12 26,-26 240,-137 347,-180 202,-81 472,-116 756,-98 184,11 255,25 579,110 90,23 332,132 371,166 8,8 18,14 22,14 15,0 139,95 212,163 101,93 192,221 257,357 80,171 80,171 96,157 25,-21 128,-160 160,-217 48,-86 76,-184 75,-265 -1,-76 -22,-142 -144,-447 -63,-158 -71,-219 -42,-302 41,-112 151,-151 268,-94 41,21 135,105 135,122 0,5 6,17 14,25 18,21 79,142 106,211 12,30 28,71 36,90 54,131 71,373 38,536 -31,156 -95,327 -171,455 -35,61 -142,177 -221,240 l -43,34 21,48 c 12,27 29,51 38,54 19,8 137,-22 201,-50 121,-53 256,-165 310,-258 62,-104 88,-199 100,-370 19,-257 98,-389 233,-389 59,0 86,11 133,51 75,66 118,191 118,344 0,231 -94,524 -221,689 -50,65 -128,145 -181,186 -18,14 -44,35 -59,48 -37,31 -164,102 -239,133 l -62,25 112,17 c 155,24 313,83 429,161 130,87 277,241 382,401 71,109 93,152 133,275 31,91 36,122 40,232 5,120 4,129 -20,180 -40,84 -86,118 -160,118 -50,0 -107,-35 -150,-92 -33,-44 -84,-148 -109,-223 -55,-166 -82,-228 -130,-296 -79,-114 -181,-172 -397,-225 -93,-23 -244,-33 -254,-16 -3,4 12,48 32,97 33,81 52,136 97,285 38,129 77,372 89,560 14,222 -34,557 -115,808 -43,135 -44,138 -120,297 -230,480 -666,870 -1157,1034 l -101,34 -6,41 c -3,23 -13,124 -22,225 -17,179 -18,184 -47,212 -34,35 -66,37 -98,6 z"
       id="path2"
       inkscape:connector-curvature="0" />
  </g>
  <g
     id="layer102"
     transform="matrix(0.02389906,0,0,0.02440066,-102.96317,-92.599887)"
     style="fill:#914b0b;stroke:none">
    <path
       d="m 8214,10395 c -258,-30 -468,-93 -722,-217 -497,-241 -905,-670 -1140,-1198 -85,-190 -142,-379 -183,-599 -25,-136 -40,-403 -31,-553 8,-136 9,-136 -81,-10 -83,116 -123,197 -148,299 l -22,93 24,147 c 16,102 23,188 23,278 0,119 -2,135 -26,185 -48,101 -126,146 -210,121 -91,-27 -195,-163 -246,-321 -67,-208 -83,-473 -38,-650 13,-52 31,-115 40,-139 23,-64 89,-192 130,-254 86,-129 247,-264 428,-357 l 68,-35 -98,-6 c -91,-5 -133,-15 -274,-60 -86,-28 -278,-132 -278,-150 0,-5 -5,-9 -11,-9 -17,0 -192,-178 -233,-237 -39,-57 -126,-224 -149,-288 -8,-22 -27,-71 -42,-110 -39,-99 -40,-203 -3,-260 81,-126 186,-155 295,-82 58,39 100,99 142,204 41,103 102,220 124,240 9,9 17,20 17,25 0,5 32,42 70,82 73,76 138,116 253,155 64,22 205,47 214,37 3,-3 14,-50 23,-103 9,-54 20,-113 24,-130 6,-27 5,-33 -9,-33 -25,0 -206,-97 -268,-144 -134,-101 -278,-261 -343,-381 -46,-86 -51,-96 -77,-176 -46,-136 -59,-215 -59,-359 1,-217 50,-364 159,-477 72,-74 125,-93 210,-75 136,28 180,141 153,393 -31,282 54,545 224,702 34,31 180,120 213,131 17,5 23,2 28,-16 27,-99 140,-312 248,-472 61,-88 262,-301 347,-367 61,-47 149,-109 155,-109 4,0 51,-28 130,-77 31,-19 184,-93 240,-115 253,-102 636,-132 955,-76 451,78 745,207 985,431 123,115 194,221 304,455 33,71 34,72 54,55 29,-26 119,-150 155,-213 46,-81 76,-184 76,-260 0,-79 -11,-114 -151,-469 -54,-136 -62,-199 -38,-273 61,-188 272,-174 412,28 25,37 116,222 139,284 9,25 27,85 40,135 67,250 1,607 -162,885 -35,60 -139,173 -222,240 l -43,35 23,53 c 26,61 35,63 142,32 150,-42 279,-129 381,-254 66,-81 113,-226 121,-381 13,-247 90,-399 209,-413 66,-7 108,5 151,42 146,124 167,405 57,735 -72,217 -165,355 -328,486 -28,22 -52,43 -55,46 -22,28 -220,135 -283,154 -39,11 -38,11 58,24 122,16 226,47 335,100 99,48 109,54 174,104 114,87 240,226 330,361 54,82 119,217 135,284 6,20 17,64 26,97 24,85 18,265 -10,315 -43,77 -88,110 -150,110 -102,0 -189,-101 -261,-305 -85,-237 -112,-291 -183,-362 -87,-87 -168,-126 -346,-169 -97,-23 -248,-33 -258,-16 -3,4 10,45 29,92 98,241 165,529 182,780 20,294 -20,612 -111,890 -179,547 -562,991 -1060,1230 -194,93 -340,133 -602,166 -71,9 -138,20 -147,25 -25,12 -221,9 -354,-6 z m -49,-3399 c 174,-66 284,-180 335,-343 45,-147 6,-307 -105,-431 -63,-71 -87,-70 -119,1 -43,99 -160,168 -341,202 -159,30 -332,4 -437,-65 -61,-40 -79,-32 -102,48 -55,196 34,409 221,529 110,70 204,94 358,89 100,-3 131,-8 190,-30 z m -913,-836 c 53,-15 134,-93 169,-161 69,-138 81,-339 19,-339 -31,0 -95,-36 -120,-67 -12,-15 -26,-47 -33,-70 -11,-42 -13,-43 -42,-38 -75,16 -166,111 -207,220 -19,50 -23,79 -23,180 0,114 1,123 29,173 51,91 121,126 208,102 z m 1421,-113 c 82,-35 137,-119 156,-238 25,-152 -44,-325 -150,-379 l -38,-20 -16,30 c -22,42 -79,77 -151,90 l -61,12 -18,58 c -26,86 -18,215 19,295 59,129 164,191 259,152 z"
       id="path5"
       inkscape:connector-curvature="0" />
  </g>
  <g
     id="layer103"
     transform="matrix(0.02389906,0,0,0.02440066,-102.96317,-92.599887)"
     style="fill:#c58e5b;stroke:none">
    <path
       d="m 8220,10394 c -165,-17 -344,-59 -510,-119 -94,-33 -339,-153 -404,-197 -153,-102 -204,-138 -218,-151 -7,-7 -51,-45 -98,-84 -180,-150 -361,-366 -495,-588 -26,-43 -54,-93 -62,-110 -7,-16 -18,-37 -23,-45 -17,-26 -89,-186 -96,-214 -3,-14 -10,-29 -15,-32 -5,-3 -9,-15 -9,-28 0,-12 -4,-26 -9,-31 -20,-23 -87,-271 -115,-430 -24,-135 -36,-381 -26,-530 6,-81 22,-194 45,-300 20,-93 39,-183 42,-198 4,-19 -5,-52 -30,-105 -48,-106 -68,-203 -76,-367 -8,-156 13,-325 48,-400 10,-22 24,-58 31,-80 20,-65 76,-166 128,-230 27,-33 52,-73 56,-90 23,-101 164,-364 277,-516 65,-87 240,-269 319,-330 59,-46 149,-109 155,-109 4,0 55,-30 130,-77 93,-58 286,-137 408,-167 168,-41 232,-48 452,-48 228,-1 322,12 565,73 190,49 249,69 387,134 280,132 497,339 617,589 62,129 86,183 86,195 0,5 22,39 49,75 27,36 75,113 107,173 32,59 61,110 65,113 11,8 59,117 53,122 -2,3 5,30 15,61 30,87 42,196 31,276 -9,66 -32,146 -52,184 -7,13 5,40 51,116 33,54 81,139 106,189 26,50 53,96 61,103 8,6 14,17 14,23 0,7 9,32 21,56 29,59 117,332 128,394 5,28 14,76 19,106 16,85 32,189 37,250 11,114 2,479 -11,501 -2,4 -8,40 -14,80 -17,123 -91,402 -121,459 -5,8 -23,49 -40,90 -188,444 -550,823 -982,1030 -130,62 -289,120 -328,120 -13,0 -61,9 -106,20 -44,10 -132,24 -195,30 -62,7 -117,16 -122,21 -14,13 -197,9 -346,-7 z m -55,-3398 c 174,-66 284,-180 335,-343 45,-147 6,-307 -105,-431 -63,-71 -87,-70 -119,1 -43,99 -160,168 -341,202 -159,30 -332,4 -437,-65 -61,-40 -79,-32 -102,48 -55,196 34,409 221,529 110,70 204,94 358,89 100,-3 131,-8 190,-30 z m -913,-836 c 53,-15 134,-93 169,-161 69,-138 81,-339 19,-339 -31,0 -95,-36 -120,-67 -12,-15 -26,-47 -33,-70 -11,-42 -13,-43 -42,-38 -75,16 -166,111 -207,220 -19,50 -23,79 -23,180 0,114 1,123 29,173 51,91 121,126 208,102 z m 1421,-113 c 82,-35 137,-119 156,-238 25,-152 -44,-325 -150,-379 l -38,-20 -16,30 c -22,42 -79,77 -151,90 l -61,12 -18,58 c -26,86 -18,215 19,295 59,129 164,191 259,152 z"
       id="path8"
       inkscape:connector-curvature="0" />
    <path
       d="m 7564,6715 c -29,-29 -48,-62 -58,-96 -9,-29 -14,-54 -12,-56 2,-2 48,2 102,8 159,18 388,-5 505,-51 77,-31 181,-82 226,-112 23,-15 43,-28 46,-28 2,0 12,24 22,53 19,56 16,88 -9,122 -14,20 -15,20 -43,-7 -37,-35 -47,-35 -89,2 -59,51 -159,95 -292,125 -74,18 -216,20 -260,4 -45,-15 -72,2 -72,46 0,20 -5,35 -12,35 -6,0 -31,-20 -54,-45 z"
       id="path10"
       inkscape:connector-curvature="0" />
    <path
       d="m 7149,5789 c -28,-53 24,-169 76,-169 52,0 46,105 -9,168 -25,28 -52,28 -67,1 z"
       id="path12"
       inkscape:connector-curvature="0" />
    <path
       d="m 8500,5715 c -19,-22 -8,-119 17,-153 28,-37 64,-36 74,2 15,56 -24,156 -63,164 -8,2 -21,-4 -28,-13 z"
       id="path14"
       inkscape:connector-curvature="0" />
  </g>
  <g
     id="layer104"
     transform="matrix(0.02389906,0,0,0.02440066,-102.96317,-92.599887)"
     style="fill:#c89d76;stroke:none">
    <path
       d="m 8228,10395 c -125,-14 -157,-20 -333,-65 -101,-26 -167,-47 -220,-69 -83,-35 -118,-51 -194,-89 -127,-62 -191,-98 -215,-121 -12,-12 -26,-21 -30,-21 -10,0 -91,-61 -221,-166 -175,-141 -385,-385 -508,-589 -43,-72 -93,-162 -106,-190 -5,-11 -23,-51 -41,-89 -18,-38 -36,-81 -40,-95 -5,-14 -20,-57 -35,-96 -107,-283 -145,-508 -145,-845 0,-201 1,-209 41,-400 22,-107 43,-208 46,-223 4,-19 -5,-52 -30,-105 -48,-106 -68,-203 -76,-367 -8,-154 12,-319 48,-399 10,-23 24,-59 31,-81 20,-65 77,-166 129,-231 27,-33 52,-74 56,-92 11,-50 98,-237 148,-317 78,-126 152,-229 211,-297 67,-76 190,-198 201,-198 2,0 16,-11 31,-25 15,-14 51,-42 81,-62 65,-45 56,-39 208,-130 22,-14 38,-21 140,-69 152,-70 162,-73 356,-119 151,-35 550,-38 694,-5 28,7 73,15 100,20 43,7 188,43 280,70 292,84 596,288 749,500 62,85 196,345 196,379 0,5 22,39 49,75 27,36 75,113 107,173 32,59 61,110 65,113 10,7 58,118 53,123 -2,2 5,29 15,60 30,87 42,196 31,276 -9,66 -32,146 -52,184 -7,13 5,40 51,116 33,54 81,139 106,189 26,50 53,96 61,103 8,6 14,17 14,23 0,7 9,30 19,52 30,61 132,375 131,404 0,8 6,47 14,85 18,86 34,189 41,275 11,119 5,386 -11,480 -2,14 -9,54 -14,90 -5,36 -12,76 -16,90 -3,14 -10,45 -15,70 -15,78 -65,239 -94,305 -8,17 -20,46 -28,65 -52,125 -122,253 -197,365 -29,44 -56,82 -59,85 -3,3 -26,30 -51,60 -98,122 -313,324 -381,360 -13,7 -26,16 -29,19 -8,10 -69,51 -75,51 -4,0 -22,12 -41,26 -19,15 -34,22 -34,18 0,-5 -4,-4 -8,2 -11,15 -205,108 -297,142 -44,16 -111,35 -150,41 -38,7 -95,18 -125,26 -30,8 -107,19 -170,25 -63,7 -119,16 -124,21 -14,12 -197,9 -338,-6 z m 557,-209 c 313,-57 574,-156 698,-266 95,-85 185,-227 221,-349 20,-67 20,-112 2,-154 -29,-64 -30,-64 -88,-15 -149,127 -377,237 -618,298 -520,131 -1159,119 -1612,-31 -75,-25 -81,-24 -101,10 -23,39 -21,96 4,137 40,65 323,234 499,297 99,36 264,73 385,87 114,14 507,4 610,-14 z m -265,-516 c 583,-52 988,-233 1191,-531 110,-163 143,-325 103,-517 -15,-74 -69,-193 -89,-198 -5,-2 -35,33 -65,77 -113,165 -305,305 -553,403 -107,43 -278,81 -547,123 -165,26 -629,26 -820,0 -463,-63 -726,-131 -895,-232 -32,-20 -62,-32 -65,-28 -16,18 -30,80 -30,132 0,180 127,384 316,510 117,79 378,176 575,215 297,58 575,73 879,46 z m -193,-730 c 237,-18 549,-71 683,-116 177,-59 365,-169 471,-275 60,-60 167,-215 217,-314 79,-158 109,-341 70,-427 l -17,-37 -63,62 c -126,126 -311,255 -465,324 -307,137 -852,233 -1328,233 -481,0 -968,-120 -1227,-303 -32,-22 -62,-37 -66,-33 -4,4 -7,53 -7,109 1,176 63,327 185,448 160,158 482,255 1045,313 249,26 335,29 502,16 z m -157,-670 c 579,-40 1008,-164 1275,-369 195,-150 286,-264 335,-422 21,-70 50,-235 50,-288 v -34 l -62,59 c -308,293 -662,449 -1268,558 -383,69 -707,96 -952,78 -296,-22 -453,-53 -720,-138 -151,-49 -226,-78 -322,-125 -32,-16 -60,-28 -62,-26 -7,7 45,148 78,209 44,86 170,210 273,269 186,108 513,198 825,228 123,12 382,12 550,1 z m 60,-694 c 287,-34 666,-108 835,-164 122,-40 355,-153 455,-221 236,-160 384,-338 430,-516 25,-97 25,-142 1,-236 -33,-127 -160,-388 -232,-474 -23,-27 -78,-124 -123,-215 -90,-182 -125,-239 -201,-319 -154,-165 -379,-296 -637,-370 -305,-89 -575,-118 -826,-90 -206,22 -330,58 -506,146 -391,196 -640,442 -829,819 -24,49 -57,123 -71,164 -18,50 -39,86 -63,110 -86,84 -141,204 -180,390 -13,64 -18,128 -17,255 0,154 3,177 25,245 45,135 96,192 239,268 96,52 196,85 384,128 183,41 347,69 521,89 165,18 602,13 795,-9 z"
       id="path17"
       inkscape:connector-curvature="0" />
    <path
       d="m 7610,6752 c -41,-13 -94,-88 -109,-153 l -9,-41 36,6 c 156,26 398,13 526,-29 82,-27 269,-115 296,-140 9,-8 19,-15 22,-15 2,0 13,24 23,53 19,56 16,88 -9,122 -14,20 -15,20 -43,-7 -16,-16 -35,-28 -42,-28 -7,0 -31,15 -54,33 -123,97 -394,163 -532,128 -58,-15 -83,-3 -87,42 -2,25 -7,33 -18,29 z"
       id="path19"
       inkscape:connector-curvature="0" />
    <path
       d="m 6727,6566 c -81,-34 -121,-67 -151,-128 -29,-59 -32,-85 -12,-131 31,-75 109,-112 220,-105 206,14 342,196 239,319 -60,71 -185,90 -296,45 z"
       id="path21"
       inkscape:connector-curvature="0" />
    <path
       d="m 8910,6378 c -192,-99 0,-388 258,-388 78,0 120,20 152,72 65,106 -40,263 -214,321 -70,24 -142,22 -196,-5 z"
       id="path23"
       inkscape:connector-curvature="0" />
    <path
       d="m 7149,5789 c -36,-69 50,-206 99,-157 28,28 3,132 -40,162 -30,21 -45,20 -59,-5 z"
       id="path25"
       inkscape:connector-curvature="0" />
    <path
       d="m 8500,5715 c -19,-22 -8,-119 17,-153 12,-16 30,-27 44,-27 22,0 24,4 27,60 2,50 -1,67 -20,95 -27,40 -49,48 -68,25 z"
       id="path27"
       inkscape:connector-curvature="0" />
  </g>
  <g
     id="layer105"
     transform="matrix(0.02389906,0,0,0.02440066,-102.96317,-92.599887)"
     style="fill:#bb7139;stroke:none">
    <path
       d="m 8240,10396 c -63,-7 -142,-18 -175,-25 -127,-27 -268,-64 -293,-77 -15,-8 -33,-14 -40,-14 -8,0 -30,-7 -50,-16 -21,-9 -54,-23 -76,-32 -119,-51 -310,-152 -340,-181 -12,-12 -26,-21 -30,-21 -7,0 -86,-56 -116,-83 -8,-7 -55,-45 -105,-85 -174,-139 -388,-384 -500,-574 -39,-66 -105,-183 -114,-203 -5,-11 -23,-51 -41,-89 -18,-38 -36,-81 -40,-95 -5,-14 -20,-57 -35,-96 -56,-148 -81,-240 -110,-405 -16,-92 -19,-112 -30,-192 -3,-21 -5,-131 -5,-245 0,-205 1,-211 41,-403 22,-107 43,-208 46,-223 4,-19 -5,-52 -30,-105 -19,-42 -42,-111 -52,-152 -19,-83 -34,-332 -24,-395 23,-140 32,-182 48,-219 10,-23 24,-59 31,-81 20,-65 77,-166 129,-231 27,-33 52,-74 56,-92 11,-50 99,-239 148,-317 57,-91 120,-187 130,-197 7,-7 35,-42 64,-78 52,-66 206,-220 220,-220 4,0 18,-11 31,-24 21,-23 100,-80 163,-118 16,-10 44,-27 62,-38 17,-11 44,-25 60,-31 15,-6 27,-15 27,-19 0,-5 10,-12 23,-15 12,-4 49,-20 82,-35 153,-72 177,-81 366,-125 147,-34 567,-38 686,-6 21,6 66,15 99,20 153,24 389,98 532,167 276,134 499,341 601,559 10,22 37,79 60,126 22,47 41,91 41,97 0,6 22,40 50,76 63,85 233,392 224,407 -2,4 5,32 16,63 29,86 41,195 30,275 -9,66 -32,146 -52,184 -7,13 5,40 51,116 33,54 81,139 106,189 26,50 53,96 61,103 8,6 14,17 14,23 0,7 9,30 19,52 20,42 75,202 108,319 30,101 53,226 68,365 3,25 8,63 11,85 6,51 6,306 -1,365 -3,25 -7,63 -9,85 -6,54 -24,174 -32,205 -3,14 -10,45 -15,70 -17,88 -65,237 -104,325 -12,28 -28,66 -35,85 -13,32 -34,74 -108,213 -14,26 -30,47 -34,47 -4,0 -8,5 -8,11 0,9 -75,127 -89,139 -3,3 -26,30 -51,60 -98,122 -313,324 -381,360 -13,7 -26,16 -29,19 -8,10 -69,51 -75,51 -4,0 -22,12 -41,26 -19,15 -34,22 -34,18 0,-5 -4,-4 -8,2 -10,14 -200,106 -287,139 -74,28 -259,69 -385,86 -41,6 -106,15 -145,21 -103,16 -245,18 -375,4 z m 545,-210 c 313,-57 574,-156 698,-266 95,-85 185,-227 221,-349 20,-67 20,-112 2,-154 -29,-64 -30,-64 -88,-15 -149,127 -377,237 -618,298 -520,131 -1159,119 -1612,-31 -75,-25 -81,-24 -101,10 -23,39 -21,96 4,137 40,65 323,234 499,297 99,36 264,73 385,87 114,14 507,4 610,-14 z m -265,-516 c 583,-52 988,-233 1191,-531 110,-163 143,-325 103,-517 -15,-74 -69,-193 -89,-198 -5,-2 -35,33 -65,77 -113,165 -305,305 -553,403 -107,43 -278,81 -547,123 -165,26 -629,26 -820,0 -463,-63 -726,-131 -895,-232 -32,-20 -62,-32 -65,-28 -16,18 -30,80 -30,132 0,180 127,384 316,510 117,79 378,176 575,215 297,58 575,73 879,46 z m -193,-730 c 237,-18 549,-71 683,-116 177,-59 365,-169 471,-275 60,-60 167,-215 217,-314 79,-158 109,-341 70,-427 l -17,-37 -63,62 c -126,126 -311,255 -465,324 -307,137 -852,233 -1328,233 -481,0 -968,-120 -1227,-303 -32,-22 -62,-37 -66,-33 -4,4 -7,53 -7,109 1,176 63,327 185,448 160,158 482,255 1045,313 249,26 335,29 502,16 z m -157,-670 c 579,-40 1008,-164 1275,-369 195,-150 286,-264 335,-422 21,-70 50,-235 50,-288 v -34 l -62,59 c -308,293 -662,449 -1268,558 -383,69 -707,96 -952,78 -296,-22 -453,-53 -720,-138 -151,-49 -226,-78 -322,-125 -32,-16 -60,-28 -62,-26 -7,7 45,148 78,209 44,86 170,210 273,269 186,108 513,198 825,228 123,12 382,12 550,1 z m 60,-694 c 287,-34 666,-108 835,-164 122,-40 355,-153 455,-221 236,-160 384,-338 430,-516 25,-97 25,-142 1,-236 -33,-127 -160,-388 -232,-474 -23,-27 -78,-124 -123,-215 -90,-182 -125,-239 -201,-319 -154,-165 -379,-296 -637,-370 -305,-89 -575,-118 -826,-90 -206,22 -330,58 -506,146 -391,196 -640,442 -829,819 -24,49 -57,123 -71,164 -18,50 -39,86 -63,110 -86,84 -141,204 -180,390 -13,64 -18,128 -17,255 0,154 3,177 25,245 45,135 96,192 239,268 96,52 196,85 384,128 183,41 347,69 521,89 165,18 602,13 795,-9 z"
       id="path30"
       inkscape:connector-curvature="0" />
    <path
       d="m 7453,6788 c -15,-18 -35,-58 -29,-58 2,0 13,16 25,35 20,35 22,46 4,23 z"
       id="path32"
       inkscape:connector-curvature="0" />
    <path
       d="m 7373,6525 c 0,-33 2,-45 4,-27 2,18 2,45 0,60 -2,15 -4,0 -4,-33 z"
       id="path34"
       inkscape:connector-curvature="0" />
    <path
       d="m 7490,6355 c -19,-14 -30,-25 -24,-25 10,1 73,50 63,50 -3,0 -20,-11 -39,-25 z"
       id="path36"
       inkscape:connector-curvature="0" />
    <path
       d="m 7417,6005 c 9,-19 18,-33 21,-31 4,5 -26,66 -33,66 -3,0 3,-16 12,-35 z"
       id="path38"
       inkscape:connector-curvature="0" />
    <path
       d="m 8705,6034 c 6,-5 23,-20 40,-34 29,-24 29,-24 10,-2 -11,13 -29,28 -40,34 -11,6 -15,6 -10,2 z"
       id="path40"
       inkscape:connector-curvature="0" />
    <path
       d="m 7483,5770 c 0,-25 2,-35 4,-22 2,12 2,32 0,45 -2,12 -4,2 -4,-23 z"
       id="path42"
       inkscape:connector-curvature="0" />
    <path
       d="m 7071,5622 c 14,-30 77,-100 101,-113 11,-6 -2,11 -29,38 -27,26 -57,59 -66,73 -16,23 -17,23 -6,2 z"
       id="path44"
       inkscape:connector-curvature="0" />
  </g>
  <g
     id="layer106"
     transform="matrix(0.02389906,0,0,0.02440066,-102.96317,-92.599887)"
     style="fill:#fefefe;stroke:none">
    <path
       d="m 7580,6723 c -29,-26 -52,-59 -63,-90 -25,-69 -24,-72 26,-62 68,13 305,10 397,-5 124,-21 287,-85 383,-150 21,-14 40,-26 42,-26 3,0 11,13 20,30 18,35 19,96 2,128 l -13,23 -19,-22 c -39,-42 -52,-43 -100,-4 -55,46 -174,96 -291,124 -103,24 -178,27 -253,9 -61,-14 -78,-3 -83,50 l -3,37 z"
       id="path47"
       inkscape:connector-curvature="0" />
    <path
       d="m 7161,5797 c -31,-31 0,-144 46,-168 22,-12 27,-11 40,6 17,24 11,84 -14,126 -20,34 -56,52 -72,36 z"
       id="path49"
       inkscape:connector-curvature="0" />
    <path
       d="m 8494,5685 c -8,-42 16,-113 47,-141 20,-18 21,-18 36,1 33,45 -5,166 -55,173 -17,3 -22,-4 -28,-33 z"
       id="path51"
       inkscape:connector-curvature="0" />
  </g>
</svg>
