<?xml version="1.0" encoding="UTF-8" standalone="no"?>
<svg
   xmlns:dc="http://purl.org/dc/elements/1.1/"
   xmlns:cc="http://creativecommons.org/ns#"
   xmlns:rdf="http://www.w3.org/1999/02/22-rdf-syntax-ns#"
   xmlns:svg="http://www.w3.org/2000/svg"
   xmlns="http://www.w3.org/2000/svg"
   xmlns:sodipodi="http://sodipodi.sourceforge.net/DTD/sodipodi-0.dtd"
   xmlns:inkscape="http://www.inkscape.org/namespaces/inkscape"
   version="1.0"
   width="23.999998"
   height="24.000002"
   viewBox="0 0 187.49999 187.50001"
   preserveAspectRatio="xMidYMid meet"
   id="svg101"
   sodipodi:docname="smiling.svg"
   inkscape:version="0.92.4 (5da689c313, 2019-01-14)">
  <metadata
     id="metadata107">
    <rdf:RDF>
      <cc:Work
         rdf:about="">
        <dc:format>image/svg+xml</dc:format>
        <dc:type
           rdf:resource="http://purl.org/dc/dcmitype/StillImage" />
        <dc:title></dc:title>
      </cc:Work>
    </rdf:RDF>
  </metadata>
  <defs
     id="defs105" />
  <sodipodi:namedview
     pagecolor="#ffffff"
     bordercolor="#666666"
     borderopacity="1"
     objecttolerance="10"
     gridtolerance="10"
     guidetolerance="10"
     inkscape:pageopacity="0"
     inkscape:pageshadow="2"
     inkscape:window-width="3696"
     inkscape:window-height="2115"
     id="namedview103"
     showgrid="false"
     fit-margin-top="2"
     fit-margin-right="2"
     fit-margin-bottom="2"
     fit-margin-left="2"
     inkscape:zoom="41.7193"
     inkscape:cx="9.0637863"
     inkscape:cy="15.110632"
     inkscape:window-x="131"
     inkscape:window-y="2147"
     inkscape:window-maximized="1"
     inkscape:current-layer="svg101" />
  <g
     id="layer101"
     transform="matrix(0.02161698,0,0,0.02487244,-76.701768,-88.267182)"
     style="fill:#010100;stroke:none">
    <path
       d="m 7595,10454 c -352,-74 -582,-314 -685,-716 -15,-58 -27,-85 -34,-80 -6,4 -49,32 -96,63 -275,181 -544,272 -800,272 -312,-1 -552,-141 -678,-397 -72,-147 -86,-215 -87,-421 0,-138 4,-200 18,-265 20,-91 50,-194 73,-248 8,-18 14,-38 14,-44 0,-29 148,-308 223,-421 97,-145 98,-140 -17,-152 -140,-14 -332,-74 -481,-150 -319,-162 -531,-369 -663,-647 -61,-127 -78,-179 -97,-294 -63,-383 90,-737 410,-949 213,-140 435,-204 715,-205 157,0 381,35 484,76 15,6 17,3 12,-12 -14,-49 -36,-300 -36,-422 0,-384 100,-716 285,-949 60,-76 167,-175 226,-208 74,-42 111,-59 179,-82 68,-24 89,-26 230,-26 139,1 164,3 240,27 333,104 650,405 855,814 l 36,73 25,-36 c 13,-20 24,-38 24,-41 0,-5 48,-72 60,-84 3,-3 23,-27 45,-55 93,-118 253,-248 385,-315 25,-12 53,-27 63,-32 152,-77 430,-110 609,-73 393,83 683,416 729,840 16,146 4,333 -30,466 -31,123 -33,120 49,79 33,-16 61,-26 185,-65 186,-59 478,-72 670,-31 126,27 169,42 280,96 232,114 404,333 465,591 19,84 22,115 17,230 -7,179 -38,299 -122,474 -41,85 -136,230 -201,305 -135,157 -341,318 -527,410 l -68,34 28,20 c 80,58 174,157 236,247 44,65 117,208 117,231 0,7 10,40 21,73 25,75 36,300 21,430 -21,178 -90,355 -210,535 -54,81 -211,250 -280,301 -19,13 -39,29 -45,34 -28,25 -149,95 -221,129 -174,81 -279,106 -483,113 -174,6 -236,-3 -391,-53 -75,-24 -93,-33 -197,-93 -97,-57 -192,-142 -264,-237 l -47,-62 -24,52 c -86,182 -214,362 -360,504 -236,232 -504,354 -767,351 -54,-1 -107,-3 -118,-5 z"
       id="path2"
       inkscape:connector-curvature="0" />
  </g>
  <g
     id="layer102"
     transform="matrix(0.02161698,0,0,0.02487244,-76.701768,-88.267182)"
     style="fill:#c36727;stroke:none">
    <path
       d="m 7595,10454 c -352,-74 -582,-314 -685,-716 -15,-58 -27,-85 -34,-80 -6,4 -49,32 -96,63 -274,181 -542,272 -800,272 -312,0 -551,-140 -678,-397 -59,-118 -83,-217 -89,-371 -7,-174 13,-312 76,-520 42,-135 150,-351 255,-508 96,-145 97,-140 -18,-152 -252,-26 -587,-175 -796,-354 -246,-210 -401,-467 -445,-737 -105,-639 393,-1152 1120,-1154 158,0 387,35 489,76 15,6 17,3 12,-12 -14,-49 -36,-300 -36,-422 0,-384 100,-716 286,-951 87,-110 181,-187 299,-245 122,-59 169,-69 335,-69 138,1 164,3 238,26 334,105 652,407 857,815 l 37,73 50,-78 c 28,-43 54,-80 57,-83 3,-3 24,-27 46,-55 132,-165 333,-309 534,-380 205,-73 456,-74 649,-4 327,118 562,433 603,804 16,146 4,333 -30,466 -31,123 -33,120 49,79 59,-30 239,-82 350,-101 145,-26 356,-25 487,1 389,77 659,312 755,656 30,107 33,353 5,459 -73,276 -201,495 -414,700 -117,114 -305,245 -446,310 -21,10 -35,21 -30,25 4,3 22,17 38,29 61,45 159,148 209,221 50,72 126,217 126,240 0,6 10,41 22,78 21,60 23,87 23,267 0,180 -3,208 -24,280 -75,254 -171,423 -335,589 -110,112 -128,126 -236,198 -209,138 -394,197 -647,205 -173,6 -237,-3 -390,-52 -180,-59 -383,-210 -481,-358 l -26,-39 -43,86 c -90,181 -204,339 -343,474 -236,232 -504,354 -767,351 -54,-1 -107,-3 -118,-5 z m 426,-2100 c 236,-69 403,-301 425,-589 5,-65 4,-83 -8,-93 -12,-10 -124,-9 -549,3 -294,9 -549,18 -566,21 -29,4 -33,9 -33,34 0,66 33,181 81,279 85,174 230,302 392,346 71,19 192,18 258,-1 z M 6883,7696 c 191,-37 363,-168 428,-326 16,-40 23,-76 23,-135 1,-71 -3,-88 -31,-146 -53,-108 -164,-191 -291,-218 -74,-16 -215,-13 -292,5 -160,37 -323,160 -386,289 -26,55 -29,69 -29,165 0,92 3,111 25,154 88,173 310,258 553,212 z m 2167,-2 c 133,-31 263,-134 318,-251 24,-51 27,-70 27,-158 0,-89 -3,-106 -27,-155 -115,-234 -415,-326 -673,-206 -95,44 -163,108 -211,198 -38,71 -39,76 -39,173 0,90 3,106 29,160 56,114 178,209 309,241 72,17 190,17 267,-2 z"
       id="path5"
       inkscape:connector-curvature="0" />
    <path
       d="m 7417,7824 c -8,-27 -12,-52 -8,-55 6,-7 933,-30 940,-24 2,2 -1,21 -6,41 -7,31 -14,39 -38,45 -17,4 -199,12 -405,18 -206,7 -396,14 -422,18 l -47,5 z"
       id="path7"
       inkscape:connector-curvature="0" />
    <path
       d="m 6563,7319 c -47,-14 -83,-62 -83,-112 0,-79 62,-152 151,-179 56,-16 121,10 144,59 55,116 -83,267 -212,232 z"
       id="path9"
       inkscape:connector-curvature="0" />
    <path
       d="m 8684,7291 c -46,-28 -64,-59 -64,-110 0,-56 30,-106 81,-131 104,-53 211,14 196,123 -7,53 -33,87 -87,115 -54,27 -85,28 -126,3 z"
       id="path11"
       inkscape:connector-curvature="0" />
  </g>
  <g
     id="layer103"
     transform="matrix(0.02161698,0,0,0.02487244,-76.701768,-88.267182)"
     style="fill:#fe9800;stroke:none">
    <path
       d="m 7585,10285 c -255,-57 -446,-275 -520,-595 -24,-105 -21,-222 9,-366 24,-116 75,-287 110,-367 l 16,-37 -27,-11 c -37,-15 -105,-39 -108,-39 -5,0 -45,100 -70,176 -29,87 -69,253 -79,326 -6,40 -14,54 -54,89 -26,22 -74,60 -107,83 -456,318 -896,375 -1178,154 -43,-34 -117,-134 -142,-193 -148,-345 -27,-861 308,-1311 83,-112 127,-154 163,-154 22,0 93,-14 132,-26 8,-2 2,-23 -20,-69 -32,-64 -34,-66 -63,-61 -16,4 -83,9 -147,12 -609,33 -1207,-365 -1350,-899 -29,-109 -31,-312 -4,-402 56,-186 137,-306 287,-425 105,-83 261,-152 417,-186 100,-21 283,-28 397,-15 150,17 344,68 401,105 12,8 50,67 84,130 35,64 66,116 69,116 3,0 26,-28 50,-61 35,-48 42,-65 34,-78 -48,-77 -87,-172 -108,-267 -160,-701 46,-1366 477,-1538 134,-53 244,-59 390,-22 347,88 675,430 858,894 l 33,84 -16,52 c -10,29 -17,56 -17,59 0,13 150,8 154,-5 23,-80 87,-239 122,-298 164,-283 440,-485 724,-530 413,-65 758,168 871,590 32,120 33,364 1,490 -42,166 -108,320 -163,376 -17,18 -30,37 -28,42 2,5 24,31 48,57 l 44,48 25,-29 c 51,-60 282,-183 442,-234 615,-198 1172,35 1274,532 90,439 -232,959 -760,1229 -156,79 -297,113 -557,133 l -149,11 -28,68 -29,67 h 113 c 133,0 295,-15 384,-35 59,-14 65,-14 90,4 15,10 57,37 93,60 231,145 369,406 369,695 0,180 -37,333 -118,490 -332,646 -1185,847 -1629,384 -58,-62 -89,-104 -140,-196 l -25,-45 12,-171 c 6,-94 10,-217 8,-273 l -3,-101 -71,32 -71,33 -6,194 c -6,204 -9,219 -67,364 -229,577 -734,953 -1155,860 z m 390,-1915 c 33,-5 97,-28 142,-50 64,-32 95,-55 150,-114 114,-122 170,-259 180,-437 5,-88 4,-98 -13,-106 -12,-6 -235,-3 -572,7 -467,14 -556,19 -569,32 -13,14 -13,24 0,96 43,228 177,422 355,516 111,58 210,75 327,56 z M 6966,7679 c 167,-55 312,-191 359,-337 24,-75 17,-180 -16,-252 -77,-166 -294,-264 -515,-232 -209,31 -388,150 -465,310 -30,61 -33,75 -33,162 0,108 17,155 79,228 123,143 371,194 591,121 z m 2123,8 c 224,-73 363,-297 306,-493 -57,-201 -235,-324 -469,-324 -205,0 -369,97 -453,266 -34,70 -35,74 -31,170 4,117 30,181 102,256 136,142 347,190 545,125 z"
       id="path14"
       inkscape:connector-curvature="0" />
  </g>
  <g
     id="layer104"
     transform="matrix(0.02161698,0,0,0.02487244,-76.701768,-88.267182)"
     style="fill:#fb742d;stroke:none">
    <path
       d="m 7285,10330 c -21,-14 -25,-20 -12,-20 9,0 17,4 17,8 0,5 10,14 23,20 12,6 18,11 12,11 -5,1 -23,-8 -40,-19 z"
       id="path17"
       inkscape:connector-curvature="0" />
    <path
       d="m 8179,10331 c 13,-12 28,-21 34,-21 12,0 11,0 -28,24 l -30,17 z"
       id="path19"
       inkscape:connector-curvature="0" />
    <path
       d="m 7585,10285 c -255,-57 -446,-275 -520,-595 -24,-105 -21,-222 9,-366 24,-116 75,-287 110,-367 l 16,-37 -27,-11 c -37,-15 -105,-39 -108,-39 -5,0 -45,100 -70,176 -29,87 -69,253 -79,326 -6,40 -14,54 -54,89 -26,22 -74,60 -107,83 -456,318 -896,375 -1178,154 -43,-34 -117,-134 -142,-193 -148,-345 -27,-861 308,-1311 83,-112 127,-154 163,-154 22,0 93,-14 132,-26 8,-2 2,-23 -20,-69 -32,-64 -34,-66 -63,-61 -16,4 -83,9 -147,12 -609,33 -1207,-365 -1350,-899 -29,-109 -31,-312 -4,-402 56,-186 137,-306 287,-425 105,-83 261,-152 417,-186 100,-21 283,-28 397,-15 150,17 344,68 401,105 12,8 50,67 84,130 35,64 66,116 69,116 3,0 26,-28 50,-61 35,-48 42,-65 34,-78 -48,-77 -87,-172 -108,-267 -160,-701 46,-1366 477,-1538 134,-53 244,-59 390,-22 347,88 675,430 858,894 l 33,84 -16,52 c -10,29 -17,56 -17,59 0,13 150,8 154,-5 23,-80 87,-239 122,-298 164,-283 440,-485 724,-530 413,-65 758,168 871,590 32,120 33,364 1,490 -42,166 -108,320 -163,376 -17,18 -30,37 -28,42 2,5 24,31 48,57 l 44,48 25,-29 c 51,-60 282,-183 442,-234 615,-198 1172,35 1274,532 90,439 -232,959 -760,1229 -156,79 -297,113 -557,133 l -149,11 -28,68 -29,67 h 113 c 133,0 295,-15 384,-35 59,-14 65,-14 90,4 15,10 57,37 93,60 231,145 369,406 369,695 0,180 -37,333 -118,490 -198,385 -598,636 -1012,636 -335,0 -612,-167 -764,-461 -18,-34 -19,-46 -8,-176 7,-76 12,-198 12,-271 v -131 l -35,15 c -62,26 -37,6 45,-35 532,-269 894,-745 975,-1281 46,-306 -4,-632 -142,-920 -179,-373 -494,-682 -898,-881 -550,-270 -1193,-314 -1765,-122 -455,154 -821,433 -1052,805 -103,166 -180,368 -219,577 -28,149 -24,412 9,561 124,570 519,1036 1103,1300 345,156 747,228 1114,200 243,-19 460,-66 662,-143 124,-48 133,-51 92,-28 l -36,20 -6,193 c -6,203 -9,218 -67,363 -229,577 -734,953 -1155,860 z"
       id="path21"
       inkscape:connector-curvature="0" />
    <path
       d="m 8330,10231 c 0,-6 9,-15 19,-21 11,-5 27,-17 35,-26 9,-8 16,-11 16,-6 0,5 -16,22 -35,36 -19,15 -35,22 -35,17 z"
       id="path23"
       inkscape:connector-curvature="0" />
    <path
       d="m 7094,10143 c -23,-31 -24,-34 -5,-18 22,19 46,55 38,55 -3,0 -17,-17 -33,-37 z"
       id="path25"
       inkscape:connector-curvature="0" />
    <path
       d="m 5941,9996 c 2,-2 29,-6 59,-9 34,-3 47,-2 35,3 -19,8 -103,14 -94,6 z"
       id="path27"
       inkscape:connector-curvature="0" />
    <path
       d="m 9965,9970 c 11,-5 29,-8 40,-8 16,0 15,2 -5,8 -34,11 -60,11 -35,0 z"
       id="path29"
       inkscape:connector-curvature="0" />
    <path
       d="m 10140,9921 c 8,-5 26,-12 40,-15 l 25,-7 -25,15 c -14,9 -32,15 -40,15 -13,0 -13,-1 0,-8 z"
       id="path31"
       inkscape:connector-curvature="0" />
    <path
       d="m 5514,9853 c -17,-16 -23,-22 -14,-15 9,6 21,12 27,12 6,0 16,7 23,15 21,25 -4,17 -36,-12 z"
       id="path33"
       inkscape:connector-curvature="0" />
    <path
       d="m 5438,9789 c -10,-5 -23,-20 -28,-32 -10,-20 -10,-21 4,-4 8,10 23,25 33,32 21,17 16,19 -9,4 z"
       id="path35"
       inkscape:connector-curvature="0" />
    <path
       d="m 6700,9766 c 0,-2 16,-13 36,-25 19,-12 32,-16 29,-11 -7,11 -65,43 -65,36 z"
       id="path37"
       inkscape:connector-curvature="0" />
    <path
       d="m 6800,9706 c 0,-2 14,-14 30,-26 17,-12 30,-19 30,-16 0,2 -13,14 -30,26 -16,12 -30,19 -30,16 z"
       id="path39"
       inkscape:connector-curvature="0" />
    <path
       d="m 10590,9645 c 19,-19 36,-35 39,-35 3,0 -10,16 -29,35 -19,19 -36,35 -39,35 -3,0 10,-16 29,-35 z"
       id="path41"
       inkscape:connector-curvature="0" />
    <path
       d="m 8811,9649 c -1,-8 6,-24 15,-35 15,-19 15,-19 6,1 -5,11 -12,27 -15,35 -5,13 -6,13 -6,-1 z"
       id="path43"
       inkscape:connector-curvature="0" />
    <path
       d="m 5276,9541 c -11,-17 -27,-66 -19,-56 12,13 34,65 28,65 -2,0 -6,-4 -9,-9 z"
       id="path45"
       inkscape:connector-curvature="0" />
    <path
       d="m 10789,9415 c 5,-11 17,-29 26,-40 l 16,-20 -10,20 c -5,11 -17,29 -26,40 l -16,20 z"
       id="path47"
       inkscape:connector-curvature="0" />
    <path
       d="m 10870,9277 c 0,-11 30,-67 35,-67 6,0 -16,52 -27,65 -4,5 -8,6 -8,2 z"
       id="path49"
       inkscape:connector-curvature="0" />
    <path
       d="m 5213,9235 c 0,-22 2,-30 4,-17 2,12 2,30 0,40 -3,9 -5,-1 -4,-23 z"
       id="path51"
       inkscape:connector-curvature="0" />
    <path
       d="m 10937,8345 c -9,-19 -15,-35 -12,-35 7,0 37,61 33,66 -3,2 -12,-12 -21,-31 z"
       id="path53"
       inkscape:connector-curvature="0" />
    <path
       d="m 10578,7896 c -16,-12 -15,-14 10,-25 24,-10 25,-10 9,3 -18,14 -18,15 0,25 10,6 14,10 8,10 -5,0 -18,-6 -27,-13 z"
       id="path55"
       inkscape:connector-curvature="0" />
    <path
       d="m 4704,7668 -29,-33 33,29 c 17,17 32,31 32,33 0,8 -8,1 -36,-29 z"
       id="path57"
       inkscape:connector-curvature="0" />
    <path
       d="m 11090,7521 c 0,-10 39,-45 44,-40 3,2 -6,14 -20,26 -13,12 -24,18 -24,14 z"
       id="path59"
       inkscape:connector-curvature="0" />
    <path
       d="m 4610,6070 c 0,-5 10,-15 23,-21 22,-12 22,-12 3,10 -21,23 -26,26 -26,11 z"
       id="path61"
       inkscape:connector-curvature="0" />
    <path
       d="m 11247,6014 c -21,-20 -37,-38 -35,-40 3,-2 22,14 43,36 48,50 43,52 -8,4 z"
       id="path63"
       inkscape:connector-curvature="0" />
    <path
       d="m 9786,5882 c -2,-4 3,-16 11,-27 14,-18 15,-18 9,-1 -5,14 -2,17 9,12 22,-8 19,1 -4,14 -11,5 -22,7 -25,2 z"
       id="path65"
       inkscape:connector-curvature="0" />
    <path
       d="m 9848,5270 c -2,-22 0,-40 4,-40 5,0 8,18 8,40 0,22 -2,40 -4,40 -2,0 -6,-18 -8,-40 z"
       id="path67"
       inkscape:connector-curvature="0" />
    <path
       d="m 9836,5189 c -3,-18 -4,-34 -2,-36 2,-3 7,10 11,27 4,17 5,34 2,36 -2,3 -7,-10 -11,-27 z"
       id="path69"
       inkscape:connector-curvature="0" />
    <path
       d="m 7880,5031 c -12,-24 -13,-34 -1,-27 9,6 22,46 15,46 -2,0 -8,-9 -14,-19 z"
       id="path71"
       inkscape:connector-curvature="0" />
    <path
       d="m 8070,4880 c 12,-16 24,-30 26,-30 3,0 -4,14 -16,30 -12,17 -24,30 -26,30 -3,0 4,-13 16,-30 z"
       id="path73"
       inkscape:connector-curvature="0" />
    <path
       d="m 9650,4785 c -13,-14 -22,-27 -19,-29 2,-2 14,10 27,25 29,36 24,38 -8,4 z"
       id="path75"
       inkscape:connector-curvature="0" />
    <path
       d="m 8200,4747 c 0,-2 16,-18 35,-36 19,-17 35,-27 35,-22 0,5 -16,21 -35,35 -19,15 -35,25 -35,23 z"
       id="path77"
       inkscape:connector-curvature="0" />
    <path
       d="m 9534,4666 c -10,-8 -16,-17 -13,-20 3,-3 14,3 24,14 21,23 17,26 -11,6 z"
       id="path79"
       inkscape:connector-curvature="0" />
    <path
       d="m 8400,4596 c 0,-3 14,-12 30,-21 17,-9 30,-13 30,-11 0,3 -13,12 -30,21 -16,9 -30,13 -30,11 z"
       id="path81"
       inkscape:connector-curvature="0" />
  </g>
  <g
     id="layer105"
     transform="matrix(0.02161698,0,0,0.02487244,-76.701768,-88.267182)"
     style="fill:#ffd500;stroke:none">
    <path
       d="m 7775,8869 c -816,-56 -1522,-571 -1720,-1254 -38,-132 -55,-254 -55,-400 0,-410 161,-773 478,-1076 409,-392 987,-577 1622,-518 649,59 1244,426 1528,942 177,321 229,688 147,1032 -167,703 -849,1218 -1690,1275 -152,11 -150,11 -310,-1 z m 238,-505 c 117,-30 218,-98 292,-196 85,-113 124,-210 144,-361 22,-158 20,-161 -133,-153 -61,3 -309,11 -551,17 -242,7 -450,16 -462,20 -18,7 -23,16 -23,42 0,62 39,191 87,287 39,78 62,110 132,180 47,47 110,98 139,114 119,63 256,81 375,50 z M 6963,7681 c 198,-70 329,-201 373,-374 19,-77 11,-146 -28,-225 -100,-208 -410,-292 -678,-183 -91,37 -141,70 -211,141 -118,119 -159,278 -108,415 32,87 129,181 224,219 118,47 305,50 428,7 z m 2131,7 c 251,-86 380,-340 282,-554 -77,-168 -245,-268 -451,-267 -241,0 -437,145 -485,359 -48,208 131,441 372,483 75,14 211,3 282,-21 z"
       id="path84"
       inkscape:connector-curvature="0" />
  </g>
  <g
     id="layer106"
     transform="matrix(0.02161698,0,0,0.02487244,-76.701768,-88.267182)"
     style="fill:#a0a0a0;stroke:none">
    <path
       d="m 7432,7858 c -6,-8 -14,-33 -18,-56 l -7,-42 h 169 c 161,0 273,-3 622,-15 166,-6 162,-7 141,53 l -10,30 -102,6 c -56,3 -241,11 -412,16 -170,6 -324,13 -341,16 -19,4 -34,1 -42,-8 z"
       id="path87"
       inkscape:connector-curvature="0" />
    <path
       d="m 6564,7319 c -76,-22 -105,-108 -62,-189 57,-106 189,-139 259,-64 36,38 34,116 -5,172 -42,61 -130,98 -192,81 z"
       id="path89"
       inkscape:connector-curvature="0" />
    <path
       d="m 8694,7296 c -109,-48 -96,-207 21,-251 172,-66 261,159 95,243 -51,25 -72,27 -116,8 z"
       id="path91"
       inkscape:connector-curvature="0" />
  </g>
  <g
     id="layer107"
     transform="matrix(0.02161698,0,0,0.02487244,-76.701768,-88.267182)"
     style="fill:#fcfcfc;stroke:none">
    <path
       d="m 7431,7838 c -4,-13 -11,-33 -15,-45 l -7,-23 133,-2 c 73,-1 151,-2 173,-3 22,-1 172,-5 334,-9 l 294,-8 -7,33 c -3,18 -12,37 -19,41 -6,4 -52,8 -102,8 -90,0 -481,15 -673,25 -100,6 -102,5 -111,-17 z"
       id="path94"
       inkscape:connector-curvature="0" />
    <path
       d="m 6525,7289 c -32,-28 -35,-36 -35,-84 0,-147 193,-234 277,-125 48,63 0,179 -92,221 -62,28 -108,25 -150,-12 z"
       id="path96"
       inkscape:connector-curvature="0" />
    <path
       d="m 8672,7278 c -39,-28 -55,-77 -42,-131 11,-49 34,-75 89,-99 55,-25 100,-18 140,22 42,43 48,81 19,138 -43,87 -135,118 -206,70 z"
       id="path98"
       inkscape:connector-curvature="0" />
  </g>
</svg>
