<?xml version="1.0" encoding="UTF-8" standalone="no"?>
<svg
   xmlns:dc="http://purl.org/dc/elements/1.1/"
   xmlns:cc="http://creativecommons.org/ns#"
   xmlns:rdf="http://www.w3.org/1999/02/22-rdf-syntax-ns#"
   xmlns:svg="http://www.w3.org/2000/svg"
   xmlns="http://www.w3.org/2000/svg"
   xmlns:sodipodi="http://sodipodi.sourceforge.net/DTD/sodipodi-0.dtd"
   xmlns:inkscape="http://www.inkscape.org/namespaces/inkscape"
   version="1.0"
   width="24"
   height="23.999998"
   viewBox="0 0 187.5 187.49999"
   preserveAspectRatio="xMidYMid meet"
   id="svg38"
   sodipodi:docname="sowing.svg"
   inkscape:version="0.92.4 (5da689c313, 2019-01-14)">
  <metadata
     id="metadata44">
    <rdf:RDF>
      <cc:Work
         rdf:about="">
        <dc:format>image/svg+xml</dc:format>
        <dc:type
           rdf:resource="http://purl.org/dc/dcmitype/StillImage" />
        <dc:title></dc:title>
      </cc:Work>
    </rdf:RDF>
  </metadata>
  <defs
     id="defs42" />
  <sodipodi:namedview
     pagecolor="#ffffff"
     bordercolor="#666666"
     borderopacity="1"
     objecttolerance="10"
     gridtolerance="10"
     guidetolerance="10"
     inkscape:pageopacity="0"
     inkscape:pageshadow="2"
     inkscape:window-width="3696"
     inkscape:window-height="2115"
     id="namedview40"
     showgrid="false"
     fit-margin-top="2"
     fit-margin-right="2"
     fit-margin-bottom="2"
     fit-margin-left="2"
     inkscape:zoom="29.5"
     inkscape:cx="-1.0155069"
     inkscape:cy="3.8425882"
     inkscape:window-x="131"
     inkscape:window-y="2147"
     inkscape:window-maximized="1"
     inkscape:current-layer="svg38"
     inkscape:pagecheckerboard="true" />
  <g
     id="layer101"
     transform="matrix(0.02264648,0,0,0.02549269,-88.338745,-79.679365)"
     style="fill:#09870b;stroke:none">
    <path
       d="m 7963,9860 c -177,-15 -294,-49 -573,-166 -102,-42 -284,-111 -405,-152 l -220,-75 -150,-4 c -105,-4 -186,0 -270,11 -223,31 -388,38 -616,27 -198,-9 -226,-13 -369,-49 -308,-78 -413,-134 -590,-312 -154,-155 -208,-352 -165,-598 22,-123 42,-186 95,-297 97,-203 229,-340 450,-466 113,-65 380,-197 510,-252 249,-106 567,-215 745,-255 248,-57 252,-57 475,-57 243,0 289,9 443,85 l 77,39 36,-75 c 51,-109 87,-157 194,-264 71,-72 113,-105 168,-133 130,-66 268,-69 412,-8 l 72,30 77,-59 c 122,-94 245,-152 481,-230 47,-15 106,-31 132,-35 44,-7 48,-10 58,-44 5,-20 10,-43 10,-51 0,-8 12,-63 26,-122 l 27,-108 -51,-52 c -269,-280 -382,-554 -382,-933 0,-264 81,-466 256,-637 67,-65 166,-148 177,-148 4,0 23,-12 44,-26 77,-52 226,-119 378,-167 71,-23 208,-52 365,-76 505,-79 711,-162 906,-361 110,-113 159,-127 221,-65 l 36,36 -6,79 c -4,44 -14,110 -23,147 -56,234 -107,486 -124,618 -17,130 -57,334 -86,445 -8,30 -28,114 -45,185 -89,379 -221,655 -405,854 -171,183 -319,262 -559,296 -189,27 -328,14 -452,-45 l -62,-28 -15,46 c -8,26 -17,68 -21,94 -7,52 -10,50 88,67 192,34 370,187 488,419 l 22,43 66,-7 c 185,-20 271,-5 421,73 194,101 279,190 372,391 21,46 43,106 49,133 6,27 14,47 19,44 5,-3 47,-16 94,-30 71,-21 108,-25 211,-25 164,0 230,20 313,96 80,72 105,130 100,233 -3,68 -8,87 -55,181 -74,147 -155,236 -448,491 -252,220 -578,452 -835,596 -509,285 -1017,496 -1430,592 -47,11 -116,28 -154,37 -129,30 -397,40 -603,24 z"
       id="path2"
       inkscape:connector-curvature="0" />
  </g>
  <g
     id="layer102"
     transform="matrix(0.02264648,0,0,0.02549269,-88.338745,-79.679365)"
     style="fill:#5b5d22;stroke:none">
    <path
       d="m 7965,9859 c -183,-15 -296,-48 -575,-165 -102,-42 -284,-111 -405,-152 l -220,-75 -150,-4 c -105,-4 -186,0 -270,11 -223,31 -388,38 -616,27 -198,-9 -225,-13 -371,-50 -234,-59 -372,-119 -483,-210 -89,-74 -184,-183 -218,-253 -101,-205 -86,-474 43,-743 97,-203 229,-340 450,-466 113,-65 380,-197 510,-252 249,-106 567,-215 745,-255 248,-57 252,-57 475,-57 243,0 289,9 443,85 l 77,39 37,-77 c 42,-89 89,-155 174,-247 79,-84 139,-127 230,-166 65,-28 84,-31 169,-31 86,0 104,3 185,36 l 90,35 35,-29 c 83,-70 206,-141 337,-194 104,-43 265,-94 321,-101 61,-8 59,-14 42,120 -20,159 -30,321 -24,362 12,85 83,119 140,69 27,-23 28,-27 35,-162 9,-162 36,-369 52,-394 8,-13 16,-16 31,-10 12,5 52,15 90,24 201,46 369,195 486,431 13,27 19,30 45,24 56,-12 259,-9 312,5 61,16 210,95 285,150 64,47 140,134 184,212 38,66 89,192 99,242 4,18 10,30 15,27 5,-3 47,-16 94,-30 71,-21 108,-25 211,-25 164,0 230,20 313,96 80,72 105,130 100,233 -3,68 -8,87 -55,181 -74,147 -155,236 -448,491 -252,220 -578,452 -835,596 -509,285 -1017,496 -1430,592 -47,11 -116,28 -154,37 -129,30 -401,41 -601,23 z"
       id="path5"
       inkscape:connector-curvature="0" />
  </g>
  <g
     id="layer103"
     transform="matrix(0.02264648,0,0,0.02549269,-88.338745,-79.679365)"
     style="fill:#745029;stroke:none">
    <path
       d="m 7965,9859 c -183,-15 -296,-48 -575,-165 -102,-42 -284,-111 -405,-152 l -220,-75 -150,-4 c -105,-4 -186,0 -270,11 -223,31 -388,38 -616,27 -198,-9 -225,-13 -371,-50 -234,-59 -372,-119 -483,-210 -89,-74 -184,-183 -218,-253 -101,-205 -86,-474 43,-743 97,-203 229,-340 450,-466 113,-65 380,-197 510,-252 249,-106 567,-215 745,-255 248,-57 252,-57 475,-57 243,0 289,9 443,85 l 78,39 40,-82 c 48,-98 69,-129 155,-225 101,-111 220,-189 318,-208 37,-7 162,-7 195,0 43,9 161,57 167,68 4,6 9,6 13,1 12,-16 116,-100 151,-120 73,-43 148,-79 220,-106 41,-16 84,-32 95,-37 55,-24 176,-59 224,-65 l 54,-7 -6,33 c -14,83 -39,399 -35,448 4,44 10,59 32,78 33,28 85,30 117,4 21,-17 23,-29 30,-152 8,-141 34,-341 51,-396 8,-26 13,-31 26,-24 9,5 37,12 62,16 56,9 162,49 218,82 44,25 176,150 199,188 7,11 30,47 51,80 21,33 45,75 53,93 10,23 18,30 29,25 31,-13 242,-15 304,-2 110,23 307,138 392,227 75,80 180,279 198,375 4,21 11,35 16,32 4,-3 47,-16 94,-30 71,-21 108,-25 211,-25 164,0 230,20 313,96 80,72 105,130 100,233 -3,68 -8,87 -55,181 -74,147 -155,236 -448,491 -252,220 -578,452 -835,596 -509,285 -1017,496 -1430,592 -47,11 -116,28 -154,37 -129,30 -401,41 -601,23 z"
       id="path8"
       inkscape:connector-curvature="0" />
  </g>
  <g
     id="layer104"
     transform="matrix(0.02264648,0,0,0.02549269,-88.338745,-79.679365)"
     style="fill:#89452f;stroke:none">
    <path
       d="m 7965,9859 c -183,-15 -296,-48 -575,-165 -102,-42 -284,-111 -405,-152 l -220,-75 -150,-4 c -105,-4 -186,0 -270,11 -223,31 -388,38 -616,27 -198,-9 -225,-13 -371,-50 -234,-59 -372,-119 -483,-210 -89,-74 -184,-183 -218,-253 -101,-205 -86,-474 43,-743 97,-203 229,-340 450,-466 113,-65 380,-197 510,-252 249,-106 567,-215 745,-255 248,-57 252,-57 475,-57 181,0 225,3 275,18 80,25 169,63 215,92 21,13 37,18 37,12 0,-18 70,-157 99,-197 39,-55 186,-210 199,-210 7,0 20,-10 31,-21 41,-46 179,-93 274,-93 79,0 249,48 265,74 6,9 18,0 94,-66 43,-37 152,-101 186,-110 14,-3 25,-10 25,-15 0,-5 3,-8 8,-7 8,1 30,-6 89,-33 24,-10 49,-19 57,-19 8,0 18,-4 21,-10 3,-5 15,-10 26,-10 11,0 39,-9 62,-19 46,-21 162,-45 176,-37 5,3 5,25 0,48 -13,70 -33,410 -25,449 9,49 47,83 92,82 71,-2 91,-47 93,-208 1,-93 16,-217 42,-342 9,-45 13,-52 27,-44 9,4 35,12 57,15 91,16 240,81 258,112 4,8 13,14 20,14 13,0 123,111 145,145 6,11 26,42 42,68 17,26 30,52 30,57 0,6 4,10 8,10 5,0 15,16 22,35 10,26 18,34 29,29 30,-13 251,-17 294,-5 23,7 49,13 57,15 25,4 114,47 134,65 10,9 20,14 23,12 8,-6 99,56 158,107 84,73 209,294 229,405 4,21 11,35 16,32 4,-3 47,-16 94,-30 71,-21 108,-25 211,-25 164,0 230,20 313,96 80,72 105,130 100,233 -3,68 -8,87 -55,181 -74,147 -155,236 -448,491 -252,220 -578,452 -835,596 -509,285 -1017,496 -1430,592 -47,11 -116,28 -154,37 -129,30 -401,41 -601,23 z"
       id="path11"
       inkscape:connector-curvature="0" />
  </g>
  <g
     id="layer105"
     transform="matrix(0.02264648,0,0,0.02549269,-88.338745,-79.679365)"
     style="fill:#25b427;stroke:none">
    <path
       d="m 9511,6245 c -30,-7 -85,-28 -122,-45 l -67,-33 18,-51 c 75,-218 263,-595 404,-811 96,-146 199,-268 378,-448 163,-163 170,-176 119,-228 -39,-39 -84,-39 -137,-1 -45,33 -229,222 -323,332 -134,156 -216,278 -343,515 -95,177 -227,460 -252,543 -4,12 -11,22 -15,22 -4,0 -32,-28 -61,-62 -174,-205 -260,-443 -260,-719 0,-121 34,-264 85,-355 70,-124 227,-265 388,-345 157,-79 402,-146 657,-179 305,-40 603,-139 766,-255 27,-19 50,-33 52,-31 2,2 -8,55 -22,118 -14,62 -46,235 -71,383 -47,285 -49,293 -119,585 -103,427 -205,652 -383,841 -124,131 -240,191 -437,224 -106,18 -182,18 -255,0 z"
       id="path14"
       inkscape:connector-curvature="0" />
  </g>
  <g
     id="layer106"
     transform="matrix(0.02264648,0,0,0.02549269,-88.338745,-79.679365)"
     style="fill:#c25d38;stroke:none">
    <path
       d="m 7965,9859 c -183,-15 -296,-48 -575,-165 -102,-42 -284,-111 -405,-152 l -220,-75 -150,-4 c -105,-4 -186,0 -270,11 -223,31 -388,38 -616,27 -198,-9 -225,-13 -371,-50 -234,-59 -372,-119 -483,-210 -89,-74 -184,-183 -218,-253 -101,-205 -86,-474 43,-743 97,-203 229,-340 450,-466 113,-65 380,-197 510,-252 249,-106 567,-215 745,-255 248,-57 252,-57 475,-57 242,0 289,9 442,85 42,21 80,35 84,32 4,-4 4,-2 0,5 -6,10 50,63 67,63 3,0 23,11 43,25 20,14 40,25 45,25 4,0 18,-28 30,-61 49,-133 196,-306 303,-355 96,-44 146,-38 335,41 90,38 119,31 195,-43 76,-73 132,-111 233,-157 86,-40 300,-115 326,-115 14,0 15,16 10,153 -5,129 -3,157 10,184 30,58 106,65 151,14 17,-19 21,-44 27,-188 4,-91 12,-170 17,-175 12,-12 146,19 202,47 101,51 217,193 274,334 47,117 72,130 189,100 63,-16 105,-20 178,-17 93,3 101,5 195,53 175,87 280,220 330,416 9,35 17,65 19,67 2,3 27,-6 92,-34 17,-8 35,-14 41,-14 5,0 21,-9 35,-20 14,-11 64,-31 111,-45 71,-21 108,-25 211,-25 164,0 230,20 313,96 80,72 105,130 100,233 -3,68 -8,87 -55,181 -74,147 -155,236 -448,491 -252,220 -578,452 -835,596 -509,285 -1017,496 -1430,592 -47,11 -116,28 -154,37 -129,30 -401,41 -601,23 z"
       id="path17"
       inkscape:connector-curvature="0" />
  </g>
  <g
     id="layer107"
     transform="matrix(0.02264648,0,0,0.02549269,-88.338745,-79.679365)"
     style="fill:#efbd87;stroke:none">
    <path
       d="m 7965,9859 c -182,-15 -290,-46 -575,-165 -203,-84 -332,-132 -515,-190 -112,-36 -130,-39 -265,-42 -97,-3 -185,2 -265,13 -223,30 -388,37 -616,26 -198,-9 -225,-13 -369,-49 -247,-63 -346,-106 -475,-207 -249,-194 -332,-403 -279,-706 37,-217 144,-428 289,-574 54,-53 143,-121 222,-168 52,-32 380,-197 478,-242 227,-103 620,-240 810,-283 249,-57 252,-57 475,-57 197,0 221,2 289,23 101,32 192,76 242,118 23,19 63,47 88,62 55,31 162,105 326,222 378,271 465,301 960,325 349,17 542,45 643,92 29,14 87,52 128,84 l 75,60 92,-54 c 51,-30 124,-70 162,-89 96,-48 384,-174 475,-208 64,-24 227,-92 350,-147 19,-9 42,-22 51,-30 9,-7 56,-25 105,-38 71,-20 113,-25 209,-25 157,0 230,22 312,94 137,123 138,286 1,498 -156,241 -785,751 -1241,1007 -287,161 -735,372 -917,432 -14,4 -56,20 -95,34 -154,57 -286,94 -569,161 -129,30 -401,41 -601,23 z"
       id="path20"
       inkscape:connector-curvature="0" />
  </g>
  <g
     id="layer108"
     transform="matrix(0.02264648,0,0,0.02549269,-88.338745,-79.679365)"
     style="fill:#fbca92;stroke:none">
    <path
       d="m 7475,9729 c -27,-11 -63,-26 -80,-34 -16,-7 -42,-17 -57,-20 -16,-4 -28,-11 -28,-16 0,-5 -8,-9 -18,-9 -10,0 -23,-5 -30,-12 -7,-7 -12,-9 -12,-5 0,4 -21,-3 -47,-16 -27,-13 -61,-28 -78,-32 -16,-4 -24,-10 -17,-12 31,-12 422,148 422,173 0,5 3,6 -55,-17 z"
       id="path23"
       inkscape:connector-curvature="0" />
    <path
       d="m 7965,9671 c -164,-19 -254,-47 -490,-151 -77,-33 -212,-86 -300,-116 -88,-30 -167,-62 -177,-70 -17,-16 -108,-36 -258,-55 -104,-14 -320,-6 -485,18 -187,26 -551,24 -715,-5 -336,-60 -461,-113 -606,-257 -85,-83 -118,-135 -140,-220 -35,-131 -1,-336 86,-510 94,-188 214,-289 540,-454 725,-368 1400,-533 1720,-423 59,20 167,73 209,101 14,10 73,48 131,86 58,37 166,112 240,165 212,153 333,226 455,275 84,34 260,63 445,75 560,34 638,43 738,91 53,26 104,72 91,83 -2,2 -58,29 -124,61 -447,214 -620,265 -899,265 -255,0 -515,-65 -1059,-264 -54,-20 -107,-36 -117,-36 -56,0 -98,51 -84,104 7,31 42,57 104,79 25,8 70,25 100,37 118,45 441,150 550,179 246,64 324,74 544,68 206,-6 286,-18 436,-65 199,-63 609,-256 882,-415 198,-116 373,-199 633,-301 77,-30 196,-79 265,-109 195,-85 287,-110 400,-109 108,1 142,10 188,55 44,43 43,88 -4,183 -42,86 -122,183 -230,280 -445,400 -751,615 -1219,855 -475,244 -840,380 -1272,475 -99,21 -150,26 -313,29 -107,2 -226,0 -265,-4 z"
       id="path25"
       inkscape:connector-curvature="0" />
    <path
       d="m 9130,9674 c 0,-7 52,-25 57,-20 2,2 -10,8 -26,14 -17,6 -31,9 -31,6 z"
       id="path27"
       inkscape:connector-curvature="0" />
    <path
       d="m 5533,9490 c -29,-4 -61,-11 -70,-15 -10,-4 -25,-9 -33,-10 -61,-8 -101,-18 -106,-27 -5,-7 6,-8 32,-3 21,4 48,9 59,10 159,26 221,35 280,40 38,3 71,8 74,11 7,7 -179,2 -236,-6 z"
       id="path29"
       inkscape:connector-curvature="0" />
    <path
       d="m 10627,8886 c 15,-13 30,-23 32,-20 5,4 -41,43 -52,44 -4,0 5,-11 20,-24 z"
       id="path31"
       inkscape:connector-curvature="0" />
    <path
       d="m 9589,8188 c -12,-23 -12,-23 10,-4 23,21 26,26 11,26 -5,0 -15,-10 -21,-22 z"
       id="path33"
       inkscape:connector-curvature="0" />
    <path
       d="m 5770,7480 c 8,-5 22,-10 30,-10 13,0 13,1 0,10 -8,5 -22,10 -30,10 -13,0 -13,-1 0,-10 z"
       id="path35"
       inkscape:connector-curvature="0" />
  </g>
</svg>
