<?xml version="1.0" encoding="UTF-8" standalone="no"?>
<svg
   xmlns:dc="http://purl.org/dc/elements/1.1/"
   xmlns:cc="http://creativecommons.org/ns#"
   xmlns:rdf="http://www.w3.org/1999/02/22-rdf-syntax-ns#"
   xmlns:svg="http://www.w3.org/2000/svg"
   xmlns="http://www.w3.org/2000/svg"
   xmlns:sodipodi="http://sodipodi.sourceforge.net/DTD/sodipodi-0.dtd"
   xmlns:inkscape="http://www.inkscape.org/namespaces/inkscape"
   version="1.0"
   width="645.70526"
   height="678.00348"
   viewBox="0 0 5044.5724 5296.9022"
   preserveAspectRatio="xMidYMid meet"
   id="svg40"
   sodipodi:docname="spring.svg"
   inkscape:version="0.92.4 (5da689c313, 2019-01-14)">
  <metadata
     id="metadata46">
    <rdf:RDF>
      <cc:Work
         rdf:about="">
        <dc:format>image/svg+xml</dc:format>
        <dc:type
           rdf:resource="http://purl.org/dc/dcmitype/StillImage" />
        <dc:title></dc:title>
      </cc:Work>
    </rdf:RDF>
  </metadata>
  <defs
     id="defs44" />
  <sodipodi:namedview
     pagecolor="#ffffff"
     bordercolor="#666666"
     borderopacity="1"
     objecttolerance="10"
     gridtolerance="10"
     guidetolerance="10"
     inkscape:pageopacity="0"
     inkscape:pageshadow="2"
     inkscape:window-width="3696"
     inkscape:window-height="2115"
     id="namedview42"
     showgrid="false"
     fit-margin-top="0"
     fit-margin-left="0"
     fit-margin-right="0"
     fit-margin-bottom="0"
     inkscape:zoom="0.11523438"
     inkscape:cx="169.76271"
     inkscape:cy="334.08"
     inkscape:window-x="131"
     inkscape:window-y="2147"
     inkscape:window-maximized="1"
     inkscape:current-layer="svg40" />
  <g
     id="layer101"
     style="fill:#c9256c;stroke:none"
     transform="translate(-5250,-5313.0978)">
    <path
       d="m 7215,10592 c -27,-17 -33,-31 -64,-148 -18,-71 -37,-146 -41,-167 -4,-21 -9,-39 -11,-41 -2,-2 -60,41 -129,96 -142,114 -161,124 -202,107 -33,-13 -95,-120 -173,-294 -64,-144 -115,-404 -114,-580 0,-96 23,-275 48,-367 32,-121 96,-274 156,-368 l 23,-36 -82,13 c -52,9 -123,12 -201,9 -409,-17 -810,-195 -1101,-491 -68,-68 -79,-91 -70,-138 5,-26 20,-41 73,-77 37,-25 105,-70 150,-101 l 83,-56 -140,-92 c -100,-65 -141,-98 -146,-115 -9,-36 24,-100 98,-191 212,-258 480,-425 804,-499 94,-21 365,-22 444,-2 30,8 56,14 57,13 1,-1 -19,-42 -43,-92 -102,-210 -153,-432 -153,-670 0,-294 75,-546 226,-757 58,-81 82,-95 124,-74 26,13 260,184 269,197 3,4 25,-73 49,-171 49,-204 42,-195 155,-180 309,40 626,306 811,680 101,203 164,425 173,608 l 5,102 21,-28 c 184,-245 444,-413 801,-517 198,-58 526,-57 708,0 82,26 161,59 169,70 4,5 8,38 8,73 0,66 -13,107 -75,235 l -32,68 142,-7 c 182,-9 207,-4 223,39 7,19 12,53 12,78 -1,68 -26,243 -43,291 -8,24 -22,68 -32,98 -25,78 -106,243 -156,320 -92,142 -215,273 -346,371 -77,58 -191,122 -235,133 -27,6 -40,26 -17,26 22,0 128,55 209,108 47,31 133,104 191,162 211,208 335,420 424,724 18,62 35,269 27,325 -5,37 -33,55 -69,46 -44,-11 -334,6 -324,19 5,6 23,45 41,86 18,41 45,101 61,134 32,65 34,74 18,110 -22,47 -201,100 -397,118 -149,13 -387,1 -502,-27 -303,-72 -538,-190 -707,-353 l -61,-60 -7,52 c -33,253 -98,432 -233,636 -61,92 -234,273 -322,337 -129,93 -256,154 -425,203 -57,17 -107,30 -111,30 -5,0 -22,-8 -39,-18 z"
       id="path2"
       inkscape:connector-curvature="0" />
  </g>
  <g
     id="layer102"
     style="fill:#d65dc6;stroke:none"
     transform="translate(-5250,-5313.0978)">
    <path
       d="m 7215,10592 c -27,-17 -33,-31 -64,-148 -18,-71 -37,-146 -41,-167 -10,-48 -12,-50 -36,-29 -54,48 -221,177 -247,190 -46,23 -83,-2 -132,-91 -115,-209 -175,-386 -201,-597 -17,-143 -17,-224 1,-365 25,-203 93,-401 190,-555 l 23,-36 -82,13 c -52,9 -123,12 -201,9 -411,-17 -820,-200 -1102,-493 -69,-72 -78,-90 -69,-136 5,-26 20,-41 73,-77 37,-25 105,-70 150,-101 l 83,-57 -140,-91 c -100,-65 -141,-98 -146,-115 -9,-36 24,-100 98,-191 206,-254 482,-425 804,-499 94,-21 365,-22 444,-2 30,8 56,13 58,12 1,-2 -9,-23 -22,-47 -42,-74 -84,-181 -117,-295 -120,-417 -57,-862 168,-1176 58,-81 82,-95 124,-74 26,13 260,184 269,197 3,4 25,-73 49,-171 49,-204 41,-195 155,-180 308,40 627,307 811,680 100,202 162,420 174,610 l 6,104 19,-29 c 170,-261 588,-501 961,-551 186,-25 411,-12 548,31 82,26 161,59 169,70 4,5 8,38 8,73 0,66 -13,107 -75,235 l -32,68 147,-7 c 81,-4 159,-4 173,0 35,8 57,53 57,113 -1,72 -26,246 -43,295 -8,24 -22,68 -32,98 -42,129 -147,322 -238,435 -142,176 -349,339 -489,384 -35,12 -52,31 -27,31 22,0 128,55 209,108 47,31 133,104 191,162 211,208 335,420 424,724 18,62 35,269 27,325 -5,37 -33,55 -69,46 -44,-11 -334,6 -324,19 5,6 24,47 44,91 19,44 47,106 62,139 39,85 29,113 -55,146 -172,67 -372,90 -613,72 -185,-14 -306,-41 -487,-109 -160,-61 -326,-163 -432,-267 l -66,-66 -7,53 c -33,254 -98,433 -233,637 -61,92 -234,273 -322,337 -131,95 -261,156 -429,204 -58,16 -107,29 -110,29 -3,0 -19,-8 -36,-18 z m 734,-1426 c 71,-37 85,-127 30,-190 -51,-58 -126,-61 -180,-6 -24,23 -29,37 -29,77 0,55 17,85 64,114 37,23 77,24 115,5 z m -766,-345 c 55,-54 44,-158 -19,-192 -41,-21 -92,-15 -125,17 -39,37 -54,84 -39,128 28,85 120,109 183,47 z m 1554,-21 c 68,-41 79,-121 25,-172 -57,-54 -140,-41 -183,29 -62,100 55,207 158,143 z m -1052,-83 c 20,-20 36,-48 40,-70 16,-81 -65,-162 -138,-138 -50,17 -78,52 -84,105 -10,85 31,135 111,136 30,0 45,-7 71,-33 z m 556,-16 c 57,-57 30,-162 -45,-177 -81,-15 -152,77 -115,149 32,63 111,77 160,28 z m -978,-360 c 36,-20 71,-93 63,-128 -12,-44 -59,-83 -103,-83 -131,0 -185,176 -69,225 34,15 66,11 109,-14 z m 1386,-50 c 78,-56 23,-171 -82,-171 -29,0 -46,7 -68,29 -89,90 46,218 150,142 z M 6811,8080 c 49,-14 89,-59 96,-108 18,-137 -181,-186 -238,-57 -31,70 -7,129 65,161 38,16 33,16 77,4 z m 2250,-20 c 48,-26 62,-106 30,-168 -45,-88 -155,-78 -181,16 -26,100 68,196 151,152 z M 7261,7785 c 71,-37 90,-130 39,-189 -51,-58 -125,-60 -180,-5 -37,38 -46,84 -26,132 27,66 104,94 167,62 z m 1367,-32 c 13,-8 30,-30 38,-50 36,-84 -40,-166 -119,-128 -63,30 -88,116 -47,168 31,39 77,42 128,10 z m -938,-398 c 98,-94 -21,-236 -137,-165 -42,25 -62,85 -43,131 30,71 123,88 180,34 z m 553,-25 c 46,-51 33,-120 -27,-145 -66,-28 -146,21 -146,87 0,92 109,128 173,58 z m -1082,-45 c 89,-47 91,-184 2,-221 -92,-39 -194,56 -163,151 24,72 96,103 161,70 z m 1591,-54 c 78,-87 -22,-203 -123,-144 -37,22 -62,75 -54,113 17,75 121,93 177,31 z m -776,-302 c 94,-89 -1,-224 -116,-164 -40,20 -60,53 -60,95 0,40 22,77 54,91 33,14 95,3 122,-22 z"
       id="path5"
       inkscape:connector-curvature="0" />
  </g>
  <g
     id="layer103"
     style="fill:#ffde49;stroke:none"
     transform="translate(-5250,-5313.0978)">
    <path
       d="m 7240,10603 c -44,-17 -59,-50 -100,-207 -22,-88 -43,-162 -46,-165 -3,-3 -8,-1 -12,4 -10,15 -109,95 -116,95 -4,0 -25,17 -47,38 -115,106 -156,102 -224,-22 -167,-301 -236,-608 -206,-913 14,-145 62,-339 104,-421 8,-15 26,-52 41,-82 14,-30 37,-73 50,-95 l 24,-41 -86,14 c -166,25 -435,-4 -617,-68 -49,-17 -99,-34 -110,-37 -23,-7 -220,-107 -249,-125 -216,-141 -396,-306 -396,-365 0,-50 2,-52 246,-213 29,-19 53,-39 54,-43 2,-11 -155,-123 -192,-138 -16,-6 -28,-15 -28,-20 0,-5 -5,-9 -11,-9 -15,0 -49,-39 -49,-57 0,-37 41,-105 115,-192 49,-58 207,-211 218,-211 3,0 19,-12 36,-27 16,-16 47,-37 68,-48 21,-11 54,-31 74,-45 20,-14 56,-34 80,-44 24,-10 55,-24 69,-31 31,-16 146,-55 180,-62 14,-2 50,-11 81,-19 77,-19 354,-19 429,0 30,8 56,14 57,13 1,-1 -19,-42 -43,-92 -24,-49 -56,-128 -70,-175 -15,-47 -33,-105 -41,-130 -36,-116 -55,-410 -34,-545 6,-33 12,-78 16,-100 8,-53 33,-143 51,-178 8,-16 14,-35 14,-42 0,-22 100,-207 148,-272 42,-57 49,-63 82,-63 21,0 44,8 56,18 10,10 47,37 82,61 34,24 62,48 62,52 0,5 6,9 13,9 6,0 30,15 52,34 l 40,34 33,-132 c 19,-72 37,-148 42,-169 9,-47 35,-68 75,-62 17,2 51,7 77,10 26,3 75,16 110,29 78,30 208,97 208,108 0,4 7,8 15,8 8,0 15,4 15,9 0,5 8,12 19,16 18,5 209,187 244,233 192,248 328,594 344,875 l 6,108 21,-24 c 12,-14 35,-42 51,-63 37,-48 148,-155 195,-188 243,-174 458,-265 714,-301 252,-35 515,-2 689,86 37,19 37,20 37,82 0,65 -16,115 -75,240 l -33,68 148,-7 c 81,-4 159,-4 173,0 56,14 67,82 42,256 -27,190 -106,402 -199,539 -20,29 -36,55 -36,57 0,3 -23,35 -51,72 -61,79 -166,186 -235,238 -26,20 -57,45 -67,55 -11,10 -69,42 -128,71 -59,29 -108,55 -108,58 0,3 29,18 66,35 107,47 234,138 334,237 154,153 227,251 315,427 106,212 143,352 146,554 2,113 -10,132 -71,121 -18,-3 -100,-2 -181,2 l -148,7 40,86 c 22,47 53,113 69,147 16,33 29,65 29,72 0,29 -25,60 -58,72 -20,7 -48,17 -62,23 -14,5 -34,12 -45,14 -11,1 -40,10 -65,18 -105,33 -351,42 -560,19 -65,-7 -246,-50 -310,-75 -30,-11 -71,-25 -90,-31 -42,-12 -194,-89 -198,-100 -2,-4 -9,-8 -16,-8 -11,0 -39,-18 -110,-73 -17,-12 -60,-50 -97,-85 l -66,-63 -18,118 c -10,65 -33,165 -53,223 -35,106 -107,262 -123,268 -5,2 -9,8 -9,14 0,15 -62,108 -72,108 -4,0 -8,6 -8,13 0,17 -176,199 -245,254 -132,105 -295,186 -480,238 -82,23 -88,24 -105,18 z m 700,-1429 c 90,-36 107,-150 32,-217 -25,-23 -120,-34 -151,-18 -32,18 -61,70 -61,112 0,46 35,99 80,121 43,22 49,22 100,2 z m -757,-353 c 55,-54 44,-158 -19,-192 -41,-21 -92,-15 -125,17 -39,37 -54,84 -39,128 28,85 120,109 183,47 z m 1554,-21 c 69,-42 79,-125 23,-182 -71,-70 -213,8 -197,109 14,81 101,118 174,73 z m -1082,-54 c 72,-31 99,-136 50,-195 -36,-42 -84,-56 -127,-38 -51,22 -71,51 -75,110 -8,104 62,160 152,123 z m 555,-21 c 41,-21 60,-53 60,-101 0,-104 -123,-139 -184,-52 -34,48 -14,127 38,152 39,19 50,20 86,1 z m -952,-375 c 38,-23 72,-75 72,-110 0,-39 -41,-102 -73,-113 -68,-22 -159,35 -173,109 -18,97 87,167 174,114 z m 1403,-59 c 33,-33 38,-75 14,-120 -15,-30 -68,-61 -104,-61 -57,0 -101,49 -101,112 0,38 5,46 44,76 44,34 109,30 147,-7 z M 6840,8075 c 43,-22 70,-62 70,-106 0,-55 -14,-84 -53,-108 -89,-55 -207,4 -207,103 0,94 105,155 190,111 z m 2219,-10 c 25,-13 36,-30 55,-88 9,-29 -33,-116 -65,-132 -86,-45 -166,35 -138,140 22,81 83,114 148,80 z M 7261,7785 c 71,-37 90,-130 39,-189 -51,-58 -125,-60 -180,-5 -37,38 -46,84 -26,132 27,66 104,94 167,62 z m 1367,-32 c 13,-8 30,-30 38,-50 36,-84 -40,-166 -119,-128 -63,30 -88,116 -47,168 31,39 77,42 128,10 z m -960,-380 c 34,-16 62,-57 62,-91 0,-43 -31,-93 -65,-108 -44,-18 -59,-18 -101,2 -84,40 -86,165 -4,206 36,18 51,17 108,-9 z m 571,-29 c 39,-33 49,-82 25,-122 -55,-95 -194,-51 -194,60 0,41 11,58 47,74 46,21 88,17 122,-12 z m -1066,-66 c 29,-20 67,-85 67,-114 0,-31 -33,-85 -61,-99 -41,-22 -101,-19 -133,6 -85,66 -68,201 28,228 37,11 61,5 99,-21 z m 1567,-27 c 14,-10 31,-36 39,-57 18,-52 1,-92 -49,-116 -46,-23 -98,-10 -134,33 -80,95 43,214 144,140 z m -764,-322 c 94,-89 -1,-224 -116,-164 -40,20 -60,53 -60,95 0,40 22,77 54,91 33,14 95,3 122,-22 z"
       id="path8"
       inkscape:connector-curvature="0" />
  </g>
  <g
     id="layer104"
     style="fill:#de7cd1;stroke:none"
     transform="translate(-5250,-5313.0978)">
    <path
       d="m 7240,10603 c -44,-17 -59,-50 -100,-207 -22,-88 -43,-162 -46,-165 -3,-3 -8,-1 -12,4 -10,15 -109,95 -116,95 -4,0 -25,17 -47,38 -115,106 -156,102 -224,-22 -167,-301 -236,-608 -206,-913 14,-145 62,-339 104,-421 8,-15 26,-52 41,-82 14,-30 37,-73 50,-95 l 24,-41 -86,14 c -166,25 -435,-4 -617,-68 -49,-17 -99,-34 -110,-37 -23,-7 -220,-107 -249,-125 -216,-141 -396,-306 -396,-365 0,-50 2,-52 246,-213 29,-19 53,-39 54,-43 2,-11 -155,-123 -192,-138 -16,-6 -28,-15 -28,-20 0,-5 -5,-9 -11,-9 -15,0 -49,-39 -49,-57 0,-37 41,-105 115,-192 49,-58 207,-211 218,-211 3,0 19,-12 36,-27 16,-16 47,-37 68,-48 21,-11 54,-31 74,-45 20,-14 56,-34 80,-44 24,-10 55,-24 69,-31 31,-16 146,-55 180,-62 14,-2 50,-11 81,-19 77,-19 354,-19 429,0 30,8 56,14 57,13 1,-1 -19,-42 -43,-92 -24,-49 -56,-128 -70,-175 -15,-47 -33,-105 -41,-130 -36,-116 -55,-410 -34,-545 6,-33 12,-78 16,-100 8,-53 33,-143 51,-178 8,-16 14,-35 14,-42 0,-22 100,-207 148,-272 42,-57 49,-63 82,-63 21,0 44,8 56,18 10,10 47,37 82,61 34,24 62,48 62,52 0,5 6,9 13,9 6,0 30,15 52,34 l 40,34 33,-132 c 19,-72 37,-148 42,-169 9,-47 35,-68 75,-62 17,2 51,7 77,10 26,3 75,16 110,29 78,30 208,97 208,108 0,4 7,8 15,8 8,0 15,4 15,9 0,5 8,12 19,16 18,5 209,187 244,233 192,248 328,594 344,875 l 6,108 21,-24 c 12,-14 35,-42 51,-63 37,-48 148,-155 195,-188 243,-174 458,-265 714,-301 252,-35 515,-2 689,86 37,19 37,20 37,82 0,65 -16,115 -75,240 l -33,68 148,-7 c 81,-4 159,-4 173,0 56,14 67,82 42,256 -27,190 -106,402 -199,539 -20,29 -36,55 -36,57 0,3 -23,35 -51,72 -61,79 -166,186 -235,238 -26,20 -57,45 -67,55 -11,10 -69,42 -128,71 -59,29 -108,55 -108,58 0,3 29,18 66,35 107,47 234,138 334,237 154,153 227,251 315,427 106,212 143,352 146,554 2,113 -10,132 -71,121 -18,-3 -100,-2 -181,2 l -148,7 40,86 c 22,47 53,113 69,147 16,33 29,65 29,72 0,29 -25,60 -58,72 -20,7 -48,17 -62,23 -14,5 -34,12 -45,14 -11,1 -40,10 -65,18 -105,33 -351,42 -560,19 -65,-7 -246,-50 -310,-75 -30,-11 -71,-25 -90,-31 -42,-12 -194,-89 -198,-100 -2,-4 -9,-8 -16,-8 -11,0 -39,-18 -110,-73 -17,-12 -60,-50 -97,-85 l -66,-63 -18,118 c -10,65 -33,165 -53,223 -35,106 -107,262 -123,268 -5,2 -9,8 -9,14 0,15 -62,108 -72,108 -4,0 -8,6 -8,13 0,17 -176,199 -245,254 -132,105 -295,186 -480,238 -82,23 -88,24 -105,18 z m 700,-1429 c 90,-36 107,-150 32,-217 -25,-23 -120,-34 -151,-18 -32,18 -61,70 -61,112 0,46 35,99 80,121 43,22 49,22 100,2 z m -757,-353 c 55,-54 44,-158 -19,-192 -41,-21 -92,-15 -125,17 -39,37 -54,84 -39,128 28,85 120,109 183,47 z m 1554,-21 c 69,-42 79,-125 23,-182 -71,-70 -213,8 -197,109 14,81 101,118 174,73 z m -1082,-54 c 72,-31 99,-136 50,-195 -36,-42 -84,-56 -127,-38 -51,22 -71,51 -75,110 -8,104 62,160 152,123 z m 555,-21 c 41,-21 60,-53 60,-101 0,-104 -123,-139 -184,-52 -34,48 -14,127 38,152 39,19 50,20 86,1 z m -952,-375 c 38,-23 72,-75 72,-110 0,-39 -41,-102 -73,-113 -68,-22 -159,35 -173,109 -18,97 87,167 174,114 z m 1403,-59 c 33,-33 38,-75 14,-120 -15,-30 -68,-61 -104,-61 -57,0 -101,49 -101,112 0,38 5,46 44,76 44,34 109,30 147,-7 z M 6840,8075 c 43,-22 70,-62 70,-106 0,-55 -14,-84 -53,-108 -89,-55 -207,4 -207,103 0,94 105,155 190,111 z m 1136,-29 c 37,-43 47,-80 33,-129 -15,-54 -60,-87 -120,-87 -42,0 -55,5 -86,33 -31,29 -37,41 -41,88 -4,49 -1,59 24,88 35,42 58,52 114,47 37,-3 51,-11 76,-40 z m 1083,19 c 25,-13 36,-30 55,-88 9,-29 -33,-116 -65,-132 -86,-45 -166,35 -138,140 22,81 83,114 148,80 z M 7261,7785 c 71,-37 90,-130 39,-189 -51,-58 -125,-60 -180,-5 -37,38 -46,84 -26,132 27,66 104,94 167,62 z m 1367,-32 c 13,-8 30,-30 38,-50 36,-84 -40,-166 -119,-128 -63,30 -88,116 -47,168 31,39 77,42 128,10 z m -960,-380 c 34,-16 62,-57 62,-91 0,-43 -31,-93 -65,-108 -44,-18 -59,-18 -101,2 -84,40 -86,165 -4,206 36,18 51,17 108,-9 z m 571,-29 c 39,-33 49,-82 25,-122 -55,-95 -194,-51 -194,60 0,41 11,58 47,74 46,21 88,17 122,-12 z m -1066,-66 c 29,-20 67,-85 67,-114 0,-31 -33,-85 -61,-99 -41,-22 -101,-19 -133,6 -85,66 -68,201 28,228 37,11 61,5 99,-21 z m 1567,-27 c 14,-10 31,-36 39,-57 18,-52 1,-92 -49,-116 -46,-23 -98,-10 -134,33 -80,95 43,214 144,140 z m -764,-322 c 94,-89 -1,-224 -116,-164 -40,20 -60,53 -60,95 0,40 22,77 54,91 33,14 95,3 122,-22 z"
       id="path11"
       inkscape:connector-curvature="0" />
  </g>
  <g
     id="layer105"
     style="fill:#e47cd1;stroke:none"
     transform="translate(-5250,-5313.0978)">
    <path
       d="m 7240,10603 c -28,-11 -61,-50 -64,-74 -1,-14 -5,-29 -8,-34 -3,-6 -9,-26 -14,-45 -11,-49 -10,-46 -34,-135 -12,-44 -22,-87 -22,-95 0,-8 -4,-32 -10,-53 -8,-35 7,-87 193,-640 110,-331 215,-642 231,-690 l 31,-88 42,7 c 144,21 204,-186 70,-242 l -32,-13 42,-123 c 23,-68 46,-134 50,-148 4,-16 -83,64 -237,218 -219,218 -268,261 -268,233 0,-4 -12,-21 -27,-36 l -28,-27 227,-224 c 125,-123 225,-224 222,-224 -3,0 -171,123 -374,273 -394,290 -434,318 -493,337 -20,6 -35,15 -33,18 5,9 -28,10 -229,13 -185,2 -321,-18 -470,-71 -49,-17 -99,-34 -110,-38 -18,-5 -204,-98 -262,-130 -13,-7 -23,-17 -23,-23 0,-5 -7,-9 -15,-9 -8,0 -15,-5 -15,-12 0,-6 -3,-9 -6,-5 -8,7 -69,-37 -152,-111 -122,-107 -172,-166 -172,-201 0,-27 39,-81 58,-81 6,0 12,-3 14,-8 3,-6 91,-69 137,-97 9,-5 36,-23 61,-40 25,-16 51,-31 59,-33 8,-2 27,-12 42,-23 26,-18 49,-20 316,-24 158,-3 386,-7 505,-10 l 216,-4 -5,53 c -4,41 -1,61 13,85 47,80 181,80 228,0 14,-24 17,-44 13,-84 l -5,-52 135,-6 c 75,-4 220,-7 322,-7 112,0 180,-4 171,-9 -8,-5 -62,-28 -120,-52 -58,-23 -107,-44 -109,-46 -3,-2 5,-24 17,-48 19,-40 24,-44 44,-36 30,12 181,74 233,96 66,28 81,39 -485,-345 -280,-189 -330,-226 -330,-241 0,-16 -83,-119 -95,-119 -7,0 -12,-6 -12,-12 1,-7 -19,-56 -44,-108 -25,-52 -56,-126 -67,-165 -12,-38 -29,-95 -38,-125 -38,-127 -56,-407 -34,-545 5,-33 12,-79 15,-102 3,-23 14,-67 25,-98 10,-30 16,-55 13,-55 -3,0 2,-11 11,-25 9,-13 16,-31 16,-38 0,-18 76,-166 97,-189 9,-10 13,-18 9,-18 -4,0 7,-20 25,-45 18,-25 36,-45 40,-45 3,0 9,-9 12,-20 7,-27 75,-28 103,-2 10,10 47,37 82,61 34,24 62,48 62,52 0,5 6,9 13,9 23,0 115,89 142,138 15,26 40,83 56,127 17,44 35,91 40,105 6,13 64,169 129,345 65,176 164,441 219,589 56,148 101,270 101,272 0,1 -18,-5 -40,-13 -33,-13 -47,-14 -80,-4 -103,31 -113,176 -15,217 53,22 130,-11 158,-67 l 14,-30 11,28 c 6,15 22,57 35,93 61,163 56,178 56,-157 l 1,-303 48,7 c 26,3 48,6 49,7 2,1 11,401 13,566 l 2,125 58,-175 c 40,-119 61,-169 65,-157 9,22 67,47 107,47 21,0 41,-11 64,-34 40,-40 44,-75 14,-123 -22,-37 -76,-53 -122,-35 -15,5 -28,8 -28,5 0,-3 22,-74 49,-157 32,-98 62,-171 86,-206 20,-30 39,-67 42,-82 3,-15 18,-41 34,-58 16,-16 29,-34 29,-40 0,-5 5,-10 10,-10 6,0 20,-16 31,-35 12,-19 24,-33 27,-32 4,2 15,-4 25,-15 9,-10 14,-18 11,-18 -3,0 1,-7 10,-15 8,-8 19,-15 24,-15 6,0 12,-6 15,-14 5,-14 35,-36 157,-120 104,-72 287,-152 450,-200 138,-39 410,-58 531,-36 30,5 70,12 89,14 63,8 222,65 215,77 -6,9 35,40 45,34 11,-6 12,115 2,128 -5,7 -15,30 -22,52 -26,86 -70,164 -117,209 -26,25 -102,82 -168,127 -147,100 -405,276 -712,485 -128,88 -339,231 -469,319 -130,88 -246,168 -258,178 l -21,17 25,-9 c 14,-5 65,-27 114,-50 102,-47 116,-49 116,-18 0,12 7,32 15,44 14,20 11,22 -113,78 -70,32 -143,65 -162,74 -33,15 -16,16 324,21 l 358,5 4,50 c 4,42 10,55 40,84 32,29 41,33 76,28 22,-3 48,-13 57,-21 23,-20 44,-91 36,-116 -6,-19 -1,-20 85,-20 50,0 99,4 109,10 10,5 39,11 64,13 77,7 282,116 373,199 77,71 181,177 219,223 51,62 105,141 105,155 0,5 4,10 8,10 10,0 105,189 139,275 50,128 88,361 75,468 -5,43 -42,64 -85,48 -18,-7 -52,-7 -99,-1 -112,15 -283,12 -322,-4 -19,-8 -76,-43 -128,-78 -51,-36 -259,-176 -463,-313 -203,-136 -391,-268 -417,-292 -26,-23 -54,-43 -62,-43 -8,0 -70,-36 -138,-81 l -123,-80 88,86 87,86 -35,36 -36,37 -52,-51 c -29,-27 -104,-99 -167,-159 -63,-60 -157,-150 -210,-201 -52,-50 -96,-88 -98,-84 -1,4 28,75 66,157 38,82 71,155 74,163 3,10 -12,23 -42,38 -55,27 -75,70 -59,128 11,39 61,75 106,75 28,0 29,1 80,163 90,284 91,290 88,417 -3,131 -25,261 -62,370 -29,86 -111,263 -124,268 -5,2 -9,10 -9,17 0,8 -6,20 -14,27 -7,8 -21,28 -30,46 -9,18 -21,32 -26,32 -6,0 -10,6 -10,13 0,15 -189,211 -233,242 -16,11 -42,32 -59,48 -18,15 -36,27 -40,27 -5,0 -24,11 -41,24 -60,45 -221,114 -352,151 -82,23 -88,24 -105,18 z m 723,-1435 c 28,-14 57,-69 57,-106 0,-41 -22,-84 -56,-111 -33,-26 -118,-29 -152,-5 -53,37 -67,118 -29,175 41,62 115,82 180,47 z m -715,-812 c 76,-39 100,-112 60,-181 -13,-22 -35,-44 -49,-49 -67,-23 -161,36 -175,111 -17,92 80,163 164,119 z m 1413,-65 c 78,-78 -7,-201 -122,-176 -54,12 -88,101 -59,155 16,29 60,49 108,50 35,0 49,-6 73,-29 z m -685,-245 c 37,-43 47,-80 33,-129 -15,-54 -60,-87 -120,-87 -42,0 -55,5 -86,33 -31,29 -37,41 -41,88 -4,49 -1,59 24,88 35,42 58,52 114,47 37,-3 51,-11 76,-40 z m -796,-772 c 67,-63 75,-137 20,-192 -51,-51 -122,-48 -176,9 -25,26 -29,38 -29,89 0,44 5,63 20,80 47,53 118,59 165,14 z m 1547,-14 c 62,-37 80,-122 35,-163 -52,-47 -120,-40 -168,16 -36,43 -29,100 17,140 39,32 72,34 116,7 z"
       id="path14"
       inkscape:connector-curvature="0" />
    <path
       d="m 6702,10359 c -13,-22 -21,-43 -18,-47 3,-3 6,-1 6,5 0,5 9,20 20,33 16,19 27,50 18,50 -2,0 -13,-19 -26,-41 z"
       id="path16"
       inkscape:connector-curvature="0" />
    <path
       d="m 9896,7603 c 16,-23 33,-42 37,-43 10,0 -26,52 -49,71 -10,8 -4,-5 12,-28 z"
       id="path18"
       inkscape:connector-curvature="0" />
    <path
       d="m 7910,5700 c -12,-16 -19,-30 -16,-30 2,0 14,14 26,30 12,17 19,30 16,30 -2,0 -14,-13 -26,-30 z"
       id="path20"
       inkscape:connector-curvature="0" />
  </g>
  <g
     id="layer106"
     style="fill:#e584db;stroke:none"
     transform="translate(-5250,-5313.0978)">
    <path
       d="m 7240,10603 c -28,-11 -61,-50 -64,-74 -1,-14 -5,-29 -8,-34 -3,-6 -9,-26 -14,-45 -11,-49 -10,-46 -34,-135 -12,-44 -22,-87 -22,-95 0,-8 -4,-32 -10,-53 -8,-35 7,-87 193,-640 110,-331 215,-642 231,-690 l 31,-88 42,7 c 78,11 145,-48 145,-129 0,-53 -22,-90 -67,-112 l -38,-18 47,-140 c 27,-77 47,-141 45,-143 -1,-1 -111,106 -245,238 l -243,241 -34,-39 -34,-39 225,-222 c 124,-123 223,-223 219,-223 -3,0 -172,123 -375,273 -394,290 -434,318 -493,337 -20,6 -35,15 -33,18 5,9 -28,10 -229,13 -185,2 -321,-18 -470,-71 -49,-17 -99,-34 -110,-38 -18,-5 -204,-98 -262,-130 -13,-7 -23,-17 -23,-23 0,-5 -7,-9 -15,-9 -8,0 -15,-5 -15,-12 0,-6 -3,-9 -6,-5 -8,7 -69,-37 -152,-111 -122,-107 -172,-166 -172,-201 0,-27 39,-81 58,-81 6,0 12,-3 14,-8 3,-6 91,-69 137,-97 9,-5 36,-23 61,-40 25,-16 51,-31 59,-33 8,-2 27,-12 42,-23 26,-18 49,-20 316,-24 158,-3 386,-7 505,-10 l 216,-4 -5,53 c -7,64 14,108 63,131 72,34 151,9 184,-60 18,-37 20,-50 11,-81 -6,-21 -9,-40 -7,-42 2,-2 147,-6 322,-10 l 319,-7 -120,-49 c -66,-27 -122,-51 -123,-52 -2,-1 6,-23 17,-48 l 20,-47 38,17 c 46,19 199,82 233,95 45,18 52,23 -500,-351 -282,-190 -330,-226 -330,-242 0,-9 -66,-99 -84,-113 -20,-16 -112,-214 -134,-290 -12,-38 -29,-95 -38,-125 -38,-127 -56,-407 -34,-545 5,-33 12,-79 15,-102 3,-23 14,-67 25,-98 10,-30 16,-55 13,-55 -3,0 2,-11 11,-25 9,-13 16,-31 16,-38 0,-18 76,-166 97,-189 9,-10 13,-18 9,-18 -4,0 7,-20 25,-45 18,-25 36,-45 40,-45 3,0 9,-9 12,-20 7,-27 75,-28 103,-2 10,10 47,37 82,61 34,24 62,48 62,52 0,5 6,9 13,9 23,0 115,89 142,138 15,26 40,83 56,127 17,44 35,91 40,105 6,13 64,169 129,345 65,176 164,441 219,589 56,148 101,270 101,272 0,1 -18,-5 -40,-13 -142,-56 -235,154 -94,213 61,26 122,-1 157,-69 l 14,-27 11,27 c 6,16 22,57 35,93 61,163 56,178 56,-158 1,-217 4,-301 12,-296 6,3 28,6 50,6 l 39,-1 v 127 c 0,70 3,226 7,347 l 7,220 56,-171 55,-171 28,29 c 23,23 37,28 74,28 38,0 50,-5 79,-34 40,-40 44,-75 14,-123 -22,-37 -76,-53 -122,-35 -15,5 -28,8 -28,5 0,-3 22,-74 49,-157 32,-98 62,-171 86,-206 20,-30 39,-67 42,-82 3,-15 18,-41 34,-58 16,-16 29,-34 29,-40 0,-5 5,-10 10,-10 6,0 20,-16 31,-35 12,-19 24,-33 27,-32 4,2 15,-4 25,-15 9,-10 14,-18 11,-18 -3,0 1,-7 10,-15 8,-8 19,-15 24,-15 6,0 12,-6 15,-14 5,-14 35,-36 157,-120 104,-72 287,-152 450,-200 138,-39 410,-58 531,-36 30,5 70,12 89,14 63,8 222,65 215,77 -6,9 35,40 45,34 11,-6 12,115 2,128 -5,7 -15,30 -22,52 -26,86 -70,164 -117,209 -26,25 -109,87 -183,137 -143,97 -217,148 -645,440 -297,203 -474,323 -668,454 -71,48 -126,89 -124,91 2,2 46,-15 98,-39 136,-64 136,-64 144,-28 4,17 11,33 16,36 26,17 8,28 -201,122 -30,14 -66,30 -80,36 -20,10 51,13 334,17 l 358,5 4,50 c 4,42 10,55 40,84 32,29 41,33 76,28 22,-3 48,-13 57,-21 23,-21 44,-91 36,-117 -7,-20 -4,-20 92,-16 176,7 276,40 436,143 72,47 97,68 210,180 104,101 217,244 217,274 0,5 4,10 8,10 10,0 105,189 139,275 50,128 88,361 75,468 -5,43 -42,64 -85,48 -18,-7 -52,-7 -99,-1 -112,15 -283,12 -322,-4 -19,-8 -76,-43 -128,-78 -51,-36 -259,-176 -463,-313 -203,-136 -391,-268 -417,-292 -26,-23 -54,-43 -62,-43 -8,0 -70,-36 -138,-81 l -123,-80 86,84 85,84 -34,38 -34,37 -72,-69 c -39,-38 -120,-116 -181,-174 -60,-57 -149,-142 -197,-188 -49,-47 -88,-82 -88,-79 0,3 34,79 75,169 41,90 75,168 75,174 0,6 -19,20 -43,32 -51,25 -71,71 -56,128 11,39 61,75 106,75 28,0 29,1 80,163 90,284 91,290 88,417 -3,131 -25,261 -62,370 -29,86 -111,263 -124,268 -5,2 -9,10 -9,17 0,8 -6,20 -14,27 -7,8 -21,28 -30,46 -9,18 -21,32 -26,32 -6,0 -10,6 -10,13 0,15 -189,211 -233,242 -16,11 -42,32 -59,48 -18,15 -36,27 -40,27 -5,0 -24,11 -41,24 -60,45 -221,114 -352,151 -82,23 -88,24 -105,18 z m 723,-1435 c 10,-5 27,-24 37,-41 54,-88 -12,-201 -115,-199 -54,0 -81,14 -105,55 -40,66 -13,152 60,190 36,18 84,16 123,-5 z m -715,-812 c 56,-29 77,-63 76,-123 0,-50 -4,-59 -32,-84 -99,-89 -263,56 -192,169 31,50 93,66 148,38 z m 1413,-65 c 42,-42 41,-102 -2,-142 -61,-57 -139,-49 -177,19 -21,37 -22,46 -12,78 25,75 135,101 191,45 z m -685,-245 c 37,-43 47,-80 33,-129 -15,-54 -60,-87 -120,-87 -42,0 -55,5 -86,33 -31,29 -37,41 -41,88 -4,49 -1,59 24,88 35,42 58,52 114,47 37,-3 51,-11 76,-40 z m -799,-763 c 35,-23 66,-97 59,-138 -8,-41 -54,-90 -92,-98 -40,-7 -87,9 -120,44 -25,26 -29,38 -29,89 0,44 5,63 20,80 43,49 108,58 162,23 z m 1550,-23 c 42,-25 67,-73 59,-115 -7,-36 -28,-59 -70,-75 -64,-24 -146,37 -146,108 0,44 8,58 46,82 38,24 72,24 111,0 z"
       id="path23"
       inkscape:connector-curvature="0" />
    <path
       d="m 9900,7603 c 13,-18 25,-33 27,-33 8,0 -17,38 -33,51 -11,9 -9,2 6,-18 z"
       id="path25"
       inkscape:connector-curvature="0" />
  </g>
  <g
     id="layer107"
     style="fill:#dc78f2;stroke:none"
     transform="translate(-5250,-5313.0978)">
    <path
       d="m 7240,10603 c -28,-11 -47,-38 -54,-75 -4,-21 -11,-38 -15,-38 -5,0 -12,-17 -16,-37 -5,-21 -9,-42 -11,-48 -34,-130 -43,-171 -49,-227 l -7,-67 227,-681 228,-681 42,7 c 53,7 98,-14 125,-59 39,-64 14,-163 -47,-189 -16,-7 -29,-13 -31,-14 -2,-1 18,-64 44,-140 26,-77 49,-146 52,-154 2,-8 -110,99 -249,237 l -254,253 -29,-36 -29,-36 244,-245 244,-245 -205,151 c -113,83 -290,214 -395,292 -104,77 -197,144 -205,147 -8,3 -29,16 -46,29 -17,13 -36,23 -42,23 -17,0 -62,22 -58,29 5,8 -31,9 -229,12 -185,2 -321,-18 -470,-71 -49,-17 -99,-34 -110,-38 -20,-6 -212,-102 -250,-125 -11,-7 -29,-20 -40,-30 -11,-9 -24,-18 -30,-19 -5,-1 -15,-6 -22,-12 -32,-28 -43,-36 -50,-36 -4,0 -39,-29 -77,-65 -38,-36 -72,-65 -76,-65 -4,0 -15,-10 -23,-22 -9,-13 -30,-38 -46,-57 -18,-19 -31,-45 -31,-60 0,-27 39,-81 58,-81 6,0 12,-3 14,-8 3,-6 91,-69 137,-97 9,-5 37,-25 64,-43 26,-18 47,-30 47,-27 0,4 19,-4 43,-18 l 43,-25 454,-7 c 250,-3 476,-8 502,-11 l 47,-5 -6,55 c -7,65 14,108 63,131 111,52 236,-49 195,-158 l -9,-24 195,-6 c 108,-4 257,-7 332,-7 l 136,-1 -131,-55 -131,-56 20,-39 c 10,-21 21,-39 23,-39 4,0 298,123 329,137 24,11 -46,-38 -447,-310 -410,-278 -426,-289 -466,-351 -24,-35 -51,-71 -62,-81 -11,-10 -20,-24 -20,-32 0,-7 -4,-13 -9,-13 -8,0 -24,-37 -22,-52 1,-5 -3,-8 -8,-8 -9,0 -45,-83 -41,-96 1,-4 -2,-10 -7,-13 -11,-7 -38,-86 -59,-171 -8,-30 -17,-64 -20,-75 -29,-99 -43,-382 -24,-500 5,-33 12,-79 15,-102 3,-23 14,-67 25,-98 10,-30 16,-55 13,-55 -3,0 2,-11 11,-25 9,-13 16,-31 16,-38 0,-18 76,-166 97,-189 9,-10 13,-18 9,-18 -4,0 7,-20 25,-45 18,-25 36,-45 40,-45 3,0 9,-9 12,-20 7,-27 75,-28 103,-2 10,10 40,32 67,50 26,18 47,38 47,43 0,6 5,7 10,4 6,-3 13,1 16,9 3,9 12,16 20,16 16,0 134,116 134,133 0,6 6,18 14,26 8,9 68,162 134,341 67,179 178,478 247,665 70,187 133,356 140,376 l 13,37 -39,-16 c -141,-55 -233,156 -93,214 37,16 87,11 115,-9 9,-7 26,-29 37,-50 l 20,-38 53,146 54,146 3,-308 2,-308 h 45 45 l 1,365 1,365 60,-185 c 34,-102 63,-187 65,-189 2,-3 10,5 18,16 8,12 31,27 51,33 44,15 83,1 119,-42 30,-35 32,-72 5,-115 -22,-37 -76,-53 -123,-35 -22,8 -28,8 -24,-1 2,-7 23,-73 47,-147 27,-86 58,-161 86,-207 24,-40 46,-82 47,-94 2,-11 10,-25 18,-30 8,-5 10,-9 5,-9 -5,0 1,-8 12,-19 12,-10 22,-23 22,-30 0,-6 5,-11 10,-11 6,0 20,-16 31,-35 12,-19 24,-33 27,-32 4,2 15,-4 25,-15 9,-10 14,-18 11,-18 -3,0 1,-7 10,-15 8,-8 19,-15 24,-15 6,0 12,-6 15,-14 11,-27 201,-154 302,-201 44,-21 91,-43 105,-50 20,-10 86,-34 110,-40 3,-1 12,-4 20,-7 157,-56 454,-85 601,-58 30,5 68,12 84,14 42,7 91,20 160,45 32,11 60,21 62,21 1,0 0,6 -3,14 -3,9 4,19 18,27 13,6 26,17 30,23 11,15 10,100 -1,111 -7,8 -31,70 -36,95 -1,3 -13,30 -27,60 -44,95 -18,75 -770,588 -172,117 -461,314 -641,437 -181,123 -332,226 -335,230 -8,8 22,-4 176,-73 84,-38 112,-47 112,-36 0,8 6,27 14,42 l 14,28 -164,74 c -90,40 -163,74 -161,75 1,2 164,5 361,9 198,3 360,7 362,9 1,1 5,23 8,47 4,35 13,52 42,79 32,29 41,33 76,28 22,-3 48,-13 57,-21 23,-20 44,-91 36,-116 -6,-19 -1,-20 87,-20 62,1 101,6 118,15 14,8 43,14 65,15 67,0 269,109 361,192 58,53 177,175 204,209 14,17 32,38 41,47 25,27 79,109 79,121 0,6 3,11 8,11 11,0 105,188 143,285 48,123 78,321 71,461 -2,39 -46,63 -81,45 -15,-8 -45,-8 -113,0 -51,6 -141,9 -201,6 l -108,-4 -175,-118 c -612,-411 -804,-543 -841,-577 -24,-21 -49,-38 -57,-38 -8,0 -70,-37 -138,-83 -166,-113 -166,-113 -57,-3 l 97,97 -30,31 -29,31 -57,-54 c -335,-322 -483,-461 -488,-457 -2,3 31,85 76,182 44,96 80,178 80,181 0,3 -8,5 -17,5 -27,0 -69,41 -81,77 -22,68 20,130 98,143 l 34,5 53,155 c 28,85 52,163 53,173 0,10 8,43 19,75 29,90 20,287 -23,467 -21,91 -125,331 -149,347 -6,3 -12,14 -13,24 -2,9 -7,20 -12,23 -5,3 -17,21 -26,39 -9,17 -21,32 -26,32 -6,0 -10,6 -10,13 0,15 -189,211 -233,242 -16,11 -42,32 -59,48 -18,15 -36,27 -40,27 -5,0 -24,11 -41,24 -60,45 -221,114 -352,151 -82,23 -88,24 -105,18 z m 723,-1435 c 28,-14 57,-69 57,-106 0,-41 -22,-84 -56,-111 -112,-88 -261,51 -181,170 41,62 115,82 180,47 z m -715,-812 c 108,-56 111,-203 4,-232 -66,-18 -155,41 -168,113 -17,92 80,163 164,119 z m 1413,-65 c 99,-100 -64,-244 -168,-148 -31,28 -39,77 -19,116 21,39 60,60 114,61 35,0 49,-6 73,-29 z m -685,-245 c 37,-43 47,-80 33,-129 -15,-54 -60,-87 -120,-87 -42,0 -55,5 -86,33 -31,29 -37,41 -41,88 -4,49 -1,59 24,88 35,42 58,52 114,47 37,-3 51,-11 76,-40 z m -795,-767 c 30,-21 59,-75 59,-109 0,-12 -7,-37 -16,-55 -38,-81 -134,-93 -200,-24 -25,26 -29,38 -29,89 0,44 5,63 20,80 45,51 111,58 166,19 z m 1546,-19 c 62,-37 80,-122 35,-163 -51,-46 -120,-41 -167,14 -78,94 28,213 132,149 z"
       id="path28"
       inkscape:connector-curvature="0" />
  </g>
  <g
     id="layer108"
     style="fill:#f7a8d3;stroke:none"
     transform="translate(-5250,-5313.0978)">
    <path
       d="m 7836,8710 c -3,-118 -9,-260 -13,-315 l -6,-100 -19,45 c -11,25 -34,79 -50,120 -17,41 -32,77 -34,79 -1,2 -15,-6 -30,-18 -15,-11 -33,-21 -40,-21 -9,0 9,-54 53,-157 36,-87 67,-167 70,-178 3,-11 -118,103 -268,252 l -274,273 -29,-36 -29,-36 264,-264 c 145,-145 261,-264 257,-264 -4,0 -81,32 -172,70 -90,39 -168,70 -173,70 -9,0 -34,-71 -28,-81 3,-3 78,-36 167,-74 90,-37 168,-72 173,-77 6,-6 -136,-8 -363,-6 l -372,3 v -25 c 0,-14 -3,-35 -6,-47 l -6,-23 348,-2 349,-3 -151,-63 -151,-64 20,-39 c 10,-21 21,-39 23,-39 3,0 79,32 171,70 91,39 167,69 169,67 4,-3 -87,-98 -324,-338 l -193,-196 30,-32 c 17,-18 34,-31 38,-29 5,1 123,121 263,265 140,143 256,260 257,259 1,-1 -29,-78 -68,-171 -38,-93 -67,-175 -65,-182 3,-7 14,-13 24,-13 10,0 23,-5 29,-11 6,-6 15,-9 20,-6 5,3 40,82 78,176 l 70,171 3,-378 2,-377 h 45 45 l 2,380 3,380 75,-186 74,-186 41,16 c 22,8 41,16 43,17 2,1 -33,91 -77,200 -44,109 -79,199 -77,201 1,2 97,-97 212,-219 115,-123 236,-251 269,-286 l 61,-64 32,32 33,32 -118,125 c -297,317 -381,408 -379,411 2,1 77,-31 167,-71 158,-72 164,-73 170,-53 3,12 11,31 17,42 10,18 -2,25 -154,94 -90,40 -163,74 -161,75 1,2 164,5 361,9 198,3 360,7 362,9 1,1 5,22 8,46 l 5,44 -379,-6 c -209,-3 -380,-3 -380,1 0,4 24,16 53,26 28,10 104,39 168,64 l 116,45 -13,26 c -8,14 -14,34 -14,45 0,13 -4,16 -17,11 -77,-33 -328,-125 -333,-123 -4,2 47,54 114,117 66,63 182,174 257,248 l 136,134 -29,31 -29,31 -57,-54 c -335,-322 -483,-461 -488,-457 -2,3 31,85 76,182 44,96 80,178 80,181 0,3 -7,5 -15,5 -9,0 -27,7 -40,16 l -25,16 -43,-93 c -23,-52 -63,-138 -87,-191 -24,-53 -46,-95 -48,-93 -2,2 1,142 7,311 6,169 11,337 11,373 v 66 h -44 -44 z m 140,-664 c 37,-43 47,-80 33,-129 -15,-54 -60,-87 -120,-87 -42,0 -55,5 -86,33 -31,29 -37,41 -41,88 -4,49 -1,59 24,88 35,42 58,52 114,47 37,-3 51,-11 76,-40 z"
       id="path31"
       inkscape:connector-curvature="0" />
  </g>
  <g
     id="layer109"
     style="fill:#f6a1e4;stroke:none"
     transform="translate(-5250,-5313.0978)">
    <path
       d="m 7836,8710 c -3,-118 -9,-260 -13,-315 l -6,-100 -19,45 c -11,25 -34,79 -50,120 -17,41 -32,77 -34,79 -1,2 -15,-6 -30,-18 -15,-11 -33,-21 -40,-21 -9,0 9,-54 53,-157 36,-87 67,-167 70,-178 3,-11 -118,103 -268,252 l -274,273 -29,-36 -29,-36 264,-264 c 145,-145 261,-264 257,-264 -4,0 -81,32 -172,70 -90,39 -168,70 -173,70 -9,0 -34,-71 -28,-81 3,-3 78,-36 167,-74 90,-37 168,-72 173,-77 6,-6 -136,-8 -363,-6 l -372,3 v -25 c 0,-14 -3,-35 -6,-47 l -6,-23 348,-2 349,-3 -151,-63 -151,-64 20,-39 c 10,-21 21,-39 23,-39 3,0 79,32 171,70 91,39 167,69 169,67 4,-3 -87,-98 -324,-338 l -193,-196 30,-32 c 17,-18 34,-31 38,-29 5,1 123,121 263,265 140,143 256,260 257,259 1,-1 -29,-78 -68,-171 -38,-93 -67,-175 -65,-182 3,-7 14,-13 24,-13 10,0 23,-5 29,-11 6,-6 15,-9 20,-6 5,3 40,82 78,176 l 70,171 3,-378 2,-377 h 45 45 l 2,380 3,380 75,-186 74,-186 41,16 c 22,8 41,16 43,17 2,1 -33,91 -77,200 -44,109 -79,199 -77,201 1,2 97,-97 212,-219 115,-123 236,-251 269,-286 l 61,-64 32,32 33,32 -118,125 c -297,317 -381,408 -379,411 2,1 77,-31 167,-71 158,-72 164,-73 170,-53 3,12 11,31 17,42 10,18 -2,25 -154,94 -90,40 -163,74 -161,75 1,2 164,5 361,9 198,3 360,7 362,9 1,1 5,22 8,46 l 5,44 -379,-6 c -209,-3 -380,-3 -380,1 0,4 24,16 53,26 28,10 104,39 168,64 l 116,45 -13,26 c -8,14 -14,34 -14,45 0,13 -4,16 -17,11 -77,-33 -328,-125 -333,-123 -4,2 47,54 114,117 66,63 182,174 257,248 l 136,134 -29,31 -29,31 -57,-54 c -335,-322 -483,-461 -488,-457 -2,3 31,85 76,182 44,96 80,178 80,181 0,3 -7,5 -15,5 -9,0 -27,7 -40,16 l -25,16 -43,-93 c -23,-52 -63,-138 -87,-191 -24,-53 -46,-95 -48,-93 -2,2 1,142 7,311 6,169 11,337 11,373 v 66 h -44 -44 z m 122,-637 c 59,-37 79,-129 42,-190 -81,-133 -290,-29 -241,120 28,83 124,118 199,70 z"
       id="path34"
       inkscape:connector-curvature="0" />
  </g>
  <g
     id="layer110"
     style="fill:#f399f4;stroke:none"
     transform="translate(-5250,-5313.0978)">
    <path
       d="m 7836,8710 c -3,-118 -9,-260 -13,-315 l -6,-100 -19,45 c -11,25 -34,79 -50,120 -17,41 -32,77 -34,79 -1,2 -15,-6 -30,-18 -15,-11 -33,-21 -40,-21 -9,0 9,-54 53,-157 36,-87 67,-167 70,-178 3,-11 -118,103 -268,252 l -274,273 -29,-36 -29,-36 264,-264 c 145,-145 261,-264 257,-264 -4,0 -81,32 -172,70 -90,39 -168,70 -173,70 -9,0 -34,-71 -28,-81 3,-3 78,-36 167,-74 90,-37 168,-72 173,-77 6,-6 -136,-8 -363,-6 l -372,3 v -25 c 0,-14 -3,-35 -6,-47 l -6,-23 348,-2 349,-3 -151,-63 -151,-64 20,-39 c 10,-21 21,-39 23,-39 3,0 79,32 171,70 91,39 167,69 169,67 4,-3 -87,-98 -324,-338 l -193,-196 30,-32 c 17,-18 34,-31 38,-29 5,1 123,121 263,265 140,143 256,260 257,259 1,-1 -29,-78 -68,-171 -38,-93 -67,-175 -65,-182 3,-7 14,-13 24,-13 10,0 23,-5 29,-11 6,-6 15,-9 20,-6 5,3 40,82 78,176 l 70,171 3,-378 2,-377 h 45 45 l 2,380 3,380 75,-186 74,-186 41,16 c 22,8 41,16 43,17 2,1 -33,91 -77,200 -44,109 -79,199 -77,201 1,2 97,-97 212,-219 115,-123 236,-251 269,-286 l 61,-64 32,32 33,32 -118,125 c -297,317 -381,408 -379,411 2,1 77,-31 167,-71 158,-72 164,-73 170,-53 3,12 11,31 17,42 10,18 -2,25 -154,94 -90,40 -163,74 -161,75 1,2 164,5 361,9 198,3 360,7 362,9 1,1 5,22 8,46 l 5,44 -379,-6 c -209,-3 -380,-3 -380,1 0,4 24,16 53,26 28,10 104,39 168,64 l 116,45 -13,26 c -8,14 -14,34 -14,45 0,13 -4,16 -17,11 -77,-33 -328,-125 -333,-123 -4,2 47,54 114,117 66,63 182,174 257,248 l 136,134 -29,31 -29,31 -57,-54 c -335,-322 -483,-461 -488,-457 -2,3 31,85 76,182 44,96 80,178 80,181 0,3 -7,5 -15,5 -9,0 -27,7 -40,16 l -25,16 -43,-93 c -23,-52 -63,-138 -87,-191 -24,-53 -46,-95 -48,-93 -2,2 1,142 7,311 6,169 11,337 11,373 v 66 h -44 -44 z m 135,-646 c 43,-41 64,-104 50,-147 -39,-116 -203,-131 -255,-23 -35,73 -8,162 57,192 48,21 112,12 148,-22 z"
       id="path37"
       inkscape:connector-curvature="0" />
  </g>
</svg>
