<?xml version="1.0" encoding="UTF-8" standalone="no"?>
<svg
   xmlns:dc="http://purl.org/dc/elements/1.1/"
   xmlns:cc="http://creativecommons.org/ns#"
   xmlns:rdf="http://www.w3.org/1999/02/22-rdf-syntax-ns#"
   xmlns:svg="http://www.w3.org/2000/svg"
   xmlns="http://www.w3.org/2000/svg"
   xmlns:sodipodi="http://sodipodi.sourceforge.net/DTD/sodipodi-0.dtd"
   xmlns:inkscape="http://www.inkscape.org/namespaces/inkscape"
   version="1.0"
   width="1080.7018"
   height="1064.96"
   viewBox="0 0 8442.9827 8319.9997"
   preserveAspectRatio="xMidYMid meet"
   id="svg21"
   sodipodi:docname="summer.svg"
   inkscape:version="0.92.4 (5da689c313, 2019-01-14)">
  <metadata
     id="metadata27">
    <rdf:RDF>
      <cc:Work
         rdf:about="">
        <dc:format>image/svg+xml</dc:format>
        <dc:type
           rdf:resource="http://purl.org/dc/dcmitype/StillImage" />
        <dc:title></dc:title>
      </cc:Work>
    </rdf:RDF>
  </metadata>
  <defs
     id="defs25" />
  <sodipodi:namedview
     pagecolor="#ffffff"
     bordercolor="#666666"
     borderopacity="1"
     objecttolerance="10"
     gridtolerance="10"
     guidetolerance="10"
     inkscape:pageopacity="0"
     inkscape:pageshadow="2"
     inkscape:window-width="3696"
     inkscape:window-height="2115"
     id="namedview23"
     showgrid="false"
     fit-margin-top="0"
     fit-margin-left="0"
     fit-margin-right="0"
     fit-margin-bottom="0"
     inkscape:zoom="0.11523438"
     inkscape:cx="-1513.5241"
     inkscape:cy="528.64"
     inkscape:window-x="131"
     inkscape:window-y="2147"
     inkscape:window-maximized="1"
     inkscape:current-layer="svg21" />
  <g
     id="layer101"
     style="fill:#eabe0d;stroke:none"
     transform="translate(-3960,-3810)">
    <path
       d="m 7895,12097 c -20,-20 -39,-54 -49,-88 -35,-116 -48,-445 -27,-689 11,-130 45,-325 60,-344 5,-6 12,-22 16,-36 13,-44 52,-87 85,-94 88,-17 140,58 165,239 16,117 19,401 5,535 -5,41 -11,103 -14,138 -3,34 -7,66 -10,71 -3,4 -12,43 -21,87 -31,151 -73,214 -142,214 -26,0 -43,-8 -68,-33 z"
       id="path2"
       inkscape:connector-curvature="0" />
    <path
       d="m 10943,10716 c -118,-64 -239,-161 -394,-316 -171,-169 -234,-248 -269,-335 -22,-54 -22,-58 -7,-91 32,-66 108,-68 212,-6 221,130 511,411 633,613 32,53 30,121 -4,148 -40,31 -97,27 -171,-13 z"
       id="path4"
       inkscape:connector-curvature="0" />
    <path
       d="m 7725,10681 c -128,-11 -371,-60 -490,-98 -314,-101 -502,-189 -745,-348 -278,-181 -523,-421 -722,-706 -42,-61 -188,-304 -188,-314 0,-3 -14,-33 -31,-67 -57,-117 -133,-325 -167,-458 -66,-254 -87,-421 -87,-690 0,-340 30,-538 127,-850 29,-92 90,-254 108,-288 5,-9 26,-53 48,-97 128,-265 289,-491 504,-710 245,-248 479,-417 783,-564 154,-74 444,-179 542,-196 21,-4 61,-13 88,-21 28,-7 115,-24 195,-36 195,-30 591,-33 775,-5 334,51 657,152 895,280 151,82 127,67 260,153 161,102 275,197 437,361 353,358 595,808 708,1318 76,343 75,806 -1,1150 -25,112 -79,294 -117,395 -145,385 -369,726 -668,1015 -143,138 -239,215 -404,324 -119,78 -306,180 -415,226 -187,80 -457,165 -585,186 -27,4 -88,15 -135,24 -98,19 -564,29 -715,16 z"
       id="path6"
       inkscape:connector-curvature="0" />
    <path
       d="m 4863,10566 c -24,-11 -33,-23 -39,-50 -9,-49 0,-78 43,-139 103,-148 429,-424 598,-506 124,-60 186,-64 225,-14 31,39 25,80 -20,149 -40,61 -195,225 -265,279 -21,17 -63,50 -94,76 -76,61 -200,142 -274,178 -77,37 -132,46 -174,27 z"
       id="path8"
       inkscape:connector-curvature="0" />
    <path
       d="m 11630,7954 c -207,-16 -329,-41 -437,-89 -62,-29 -83,-56 -83,-109 0,-33 7,-45 40,-77 22,-21 58,-43 79,-49 98,-26 274,-41 486,-41 407,0 647,57 681,161 44,133 -119,197 -516,204 -107,2 -220,2 -250,0 z"
       id="path10"
       inkscape:connector-curvature="0" />
    <path
       d="m 4440,7839 c -36,-4 -109,-12 -163,-18 -113,-13 -247,-54 -288,-89 -24,-19 -29,-32 -29,-67 0,-81 70,-114 285,-135 208,-21 503,-3 674,40 139,35 180,65 181,131 0,68 -55,101 -210,124 -114,17 -358,25 -450,14 z"
       id="path12"
       inkscape:connector-curvature="0" />
    <path
       d="m 10123,5845 c -33,-24 -46,-80 -27,-123 48,-117 232,-311 459,-484 6,-4 24,-18 40,-31 109,-85 215,-146 295,-168 56,-16 58,-16 97,-2 41,15 67,63 59,109 -26,137 -475,556 -725,676 -79,38 -164,48 -198,23 z"
       id="path14"
       inkscape:connector-curvature="0" />
    <path
       d="m 6075,5669 c -163,-84 -420,-322 -609,-561 -59,-75 -106,-176 -106,-226 0,-33 6,-45 31,-66 66,-56 153,-21 354,142 262,213 525,537 525,648 0,58 -42,94 -109,94 -15,0 -53,-14 -86,-31 z"
       id="path16"
       inkscape:connector-curvature="0" />
    <path
       d="m 8115,4959 c -19,-17 -35,-36 -35,-43 0,-6 -6,-23 -14,-38 -33,-64 -50,-215 -50,-468 -1,-261 9,-358 46,-474 29,-88 63,-126 113,-126 50,0 70,13 99,63 49,86 71,256 70,552 0,320 -31,477 -106,540 -40,34 -79,32 -123,-6 z"
       id="path18"
       inkscape:connector-curvature="0" />
  </g>
</svg>
