<?xml version="1.0" encoding="UTF-8" standalone="no"?>
<svg
   xmlns:dc="http://purl.org/dc/elements/1.1/"
   xmlns:cc="http://creativecommons.org/ns#"
   xmlns:rdf="http://www.w3.org/1999/02/22-rdf-syntax-ns#"
   xmlns:svg="http://www.w3.org/2000/svg"
   xmlns="http://www.w3.org/2000/svg"
   xmlns:sodipodi="http://sodipodi.sourceforge.net/DTD/sodipodi-0.dtd"
   xmlns:inkscape="http://www.inkscape.org/namespaces/inkscape"
   version="1.0"
   width="23.999998"
   height="24"
   viewBox="0 0 187.49999 187.49999"
   preserveAspectRatio="xMidYMid meet"
   id="svg65"
   sodipodi:docname="sun_exposure.svg"
   inkscape:version="0.92.4 (5da689c313, 2019-01-14)">
  <metadata
     id="metadata71">
    <rdf:RDF>
      <cc:Work
         rdf:about="">
        <dc:format>image/svg+xml</dc:format>
        <dc:type
           rdf:resource="http://purl.org/dc/dcmitype/StillImage" />
        <dc:title></dc:title>
      </cc:Work>
    </rdf:RDF>
  </metadata>
  <defs
     id="defs69" />
  <sodipodi:namedview
     pagecolor="#ffffff"
     bordercolor="#666666"
     borderopacity="1"
     objecttolerance="10"
     gridtolerance="10"
     guidetolerance="10"
     inkscape:pageopacity="0"
     inkscape:pageshadow="2"
     inkscape:window-width="3696"
     inkscape:window-height="2115"
     id="namedview67"
     showgrid="false"
     fit-margin-top="2"
     fit-margin-left="2"
     fit-margin-right="2"
     fit-margin-bottom="2"
     inkscape:zoom="29.500001"
     inkscape:cx="-8.6312355"
     inkscape:cy="2.8859853"
     inkscape:window-x="131"
     inkscape:window-y="2147"
     inkscape:window-maximized="1"
     inkscape:current-layer="svg65" />
  <g
     id="layer101"
     style="fill:#0eca10;stroke:none"
     transform="matrix(0.01595066,0,0,0.01551476,-30.520318,-27.104261)">
    <path
       d="m 8751,12249 c -35,-4 -77,-13 -94,-18 -16,-6 -46,-8 -66,-5 -30,5 -41,1 -65,-21 -26,-24 -28,-31 -23,-78 2,-29 8,-60 12,-69 5,-13 1,-19 -17,-23 -17,-5 -29,-22 -46,-68 -13,-34 -30,-75 -37,-92 -8,-16 -33,-75 -55,-130 -23,-55 -57,-136 -75,-180 -18,-44 -49,-120 -70,-170 -20,-49 -52,-127 -71,-172 -78,-187 -105,-253 -144,-348 -23,-55 -45,-109 -50,-120 -5,-11 -23,-54 -40,-95 -17,-41 -35,-84 -40,-95 -4,-11 -24,-58 -43,-105 -66,-160 -118,-285 -154,-370 -19,-47 -50,-121 -68,-165 -18,-44 -45,-109 -60,-145 -15,-36 -56,-135 -91,-220 -69,-165 -103,-248 -166,-400 -22,-52 -55,-131 -73,-175 -90,-217 -106,-257 -145,-350 -23,-55 -48,-113 -55,-130 -7,-16 -38,-85 -68,-152 -65,-142 -71,-162 -54,-184 10,-12 97,-68 209,-134 17,-10 144,-88 183,-112 11,-7 32,-18 48,-25 15,-7 27,-16 27,-20 0,-4 11,-8 24,-8 18,0 35,15 66,58 51,70 334,474 366,522 13,19 54,78 91,132 37,53 122,173 188,268 66,94 152,217 192,273 39,56 86,124 105,150 18,26 49,70 68,97 19,27 107,152 195,279 88,126 163,227 166,223 3,-4 16,-32 28,-62 57,-138 158,-323 253,-463 33,-49 38,-60 26,-70 -8,-7 -50,-55 -94,-107 -43,-52 -86,-101 -94,-110 -8,-9 -44,-52 -80,-95 -36,-43 -99,-117 -140,-165 -41,-47 -106,-124 -145,-170 -38,-45 -75,-88 -82,-95 -6,-6 -35,-41 -64,-76 -49,-58 -87,-103 -114,-133 -5,-6 -35,-40 -65,-76 -30,-36 -57,-67 -60,-70 -3,-3 -24,-27 -45,-54 -22,-27 -49,-59 -60,-71 -11,-11 -65,-74 -120,-140 -55,-66 -140,-162 -190,-213 -105,-109 -109,-115 -100,-149 5,-20 90,-142 140,-199 6,-7 19,-24 30,-40 85,-118 159,-205 180,-210 31,-8 124,41 310,165 76,50 139,91 141,91 2,0 27,16 54,35 27,19 52,35 55,35 3,0 28,16 55,35 27,19 52,35 55,35 2,0 41,25 85,55 44,30 83,55 85,55 3,0 28,16 55,35 27,19 52,35 55,35 2,0 40,24 83,52 43,29 86,58 95,63 28,18 339,218 419,270 43,27 119,77 170,109 175,112 233,150 305,197 62,41 74,45 90,34 24,-16 180,-96 263,-133 36,-17 130,-52 210,-80 80,-28 160,-56 178,-62 l 33,-12 -58,-30 c -32,-17 -92,-48 -133,-70 -41,-22 -122,-65 -180,-95 -58,-30 -132,-70 -165,-88 -62,-33 -195,-104 -345,-183 -47,-24 -116,-61 -155,-82 -38,-20 -115,-61 -170,-90 -55,-29 -127,-67 -160,-85 -33,-18 -109,-58 -170,-90 -60,-32 -141,-74 -180,-95 -38,-21 -101,-54 -140,-75 -38,-21 -117,-62 -175,-93 -58,-30 -136,-71 -175,-92 -38,-20 -115,-61 -170,-90 -55,-29 -106,-57 -112,-63 -18,-13 -16,-70 3,-115 9,-20 20,-50 24,-67 5,-16 20,-61 35,-100 14,-38 38,-104 52,-145 60,-176 71,-189 140,-171 21,5 79,19 128,31 50,11 124,29 165,40 41,10 111,26 155,35 44,9 114,25 155,35 41,10 109,25 150,34 41,9 109,25 150,35 41,11 107,26 145,34 112,25 254,57 335,77 41,10 109,26 150,35 41,9 109,25 150,35 41,10 111,26 155,35 44,10 116,26 160,37 79,19 104,25 295,68 52,12 129,30 170,40 41,10 109,26 150,35 41,9 113,25 160,36 47,11 112,26 145,34 33,7 101,23 150,34 50,12 131,30 180,41 120,28 208,49 275,66 30,7 84,18 120,23 36,6 92,15 125,21 151,29 157,35 131,124 -9,29 -20,100 -25,157 -12,119 -34,252 -56,324 -9,28 -23,75 -31,105 -9,30 -25,78 -35,105 -10,28 -29,82 -43,120 -48,135 -66,180 -121,300 l -33,71 9,114 c 25,361 -9,923 -77,1260 -49,243 -137,500 -237,690 -68,129 -184,302 -250,372 -7,7 -44,49 -82,92 -106,120 -253,238 -410,328 -319,185 -870,277 -1248,210 l -128,-23 -57,48 c -31,26 -59,50 -62,53 -30,31 -349,240 -365,240 -2,0 -35,19 -75,41 -76,44 -67,32 -139,194 -47,104 -51,116 -51,145 0,16 -7,35 -15,44 -8,8 -15,20 -15,26 0,6 -11,22 -25,35 -26,27 -49,29 -164,14 z"
       id="path2"
       inkscape:connector-curvature="0" />
  </g>
  <g
     id="layer102"
     style="fill:#25b427;stroke:none"
     transform="matrix(0.01595066,0,0,0.01551476,-30.520318,-27.104261)">
    <path
       d="m 8755,12249 c -32,-5 -74,-14 -93,-20 -18,-6 -45,-8 -59,-4 -34,8 -77,-10 -93,-40 -13,-23 -10,-91 5,-127 5,-13 1,-19 -17,-23 -17,-5 -29,-22 -46,-68 -13,-34 -30,-75 -37,-92 -8,-16 -33,-75 -55,-130 -23,-55 -57,-136 -75,-180 -18,-44 -49,-120 -70,-170 -20,-49 -52,-127 -71,-172 -78,-187 -105,-253 -144,-348 -23,-55 -45,-109 -50,-120 -5,-11 -23,-54 -40,-95 -17,-41 -35,-84 -40,-95 -4,-11 -24,-58 -43,-105 -66,-160 -118,-285 -154,-370 -19,-47 -50,-121 -68,-165 -18,-44 -45,-109 -60,-145 -15,-36 -56,-135 -91,-220 -69,-165 -103,-248 -166,-400 -22,-52 -55,-131 -73,-175 -90,-217 -106,-257 -145,-350 -23,-55 -48,-113 -55,-130 -7,-16 -38,-85 -68,-152 -65,-142 -71,-162 -54,-184 10,-12 97,-68 209,-134 17,-10 144,-88 183,-112 11,-7 32,-18 48,-25 15,-7 27,-16 27,-20 0,-4 11,-8 24,-8 18,0 35,15 66,58 51,70 334,474 366,522 13,19 54,78 91,132 255,363 319,454 380,541 37,54 84,120 103,147 19,27 50,71 68,97 19,26 106,152 194,278 89,127 167,244 175,260 7,17 47,77 88,135 41,58 103,148 139,200 179,259 382,544 391,546 6,1 46,-40 90,-93 112,-133 304,-358 361,-420 l 47,-53 -35,-42 c -69,-84 -162,-183 -175,-186 -7,-2 -41,6 -76,17 -34,11 -95,25 -134,31 -62,10 -80,9 -121,-4 -142,-48 -166,-219 -56,-402 33,-55 35,-61 21,-84 -20,-33 -140,-172 -202,-235 -27,-28 -86,-93 -130,-145 -44,-52 -87,-101 -95,-110 -8,-9 -44,-52 -80,-95 -36,-43 -99,-117 -140,-165 -41,-47 -106,-124 -145,-170 -38,-45 -75,-88 -82,-95 -6,-6 -35,-41 -64,-76 -49,-58 -87,-103 -114,-133 -5,-6 -35,-40 -65,-76 -30,-36 -57,-67 -60,-70 -3,-3 -24,-27 -45,-54 -22,-27 -49,-59 -60,-71 -11,-11 -65,-74 -120,-140 -55,-66 -140,-162 -190,-213 -105,-109 -109,-115 -100,-149 5,-20 90,-142 140,-199 6,-7 19,-24 30,-40 85,-118 159,-205 180,-210 31,-8 124,41 310,165 76,50 139,91 141,91 2,0 27,16 54,35 27,19 52,35 55,35 3,0 28,16 55,35 27,19 52,35 55,35 2,0 41,25 85,55 44,30 83,55 85,55 3,0 28,16 55,35 27,19 52,35 55,35 2,0 40,24 83,52 43,29 86,58 95,63 28,18 339,218 419,270 82,53 173,111 377,241 68,43 141,94 161,112 21,17 40,32 44,32 3,0 41,23 84,52 172,116 190,128 196,128 4,0 39,22 79,49 152,102 222,148 232,152 6,2 70,44 144,92 73,48 137,87 142,85 13,-5 215,-337 322,-530 l 37,-66 -33,-20 c -17,-12 -52,-30 -77,-42 -25,-11 -94,-47 -155,-80 -60,-33 -157,-83 -215,-111 -130,-63 -274,-136 -320,-162 -19,-11 -82,-44 -140,-74 -58,-31 -132,-70 -165,-88 -62,-33 -195,-104 -345,-183 -47,-24 -116,-61 -155,-82 -38,-20 -115,-61 -170,-90 -55,-29 -127,-67 -160,-85 -33,-18 -109,-58 -170,-90 -60,-32 -141,-74 -180,-95 -38,-21 -101,-54 -140,-75 -38,-21 -117,-62 -175,-93 -58,-30 -136,-71 -175,-92 -38,-20 -115,-61 -170,-90 -55,-29 -106,-57 -112,-63 -18,-13 -16,-70 3,-115 9,-20 20,-50 24,-67 5,-16 20,-61 35,-100 14,-38 38,-104 52,-145 60,-176 71,-189 140,-171 21,5 79,19 128,31 50,11 124,29 165,40 41,10 111,26 155,35 44,9 114,25 155,35 41,10 109,25 150,34 41,9 109,25 150,35 41,11 107,26 145,34 112,25 254,57 335,77 41,10 109,26 150,35 41,9 109,25 150,35 41,10 111,26 155,35 44,10 116,26 160,37 79,19 104,25 295,68 52,12 129,30 170,40 41,10 109,26 150,35 41,9 113,25 160,36 47,11 112,26 145,34 33,7 101,23 150,34 50,12 131,30 180,41 120,28 208,49 275,66 30,7 84,18 120,23 36,6 92,15 125,21 151,29 157,35 131,124 -9,29 -20,100 -25,157 -12,119 -34,252 -56,324 -9,28 -23,75 -31,105 -9,30 -25,78 -35,105 -10,28 -29,82 -43,120 -61,172 -126,320 -174,400 -10,17 -36,64 -57,105 -56,107 -103,169 -133,177 -27,6 -61,-9 -177,-78 -33,-19 -80,-43 -105,-53 -25,-9 -62,-29 -84,-43 -21,-13 -42,-21 -46,-16 -4,4 -24,49 -45,98 -53,127 -134,287 -212,417 l -66,112 32,26 c 17,15 46,35 65,46 56,32 150,95 174,117 12,11 22,30 22,42 0,32 6,34 57,19 93,-28 176,-7 229,59 39,49 54,107 54,212 0,96 -21,202 -63,315 -31,84 -104,233 -139,286 -16,23 -28,45 -28,48 0,8 -110,166 -157,226 -91,117 -226,258 -308,324 -109,88 -184,132 -290,170 -69,25 -95,28 -190,29 -128,0 -199,-17 -271,-65 -88,-59 -135,-183 -111,-288 l 13,-55 -58,-70 c -31,-38 -74,-90 -95,-114 l -38,-43 -137,154 c -253,286 -374,439 -362,460 4,7 42,63 85,124 96,138 103,166 54,240 -19,28 -55,68 -82,89 -26,22 -50,42 -53,45 -26,28 -348,240 -365,240 -2,0 -35,19 -75,41 -68,40 -72,44 -106,118 -68,145 -84,188 -84,222 0,15 -7,34 -15,43 -8,8 -15,20 -15,26 0,6 -11,22 -25,35 -26,27 -52,29 -160,14 z"
       id="path5"
       inkscape:connector-curvature="0" />
    <path
       d="m 10098,11453 c 12,-2 30,-2 40,0 9,3 -1,5 -23,4 -22,0 -30,-2 -17,-4 z"
       id="path7"
       inkscape:connector-curvature="0" />
  </g>
  <g
     id="layer103"
     style="fill:#92c407;stroke:none"
     transform="matrix(0.01595066,0,0,0.01551476,-30.520318,-27.104261)">
    <path
       d="m 8490,12033 c -8,-2 -25,-32 -38,-66 -13,-34 -30,-75 -37,-92 -8,-16 -33,-75 -55,-130 -23,-55 -57,-136 -75,-180 -18,-44 -49,-120 -70,-170 -20,-49 -52,-127 -71,-172 -78,-187 -105,-253 -144,-348 -23,-55 -45,-109 -50,-120 -5,-11 -23,-54 -40,-95 -17,-41 -35,-84 -40,-95 -4,-11 -24,-58 -43,-105 -66,-160 -118,-285 -154,-370 -19,-47 -50,-121 -68,-165 -18,-44 -45,-109 -60,-145 -15,-36 -56,-135 -91,-220 -69,-165 -103,-248 -166,-400 -64,-152 -108,-259 -143,-345 -18,-44 -52,-125 -75,-180 -23,-55 -48,-113 -55,-130 -7,-16 -38,-85 -68,-152 -65,-142 -71,-162 -54,-184 10,-12 97,-68 209,-134 17,-10 144,-88 183,-112 11,-7 32,-18 48,-25 15,-7 27,-16 27,-20 0,-4 11,-8 24,-8 18,0 35,15 66,58 51,70 334,474 366,522 13,19 54,78 91,132 255,363 319,454 380,541 37,54 84,120 103,147 19,27 50,71 68,97 19,26 106,151 194,278 88,126 166,241 172,255 6,14 219,323 474,688 418,598 463,667 464,702 0,28 -7,50 -25,74 -15,18 -24,36 -21,39 3,2 -21,27 -53,53 -32,27 -60,51 -63,54 -31,31 -349,240 -365,240 -2,0 -31,16 -65,36 -33,19 -69,37 -79,39 -10,2 -66,26 -124,54 -144,69 -244,108 -352,137 -91,24 -98,25 -125,17 z"
       id="path10"
       inkscape:connector-curvature="0" />
    <path
       d="m 10545,11026 c -44,-7 -98,-22 -120,-34 -53,-27 -109,-87 -134,-142 -22,-48 -28,-142 -12,-196 8,-29 0,-41 -246,-330 -326,-383 -290,-348 -337,-329 -21,9 -79,25 -128,35 -155,32 -238,3 -278,-99 -29,-74 -7,-192 55,-296 19,-31 35,-62 35,-67 0,-12 -214,-263 -239,-281 -10,-6 -56,-57 -102,-112 -46,-54 -91,-107 -99,-115 -8,-9 -44,-52 -80,-95 -36,-43 -99,-117 -140,-165 -41,-47 -106,-124 -145,-170 -38,-45 -75,-88 -82,-95 -6,-6 -35,-41 -64,-76 -49,-58 -87,-103 -114,-133 -5,-6 -35,-40 -65,-76 -30,-36 -57,-67 -60,-70 -3,-3 -24,-27 -45,-54 -22,-27 -49,-59 -60,-71 -11,-11 -65,-74 -120,-140 -55,-66 -140,-162 -190,-213 -105,-109 -109,-115 -100,-149 5,-20 90,-142 140,-199 6,-7 19,-24 30,-40 85,-118 159,-205 180,-210 31,-8 124,41 310,165 76,50 139,91 141,91 2,0 27,16 54,35 27,19 52,35 55,35 3,0 28,16 55,35 27,19 52,35 55,35 2,0 41,25 85,55 44,30 83,55 85,55 3,0 28,16 55,35 27,19 52,35 55,35 2,0 40,24 83,53 43,28 86,57 95,62 31,20 343,221 419,270 42,27 123,79 179,115 248,157 326,209 358,236 31,27 90,66 301,200 41,27 118,76 170,110 52,33 185,119 295,189 392,251 570,368 593,388 12,11 22,30 22,42 0,32 6,34 57,19 87,-26 169,-8 221,48 78,85 83,292 11,503 -93,273 -317,607 -570,850 -156,149 -297,230 -455,261 -88,16 -102,16 -209,0 z"
       id="path12"
       inkscape:connector-curvature="0" />
    <path
       d="m 11827,8640 c -37,-22 -156,-85 -265,-141 -108,-56 -201,-105 -207,-109 -5,-4 -75,-41 -155,-83 -80,-41 -192,-101 -250,-131 -57,-31 -108,-56 -113,-56 -10,0 -177,-83 -247,-123 -19,-11 -82,-44 -140,-74 -58,-31 -132,-70 -165,-88 -62,-33 -195,-104 -345,-183 -47,-24 -116,-61 -155,-82 -38,-20 -115,-61 -170,-90 -55,-29 -127,-67 -160,-85 -33,-18 -109,-58 -170,-90 -60,-32 -141,-74 -180,-95 -38,-21 -101,-54 -140,-75 -38,-21 -117,-62 -175,-93 -58,-30 -136,-71 -175,-92 -38,-20 -115,-61 -170,-90 -55,-29 -106,-57 -112,-63 -18,-13 -16,-70 3,-115 9,-20 20,-50 24,-67 5,-16 20,-61 35,-100 14,-38 38,-104 52,-145 60,-176 71,-189 140,-171 21,5 79,19 128,31 50,11 124,29 165,40 41,10 111,26 155,35 44,9 114,25 155,35 41,10 109,25 150,34 41,9 109,25 150,35 41,11 107,26 145,34 112,25 254,57 335,77 41,10 109,26 150,35 41,9 109,25 150,35 41,10 111,26 155,35 44,10 116,26 160,37 79,19 104,25 295,68 52,12 129,30 170,40 41,10 109,26 150,35 41,9 113,25 160,36 47,11 112,26 145,34 33,7 101,23 150,34 50,12 131,30 180,41 120,28 208,49 275,66 30,7 84,18 120,23 36,6 92,15 125,21 151,29 157,35 131,124 -9,29 -20,100 -25,157 -12,119 -34,252 -56,324 -9,28 -23,75 -31,105 -9,30 -25,78 -35,105 -10,28 -29,82 -42,120 -25,70 -31,85 -70,180 -63,154 -217,436 -263,482 -32,32 -59,29 -137,-17 z"
       id="path14"
       inkscape:connector-curvature="0" />
  </g>
  <g
     id="layer104"
     style="fill:#9dbb12;stroke:none"
     transform="matrix(0.01595066,0,0,0.01551476,-30.520318,-27.104261)">
    <path
       d="m 8490,12033 c -8,-2 -25,-32 -38,-66 -13,-34 -30,-75 -37,-92 -8,-16 -33,-75 -55,-130 -23,-55 -57,-136 -75,-180 -18,-44 -49,-120 -70,-170 -20,-49 -52,-127 -71,-172 -78,-187 -105,-253 -144,-348 -23,-55 -45,-109 -50,-120 -5,-11 -23,-54 -40,-95 -17,-41 -35,-84 -40,-95 -4,-11 -24,-58 -43,-105 -66,-160 -118,-285 -154,-370 -19,-47 -50,-121 -68,-165 -18,-44 -45,-109 -60,-145 -15,-36 -56,-135 -91,-220 -69,-165 -103,-248 -166,-400 -64,-152 -108,-259 -143,-345 -18,-44 -52,-125 -75,-180 -23,-55 -48,-113 -55,-130 -7,-16 -38,-85 -68,-152 -65,-142 -71,-162 -54,-184 10,-12 97,-68 209,-134 17,-10 144,-88 183,-112 11,-7 32,-18 48,-25 15,-7 27,-16 27,-20 0,-4 11,-8 24,-8 18,0 35,15 66,58 51,70 334,474 366,522 13,19 54,78 91,132 255,363 319,454 380,541 37,54 84,120 103,147 19,27 50,71 68,97 19,26 107,154 198,283 111,159 164,244 164,261 0,15 -9,55 -19,90 -48,157 -56,225 -56,454 0,199 2,228 23,305 60,219 187,384 333,434 24,8 44,14 45,13 191,-269 287,-397 295,-397 8,0 139,184 139,195 0,4 -14,25 -31,46 -17,22 -62,85 -100,141 l -70,103 63,23 c 35,13 109,35 166,49 64,16 102,30 102,38 0,7 -24,33 -52,56 -29,24 -55,46 -58,49 -29,30 -349,240 -365,240 -2,0 -32,16 -65,36 -34,20 -72,37 -84,38 -12,2 -53,19 -90,39 -37,21 -72,37 -77,37 -5,0 -37,13 -71,29 -82,37 -167,66 -263,91 -43,11 -79,19 -79,19 -1,-1 -8,-3 -16,-6 z"
       id="path17"
       inkscape:connector-curvature="0" />
    <path
       d="m 10545,11026 c -93,-15 -146,-40 -197,-93 -121,-126 -102,-306 56,-526 140,-196 478,-548 771,-802 226,-197 264,-225 311,-230 22,-2 55,-9 74,-15 75,-22 159,-1 208,52 78,85 83,292 11,503 -93,273 -317,607 -570,850 -156,149 -297,230 -455,261 -88,16 -102,16 -209,0 z"
       id="path19"
       inkscape:connector-curvature="0" />
    <path
       d="m 10022,10306 c -40,-47 -72,-87 -72,-90 0,-7 107,-108 336,-318 304,-279 531,-542 707,-820 l 37,-58 80,51 c 65,41 78,54 71,67 -48,90 -306,431 -451,597 -88,101 -613,644 -631,653 -3,1 -38,-36 -77,-82 z"
       id="path21"
       inkscape:connector-curvature="0" />
    <path
       d="m 9455,10045 c -5,-2 -27,-6 -47,-10 -67,-11 -114,-66 -131,-154 -8,-40 16,-146 46,-206 80,-160 319,-426 527,-586 273,-211 435,-289 603,-289 83,0 117,11 153,52 59,64 69,148 33,264 -75,244 -293,493 -619,711 -83,56 -264,155 -277,152 -4,-1 -25,6 -46,15 -21,9 -80,26 -130,36 -96,21 -96,21 -112,15 z"
       id="path23"
       inkscape:connector-curvature="0" />
    <path
       d="m 9129,9278 c -9,-7 -51,-56 -95,-108 -43,-52 -86,-101 -94,-110 -8,-9 -44,-52 -80,-95 -36,-43 -99,-117 -140,-165 -41,-47 -106,-124 -145,-170 -38,-45 -75,-88 -82,-95 -6,-6 -35,-41 -64,-76 -49,-58 -87,-103 -114,-133 -5,-6 -35,-40 -65,-76 -30,-36 -57,-67 -60,-70 -3,-3 -24,-27 -45,-54 -22,-27 -49,-59 -60,-71 -11,-11 -65,-74 -120,-140 -55,-66 -140,-162 -190,-213 -105,-109 -109,-115 -100,-149 5,-20 90,-142 140,-199 6,-7 19,-24 30,-40 85,-118 159,-205 180,-210 31,-8 124,41 310,165 76,50 139,91 141,91 2,0 27,16 54,35 27,19 52,35 55,35 3,0 28,16 55,35 27,19 52,35 55,35 2,0 41,25 85,55 44,30 83,55 85,55 3,0 28,16 55,35 27,19 52,35 55,35 2,0 40,24 83,53 43,28 86,57 95,62 28,18 339,218 419,270 76,49 134,86 377,241 142,91 182,123 163,131 -7,2 -67,41 -135,86 -312,206 -595,466 -776,711 -45,60 -49,63 -72,44 z"
       id="path25"
       inkscape:connector-curvature="0" />
    <path
       d="m 11453,8438 c -29,-16 -53,-35 -53,-41 1,-7 22,-52 48,-102 52,-99 80,-123 126,-105 31,12 44,54 26,84 -8,12 -28,59 -44,105 -17,47 -35,85 -41,87 -5,1 -34,-12 -62,-28 z"
       id="path27"
       inkscape:connector-curvature="0" />
    <path
       d="m 12126,8318 c -3,-24 -7,-90 -10,-148 -9,-170 -67,-567 -101,-682 -29,-102 -113,-146 -195,-103 -16,8 -70,68 -118,133 -149,196 -288,319 -502,443 -96,55 -296,147 -337,155 -26,5 -52,-4 -135,-47 -57,-28 -119,-61 -138,-72 -19,-11 -82,-44 -140,-74 -58,-31 -132,-70 -165,-88 -62,-33 -195,-104 -345,-183 -47,-24 -116,-61 -155,-82 -38,-20 -115,-61 -170,-90 -55,-29 -127,-67 -160,-85 -33,-18 -109,-58 -170,-90 -60,-32 -141,-74 -180,-95 -38,-21 -101,-54 -140,-75 -38,-21 -117,-62 -175,-93 -58,-30 -136,-71 -175,-92 -38,-20 -115,-61 -170,-90 -55,-29 -106,-57 -112,-63 -18,-13 -16,-70 3,-115 9,-20 20,-50 24,-67 5,-16 20,-61 35,-100 14,-38 38,-104 52,-145 60,-176 71,-189 140,-171 21,5 79,19 128,31 50,11 124,29 165,40 41,10 111,26 155,35 44,9 114,25 155,35 41,10 109,25 150,34 41,9 109,25 150,35 41,11 107,26 145,34 112,25 254,57 335,77 41,10 109,26 150,35 41,9 109,25 150,35 41,10 111,26 155,35 44,10 116,26 160,37 79,19 104,25 295,68 52,12 129,30 170,40 41,10 109,26 150,35 41,9 113,25 160,36 47,11 112,26 145,34 33,7 101,23 150,34 50,12 131,30 180,41 120,28 208,49 275,66 30,7 84,18 120,23 36,6 92,15 125,21 151,29 157,35 131,124 -9,29 -20,100 -25,157 -12,119 -34,252 -56,324 -9,28 -23,75 -31,105 -9,30 -25,78 -35,105 -10,28 -29,82 -43,120 -65,184 -143,365 -157,365 -4,0 -10,-19 -13,-42 z"
       id="path29"
       inkscape:connector-curvature="0" />
  </g>
  <g
     id="layer105"
     style="fill:#51e353;stroke:none"
     transform="matrix(0.01595066,0,0,0.01551476,-30.520318,-27.104261)">
    <path
       d="m 10545,11026 c -97,-16 -148,-40 -201,-98 -93,-100 -99,-221 -21,-379 111,-225 450,-592 937,-1013 147,-128 183,-153 230,-160 19,-3 51,-10 70,-16 75,-22 159,-1 208,52 78,85 83,292 11,503 -93,273 -317,607 -570,850 -156,149 -297,230 -455,261 -88,16 -102,16 -209,0 z"
       id="path32"
       inkscape:connector-curvature="0" />
    <path
       d="m 9455,10045 c -5,-2 -27,-6 -47,-10 -108,-18 -157,-143 -114,-286 43,-143 264,-416 483,-597 111,-91 318,-239 381,-271 143,-73 328,-102 402,-62 48,25 90,89 97,148 11,94 -57,274 -154,412 -95,135 -291,315 -474,439 -75,50 -257,151 -281,156 -7,2 -30,11 -51,20 -21,9 -80,26 -130,36 -96,21 -96,21 -112,15 z"
       id="path34"
       inkscape:connector-curvature="0" />
  </g>
  <g
     id="layer106"
     style="fill:#b0d025;stroke:none"
     transform="matrix(0.01595066,0,0,0.01551476,-30.520318,-27.104261)">
    <path
       d="m 8490,12033 c -8,-2 -25,-32 -38,-66 -13,-34 -30,-75 -37,-92 -8,-16 -33,-75 -55,-130 -23,-55 -57,-136 -75,-180 -18,-44 -49,-120 -70,-170 -20,-49 -52,-127 -71,-172 -78,-187 -105,-253 -144,-348 -23,-55 -45,-109 -50,-120 -5,-11 -23,-54 -40,-95 -17,-41 -35,-84 -40,-95 -4,-11 -24,-58 -43,-105 -66,-160 -118,-285 -154,-370 -19,-47 -50,-121 -68,-165 -18,-44 -45,-109 -60,-145 -15,-36 -56,-135 -91,-220 -69,-165 -103,-248 -166,-400 -64,-152 -108,-259 -143,-345 -18,-44 -52,-125 -75,-180 -23,-55 -48,-113 -55,-130 -7,-16 -38,-85 -68,-152 -65,-142 -71,-162 -54,-184 10,-12 97,-68 209,-134 17,-10 144,-88 183,-112 11,-7 32,-18 48,-25 15,-7 27,-16 27,-20 0,-4 11,-8 24,-8 18,0 35,15 66,58 51,70 334,474 366,522 13,19 54,78 91,132 255,363 319,454 380,541 37,54 84,120 103,147 19,27 50,71 68,97 19,26 107,154 198,283 90,129 164,244 164,255 0,11 -9,49 -20,85 -49,160 -65,276 -64,475 0,174 3,199 27,290 41,151 85,234 170,323 53,55 89,83 139,106 l 67,32 -56,79 c -32,44 -130,179 -218,300 -88,121 -191,264 -229,317 -82,119 -101,134 -146,121 z"
       id="path37"
       inkscape:connector-curvature="0" />
    <path
       d="m 9090,11819 c 0,-25 244,-468 284,-516 1,-1 56,15 123,37 66,21 141,42 167,45 27,4 46,12 46,20 0,7 -24,33 -52,56 -29,24 -55,46 -58,49 -31,33 -249,175 -370,242 -19,11 -59,33 -87,50 -33,18 -53,25 -53,17 z"
       id="path39"
       inkscape:connector-curvature="0" />
    <path
       d="m 10413,10743 c -12,-2 -45,-29 -73,-60 -57,-63 -57,-61 -4,-163 107,-204 461,-583 909,-971 144,-125 202,-169 225,-169 18,0 18,2 5,28 -8,15 -45,90 -83,167 -211,430 -536,862 -823,1095 -54,44 -107,79 -116,79 -10,-1 -28,-4 -40,-6 z"
       id="path41"
       inkscape:connector-curvature="0" />
    <path
       d="m 9709,9942 c -20,-20 -100,-112 -178,-205 l -143,-167 28,-38 c 54,-72 195,-231 257,-289 126,-117 385,-311 484,-362 144,-73 329,-102 403,-62 48,25 90,89 97,148 11,94 -57,274 -154,412 -133,189 -400,410 -656,546 l -103,55 z"
       id="path43"
       inkscape:connector-curvature="0" />
    <path
       d="m 9129,9278 c -9,-7 -51,-56 -95,-108 -43,-52 -86,-101 -94,-110 -8,-9 -44,-52 -80,-95 -36,-43 -99,-117 -140,-165 -41,-47 -106,-124 -145,-170 -38,-45 -75,-88 -82,-95 -6,-6 -35,-41 -64,-76 -49,-58 -87,-103 -114,-133 -5,-6 -35,-40 -65,-76 -30,-36 -57,-67 -60,-70 -3,-3 -24,-27 -45,-54 -22,-27 -49,-59 -60,-71 -11,-11 -65,-74 -120,-140 -55,-66 -140,-162 -190,-213 -105,-109 -109,-115 -100,-149 5,-20 90,-142 140,-199 6,-7 19,-24 30,-40 85,-118 159,-205 180,-210 31,-8 124,41 310,165 76,50 139,91 141,91 2,0 27,16 54,35 27,19 52,35 55,35 3,0 28,16 55,35 27,19 52,35 55,35 2,0 41,25 85,55 44,30 83,55 85,55 3,0 28,16 55,35 27,19 52,35 55,35 2,0 40,24 83,53 43,28 86,57 95,62 28,18 339,218 419,270 76,49 134,86 377,241 68,43 135,88 149,100 l 25,20 -79,49 c -101,63 -233,158 -354,254 -131,105 -373,347 -460,461 -39,52 -75,96 -79,98 -4,1 -14,-3 -22,-10 z"
       id="path45"
       inkscape:connector-curvature="0" />
    <path
       d="m 12127,8243 c -12,-200 -66,-595 -102,-737 -19,-74 -54,-121 -100,-136 -75,-25 -121,5 -228,149 -177,238 -395,403 -726,550 -62,28 -120,51 -129,51 -14,0 -165,-74 -252,-123 -19,-11 -82,-44 -140,-74 -58,-31 -132,-70 -165,-88 -62,-33 -195,-104 -345,-183 -47,-24 -116,-61 -155,-82 -38,-20 -115,-61 -170,-90 -55,-29 -127,-67 -160,-85 -33,-18 -109,-58 -170,-90 -60,-32 -141,-74 -180,-95 -38,-21 -101,-54 -140,-75 -38,-21 -117,-62 -175,-93 -58,-30 -136,-71 -175,-92 -38,-20 -115,-61 -170,-90 -55,-29 -106,-57 -112,-63 -18,-13 -16,-70 3,-115 9,-20 20,-50 24,-67 5,-16 20,-61 35,-100 14,-38 38,-104 52,-145 60,-176 71,-189 140,-171 21,5 79,19 128,31 50,11 124,29 165,40 41,10 111,26 155,35 44,9 114,25 155,35 41,10 109,25 150,34 41,9 109,25 150,35 41,11 107,26 145,34 112,25 254,57 335,77 41,10 109,26 150,35 41,9 109,25 150,35 41,10 111,26 155,35 44,10 116,26 160,37 79,19 104,25 295,68 52,12 129,30 170,40 41,10 109,26 150,35 41,9 113,25 160,36 47,11 112,26 145,34 33,7 101,23 150,34 50,12 131,30 180,41 120,28 208,49 275,66 30,7 84,18 120,23 36,6 92,15 125,21 151,29 157,35 131,124 -9,29 -20,100 -25,157 -12,119 -34,252 -56,324 -9,28 -23,75 -31,105 -9,30 -25,78 -35,105 -10,28 -29,82 -43,120 -63,178 -143,365 -156,365 -4,0 -10,-53 -13,-117 z"
       id="path47"
       inkscape:connector-curvature="0" />
  </g>
  <g
     id="layer107"
     style="fill:#ffc000;stroke:none"
     transform="matrix(0.01595066,0,0,0.01551476,-30.520318,-27.104261)">
    <path
       d="m 6258,12823 c -31,-2 -61,-10 -67,-17 -11,-13 -37,-374 -66,-901 -9,-154 -24,-428 -35,-610 -11,-181 -27,-458 -35,-615 -9,-157 -24,-431 -35,-610 -11,-179 -29,-485 -40,-680 -11,-195 -28,-470 -37,-611 -17,-267 -14,-299 24,-299 9,0 55,-11 102,-25 80,-23 154,-44 291,-81 30,-9 69,-20 85,-26 78,-27 80,-26 103,49 47,154 125,417 147,493 17,56 46,155 73,240 11,36 27,90 36,120 8,30 25,87 36,125 12,39 28,95 37,125 9,30 24,80 33,110 10,30 25,80 34,110 20,71 52,178 77,260 11,36 27,90 36,120 8,30 24,80 33,110 10,30 26,84 35,120 10,36 26,90 35,120 10,30 25,82 35,115 9,33 25,85 35,115 10,30 35,114 55,185 20,72 45,155 54,185 10,30 26,82 35,115 10,33 26,87 36,120 10,33 26,87 35,120 10,33 26,87 36,120 16,54 31,102 73,245 7,25 23,77 34,115 12,39 38,124 57,190 19,66 42,143 51,170 8,28 14,68 12,89 -3,35 -9,43 -58,77 -139,94 -481,253 -645,299 -16,4 -50,15 -75,23 -52,18 -172,49 -280,71 -77,15 -292,26 -392,19 z"
       id="path50"
       inkscape:connector-curvature="0" />
    <path
       d="m 8490,12033 c -8,-2 -25,-32 -38,-66 -13,-34 -30,-75 -37,-92 -8,-16 -33,-75 -55,-130 -23,-55 -57,-136 -75,-180 -18,-44 -49,-120 -70,-170 -20,-49 -52,-127 -71,-172 -78,-187 -105,-253 -144,-348 -23,-55 -45,-109 -50,-120 -5,-11 -23,-54 -40,-95 -17,-41 -35,-84 -40,-95 -4,-11 -24,-58 -43,-105 -66,-160 -118,-285 -154,-370 -19,-47 -50,-121 -68,-165 -18,-44 -45,-109 -60,-145 -15,-36 -56,-135 -91,-220 -69,-165 -103,-248 -166,-400 -64,-152 -108,-259 -143,-345 -18,-44 -52,-125 -75,-180 -23,-55 -48,-113 -55,-130 -7,-16 -38,-85 -68,-152 -65,-142 -71,-162 -54,-184 10,-12 97,-68 209,-134 17,-10 144,-88 183,-112 11,-7 32,-18 48,-25 15,-7 27,-16 27,-20 0,-4 11,-8 24,-8 18,0 35,15 66,58 51,70 334,474 366,522 13,19 54,78 91,132 255,363 319,454 380,541 37,54 84,120 103,147 19,27 50,71 68,97 19,26 107,154 198,283 90,129 164,241 164,248 0,7 -11,53 -25,102 -49,173 -68,328 -62,505 6,172 22,255 72,380 36,89 67,135 146,213 56,55 88,76 166,108 20,8 12,22 -142,234 -90,124 -219,303 -287,399 -140,198 -150,208 -198,194 z"
       id="path52"
       inkscape:connector-curvature="0" />
    <path
       d="m 9090,11820 c 0,-25 192,-374 261,-477 l 29,-41 99,33 c 54,19 128,40 165,46 39,7 66,17 66,25 0,7 -24,32 -52,55 -29,24 -55,46 -58,49 -31,33 -249,175 -370,242 -19,11 -59,33 -87,50 -31,17 -53,24 -53,18 z"
       id="path54"
       inkscape:connector-curvature="0" />
    <path
       d="m 9129,9278 c -9,-7 -51,-56 -95,-108 -43,-52 -86,-101 -94,-110 -8,-9 -44,-52 -80,-95 -36,-43 -99,-117 -140,-165 -41,-47 -106,-124 -145,-170 -38,-45 -75,-88 -82,-95 -6,-6 -35,-41 -64,-76 -49,-58 -87,-103 -114,-133 -5,-6 -35,-40 -65,-76 -30,-36 -57,-67 -60,-70 -3,-3 -24,-27 -45,-54 -22,-27 -49,-59 -60,-71 -11,-11 -65,-74 -120,-140 -55,-66 -140,-162 -190,-213 -105,-109 -109,-115 -100,-149 5,-20 90,-142 140,-199 6,-7 19,-24 30,-40 85,-118 159,-205 180,-210 31,-8 124,41 310,165 76,50 139,91 141,91 2,0 27,16 54,35 27,19 52,35 55,35 3,0 28,16 55,35 27,19 52,35 55,35 2,0 41,25 85,55 44,30 83,55 85,55 3,0 28,16 55,35 27,19 52,35 55,35 2,0 40,24 83,53 43,28 86,57 95,62 28,18 339,218 419,270 76,49 134,86 377,241 68,43 135,88 149,100 l 25,20 -49,29 c -276,161 -663,497 -839,729 -44,57 -83,105 -86,105 -3,1 -12,-5 -20,-11 z"
       id="path56"
       inkscape:connector-curvature="0" />
    <path
       d="m 12137,8354 c -4,-4 -7,-33 -7,-65 0,-130 -47,-501 -92,-724 -30,-152 -82,-214 -169,-202 -53,7 -86,36 -172,152 -150,200 -257,295 -482,428 -114,68 -344,176 -374,177 -13,0 -167,-75 -251,-123 -19,-11 -82,-44 -140,-74 -58,-31 -132,-70 -165,-88 -62,-33 -195,-104 -345,-183 -47,-24 -116,-61 -155,-82 -38,-20 -115,-61 -170,-90 -55,-29 -127,-67 -160,-85 -33,-18 -109,-58 -170,-90 -60,-32 -141,-74 -180,-95 -38,-21 -101,-54 -140,-75 -38,-21 -117,-62 -175,-93 -58,-30 -136,-71 -175,-92 -38,-20 -115,-61 -170,-90 -55,-29 -106,-57 -112,-63 -18,-13 -16,-70 3,-115 9,-20 20,-50 24,-67 5,-16 20,-61 35,-100 14,-38 38,-104 52,-145 60,-176 71,-189 140,-171 21,5 79,19 128,31 50,11 124,29 165,40 41,10 111,26 155,35 44,9 114,25 155,35 41,10 109,25 150,34 41,9 109,25 150,35 41,11 107,26 145,34 112,25 254,57 335,77 41,10 109,26 150,35 41,9 109,25 150,35 41,10 111,26 155,35 44,10 116,26 160,37 79,19 104,25 295,68 52,12 129,30 170,40 41,10 109,26 150,35 41,9 113,25 160,36 47,11 112,26 145,34 33,7 101,23 150,34 50,12 131,30 180,41 120,28 208,49 275,66 30,7 84,18 120,23 36,6 92,15 125,21 151,29 157,35 131,124 -9,29 -20,100 -25,157 -12,119 -34,252 -56,324 -9,28 -23,75 -31,105 -9,30 -25,78 -35,105 -10,28 -29,82 -43,120 -14,39 -34,93 -44,120 -11,28 -26,65 -34,84 -30,79 -74,162 -81,155 z"
       id="path58"
       inkscape:connector-curvature="0" />
    <path
       d="m 5480,8249 c -192,-8 -428,-49 -615,-106 -172,-52 -414,-152 -525,-217 -34,-20 -63,-36 -65,-36 -6,0 -107,-63 -180,-113 -137,-93 -270,-203 -394,-327 -719,-716 -985,-1776 -689,-2745 196,-644 623,-1195 1199,-1546 565,-345 1233,-476 1869,-368 582,99 1087,356 1496,764 423,422 682,927 786,1535 20,120 23,167 23,420 0,301 -10,389 -66,629 -134,562 -472,1110 -908,1470 -230,191 -378,281 -726,441 -62,29 -301,106 -396,129 -152,36 -321,61 -439,66 -63,3 -137,7 -165,8 -27,2 -120,0 -205,-4 z"
       id="path60"
       inkscape:connector-curvature="0" />
    <path
       d="m 12460,6475 c -36,-7 -110,-21 -165,-30 -55,-9 -145,-25 -200,-35 -55,-10 -145,-26 -200,-35 -55,-9 -145,-25 -200,-35 -55,-10 -140,-25 -190,-34 -117,-20 -303,-52 -435,-76 -58,-10 -150,-26 -205,-35 -55,-10 -131,-24 -170,-32 -38,-8 -99,-19 -135,-23 -36,-5 -92,-14 -125,-20 -177,-33 -270,-50 -360,-65 -55,-9 -149,-25 -210,-36 -174,-32 -312,-56 -420,-74 -55,-9 -145,-25 -200,-35 -55,-10 -145,-26 -200,-35 -55,-9 -143,-25 -195,-36 -53,-10 -107,-19 -121,-19 -57,0 -61,-37 -24,-215 13,-66 29,-135 34,-154 6,-19 13,-66 17,-106 l 7,-72 71,-6 c 39,-4 249,-9 466,-12 217,-3 814,-14 1325,-25 1645,-35 2036,-43 2040,-38 34,34 31,753 -5,981 -30,189 -50,279 -68,300 -17,20 -42,20 -132,2 z"
       id="path62"
       inkscape:connector-curvature="0" />
  </g>
</svg>
