<?xml version="1.0" encoding="UTF-8" standalone="no"?>
<svg
   xmlns:dc="http://purl.org/dc/elements/1.1/"
   xmlns:cc="http://creativecommons.org/ns#"
   xmlns:rdf="http://www.w3.org/1999/02/22-rdf-syntax-ns#"
   xmlns:svg="http://www.w3.org/2000/svg"
   xmlns="http://www.w3.org/2000/svg"
   xmlns:sodipodi="http://sodipodi.sourceforge.net/DTD/sodipodi-0.dtd"
   xmlns:inkscape="http://www.inkscape.org/namespaces/inkscape"
   version="1.0"
   width="24"
   height="24"
   viewBox="0 0 187.5 187.49999"
   preserveAspectRatio="xMidYMid meet"
   id="svg84"
   sodipodi:docname="vegetables.svg"
   inkscape:version="0.92.4 (5da689c313, 2019-01-14)">
  <metadata
     id="metadata90">
    <rdf:RDF>
      <cc:Work
         rdf:about="">
        <dc:format>image/svg+xml</dc:format>
        <dc:type
           rdf:resource="http://purl.org/dc/dcmitype/StillImage" />
        <dc:title></dc:title>
      </cc:Work>
    </rdf:RDF>
  </metadata>
  <defs
     id="defs88" />
  <sodipodi:namedview
     pagecolor="#ffffff"
     bordercolor="#666666"
     borderopacity="1"
     objecttolerance="10"
     gridtolerance="10"
     guidetolerance="10"
     inkscape:pageopacity="0"
     inkscape:pageshadow="2"
     inkscape:window-width="3696"
     inkscape:window-height="2115"
     id="namedview86"
     showgrid="false"
     fit-margin-bottom="2"
     fit-margin-top="2"
     fit-margin-right="2"
     fit-margin-left="2"
     inkscape:zoom="29.5"
     inkscape:cx="3.3407275"
     inkscape:cy="8.129717"
     inkscape:window-x="131"
     inkscape:window-y="2147"
     inkscape:window-maximized="1"
     inkscape:current-layer="svg84" />
  <g
     id="layer101"
     transform="matrix(0.01140573,0,0,0.01140573,-0.40849162,-15.00484)"
     style="fill:#09870b;stroke:none">
    <path
       d="m 9980,12557 c -3,-2 -67,-8 -143,-12 -76,-3 -148,-8 -160,-10 -12,-2 -59,-6 -105,-10 -45,-3 -93,-8 -105,-10 -12,-2 -87,-11 -167,-20 -80,-9 -210,-26 -290,-38 -156,-22 -212,-24 -389,-12 -130,9 -413,-7 -560,-32 -77,-12 -107,-13 -160,-4 -36,6 -104,16 -151,22 -46,6 -87,12 -91,14 -3,3 -55,9 -115,15 -60,5 -118,12 -129,14 -24,5 -280,24 -410,31 -182,10 -994,13 -1110,5 -66,-5 -167,-11 -225,-15 -58,-4 -139,-11 -180,-16 -41,-5 -109,-12 -150,-15 -137,-10 -404,-45 -492,-64 -167,-38 -274,-91 -401,-200 -35,-30 -132,-163 -176,-241 -43,-77 -79,-187 -90,-276 -5,-41 -12,-78 -16,-81 -4,-4 -137,-7 -296,-8 l -290,-1 -92,32 c -50,18 -119,44 -152,59 -269,125 -300,132 -442,109 -57,-9 -69,-7 -150,20 -101,34 -173,38 -423,20 -116,-8 -157,-15 -205,-35 -33,-14 -85,-33 -115,-41 -68,-20 -136,-71 -152,-113 -9,-24 -25,-38 -77,-63 -73,-36 -79,-41 -166,-128 -67,-67 -97,-119 -122,-216 -17,-63 -17,-69 0,-132 l 18,-65 -25,-43 c -34,-60 -53,-121 -66,-217 -8,-65 -6,-95 17,-173 18,-62 69,-120 123,-139 21,-7 31,-18 35,-41 24,-118 93,-244 175,-321 82,-76 201,-120 290,-106 28,4 42,0 70,-22 54,-42 173,-88 244,-95 103,-9 225,29 319,101 44,34 52,36 120,36 132,0 213,39 346,164 49,47 131,147 131,161 0,3 8,18 18,33 10,15 41,60 67,100 58,87 130,155 240,227 62,40 115,63 235,103 147,48 386,109 394,101 2,-2 20,-35 40,-74 99,-191 232,-337 366,-403 46,-23 90,-42 97,-42 26,0 10,-17 -94,-100 -160,-128 -548,-516 -698,-699 -33,-40 -74,-90 -91,-110 -17,-20 -42,-52 -55,-72 -13,-20 -52,-75 -85,-121 -34,-47 -67,-96 -74,-109 -7,-13 -30,-43 -51,-66 -47,-52 -54,-78 -39,-143 16,-67 58,-110 108,-110 239,-2 535,3 607,10 49,5 122,12 160,15 39,3 90,7 115,10 25,2 83,7 130,10 100,7 383,41 455,55 28,5 111,19 185,31 74,11 187,32 250,46 63,14 153,33 200,43 47,11 130,31 185,46 55,15 115,29 133,32 28,4 32,1 32,-19 0,-22 16,-73 65,-207 44,-124 196,-378 279,-469 6,-6 27,-31 45,-55 19,-23 87,-95 150,-159 123,-122 230,-201 393,-288 86,-46 287,-120 383,-141 22,-4 74,-15 115,-24 71,-15 132,-30 245,-61 28,-7 102,-23 165,-35 143,-28 350,-24 467,8 86,24 232,94 324,155 l 65,44 60,-22 c 127,-48 267,-77 334,-69 14,1 59,5 101,9 l 76,6 11,-28 c 26,-63 102,-320 130,-438 23,-93 22,-133 -9,-325 -6,-41 -12,-120 -13,-175 -1,-93 1,-104 31,-167 30,-63 32,-74 32,-170 -2,-116 11,-182 45,-242 13,-22 36,-80 50,-128 17,-56 39,-104 62,-134 20,-26 51,-71 70,-99 41,-66 83,-101 137,-117 27,-8 66,-34 110,-75 109,-99 207,-143 321,-143 57,0 156,30 175,54 9,11 21,12 54,4 73,-17 245,-5 300,20 94,42 147,104 147,172 0,32 4,37 55,64 65,34 170,141 207,211 49,95 60,194 29,275 -19,49 -19,51 1,106 31,87 23,209 -20,297 -35,70 -91,134 -155,177 -29,20 -37,31 -37,56 0,67 -75,174 -167,240 -84,60 -166,97 -302,134 -122,34 -163,51 -231,94 -148,95 -237,201 -392,466 -64,110 -65,100 6,172 34,34 71,75 82,89 10,14 37,50 59,80 89,120 112,188 116,345 2,71 5,83 18,79 107,-32 396,-22 523,19 79,25 191,77 219,102 8,8 18,14 22,14 9,0 74,45 147,102 72,57 154,148 180,200 27,54 72,132 85,148 33,41 135,289 135,329 0,9 5,32 10,52 l 10,36 58,-12 c 32,-6 92,-13 133,-14 74,-2 221,21 243,37 6,5 23,12 39,16 87,21 274,165 363,281 l 31,40 104,-54 c 179,-93 363,-203 400,-240 19,-20 77,-90 127,-156 155,-203 169,-216 258,-250 69,-26 89,-40 160,-111 80,-80 160,-130 238,-150 15,-3 52,-21 82,-39 56,-34 122,-54 260,-77 86,-15 143,-8 194,24 17,10 56,16 122,17 146,3 261,50 340,139 35,40 67,107 68,138 0,14 15,31 43,49 69,46 155,139 184,202 21,45 27,73 28,128 0,62 -3,74 -29,107 -19,26 -26,43 -21,55 4,10 13,54 19,98 31,205 -50,398 -190,451 -34,13 -46,24 -59,57 -38,95 -137,187 -232,217 -83,25 -126,29 -204,19 -66,-10 -71,-9 -102,15 -49,38 -121,57 -207,55 -128,-3 -224,-37 -435,-152 -120,-65 -185,-81 -345,-81 -144,-1 -180,5 -426,71 l -132,36 5,51 c 2,28 0,94 -6,146 -24,241 -59,322 -200,472 -109,115 -180,169 -307,230 l -91,44 76,49 c 42,27 81,53 86,57 19,15 82,63 109,83 31,23 36,26 142,115 43,36 86,73 96,82 9,9 30,24 47,32 66,34 89,113 56,191 -16,39 -28,45 -155,79 -47,13 -128,35 -180,49 -90,24 -155,38 -415,86 -60,12 -123,23 -140,26 -190,36 -600,91 -754,100 -57,4 -113,9 -125,12 -27,6 -999,17 -1006,10 z"
       id="path2"
       inkscape:connector-curvature="0" />
  </g>
  <g
     id="layer102"
     transform="matrix(0.01140573,0,0,0.01140573,-0.40849162,-15.00484)"
     style="fill:#0ec910;stroke:none">
    <path
       d="m 7615,11339 c -540,-71 -707,-106 -1050,-221 -297,-99 -362,-128 -370,-161 -8,-30 8,-63 34,-72 11,-3 37,1 58,10 178,76 555,196 748,239 140,31 606,96 688,96 61,0 96,50 64,94 -16,22 -77,28 -172,15 z"
       id="path5"
       inkscape:connector-curvature="0" />
    <path
       d="m 3365,11224 c -267,-28 -488,-64 -655,-105 -224,-55 -656,-193 -706,-226 -33,-21 -40,-57 -19,-89 23,-36 45,-31 300,55 311,106 572,172 816,205 157,22 493,56 550,56 83,0 127,62 79,110 -26,26 -77,25 -365,-6 z"
       id="path7"
       inkscape:connector-curvature="0" />
    <path
       d="m 13008,10215 c -16,-35 2,-70 49,-93 21,-11 124,-56 228,-99 406,-170 552,-216 934,-293 276,-55 312,-59 340,-31 47,47 14,88 -80,101 -99,14 -408,77 -521,106 -207,52 -465,147 -762,280 -135,61 -171,67 -188,29 z"
       id="path9"
       inkscape:connector-curvature="0" />
    <path
       d="m 9825,7566 c -38,-28 -28,-61 125,-426 119,-284 223,-472 420,-764 141,-208 182,-256 219,-256 15,0 32,5 39,12 18,18 15,62 -7,89 -41,53 -191,271 -257,374 -154,240 -238,410 -380,767 -42,106 -83,199 -92,206 -21,16 -44,15 -67,-2 z"
       id="path11"
       inkscape:connector-curvature="0" />
  </g>
  <g
     id="layer103"
     transform="matrix(0.01140573,0,0,0.01140573,-0.40849162,-15.00484)"
     style="fill:#f45900;stroke:none">
    <path
       d="m 9980,12557 c -3,-2 -59,-7 -125,-11 -249,-13 -793,-73 -983,-108 -49,-9 -83,-9 -146,0 -144,21 -442,10 -662,-24 -107,-17 -127,-16 -419,31 -126,20 -360,44 -490,50 -60,3 -139,8 -175,10 -36,3 -270,7 -520,9 -497,5 -675,-3 -1095,-49 -16,-2 -68,-6 -115,-10 -503,-40 -725,-131 -897,-370 -107,-147 -167,-297 -174,-435 l -4,-65 101,-5 c 91,-5 105,-8 143,-34 51,-36 73,-66 94,-130 40,-117 31,-239 -25,-353 -34,-70 -67,-92 -173,-113 -33,-7 -65,-17 -72,-22 -28,-23 128,-270 242,-384 52,-52 93,-81 155,-112 46,-23 90,-42 98,-42 23,0 10,-17 -58,-71 -205,-163 -557,-511 -735,-728 -33,-40 -77,-93 -97,-117 -21,-25 -43,-55 -50,-67 -6,-12 -32,-49 -57,-82 -26,-33 -60,-82 -76,-108 -17,-27 -49,-71 -72,-97 -23,-27 -44,-58 -48,-69 -12,-39 14,-128 46,-161 l 31,-30 h 276 c 152,0 320,5 372,10 52,6 120,13 150,15 30,3 138,12 240,20 192,17 379,38 465,55 28,5 111,19 185,31 74,11 187,32 250,46 63,14 153,33 200,43 47,11 130,31 185,46 55,15 115,29 133,32 28,4 32,1 32,-19 0,-22 16,-73 65,-207 15,-43 71,-154 125,-249 26,-47 134,-200 150,-213 3,-3 33,-39 67,-80 202,-250 472,-435 768,-527 122,-38 223,-64 305,-78 33,-6 56,-12 193,-49 28,-8 104,-24 167,-36 148,-29 352,-24 470,9 90,27 231,94 321,154 l 65,44 60,-22 c 92,-35 167,-55 236,-63 75,-9 267,3 282,18 7,7 3,32 -12,78 -28,86 -28,120 0,178 52,112 236,184 393,155 69,-13 84,-26 134,-112 20,-34 41,-64 47,-66 17,-6 68,41 143,131 159,192 189,261 192,443 1,79 2,83 23,78 146,-32 381,-23 518,19 48,15 90,31 93,37 4,5 12,9 19,9 12,0 42,16 124,65 124,74 289,225 328,300 37,71 76,140 89,155 33,40 135,289 135,330 0,8 5,31 10,51 l 10,36 58,-12 c 32,-6 92,-13 133,-14 75,-2 222,21 243,38 6,5 26,12 44,16 17,3 32,10 32,15 0,4 10,10 23,13 29,8 149,88 199,135 57,52 135,155 130,170 -2,7 -28,24 -57,37 -79,38 -102,60 -125,123 -19,51 -20,63 -10,117 25,126 106,242 203,289 l 52,25 88,-22 c 76,-18 89,-19 97,-7 5,8 7,60 5,115 -15,289 -50,384 -204,547 -109,115 -180,169 -307,230 l -91,44 76,49 c 42,27 81,53 86,57 21,17 83,64 109,83 16,11 33,25 40,30 6,6 49,42 96,80 46,39 92,78 102,87 9,9 30,24 47,32 67,35 90,118 54,193 -18,39 -29,44 -158,78 -49,13 -123,33 -164,45 -70,20 -183,44 -426,89 -60,12 -123,23 -140,26 -190,36 -600,91 -754,100 -57,4 -113,9 -125,12 -27,6 -999,17 -1006,10 z m -3132,-733 c 68,-24 84,-26 152,-18 144,16 161,12 346,-64 265,-109 248,-106 534,-99 135,4 295,10 355,13 123,8 146,1 203,-56 63,-63 94,-246 58,-346 -46,-132 -57,-139 -256,-184 -490,-112 -676,-220 -835,-484 -81,-135 -118,-183 -194,-249 -85,-74 -151,-102 -241,-103 -73,0 -77,-1 -138,-46 -34,-26 -88,-56 -119,-68 -108,-40 -248,-21 -346,47 -36,25 -49,28 -121,28 -73,0 -87,3 -144,34 -35,19 -83,57 -107,84 -50,55 -120,186 -129,244 -6,34 -13,41 -59,63 -45,22 -56,33 -82,85 -24,49 -29,71 -29,130 0,71 26,169 65,247 17,33 17,40 4,72 -31,73 -13,176 46,268 37,57 135,142 203,176 31,16 52,36 68,64 26,47 61,71 157,106 36,13 84,31 106,39 22,9 93,19 158,23 65,5 121,11 124,14 17,17 149,5 221,-20 z"
       id="path14"
       inkscape:connector-curvature="0" />
  </g>
  <g
     id="layer104"
     transform="matrix(0.01140573,0,0,0.01140573,-0.40849162,-15.00484)"
     style="fill:#d75500;stroke:none">
    <path
       d="m 10096,12553 c -3,-3 -51,-6 -108,-7 -57,0 -109,-5 -117,-10 -10,-7 -12,-6 -6,4 8,13 7,13 -44,-8 -10,-4 -12,-1 -6,8 5,8 4,11 -2,7 -10,-6 -87,-15 -193,-23 -67,-4 -132,-11 -185,-19 -22,-3 -77,-8 -123,-12 -45,-3 -85,-9 -87,-13 -3,-4 -20,-6 -40,-3 -19,2 -35,0 -35,-5 0,-8 -18,-9 -122,-12 -27,-1 -48,-5 -48,-11 0,-5 -16,-7 -35,-4 -19,2 -35,0 -35,-5 0,-6 -10,-10 -22,-9 -40,1 -63,-6 -75,-21 -6,-8 -15,-12 -19,-7 -4,4 -2,7 4,7 7,0 12,4 12,8 0,13 -165,32 -271,32 -212,0 -509,-32 -566,-61 -39,-20 -59,-25 -33,-9 11,7 9,11 -14,20 -16,6 -36,10 -45,9 -9,-1 -18,0 -21,1 -3,1 -23,3 -45,5 -22,2 -64,8 -94,14 -29,6 -57,9 -61,6 -5,-3 -11,-1 -15,5 -3,5 -12,10 -18,10 -7,0 -6,-4 3,-10 9,-6 10,-10 3,-10 -6,0 -15,5 -18,10 -4,6 -10,8 -14,6 -4,-3 -13,-1 -21,4 -8,5 -22,5 -32,-1 -10,-5 -18,-6 -18,-1 0,4 -8,8 -17,9 -10,1 -40,4 -68,8 -27,4 -76,7 -107,8 -32,1 -58,5 -58,8 0,3 -33,5 -74,5 -41,-1 -72,2 -71,5 2,3 -46,6 -108,7 -62,1 -159,5 -217,8 -138,8 -744,7 -890,-1 -63,-3 -141,-7 -172,-7 -32,0 -58,-4 -58,-7 0,-4 -26,-7 -57,-8 -56,0 -158,-9 -158,-13 0,-2 -20,-4 -45,-5 -25,-2 -45,-4 -45,-5 0,0 -36,-3 -80,-6 -44,-2 -96,-7 -115,-9 -19,-3 -51,-7 -70,-9 -107,-11 -166,-20 -176,-27 -6,-5 -21,-7 -34,-4 -12,2 -28,1 -34,-3 -15,-9 -37,-14 -64,-13 -13,1 -21,-3 -18,-7 3,-5 -5,-8 -17,-7 -12,1 -28,0 -35,-3 -11,-4 -11,-6 0,-13 9,-6 6,-9 -11,-9 -34,0 -94,-22 -107,-39 -6,-8 -16,-11 -22,-7 -6,4 -20,-2 -32,-14 -11,-11 -20,-17 -20,-12 -1,4 -17,-11 -37,-33 -20,-22 -30,-31 -23,-20 8,11 -11,-5 -40,-35 -30,-30 -54,-58 -52,-62 1,-5 -5,-8 -14,-8 -8,0 -12,-4 -9,-10 3,-5 2,-10 -3,-10 -11,0 -75,-99 -75,-116 0,-8 -4,-14 -8,-14 -10,0 -39,-54 -45,-83 -2,-11 -9,-24 -16,-29 -7,-4 -10,-8 -6,-8 4,0 1,-15 -7,-34 -8,-19 -17,-49 -19,-68 -3,-18 -7,-42 -10,-53 -5,-24 -9,-73 -7,-96 1,-13 16,-16 95,-16 51,0 99,-4 106,-8 6,-4 14,-4 17,-1 4,3 1,6 -5,6 -25,0 0,139 43,236 29,66 112,187 157,231 52,50 146,102 234,128 128,40 134,37 134,-65 0,-72 17,-160 81,-431 69,-289 76,-426 28,-547 -22,-55 20,-99 69,-72 86,48 104,277 43,525 -85,339 -103,432 -105,535 l -1,105 55,7 c 197,24 816,76 842,70 9,-2 20,-11 24,-20 4,-10 9,-111 11,-226 2,-131 8,-215 15,-223 19,-23 66,-16 85,14 16,24 18,50 15,247 l -3,219 418,-6 c 425,-6 794,-27 934,-53 23,-4 28,-12 33,-48 4,-23 2,-64 -3,-92 -17,-85 -19,-156 -4,-150 7,3 -3,-16 -23,-42 -58,-78 -113,-159 -116,-171 -3,-13 105,-62 206,-93 66,-20 82,-21 350,-14 154,4 284,10 289,13 5,3 44,6 86,6 h 76 l 2,46 c 8,173 151,393 303,468 66,32 186,70 195,62 2,-3 9,-50 15,-105 6,-54 21,-137 34,-184 114,-409 132,-543 92,-662 -23,-67 -13,-91 37,-86 43,4 65,41 78,128 18,115 6,203 -67,485 -57,224 -66,273 -68,355 l -1,95 310,37 c 171,20 356,40 412,44 l 102,7 11,-27 c 5,-15 13,-109 16,-209 3,-104 10,-187 16,-194 16,-19 45,-16 69,8 21,21 22,26 15,224 l -7,203 118,7 c 234,15 1111,-9 1132,-31 3,-3 5,-74 3,-157 -2,-84 2,-189 8,-235 7,-45 13,-123 14,-173 1,-101 11,-118 59,-105 45,11 53,63 36,219 -14,129 -15,203 -8,359 l 4,78 h 35 c 38,0 318,-40 459,-65 366,-66 478,-89 597,-121 51,-13 95,-24 98,-24 18,0 1,-27 -39,-62 -151,-133 -533,-397 -555,-383 -5,3 -11,20 -14,38 -2,18 -10,70 -16,117 -19,135 -47,178 -100,150 -24,-13 -25,-47 -5,-140 8,-36 15,-83 15,-105 1,-22 7,-58 15,-80 11,-31 12,-42 2,-52 -20,-19 -336,-180 -438,-222 -124,-51 -366,-133 -659,-221 -129,-39 -327,-105 -440,-146 -198,-73 -377,-134 -392,-134 -5,0 -8,28 -8,63 0,65 -10,115 -52,257 -14,47 -42,184 -63,305 -38,227 -48,255 -90,255 -35,0 -48,-24 -42,-78 13,-126 80,-468 108,-557 24,-77 32,-119 32,-182 1,-46 -3,-87 -8,-92 -14,-13 -282,-77 -401,-96 -54,-9 -162,-18 -239,-22 -130,-5 -147,-4 -238,21 -173,46 -230,83 -330,214 -57,75 -87,126 -87,146 0,9 7,29 17,44 10,17 5,14 -16,-11 -18,-20 -38,-37 -44,-35 -14,2 -73,-11 -107,-24 -14,-6 -43,-12 -65,-14 -54,-5 -263,-65 -390,-113 -190,-72 -320,-182 -430,-365 -81,-135 -118,-183 -194,-249 -85,-74 -151,-102 -241,-103 -73,0 -77,-1 -138,-46 -34,-26 -88,-56 -119,-68 -108,-40 -247,-21 -346,47 -35,25 -50,28 -116,28 -42,0 -86,4 -98,8 -32,12 -30,-10 13,-135 67,-196 166,-373 298,-538 38,-47 57,-75 44,-62 l -25,23 -124,-36 c -407,-119 -1042,-267 -1070,-250 -21,14 -39,67 -49,149 -6,48 -21,115 -34,149 -13,34 -42,111 -65,170 -23,59 -46,129 -50,154 -13,69 -52,92 -91,53 -36,-36 -24,-98 56,-296 29,-72 58,-160 64,-195 21,-121 29,-164 36,-186 4,-15 1,-23 -13,-27 -31,-9 -408,-54 -638,-76 -244,-23 -675,-38 -675,-24 0,5 27,47 60,94 33,47 75,106 93,132 38,54 217,264 301,353 l 56,60 20,-25 c 11,-14 22,-38 26,-55 11,-52 93,-204 118,-221 29,-18 61,-11 77,17 8,17 1,40 -39,127 -27,59 -55,122 -63,141 -7,18 -24,47 -38,64 l -26,30 143,138 c 148,142 297,264 434,356 72,48 85,53 134,53 80,0 332,27 461,50 62,11 114,20 117,20 2,0 32,-57 66,-127 242,-496 263,-533 308,-533 26,0 52,26 52,51 0,11 -29,72 -64,135 -35,63 -79,150 -97,192 -19,42 -58,123 -86,180 -29,56 -53,109 -53,117 0,8 12,18 26,21 21,5 31,2 45,-17 28,-36 23,-7 -6,35 -14,20 -24,40 -23,44 1,4 -2,26 -6,48 -6,37 -12,43 -49,58 -23,9 -43,12 -47,7 -8,-14 -296,-68 -430,-82 -163,-16 -312,-14 -390,6 -84,21 -175,52 -225,78 -75,38 -199,184 -270,320 -22,41 -35,43 -98,12 -15,-8 -34,-12 -42,-9 -7,3 -16,0 -20,-6 -4,-6 -15,-8 -24,-5 -29,9 -44,-18 -23,-41 10,-11 17,-25 14,-32 -2,-6 4,-12 13,-12 9,0 15,-6 14,-12 -1,-7 2,-22 6,-33 15,-34 97,-155 106,-155 5,0 9,-6 9,-13 0,-7 9,-19 19,-27 11,-7 17,-18 14,-22 -3,-5 4,-12 16,-15 11,-3 19,-9 16,-13 -3,-5 4,-11 15,-15 11,-4 18,-11 15,-16 -4,-5 0,-9 9,-9 8,0 16,-3 18,-8 7,-16 89,-73 108,-75 11,-1 20,-4 20,-7 0,-7 47,-27 83,-36 l 27,-6 -36,-34 c -19,-19 -40,-34 -45,-34 -6,0 -7,-4 -4,-10 3,-5 0,-7 -8,-4 -9,3 -21,-4 -29,-15 -8,-12 -18,-18 -23,-13 -4,4 -5,-1 -2,-10 4,-12 2,-15 -9,-11 -8,3 -14,-1 -14,-11 0,-9 -7,-16 -15,-16 -7,0 -19,-8 -24,-17 -6,-10 -11,-14 -11,-9 0,15 -50,-36 -50,-51 0,-7 -6,-13 -14,-13 -7,0 -23,-14 -36,-30 -13,-17 -25,-28 -27,-26 -9,9 -62,-47 -56,-58 3,-6 3,-8 -2,-4 -10,10 -37,-11 -29,-23 3,-5 -1,-9 -9,-9 -14,0 -67,-57 -67,-71 0,-4 -9,-11 -20,-14 -11,-3 -20,-12 -20,-18 0,-7 -17,-25 -36,-42 -20,-16 -47,-47 -60,-67 -13,-21 -31,-38 -39,-38 -8,0 -14,-3 -13,-7 1,-5 -14,-24 -33,-44 -18,-19 -50,-55 -69,-79 -19,-24 -48,-58 -65,-74 -16,-16 -23,-26 -15,-22 8,4 6,0 -5,-9 -11,-9 -19,-21 -18,-26 2,-5 -2,-8 -8,-6 -6,1 -16,-7 -22,-18 -7,-11 -16,-23 -22,-27 -5,-4 -6,-8 -2,-8 8,0 -2,-13 -35,-51 -10,-10 -19,-22 -20,-26 -2,-15 -58,-98 -58,-88 0,5 -8,-2 -17,-15 -10,-14 -17,-28 -15,-32 1,-5 -3,-8 -10,-8 -6,0 -9,-3 -5,-6 7,-7 -5,-23 -45,-64 -16,-16 -28,-33 -28,-40 0,-6 -4,-9 -9,-5 -13,8 -35,-63 -24,-78 5,-7 9,-19 8,-27 -1,-19 30,-81 42,-81 4,0 16,-8 27,-17 15,-15 47,-17 225,-19 113,-1 221,2 239,7 23,6 30,5 25,-2 -4,-8 0,-9 13,-3 10,5 49,8 86,7 37,-1 85,4 108,12 22,7 40,10 40,5 0,-5 9,-9 21,-9 11,0 18,4 15,8 -5,9 28,11 167,11 48,0 87,4 87,8 0,4 27,6 60,5 42,-3 68,1 83,11 16,11 28,12 41,5 11,-6 21,-6 30,1 7,6 16,8 19,4 4,-3 14,0 24,8 14,12 16,12 8,0 -6,-10 -4,-12 4,-6 7,4 40,9 73,10 33,2 63,7 67,13 3,5 22,10 41,10 74,3 110,10 127,23 11,9 14,10 9,2 -5,-9 2,-13 24,-13 17,0 29,4 25,9 -3,6 3,10 12,9 48,0 128,14 135,25 6,9 8,9 8,0 0,-7 7,-10 15,-7 8,4 13,9 10,13 -2,4 2,8 10,8 8,0 12,-4 9,-9 -3,-4 0,-8 5,-8 6,0 11,4 11,9 0,6 8,8 19,6 10,-2 31,3 46,11 32,16 47,18 25,3 -11,-8 -9,-9 10,-3 14,4 27,10 30,13 3,4 16,7 30,8 56,5 105,16 111,26 4,5 14,7 23,4 8,-3 18,-2 22,4 3,6 11,8 18,6 7,-3 28,2 47,11 18,8 48,16 65,17 17,1 38,6 45,11 8,5 25,9 39,10 40,3 53,8 70,26 8,9 29,20 45,23 28,5 27,4 -5,-8 -32,-13 -35,-17 -32,-48 3,-31 24,-99 67,-217 15,-44 71,-153 127,-252 53,-94 254,-343 356,-441 225,-218 483,-352 822,-430 52,-12 167,-39 255,-60 283,-68 314,-72 469,-66 206,7 345,54 528,177 73,49 101,59 113,40 4,-6 10,-8 15,-5 5,3 15,-1 23,-9 13,-13 92,-39 157,-52 45,-8 260,-11 301,-4 48,9 54,14 43,37 -4,10 -9,25 -10,33 -1,8 -9,28 -17,44 -9,17 -14,41 -10,58 6,31 2,33 -28,18 -10,-6 -62,-11 -114,-11 -108,0 -213,25 -310,74 -75,38 -169,132 -213,215 -31,57 -32,63 -15,69 137,49 197,79 473,237 183,105 240,126 365,134 l 100,7 3,32 c 5,46 -30,66 -109,64 -142,-3 -210,-31 -544,-223 -175,-100 -338,-170 -354,-152 -4,5 -28,61 -54,124 -25,63 -52,132 -61,153 -15,35 -15,38 1,44 117,41 294,151 401,248 34,31 85,92 113,135 l 51,78 78,-63 c 111,-89 181,-135 295,-192 137,-69 235,-102 474,-159 l 204,-48 -7,-103 c -8,-127 -23,-176 -76,-255 -58,-85 -148,-188 -166,-188 -16,0 -19,-16 -4,-25 5,-3 26,-35 46,-70 39,-70 52,-84 64,-65 4,6 11,12 16,13 11,1 38,27 28,27 -4,0 6,10 22,22 16,12 31,25 34,29 40,52 69,86 85,102 11,11 14,17 5,13 -9,-5 -8,-2 3,7 9,8 17,19 17,26 0,6 5,11 11,11 5,0 7,5 4,10 -3,6 1,13 9,16 9,3 13,10 10,15 -3,5 0,9 7,9 7,0 9,3 6,6 -4,4 2,19 13,34 11,15 17,30 13,33 -3,4 2,18 12,33 9,14 15,35 12,45 -3,10 -2,21 2,24 5,2 8,42 9,89 1,71 -1,87 -16,95 -9,6 -12,11 -6,11 5,0 15,-5 22,-12 23,-23 190,-37 332,-28 207,14 314,55 544,209 77,51 210,193 245,261 19,36 46,83 60,105 62,93 138,280 155,382 7,38 35,92 36,67 0,-11 82,-24 173,-29 65,-2 167,12 185,28 13,9 14,9 8,0 -4,-7 -2,-13 3,-13 6,0 11,5 11,11 0,5 5,7 11,4 5,-4 19,1 29,10 10,9 24,18 32,19 36,8 118,45 118,55 0,4 18,15 39,24 22,10 46,29 55,42 9,14 22,25 28,25 17,0 118,112 122,134 3,21 17,36 28,30 6,-4 6,1 -1,14 -6,11 -21,24 -33,27 -13,4 -45,21 -72,37 l -48,29 -16,-23 c -31,-44 -117,-131 -155,-155 -173,-110 -305,-136 -472,-93 -43,11 -81,22 -83,25 -3,3 10,38 30,78 20,39 48,113 63,162 65,220 75,253 89,310 41,159 92,260 171,334 47,44 54,65 32,96 -25,33 -79,13 -136,-52 -67,-75 -114,-167 -151,-298 -17,-61 -42,-146 -55,-190 -13,-44 -33,-114 -45,-155 -29,-99 -95,-240 -113,-240 -15,0 -547,231 -677,294 -67,32 -75,39 -72,61 4,27 123,268 146,294 32,38 38,61 21,87 -23,36 -57,31 -97,-15 -18,-22 -41,-54 -50,-73 -9,-18 -40,-80 -68,-138 -29,-58 -56,-109 -60,-114 -5,-5 -72,26 -152,70 -79,43 -157,85 -174,94 l -30,16 25,38 c 14,21 46,86 72,145 45,104 47,106 77,103 33,-4 45,6 70,57 17,34 22,36 207,91 105,31 267,82 360,113 94,31 175,57 182,57 14,0 11,-10 -61,-202 -31,-81 -56,-155 -56,-163 0,-47 51,-73 82,-42 7,8 51,116 98,242 69,185 89,229 108,236 41,16 306,151 385,196 l 78,45 62,-22 c 127,-46 281,-128 349,-187 80,-69 152,-151 179,-204 35,-70 68,-314 49,-364 -5,-14 -6,-24 -2,-21 5,3 42,-4 83,-14 108,-28 110,-28 109,23 0,23 0,49 1,57 1,25 -9,154 -14,175 -2,11 -8,47 -12,80 -4,33 -12,66 -18,73 -6,8 -13,23 -14,35 -2,12 -9,25 -16,29 -6,4 -8,8 -4,8 9,0 -41,74 -72,108 -12,12 -19,22 -15,22 4,0 -18,24 -48,53 -80,75 -128,118 -128,113 0,-3 -14,8 -32,24 -17,16 -34,28 -36,25 -2,-2 -11,3 -19,11 -8,8 -19,12 -24,9 -5,-4 -9,-2 -9,3 0,9 -46,35 -65,37 -5,1 -21,7 -35,15 -14,8 -28,13 -32,12 -3,-1 -9,5 -12,13 -3,8 -2,14 2,13 18,-4 63,23 56,34 -4,7 -3,8 4,4 7,-4 12,-2 12,5 0,7 3,10 6,6 3,-3 28,10 55,29 27,19 51,34 54,34 13,0 43,35 38,43 -4,6 1,8 11,4 13,-5 19,-1 23,13 3,11 14,20 24,20 10,0 26,11 35,25 9,14 20,23 24,20 5,-3 20,9 35,27 15,18 23,26 19,18 -4,-8 13,3 39,24 26,21 44,42 41,47 -3,5 0,9 6,9 7,0 31,15 53,33 23,17 45,32 49,32 4,0 8,5 9,10 0,6 7,18 16,27 8,10 13,24 10,31 -3,8 0,20 6,26 8,8 8,11 -1,11 -7,0 -12,5 -12,11 0,5 4,8 9,5 4,-3 6,6 3,20 -6,32 -55,84 -81,85 -21,2 -39,5 -43,9 -2,1 -10,3 -18,5 -8,2 -26,7 -40,10 -14,4 -34,7 -45,6 -10,0 -25,5 -32,11 -7,6 -13,7 -13,2 0,-5 -4,-4 -8,2 -4,6 -18,15 -31,19 -18,5 -22,4 -16,-6 5,-8 -1,-5 -13,5 -12,11 -22,16 -22,12 0,-4 -8,-2 -18,3 -11,6 -39,13 -63,16 -58,8 -71,11 -90,19 -9,4 -20,6 -25,5 -5,-1 -11,0 -14,1 -6,2 -52,9 -91,14 -14,1 -31,6 -37,10 -7,4 -12,4 -12,0 0,-3 -6,-2 -13,4 -7,6 -46,14 -86,17 -40,3 -81,10 -91,15 -9,5 -20,7 -23,3 -3,-3 -14,-2 -24,2 -32,14 -35,14 -160,29 -13,1 -26,5 -29,9 -4,4 -18,4 -31,1 -13,-4 -29,-1 -36,4 -7,6 -22,11 -32,12 -94,2 -142,6 -153,13 -7,5 -21,5 -32,2 -12,-4 -20,-2 -20,6 0,8 -5,8 -17,-2 -9,-8 -14,-9 -10,-3 5,8 -7,12 -36,13 -23,1 -58,3 -77,5 -19,2 -70,7 -114,10 -43,4 -82,9 -87,12 -5,3 -9,0 -9,-6 0,-6 -5,-8 -11,-4 -6,4 -61,8 -123,11 -185,7 -735,11 -740,6 z m -1581,-271 c -6,-5 -37,-33 -71,-63 l -61,-54 64,63 c 35,34 66,62 70,62 4,0 3,-4 -2,-8 z m -835,-69 c -30,-32 -56,-60 -58,-63 -2,-3 -2,15 0,40 3,44 4,45 34,42 20,-2 36,4 49,18 10,11 20,20 23,20 3,0 -19,-26 -48,-57 z m 598,-228 c -12,-24 -23,-43 -26,-41 -4,5 36,86 43,86 3,0 -5,-20 -17,-45 z m 63,-1050 10,-20 -16,20 c -9,11 -21,29 -26,40 l -10,20 16,-20 c 9,-11 21,-29 26,-40 z m 144,-185 c 27,-27 47,-50 44,-50 -3,0 -27,23 -54,50 -27,28 -47,50 -44,50 3,0 27,-22 54,-50 z m 783,-187 c -10,-2 -26,-2 -35,0 -10,3 -2,5 17,5 19,0 27,-2 18,-5 z m -300,-10 c -10,-2 -26,-2 -35,0 -10,3 -2,5 17,5 19,0 27,-2 18,-5 z m 200,0 c -16,-2 -40,-2 -55,0 -16,2 -3,4 27,4 30,0 43,-2 28,-4 z m 1452,-369 c 0,-2 -13,2 -30,11 -16,9 -30,18 -30,21 0,2 14,-2 30,-11 17,-9 30,-18 30,-21 z m -4044,-786 29,-33 -32,29 c -31,28 -38,36 -30,36 2,0 16,-15 33,-32 z m -51,-88 c -11,-5 -27,-9 -35,-9 -9,0 -8,4 5,9 11,5 27,9 35,9 9,0 8,-4 -5,-9 z m -235,-70 c -34,-11 -60,-11 -35,0 11,5 29,8 40,8 16,0 15,-2 -5,-8 z M 8770,7957 c 24,-17 24,-17 -7,0 -18,9 -63,49 -100,87 l -68,70 75,-70 c 41,-38 86,-77 100,-87 z"
       id="path17"
       inkscape:connector-curvature="0" />
    <path
       d="m 10302,12028 c -17,-17 -15,-31 12,-144 14,-54 34,-157 45,-229 12,-71 29,-160 38,-196 13,-54 14,-80 6,-138 -10,-80 -1,-114 32,-119 71,-10 96,137 56,318 -11,47 -27,132 -36,190 -18,115 -57,277 -75,309 -12,24 -58,29 -78,9 z"
       id="path19"
       inkscape:connector-curvature="0" />
    <path
       d="m 6520,11934 c -8,-8 -14,-34 -14,-57 -1,-40 0,-42 31,-44 18,-2 35,2 38,7 3,6 17,7 30,4 24,-6 43,10 25,21 -5,3 -10,15 -10,26 0,46 -72,77 -100,43 z"
       id="path21"
       inkscape:connector-curvature="0" />
    <path
       d="m 5756,11634 c -20,-19 -20,-54 -2,-167 9,-55 11,-98 6,-117 -12,-44 -6,-37 23,23 15,29 43,72 62,95 20,23 32,42 27,42 -5,0 -12,23 -16,50 -10,77 -61,114 -100,74 z"
       id="path23"
       inkscape:connector-curvature="0" />
  </g>
  <g
     id="layer105"
     transform="matrix(0.01140573,0,0,0.01140573,-0.40849162,-15.00484)"
     style="fill:#fea808;stroke:none">
    <path
       d="m 8285,12439 c -173,-14 -272,-29 -312,-50 -20,-10 -42,-19 -48,-19 -6,0 -42,-15 -80,-33 -105,-51 -173,-120 -292,-297 -57,-85 -127,-186 -154,-224 -27,-39 -46,-73 -42,-76 12,-11 183,-77 233,-90 33,-9 117,-11 315,-6 148,4 273,10 276,14 4,4 12,45 19,91 16,112 49,208 107,304 102,169 227,270 406,328 53,17 97,34 97,38 0,14 -177,31 -296,30 -66,-1 -168,-6 -229,-10 z"
       id="path26"
       inkscape:connector-curvature="0" />
    <path
       d="m 8130,11044 c -415,-108 -576,-210 -725,-458 -81,-135 -118,-183 -194,-249 -85,-74 -151,-102 -241,-103 -73,0 -77,-1 -138,-46 -34,-26 -88,-56 -119,-68 -108,-40 -247,-21 -346,47 -35,25 -50,28 -116,28 -42,0 -86,4 -98,8 -32,12 -30,-10 11,-130 87,-248 196,-429 400,-662 40,-46 53,-67 44,-72 -7,-4 -92,-31 -188,-59 -335,-100 -315,-92 -312,-131 3,-31 24,-99 67,-217 15,-44 71,-153 127,-252 53,-94 254,-343 356,-441 225,-218 483,-352 822,-430 52,-12 167,-39 255,-60 283,-68 314,-72 469,-66 162,6 244,25 373,88 90,44 233,136 233,150 0,5 -15,16 -32,25 -47,25 -154,130 -200,197 -22,32 -61,102 -88,155 -51,102 -180,417 -180,439 0,7 10,13 23,13 36,0 163,38 235,70 86,40 241,143 320,215 34,31 85,92 113,135 l 51,78 78,-63 c 111,-90 181,-135 295,-192 147,-74 219,-97 540,-174 160,-38 304,-76 320,-84 85,-39 395,-37 520,4 120,39 200,80 349,180 77,51 210,193 245,261 19,36 46,83 60,105 63,94 125,245 156,380 15,65 15,70 -2,82 -9,7 -22,13 -29,13 -24,0 -458,185 -766,325 -139,64 -558,284 -597,314 -20,16 -19,18 41,116 73,120 76,125 127,243 41,93 49,122 32,122 -5,0 -53,-16 -107,-36 -231,-85 -428,-147 -617,-194 -305,-77 -419,-94 -632,-94 -176,-1 -183,0 -290,32 -185,56 -270,112 -368,246 -75,100 -91,124 -122,184 -16,31 -34,52 -44,52 -9,-1 -59,-12 -111,-26 z"
       id="path28"
       inkscape:connector-curvature="0" />
  </g>
  <g
     id="layer106"
     transform="matrix(0.01140573,0,0,0.01140573,-0.40849162,-15.00484)"
     style="fill:#e49401;stroke:none">
    <path
       d="m 8335,12440 c -44,-4 -120,-10 -170,-14 -84,-6 -167,-25 -207,-47 -10,-5 -24,-9 -31,-9 -7,0 -44,-15 -82,-33 -102,-49 -175,-122 -271,-267 -45,-69 -106,-158 -136,-199 -31,-40 -63,-86 -72,-102 l -17,-28 38,-16 c 60,-25 83,-29 83,-13 0,7 23,45 51,83 29,39 85,121 126,184 130,198 196,253 351,291 124,30 543,68 550,49 2,-4 24,3 50,17 25,14 83,36 129,50 46,14 83,30 83,35 0,6 -3,8 -7,6 -5,-3 -39,1 -78,9 -74,14 -257,16 -390,4 z"
       id="path31"
       inkscape:connector-curvature="0" />
    <path
       d="m 8415,12208 -40,-43 43,40 c 23,21 42,40 42,42 0,8 -9,0 -45,-39 z"
       id="path33"
       inkscape:connector-curvature="0" />
    <path
       d="m 8358,12143 c -18,-21 -31,-43 -25,-43 2,0 13,14 25,30 25,33 24,41 0,13 z"
       id="path35"
       inkscape:connector-curvature="0" />
    <path
       d="m 7701,10891 c -25,-17 -48,-36 -52,-43 -10,-18 129,-186 247,-298 122,-115 335,-262 423,-291 10,-4 10,-10 0,-31 -17,-38 9,-78 51,-78 28,0 60,22 60,41 0,14 26,11 114,-15 91,-27 536,-136 557,-136 29,0 39,-19 48,-88 23,-182 -53,-430 -206,-672 -131,-207 -395,-382 -630,-419 -97,-15 -164,-14 -286,4 -126,19 -609,135 -732,176 -254,84 -490,253 -686,490 -162,194 -269,376 -333,563 l -31,90 -55,12 c -30,7 -56,13 -57,14 -18,2 41,-179 96,-304 69,-152 184,-322 336,-496 l 56,-65 -28,-13 -28,-12 32,6 c 30,5 40,-1 106,-61 114,-103 241,-190 372,-254 134,-66 227,-98 390,-136 61,-14 172,-41 247,-60 197,-50 354,-75 476,-75 h 107 l 17,-38 c 10,-20 15,-28 12,-17 -18,57 -17,65 8,65 37,0 163,38 236,70 86,40 241,143 320,215 34,31 85,92 113,135 l 51,78 78,-63 c 111,-90 181,-135 295,-192 147,-74 219,-97 540,-174 160,-38 301,-75 315,-83 70,-37 380,-37 510,0 157,46 347,158 477,281 76,71 102,106 143,188 14,28 37,66 51,85 24,33 92,176 119,250 14,41 42,156 44,184 1,15 -12,24 -59,41 l -60,20 -2,-35 c -10,-167 -187,-516 -330,-652 -106,-100 -270,-198 -403,-240 -65,-20 -95,-23 -225,-23 -160,0 -205,7 -455,69 -74,19 -185,46 -247,60 -225,52 -412,135 -570,253 -93,68 -153,122 -153,135 0,4 21,54 46,109 72,162 98,270 98,422 l 1,128 80,-7 c 218,-18 442,58 665,224 73,55 193,170 197,190 1,6 28,52 59,104 69,113 72,119 123,236 41,92 49,122 33,122 -12,0 -156,-51 -162,-57 -3,-3 5,-2 18,1 12,4 22,5 22,3 0,-3 -19,-45 -42,-94 -47,-98 -149,-259 -200,-315 -85,-93 -263,-207 -403,-259 -88,-32 -93,-33 -255,-33 -172,-1 -219,6 -428,60 -52,13 -154,38 -227,54 -185,43 -271,72 -410,139 -141,69 -285,174 -402,293 -105,106 -193,217 -186,235 7,18 4,17 -46,-16 z"
       id="path37"
       inkscape:connector-curvature="0" />
    <path
       d="m 8394,10837 c 16,-20 30,-37 33,-37 7,0 -36,58 -49,66 -7,4 1,-9 16,-29 z"
       id="path39"
       inkscape:connector-curvature="0" />
    <path
       d="m 8205,10804 c -25,-25 -16,-75 17,-93 25,-14 29,-14 55,5 15,12 29,31 31,43 8,50 -66,82 -103,45 z"
       id="path41"
       inkscape:connector-curvature="0" />
    <path
       d="m 8470,10748 c 41,-45 50,-53 50,-45 0,2 -21,23 -47,47 l -48,45 z"
       id="path43"
       inkscape:connector-curvature="0" />
    <path
       d="m 7503,10710 c 1,-4 -9,-17 -23,-29 -14,-13 -19,-20 -12,-16 8,4 12,-1 12,-14 0,-51 79,-81 113,-43 22,24 21,44 0,71 -17,21 -95,47 -90,31 z"
       id="path45"
       inkscape:connector-curvature="0" />
    <path
       d="m 9203,10553 c 9,-2 25,-2 35,0 9,3 1,5 -18,5 -19,0 -27,-2 -17,-5 z"
       id="path47"
       inkscape:connector-curvature="0" />
    <path
       d="m 8998,10543 c 28,-2 76,-2 105,0 28,2 5,3 -53,3 -58,0 -81,-1 -52,-3 z"
       id="path49"
       inkscape:connector-curvature="0" />
    <path
       d="m 10360,10316 c 0,-3 14,-12 30,-21 17,-9 30,-13 30,-11 0,3 -13,12 -30,21 -16,9 -30,13 -30,11 z"
       id="path51"
       inkscape:connector-curvature="0" />
    <path
       d="m 10510,10236 c 0,-3 14,-12 30,-21 17,-9 30,-13 30,-11 0,3 -13,12 -30,21 -16,9 -30,13 -30,11 z"
       id="path53"
       inkscape:connector-curvature="0" />
    <path
       d="m 7513,10119 c -43,-16 -55,-67 -23,-99 43,-43 110,-14 110,47 0,44 -41,69 -87,52 z"
       id="path55"
       inkscape:connector-curvature="0" />
    <path
       d="m 9850,10080 c -11,-11 -20,-29 -20,-40 0,-24 42,-70 63,-70 28,0 67,41 67,69 0,56 -70,81 -110,41 z"
       id="path57"
       inkscape:connector-curvature="0" />
    <path
       d="m 8502,9620 c -12,-12 -22,-30 -22,-41 0,-24 42,-69 65,-69 25,0 55,38 55,69 0,57 -56,80 -98,41 z"
       id="path59"
       inkscape:connector-curvature="0" />
    <path
       d="m 10890,9613 c -28,-11 -50,-36 -50,-60 0,-30 33,-63 63,-63 54,0 79,84 35,114 -24,17 -25,17 -48,9 z"
       id="path61"
       inkscape:connector-curvature="0" />
    <path
       d="m 7001,9543 c -29,-23 -31,-71 -5,-90 57,-42 133,25 92,80 -21,26 -61,31 -87,10 z"
       id="path63"
       inkscape:connector-curvature="0" />
    <path
       d="m 9358,9518 c -30,-24 -31,-56 -4,-83 31,-31 50,-32 81,0 29,28 31,42 9,73 -17,25 -61,30 -86,10 z"
       id="path65"
       inkscape:connector-curvature="0" />
    <path
       d="m 7938,9449 c -22,-13 -24,-62 -2,-83 18,-19 75,-21 92,-4 17,17 15,64 -4,82 -17,18 -60,20 -86,5 z"
       id="path67"
       inkscape:connector-curvature="0" />
    <path
       d="m 10296,9421 c -25,-28 -17,-72 17,-91 24,-13 30,-13 55,0 37,21 43,71 10,94 -30,21 -61,20 -82,-3 z"
       id="path69"
       inkscape:connector-curvature="0" />
    <path
       d="m 6440,9285 c -19,-7 -28,-13 -20,-13 8,0 31,6 50,13 19,7 28,13 20,13 -8,0 -31,-6 -50,-13 z"
       id="path71"
       inkscape:connector-curvature="0" />
    <path
       d="m 6170,9206 c -58,-20 -65,-25 -62,-47 4,-30 40,-154 58,-196 8,-17 14,-34 14,-39 0,-14 63,-138 107,-211 23,-40 43,-77 43,-82 0,-6 6,-14 13,-18 7,-4 21,-21 31,-38 39,-61 183,-233 266,-316 105,-107 163,-151 345,-265 118,-73 374,-163 584,-205 30,-6 88,-19 130,-30 228,-60 345,-77 493,-75 115,2 159,7 221,25 77,22 248,102 311,145 48,32 86,63 86,70 0,3 -15,13 -32,22 -18,9 -64,47 -103,83 -53,50 -58,53 -20,13 57,-60 62,-51 -70,-127 -153,-87 -311,-121 -490,-105 -112,10 -180,24 -512,104 -265,64 -338,88 -478,157 -378,186 -776,681 -870,1082 -13,57 -13,58 8,67 44,18 -10,7 -73,-14 z"
       id="path73"
       inkscape:connector-curvature="0" />
    <path
       d="m 6992,8494 c -44,-31 -16,-104 40,-104 10,0 27,9 38,20 55,55 -14,129 -78,84 z"
       id="path75"
       inkscape:connector-curvature="0" />
    <path
       d="m 7932,8404 c -45,-32 -16,-104 43,-104 55,0 78,67 35,102 -27,22 -49,23 -78,2 z"
       id="path77"
       inkscape:connector-curvature="0" />
    <path
       d="m 8441,8385 c 0,-5 8,-26 19,-45 11,-19 19,-30 19,-25 0,6 -8,26 -19,45 -11,19 -19,31 -19,25 z"
       id="path79"
       inkscape:connector-curvature="0" />
    <path
       d="m 8510,8240 c 11,-22 23,-40 25,-40 3,0 -4,18 -15,40 -11,22 -23,40 -25,40 -3,0 4,-18 15,-40 z"
       id="path81"
       inkscape:connector-curvature="0" />
  </g>
</svg>
