<?xml version="1.0" encoding="UTF-8" standalone="no"?>
<svg
   xmlns:dc="http://purl.org/dc/elements/1.1/"
   xmlns:cc="http://creativecommons.org/ns#"
   xmlns:rdf="http://www.w3.org/1999/02/22-rdf-syntax-ns#"
   xmlns:svg="http://www.w3.org/2000/svg"
   xmlns="http://www.w3.org/2000/svg"
   xmlns:sodipodi="http://sodipodi.sourceforge.net/DTD/sodipodi-0.dtd"
   xmlns:inkscape="http://www.inkscape.org/namespaces/inkscape"
   version="1.0"
   width="672.67291"
   height="1182.8574"
   viewBox="0 0 5255.2571 9241.0736"
   preserveAspectRatio="xMidYMid meet"
   id="svg8"
   sodipodi:docname="water_drop.svg"
   inkscape:version="0.92.4 (5da689c313, 2019-01-14)">
  <metadata
     id="metadata14">
    <rdf:RDF>
      <cc:Work
         rdf:about="">
        <dc:format>image/svg+xml</dc:format>
        <dc:type
           rdf:resource="http://purl.org/dc/dcmitype/StillImage" />
        <dc:title></dc:title>
      </cc:Work>
    </rdf:RDF>
  </metadata>
  <defs
     id="defs12" />
  <sodipodi:namedview
     pagecolor="#ffffff"
     bordercolor="#666666"
     borderopacity="1"
     objecttolerance="10"
     gridtolerance="10"
     guidetolerance="10"
     inkscape:pageopacity="0"
     inkscape:pageshadow="2"
     inkscape:window-width="3696"
     inkscape:window-height="2115"
     id="namedview10"
     showgrid="false"
     fit-margin-top="0"
     fit-margin-left="0"
     fit-margin-right="0"
     fit-margin-bottom="0"
     inkscape:zoom="0.11523438"
     inkscape:cx="359.62707"
     inkscape:cy="618.91518"
     inkscape:window-x="131"
     inkscape:window-y="2147"
     inkscape:window-maximized="1"
     inkscape:current-layer="svg8" />
  <g
     id="layer101"
     style="fill:#0099ff;stroke:none"
     transform="translate(-5190.4135,-3594.2016)">
    <path
       d="m 7940,12826 c -210,-18 -382,-47 -630,-107 -164,-40 -399,-116 -565,-184 -462,-188 -801,-436 -1049,-765 -147,-195 -256,-392 -345,-620 -19,-47 -37,-94 -42,-105 -8,-20 -35,-112 -63,-215 -52,-194 -71,-517 -42,-740 85,-651 337,-1310 770,-2010 62,-102 90,-146 126,-200 6,-8 25,-37 43,-65 99,-150 349,-499 377,-525 3,-3 13,-17 22,-31 9,-14 46,-59 83,-100 36,-41 69,-79 74,-84 115,-152 266,-369 302,-435 11,-19 29,-51 40,-70 57,-97 237,-406 258,-443 13,-23 30,-53 39,-67 39,-61 181,-340 259,-510 105,-227 165,-400 208,-600 9,-41 23,-102 31,-135 74,-310 103,-765 70,-1064 -16,-140 -12,-186 12,-139 38,79 79,208 137,438 15,60 71,267 85,315 4,17 29,89 55,160 26,72 50,144 55,160 4,17 27,86 50,155 63,190 111,342 154,488 57,193 165,517 196,587 5,11 21,52 35,90 15,39 33,84 40,100 7,17 43,102 80,190 144,342 282,634 423,895 49,91 106,197 127,235 20,39 77,142 125,230 226,413 486,936 592,1190 220,530 331,999 368,1559 17,249 -4,477 -66,733 -172,713 -503,1147 -1109,1453 -377,190 -857,275 -1325,236 z"
       id="path2"
       inkscape:connector-curvature="0" />
  </g>
  <g
     id="layer102"
     style="fill:#64c1ff;stroke:none"
     transform="translate(-5190.4135,-3594.2016)">
    <path
       d="m 8140,12415 c -191,-26 -412,-100 -585,-195 -94,-52 -120,-80 -120,-132 0,-33 6,-45 34,-70 28,-25 39,-29 70,-24 151,23 197,26 281,21 256,-16 488,-78 713,-192 741,-377 1212,-1192 1172,-2030 l -7,-142 30,-31 c 24,-24 39,-30 72,-30 53,0 101,23 122,58 37,63 78,418 78,682 -1,452 -88,843 -266,1190 -222,434 -567,735 -981,855 -178,52 -413,67 -613,40 z"
       id="path5"
       inkscape:connector-curvature="0" />
  </g>
</svg>
