<?xml version="1.0" encoding="UTF-8" standalone="no"?>
<svg
   xmlns:dc="http://purl.org/dc/elements/1.1/"
   xmlns:cc="http://creativecommons.org/ns#"
   xmlns:rdf="http://www.w3.org/1999/02/22-rdf-syntax-ns#"
   xmlns:svg="http://www.w3.org/2000/svg"
   xmlns="http://www.w3.org/2000/svg"
   xmlns:sodipodi="http://sodipodi.sourceforge.net/DTD/sodipodi-0.dtd"
   xmlns:inkscape="http://www.inkscape.org/namespaces/inkscape"
   version="1.0"
   width="24"
   height="24"
   viewBox="0 0 187.5 187.5"
   preserveAspectRatio="xMidYMid meet"
   id="svg14"
   sodipodi:docname="water_cycle.svg"
   inkscape:version="0.92.4 (5da689c313, 2019-01-14)">
  <metadata
     id="metadata20">
    <rdf:RDF>
      <cc:Work
         rdf:about="">
        <dc:format>image/svg+xml</dc:format>
        <dc:type
           rdf:resource="http://purl.org/dc/dcmitype/StillImage" />
        <dc:title></dc:title>
      </cc:Work>
    </rdf:RDF>
  </metadata>
  <defs
     id="defs18" />
  <sodipodi:namedview
     pagecolor="#ffffff"
     bordercolor="#666666"
     borderopacity="1"
     objecttolerance="10"
     gridtolerance="10"
     guidetolerance="10"
     inkscape:pageopacity="0"
     inkscape:pageshadow="2"
     inkscape:window-width="3696"
     inkscape:window-height="2115"
     id="namedview16"
     showgrid="false"
     fit-margin-top="0"
     fit-margin-left="2"
     fit-margin-right="2"
     fit-margin-bottom="0"
     inkscape:zoom="14.750001"
     inkscape:cx="-1.7675148"
     inkscape:cy="15.535456"
     inkscape:window-x="131"
     inkscape:window-y="2147"
     inkscape:window-maximized="1"
     inkscape:current-layer="svg14" />
  <g
     id="layer101"
     style="fill:#1f8985;stroke:none"
     transform="matrix(0.0200032,0,0,0.01980428,-87.404317,-61.242275)">
    <path
       d="m 9601,10053 c -29,-11 -50,-44 -101,-154 -132,-285 -127,-277 -163,-284 -17,-3 -63,-15 -102,-25 -128,-34 -319,-82 -365,-91 -25,-5 -65,-15 -90,-23 -25,-7 -79,-21 -120,-31 -41,-9 -106,-25 -145,-36 -97,-26 -312,-79 -360,-90 -22,-4 -121,-29 -220,-55 -99,-25 -198,-50 -220,-54 -22,-5 -85,-21 -140,-35 -55,-15 -118,-31 -140,-36 -22,-4 -85,-20 -140,-34 -55,-14 -125,-32 -155,-39 -30,-7 -169,-41 -309,-76 l -254,-64 -21,26 c -11,14 -41,53 -65,87 -29,41 -59,69 -85,82 -42,20 -86,25 -86,10 0,-5 -9,-11 -20,-14 -11,-3 -23,-13 -27,-24 -3,-10 -10,-21 -15,-24 -11,-7 9,-1064 22,-1142 10,-66 26,-86 75,-94 38,-6 93,23 111,58 103,206 129,249 148,249 12,0 75,8 141,19 66,10 170,26 230,35 61,9 157,23 215,32 58,8 137,19 175,24 39,5 113,15 165,24 52,8 149,22 215,31 66,9 174,25 240,35 66,10 174,26 240,35 116,15 253,35 478,70 60,9 111,15 113,13 2,-2 -5,-22 -15,-44 -11,-21 -44,-92 -75,-157 -31,-64 -56,-119 -56,-122 0,-2 -31,-70 -70,-151 -38,-80 -70,-148 -70,-149 0,-2 -22,-50 -49,-107 -27,-56 -63,-134 -81,-173 -17,-38 -72,-156 -121,-261 -49,-105 -89,-198 -89,-208 0,-9 7,-31 16,-47 13,-26 52,-49 242,-141 392,-190 791,-384 1027,-498 83,-40 227,-110 320,-155 94,-45 229,-110 300,-145 72,-35 220,-107 330,-160 372,-181 392,-190 429,-190 42,0 66,21 231,205 59,66 110,120 112,120 3,0 15,-31 27,-70 13,-38 40,-106 61,-150 144,-305 336,-445 608,-445 152,0 245,43 387,177 141,133 202,246 262,488 19,78 22,117 22,295 0,202 0,206 -33,320 -18,63 -42,151 -53,195 -23,95 -58,382 -58,479 v 69 l 92,101 c 51,56 106,116 123,135 16,18 44,47 60,65 17,17 81,89 143,159 116,132 129,157 102,207 -11,20 -66,61 -140,102 -39,22 -424,249 -502,297 -42,25 -497,294 -527,311 -14,8 -42,25 -61,37 -19,11 -51,30 -70,41 -19,11 -132,77 -250,147 -118,70 -224,133 -235,139 -11,6 -85,50 -165,97 -80,48 -164,97 -187,110 -117,67 -330,193 -343,204 -8,7 -35,23 -60,37 -25,13 -56,31 -70,39 -14,9 -128,77 -253,150 -275,162 -279,164 -319,189 -97,59 -128,68 -167,53 z m 2469,-3067 c 0,-13 9,-52 19,-87 10,-35 21,-75 24,-89 2,-14 17,-68 31,-120 65,-233 84,-481 47,-612 -23,-80 -80,-169 -125,-197 -55,-34 -127,-46 -191,-32 -84,19 -149,88 -219,234 -46,94 -126,311 -126,341 0,12 37,54 225,260 6,6 48,53 95,105 47,52 92,102 100,111 113,123 120,128 120,86 z"
       id="path2"
       inkscape:connector-curvature="0" />
    <path
       d="m 5672,9531 c -94,-33 -132,-85 -132,-183 0,-130 51,-241 164,-356 171,-176 373,-273 481,-232 24,9 26,14 23,57 -3,44 -6,49 -41,67 -45,22 -105,98 -141,179 -19,45 -28,87 -36,185 -18,207 -42,260 -132,287 -67,20 -121,19 -186,-4 z"
       id="path4"
       inkscape:connector-curvature="0" />
    <path
       d="m 5267,8816 c -56,-21 -73,-41 -96,-109 -35,-104 -25,-186 31,-244 68,-70 292,-133 474,-133 137,0 259,30 414,102 97,44 119,67 120,121 0,50 -20,57 -173,57 -178,1 -285,32 -403,120 -94,70 -150,92 -244,97 -58,2 -97,-1 -123,-11 z"
       id="path6"
       inkscape:connector-curvature="0" />
    <path
       d="m 6085,8239 c -219,-87 -378,-111 -569,-83 -124,18 -127,18 -183,-1 -110,-38 -153,-99 -153,-218 0,-62 5,-83 31,-135 36,-74 73,-106 141,-127 64,-19 95,-19 179,-1 98,20 333,145 464,246 87,67 207,196 221,237 18,50 18,55 -6,81 -25,27 -59,27 -125,1 z"
       id="path8"
       inkscape:connector-curvature="0" />
  </g>
  <g
     id="layer102"
     style="fill:#606868;stroke:none"
     transform="matrix(0.0200032,0,0,0.01980428,-87.404317,-61.242275)">
    <path
       d="m 9601,10053 c -29,-12 -50,-44 -105,-164 -31,-68 -74,-158 -94,-199 -36,-71 -40,-75 -77,-81 -22,-4 -49,-10 -60,-13 -11,-3 -49,-13 -85,-21 -36,-8 -110,-26 -165,-41 -55,-14 -120,-30 -144,-35 -24,-5 -67,-16 -95,-24 -59,-17 -254,-66 -406,-101 -58,-14 -127,-32 -155,-40 -58,-16 -441,-112 -500,-124 -22,-5 -85,-21 -140,-35 -55,-15 -118,-31 -140,-36 -34,-7 -149,-36 -220,-55 -11,-3 -36,-9 -55,-14 -19,-4 -158,-38 -309,-76 l -274,-68 -21,26 c -49,59 -56,69 -56,74 0,15 -67,81 -98,97 -38,18 -82,23 -82,8 0,-5 -9,-11 -21,-14 -11,-3 -23,-15 -26,-26 -3,-12 -10,-21 -15,-21 -7,0 -8,-64 -4,-187 3,-104 8,-352 11,-553 6,-369 13,-449 40,-476 27,-28 81,-29 118,-4 19,13 38,31 43,41 5,10 35,70 67,133 49,98 62,116 81,116 13,0 63,7 112,16 49,8 123,19 164,24 41,5 89,12 105,15 17,3 41,7 55,10 14,3 48,7 75,10 28,3 93,12 145,20 52,8 160,24 240,35 80,12 174,26 210,31 36,6 99,14 140,19 41,5 86,12 100,14 73,14 152,26 210,31 36,4 68,9 71,11 4,2 31,6 60,9 50,5 138,18 412,60 60,9 111,15 113,13 2,-2 -5,-22 -15,-44 -11,-21 -44,-92 -75,-157 -31,-64 -56,-119 -56,-122 0,-2 -31,-70 -70,-151 -38,-80 -70,-148 -70,-149 0,-2 -25,-57 -55,-122 -31,-65 -62,-131 -70,-148 -20,-44 -84,-183 -154,-331 -33,-72 -61,-138 -61,-148 0,-9 7,-31 16,-47 17,-33 17,-33 919,-469 83,-40 227,-110 320,-155 219,-107 463,-225 640,-309 179,-86 366,-177 385,-187 8,-5 33,-17 55,-27 22,-11 78,-37 125,-60 47,-22 92,-43 100,-47 8,-3 26,-12 40,-20 14,-8 42,-15 63,-15 33,0 45,7 90,53 51,51 189,203 238,260 23,28 25,28 26,7 5,-61 88,-253 158,-360 72,-112 176,-207 275,-251 105,-47 284,-62 392,-34 71,19 161,79 255,169 138,133 196,242 255,481 19,78 22,117 22,295 1,164 -3,216 -16,260 -31,101 -57,194 -73,265 -21,90 -55,380 -55,469 v 69 l 92,101 c 51,56 105,115 120,131 15,17 44,49 65,71 43,47 67,74 176,197 80,90 92,121 67,167 -11,20 -69,63 -130,96 -38,21 -291,170 -404,238 -38,22 -83,50 -102,61 -50,30 -503,298 -533,315 -14,8 -42,25 -61,37 -19,11 -51,30 -70,41 -19,11 -132,77 -250,147 -118,70 -224,133 -235,139 -11,6 -85,50 -165,97 -80,48 -164,97 -187,110 -98,55 -329,193 -343,204 -8,7 -35,23 -60,37 -25,13 -56,31 -70,39 -14,9 -128,77 -253,150 -275,162 -279,164 -319,189 -97,59 -128,68 -167,53 z m 2469,-3067 c 0,-13 9,-52 19,-87 10,-35 21,-75 24,-89 2,-14 17,-68 31,-120 66,-235 85,-480 47,-612 -23,-80 -80,-169 -125,-197 -55,-34 -127,-46 -191,-32 -84,19 -149,88 -219,234 -46,94 -126,311 -126,341 0,4 12,22 26,40 42,49 146,166 179,200 17,17 68,73 115,125 47,52 92,102 100,111 113,123 120,128 120,86 z"
       id="path11"
       inkscape:connector-curvature="0" />
  </g>
</svg>
