<?xml version="1.0" encoding="UTF-8" standalone="no"?>
<svg
   xmlns:dc="http://purl.org/dc/elements/1.1/"
   xmlns:cc="http://creativecommons.org/ns#"
   xmlns:rdf="http://www.w3.org/1999/02/22-rdf-syntax-ns#"
   xmlns:svg="http://www.w3.org/2000/svg"
   xmlns="http://www.w3.org/2000/svg"
   xmlns:sodipodi="http://sodipodi.sourceforge.net/DTD/sodipodi-0.dtd"
   xmlns:inkscape="http://www.inkscape.org/namespaces/inkscape"
   version="1.0"
   width="24.000002"
   height="23.999996"
   viewBox="0 0 187.50002 187.49997"
   preserveAspectRatio="xMidYMid meet"
   id="svg5"
   sodipodi:docname="winter.svg"
   inkscape:version="0.92.4 (5da689c313, 2019-01-14)">
  <metadata
     id="metadata11">
    <rdf:RDF>
      <cc:Work
         rdf:about="">
        <dc:format>image/svg+xml</dc:format>
        <dc:type
           rdf:resource="http://purl.org/dc/dcmitype/StillImage" />
        <dc:title></dc:title>
      </cc:Work>
    </rdf:RDF>
  </metadata>
  <defs
     id="defs9" />
  <sodipodi:namedview
     pagecolor="#ffffff"
     bordercolor="#666666"
     borderopacity="1"
     objecttolerance="10"
     gridtolerance="10"
     guidetolerance="10"
     inkscape:pageopacity="0"
     inkscape:pageshadow="2"
     inkscape:window-width="3696"
     inkscape:window-height="2115"
     id="namedview7"
     showgrid="false"
     fit-margin-top="2"
     fit-margin-left="2"
     fit-margin-right="2"
     fit-margin-bottom="2"
     inkscape:zoom="20.859651"
     inkscape:cx="-1.662036"
     inkscape:cy="5.8726711"
     inkscape:window-x="131"
     inkscape:window-y="2147"
     inkscape:window-maximized="1"
     inkscape:current-layer="svg5" />
  <g
     id="layer101"
     style="fill:#00c3ff;stroke:none"
     transform="matrix(0.01904212,0,0,0.01920933,-58.639268,-59.492976)">
    <path
       d="m 7955,12039 c -48,-12 -88,-48 -115,-104 -18,-38 -20,-62 -20,-274 v -234 l -47,44 c -27,23 -96,88 -154,143 -331,315 -394,373 -423,388 -39,22 -146,24 -184,3 -65,-34 -92,-86 -92,-174 0,-68 30,-121 107,-190 27,-24 82,-76 123,-115 41,-39 118,-112 170,-161 89,-83 140,-131 363,-342 48,-46 97,-85 110,-88 23,-6 24,-9 30,-163 4,-86 7,-223 7,-304 v -148 h -564 c -339,0 -575,-4 -590,-10 -57,-21 -89,-69 -226,-337 l -42,-82 -171,170 -170,170 17,287 c 22,377 41,913 32,945 -16,63 -103,127 -174,127 -83,0 -176,-67 -186,-133 -3,-18 -12,-167 -21,-332 -24,-475 -27,-525 -32,-525 -2,0 -85,81 -185,181 -221,222 -231,229 -315,229 -35,0 -76,-6 -91,-14 -85,-44 -126,-162 -86,-247 9,-19 114,-132 233,-251 213,-215 215,-218 181,-218 -19,0 -100,-5 -180,-10 -80,-5 -272,-15 -428,-20 -273,-10 -285,-12 -322,-35 -66,-42 -85,-79 -85,-166 0,-67 3,-80 28,-112 37,-48 97,-77 161,-77 28,0 168,6 311,14 143,8 384,20 535,26 151,6 295,16 319,21 l 45,10 198,-198 197,-197 -18,-30 c -10,-17 -47,-85 -81,-151 -35,-66 -66,-124 -70,-130 -4,-5 -38,-68 -75,-140 -38,-71 -114,-215 -170,-320 -56,-104 -132,-246 -168,-315 -36,-69 -79,-150 -95,-180 l -30,-55 -220,-3 -220,-2 -7,37 c -6,33 -56,87 -403,435 -218,219 -411,405 -428,413 -45,21 -131,19 -174,-4 -19,-10 -48,-35 -64,-55 -28,-34 -30,-44 -30,-110 0,-63 3,-78 25,-107 15,-19 151,-160 304,-314 l 278,-280 -280,-5 -281,-5 -38,-30 c -51,-42 -74,-89 -74,-153 0,-64 28,-118 79,-153 34,-24 38,-24 352,-29 l 318,-5 -76,-80 c -41,-44 -101,-107 -132,-140 -49,-52 -314,-333 -423,-450 -57,-60 -72,-138 -44,-218 13,-35 43,-67 90,-94 28,-17 129,-16 169,1 32,14 88,69 337,335 74,79 149,158 165,175 26,26 266,281 387,411 21,22 38,43 38,48 0,4 92,7 204,7 h 205 l 19,-27 c 10,-16 21,-32 23,-38 2,-5 37,-66 78,-135 137,-231 276,-465 287,-485 6,-11 67,-114 136,-230 68,-115 137,-233 152,-260 l 29,-50 -248,-247 -247,-246 -222,-5 c -121,-4 -406,-10 -631,-16 -393,-9 -412,-10 -450,-31 -60,-33 -88,-73 -93,-136 -7,-82 4,-118 49,-162 27,-28 54,-43 83,-50 41,-8 432,-2 756,12 l 125,6 -185,-188 c -102,-103 -191,-197 -198,-209 -20,-37 -15,-127 9,-170 30,-54 38,-62 83,-84 48,-23 110,-25 159,-4 22,9 112,90 228,205 106,105 193,189 195,188 1,-2 8,-215 14,-473 9,-390 13,-476 27,-505 68,-151 284,-146 349,8 14,33 14,97 -1,666 -8,345 -20,636 -25,646 -7,14 29,55 203,228 117,116 216,212 222,213 8,1 98,-143 163,-261 67,-122 148,-221 196,-239 18,-7 194,-11 502,-11 h 474 v -348 -347 l -24,-15 c -21,-13 -201,-178 -322,-295 -22,-22 -106,-101 -185,-175 -273,-255 -324,-304 -355,-336 -91,-96 -61,-246 60,-305 74,-35 153,-20 221,42 68,63 128,118 270,253 82,77 188,177 235,221 47,44 88,84 92,90 4,5 8,-89 8,-211 0,-249 7,-277 77,-331 33,-25 45,-28 113,-28 67,0 81,3 111,26 19,15 45,46 57,70 20,41 22,60 25,256 l 2,212 51,-47 c 81,-75 271,-247 498,-451 38,-34 87,-71 109,-82 124,-59 267,31 267,169 0,77 -21,112 -119,200 -47,42 -88,80 -91,83 -4,5 -275,249 -354,319 -15,14 -51,46 -80,72 -28,27 -104,94 -168,150 l -117,103 -1,353 v 352 h 498 c 483,0 564,5 598,33 59,47 114,118 186,238 46,76 86,138 89,139 3,0 83,-77 178,-172 l 171,-171 v -76 c 0,-42 -5,-329 -11,-639 -13,-573 -13,-564 20,-632 4,-8 25,-28 45,-45 34,-27 44,-30 110,-30 64,0 77,3 108,27 20,15 47,45 60,65 l 23,38 5,452 c 3,248 8,454 11,457 3,3 84,-73 180,-169 96,-96 184,-179 197,-184 30,-14 158,-14 183,0 88,46 125,169 78,256 -11,21 -105,124 -210,228 l -189,190 475,3 c 305,1 475,6 475,12 0,6 8,10 19,10 28,0 90,69 97,108 4,18 4,60 2,93 -4,54 -8,65 -39,94 -74,69 -30,65 -737,65 -403,0 -642,-4 -648,-10 -6,-6 -77,58 -203,184 l -194,194 57,99 c 31,54 135,228 231,386 95,159 176,294 180,300 3,7 11,21 18,32 7,11 50,83 97,160 47,77 92,152 100,166 8,15 35,61 60,103 l 45,76 h 130 130 l 20,-28 c 18,-26 53,-59 221,-212 33,-30 80,-73 105,-95 24,-23 98,-90 164,-150 161,-147 197,-180 274,-251 183,-170 205,-184 286,-184 62,0 97,14 136,57 40,43 49,66 49,130 0,48 -6,68 -29,104 -15,25 -41,56 -57,68 -16,13 -54,46 -85,74 -94,87 -361,331 -413,377 -15,14 -49,44 -74,68 l -46,42 h 297 c 191,0 297,4 297,10 0,6 9,10 19,10 28,0 83,63 98,112 26,84 -9,174 -87,223 l -40,25 h -282 l -283,1 165,160 c 91,88 227,219 304,292 150,143 176,183 176,266 0,59 -18,97 -67,142 -37,33 -41,34 -118,34 -69,0 -85,-3 -110,-23 -31,-24 -457,-436 -740,-714 l -160,-158 h -166 -165 l -21,38 c -11,20 -37,66 -58,102 -43,74 -34,59 -190,325 -65,110 -142,241 -170,290 -29,50 -113,194 -187,321 l -135,232 161,161 161,160 325,11 c 760,25 1046,38 1074,49 38,15 82,59 95,94 6,16 11,54 11,85 0,67 -20,106 -76,148 l -38,29 -220,-3 c -122,-1 -342,-7 -489,-13 -148,-6 -271,-9 -273,-6 -3,3 92,101 210,218 228,226 256,263 256,342 0,135 -149,229 -271,171 -19,-9 -128,-110 -242,-223 -115,-113 -211,-208 -214,-211 -3,-3 -3,36 0,85 13,177 29,767 22,801 -7,38 -62,99 -102,115 -33,12 -125,11 -159,-2 -36,-13 -92,-76 -98,-109 -7,-36 -56,-1108 -56,-1218 v -63 l -139,-139 -140,-139 -19,32 c -11,18 -29,48 -40,67 -97,176 -155,261 -195,288 -96,66 -58,62 -607,62 h -500 v 294 294 l 23,6 c 31,7 833,820 858,868 39,76 15,181 -54,238 -25,20 -44,25 -101,28 -39,2 -82,-1 -95,-6 -14,-5 -161,-146 -328,-313 l -303,-304 v 253 c 0,270 -2,282 -52,328 -13,11 -32,26 -43,31 -31,17 -106,23 -150,12 z M 7830,9202 v -737 l -569,570 -569,570 38,70 c 20,39 59,111 85,160 26,50 51,95 55,100 6,6 176,9 484,7 l 476,-2 z m 1259,699 c 12,-16 21,-32 21,-36 0,-4 8,-19 19,-33 10,-15 29,-47 43,-72 14,-25 42,-74 62,-108 20,-35 36,-67 36,-70 0,-4 -238,-246 -530,-537 l -530,-530 v 708 707 h 429 430 z M 7144,8212 c -216,-1 -573,-1 -793,0 l -401,3 81,150 c 82,153 142,266 232,435 27,52 76,142 107,200 32,58 59,110 61,115 2,6 20,39 38,74 l 35,63 517,-518 516,-519 z m 2485,766 c 78,-134 147,-250 151,-258 18,-28 242,-415 266,-457 13,-23 24,-44 24,-47 0,-3 -366,-6 -812,-6 h -813 l 515,509 c 283,280 518,507 521,505 3,-1 69,-112 148,-246 z M 7055,7370 c -258,-258 -472,-470 -475,-470 -3,0 -43,66 -90,146 -47,80 -90,153 -95,162 -6,9 -21,35 -33,57 -12,22 -32,56 -45,76 -52,84 -287,488 -287,493 0,4 336,6 747,6 h 748 z m 3062,456 c 1,-1 -40,-74 -92,-161 -52,-88 -95,-161 -95,-162 0,-1 -22,-37 -49,-80 -26,-43 -121,-201 -210,-350 -90,-150 -166,-273 -169,-273 -4,0 -241,234 -527,520 l -520,520 830,-6 c 457,-4 831,-8 832,-8 z M 7830,6855 v -735 h -398 -398 l -22,43 c -12,23 -69,121 -127,217 l -104,175 522,517 c 287,285 523,518 525,518 1,0 2,-331 2,-735 z m 1460,-416 c 0,-10 -4,-20 -9,-23 -4,-3 -46,-69 -91,-146 l -83,-140 h -449 -448 v 704 705 l 540,-541 c 305,-306 540,-549 540,-559 z"
       id="path2"
       inkscape:connector-curvature="0" />
  </g>
</svg>
